  0
SECTION
  2
HEADER
  9
$ACADVER
  1
AC1009
  0
ENDSEC
  0
SECTION
  2
ENTITIES
  0
POLYLINE
  5
90
  8
Layer_0
  62
0
  70
1
  66
1
  10
0
  20
0
  30
0
  0
VERTEX
  5
90
  8
Layer_0
  10
198.8689
  20
254.90964
  0
VERTEX
  5
91
  8
Layer_0
  10
198.87021
  20
254.85817
  0
VERTEX
  5
92
  8
Layer_0
  10
198.89911
  20
254.66476
  0
VERTEX
  5
93
  8
Layer_0
  10
198.96289
  20
254.48566
  0
VERTEX
  5
94
  8
Layer_0
  10
199.0578
  20
254.32437
  0
VERTEX
  5
95
  8
Layer_0
  10
199.18011
  20
254.18448
  0
VERTEX
  5
96
  8
Layer_0
  10
199.32611
  20
254.06952
  0
VERTEX
  5
97
  8
Layer_0
  10
199.49207
  20
253.98302
  0
VERTEX
  5
98
  8
Layer_0
  10
199.67419
  20
253.92856
  0
VERTEX
  5
99
  8
Layer_0
  10
199.86884
  20
253.90964
  0
VERTEX
  5
9a
  8
Layer_0
  10
211.86884
  20
253.90964
  0
VERTEX
  5
9b
  8
Layer_0
  10
212.06485
  20
253.92903
  0
VERTEX
  5
9c
  8
Layer_0
  10
212.25153
  20
253.98575
  0
VERTEX
  5
9d
  8
Layer_0
  10
212.42365
  20
254.07762
  0
VERTEX
  5
9e
  8
Layer_0
  10
212.57596
  20
254.2025
  0
VERTEX
  5
9f
  8
Layer_0
  10
212.70087
  20
254.35477
  0
VERTEX
  5
a0
  8
Layer_0
  10
212.79276
  20
254.5269
  0
VERTEX
  5
a1
  8
Layer_0
  10
212.84949
  20
254.71361
  0
VERTEX
  5
a2
  8
Layer_0
  10
212.86884
  20
254.90964
  0
VERTEX
  5
a3
  8
Layer_0
  10
212.86884
  20
266.90964
  0
VERTEX
  5
a4
  8
Layer_0
  10
212.84949
  20
267.10565
  0
VERTEX
  5
a5
  8
Layer_0
  10
212.79272
  20
267.29233
  0
VERTEX
  5
a6
  8
Layer_0
  10
212.70087
  20
267.46445
  0
VERTEX
  5
a7
  8
Layer_0
  10
212.57599
  20
267.61676
  0
VERTEX
  5
a8
  8
Layer_0
  10
212.52155
  20
267.66733
  0
VERTEX
  5
a9
  8
Layer_0
  10
212.37668
  20
267.77118
  0
VERTEX
  5
aa
  8
Layer_0
  10
212.21698
  20
267.84714
  0
VERTEX
  5
ab
  8
Layer_0
  10
212.04639
  20
267.8938
  0
VERTEX
  5
ac
  8
Layer_0
  10
211.86884
  20
267.90964
  0
VERTEX
  5
ad
  8
Layer_0
  10
199.86884
  20
267.90964
  0
VERTEX
  5
ae
  8
Layer_0
  10
199.81738
  20
267.90833
  0
VERTEX
  5
af
  8
Layer_0
  10
199.62396
  20
267.87943
  0
VERTEX
  5
b0
  8
Layer_0
  10
199.44489
  20
267.81564
  0
VERTEX
  5
b1
  8
Layer_0
  10
199.2836
  20
267.7207
  0
VERTEX
  5
b2
  8
Layer_0
  10
199.14371
  20
267.59839
  0
VERTEX
  5
b3
  8
Layer_0
  10
199.02875
  20
267.45239
  0
VERTEX
  5
b4
  8
Layer_0
  10
198.94223
  20
267.28644
  0
VERTEX
  5
b5
  8
Layer_0
  10
198.88776
  20
267.10428
  0
VERTEX
  5
b6
  8
Layer_0
  10
198.86884
  20
266.90964
  0
VERTEX
  5
b7
  8
Layer_0
  10
198.8689
  20
254.90964
  0
SEQEND
  0
POLYLINE
  5
b9
  8
Layer_0
  62
0
  70
1
  66
1
  10
0
  20
0
  30
0
  0
VERTEX
  5
b9
  8
Layer_0
  10
312.88141
  20
305.00964
  0
VERTEX
  5
ba
  8
Layer_0
  10
312.88141
  20
293.00964
  0
VERTEX
  5
bb
  8
Layer_0
  10
312.86203
  20
292.81366
  0
VERTEX
  5
bc
  8
Layer_0
  10
312.80533
  20
292.62695
  0
VERTEX
  5
bd
  8
Layer_0
  10
312.71344
  20
292.45483
  0
VERTEX
  5
be
  8
Layer_0
  10
312.5885
  20
292.30255
  0
VERTEX
  5
bf
  8
Layer_0
  10
312.43622
  20
292.17764
  0
VERTEX
  5
c0
  8
Layer_0
  10
312.2641
  20
292.08575
  0
VERTEX
  5
c1
  8
Layer_0
  10
312.07739
  20
292.02899
  0
VERTEX
  5
c2
  8
Layer_0
  10
311.88141
  20
292.00964
  0
VERTEX
  5
c3
  8
Layer_0
  10
299.88141
  20
292.00964
  0
VERTEX
  5
c4
  8
Layer_0
  10
299.68677
  20
292.02853
  0
VERTEX
  5
c5
  8
Layer_0
  10
299.50464
  20
292.08301
  0
VERTEX
  5
c6
  8
Layer_0
  10
299.33868
  20
292.16949
  0
VERTEX
  5
c7
  8
Layer_0
  10
299.19266
  20
292.28448
  0
VERTEX
  5
c8
  8
Layer_0
  10
299.07031
  20
292.42438
  0
VERTEX
  5
c9
  8
Layer_0
  10
298.9754
  20
292.58566
  0
VERTEX
  5
ca
  8
Layer_0
  10
298.91162
  20
292.76477
  0
VERTEX
  5
cb
  8
Layer_0
  10
298.88272
  20
292.95819
  0
VERTEX
  5
cc
  8
Layer_0
  10
298.88141
  20
293.00964
  0
VERTEX
  5
cd
  8
Layer_0
  10
298.88141
  20
305.00964
  0
VERTEX
  5
ce
  8
Layer_0
  10
298.90033
  20
305.20432
  0
VERTEX
  5
cf
  8
Layer_0
  10
298.9548
  20
305.38647
  0
VERTEX
  5
d0
  8
Layer_0
  10
299.04132
  20
305.55243
  0
VERTEX
  5
d1
  8
Layer_0
  10
299.15625
  20
305.69843
  0
VERTEX
  5
d2
  8
Layer_0
  10
299.29611
  20
305.82077
  0
VERTEX
  5
d3
  8
Layer_0
  10
299.4574
  20
305.91571
  0
VERTEX
  5
d4
  8
Layer_0
  10
299.63654
  20
305.97949
  0
VERTEX
  5
d5
  8
Layer_0
  10
299.82993
  20
306.00836
  0
VERTEX
  5
d6
  8
Layer_0
  10
299.88141
  20
306.0097
  0
VERTEX
  5
d7
  8
Layer_0
  10
311.90622
  20
306.00934
  0
VERTEX
  5
d8
  8
Layer_0
  10
312.09552
  20
305.98645
  0
VERTEX
  5
d9
  8
Layer_0
  10
312.27551
  20
305.92871
  0
VERTEX
  5
da
  8
Layer_0
  10
312.44144
  20
305.83817
  0
VERTEX
  5
db
  8
Layer_0
  10
312.58853
  20
305.7168
  0
VERTEX
  5
dc
  8
Layer_0
  10
312.71344
  20
305.56448
  0
VERTEX
  5
dd
  8
Layer_0
  10
312.8053
  20
305.39233
  0
VERTEX
  5
de
  8
Layer_0
  10
312.862
  20
305.20566
  0
VERTEX
  5
df
  8
Layer_0
  10
312.88141
  20
305.00964
  0
SEQEND
  0
POLYLINE
  5
e1
  8
Layer_0
  62
0
  70
1
  66
1
  10
0
  20
0
  30
0
  0
VERTEX
  5
e1
  8
Layer_0
  10
442.85022
  20
215.80957
  0
VERTEX
  5
e2
  8
Layer_0
  10
443.05176
  20
215.82993
  0
VERTEX
  5
e3
  8
Layer_0
  10
443.23953
  20
215.88818
  0
VERTEX
  5
e4
  8
Layer_0
  10
443.40942
  20
215.98041
  0
VERTEX
  5
e5
  8
Layer_0
  10
443.55743
  20
216.10251
  0
VERTEX
  5
e6
  8
Layer_0
  10
443.6795
  20
216.25052
  0
VERTEX
  5
e7
  8
Layer_0
  10
443.77173
  20
216.42035
  0
VERTEX
  5
e8
  8
Layer_0
  10
443.82996
  20
216.60806
  0
VERTEX
  5
e9
  8
Layer_0
  10
443.85022
  20
216.8096
  0
VERTEX
  5
ea
  8
Layer_0
  10
443.85022
  20
228.80963
  0
VERTEX
  5
eb
  8
Layer_0
  10
443.83118
  20
229.00568
  0
VERTEX
  5
ec
  8
Layer_0
  10
443.77444
  20
229.19238
  0
VERTEX
  5
ed
  8
Layer_0
  10
443.68237
  20
229.36447
  0
VERTEX
  5
ee
  8
Layer_0
  10
443.55731
  20
229.51672
  0
VERTEX
  5
ef
  8
Layer_0
  10
443.52139
  20
229.5509
  0
VERTEX
  5
f0
  8
Layer_0
  10
443.44516
  20
229.6134
  0
VERTEX
  5
f1
  8
Layer_0
  10
443.30963
  20
229.69766
  0
VERTEX
  5
f2
  8
Layer_0
  10
443.16339
  20
229.75903
  0
VERTEX
  5
f3
  8
Layer_0
  10
443.00928
  20
229.79663
  0
VERTEX
  5
f4
  8
Layer_0
  10
442.85022
  20
229.80963
  0
VERTEX
  5
f5
  8
Layer_0
  10
428.46896
  20
229.80963
  0
VERTEX
  5
f6
  8
Layer_0
  10
428.39468
  20
229.80685
  0
VERTEX
  5
f7
  8
Layer_0
  10
428.21881
  20
229.77795
  0
VERTEX
  5
f8
  8
Layer_0
  10
428.05219
  20
229.71875
  0
VERTEX
  5
f9
  8
Layer_0
  10
427.89862
  20
229.63104
  0
VERTEX
  5
fa
  8
Layer_0
  10
427.76184
  20
229.51672
  0
VERTEX
  5
fb
  8
Layer_0
  10
427.72763
  20
229.4808
  0
VERTEX
  5
fc
  8
Layer_0
  10
427.71271
  20
229.46124
  0
VERTEX
  5
fd
  8
Layer_0
  10
427.6954
  20
229.44339
  0
VERTEX
  5
fe
  8
Layer_0
  10
427.68005
  20
229.42413
  0
VERTEX
  5
ff
  8
Layer_0
  10
427.62363
  20
229.34387
  0
VERTEX
  5
100
  8
Layer_0
  10
427.55688
  20
229.21951
  0
VERTEX
  5
101
  8
Layer_0
  10
427.50848
  20
229.08768
  0
VERTEX
  5
102
  8
Layer_0
  10
427.47897
  20
228.95038
  0
VERTEX
  5
103
  8
Layer_0
  10
427.46896
  20
228.80963
  0
VERTEX
  5
104
  8
Layer_0
  10
427.4693
  20
216.78479
  0
VERTEX
  5
105
  8
Layer_0
  10
427.49194
  20
216.5954
  0
VERTEX
  5
106
  8
Layer_0
  10
427.54962
  20
216.41537
  0
VERTEX
  5
107
  8
Layer_0
  10
427.64026
  20
216.24948
  0
VERTEX
  5
108
  8
Layer_0
  10
427.76181
  20
216.10248
  0
VERTEX
  5
109
  8
Layer_0
  10
427.81628
  20
216.05191
  0
VERTEX
  5
10a
  8
Layer_0
  10
427.89389
  20
215.99142
  0
VERTEX
  5
10b
  8
Layer_0
  10
428.026
  20
215.91327
  0
VERTEX
  5
10c
  8
Layer_0
  10
428.16754
  20
215.85629
  0
VERTEX
  5
10d
  8
Layer_0
  10
428.31601
  20
215.82141
  0
VERTEX
  5
10e
  8
Layer_0
  10
428.46896
  20
215.8096
  0
VERTEX
  5
10f
  8
Layer_0
  10
442.85022
  20
215.80957
  0
SEQEND
  0
POLYLINE
  5
111
  8
Layer_0
  62
0
  70
1
  66
1
  10
0
  20
0
  30
0
  0
VERTEX
  5
111
  8
Layer_0
  10
417.65643
  20
285.95966
  0
VERTEX
  5
112
  8
Layer_0
  10
417.65643
  20
273.95966
  0
VERTEX
  5
113
  8
Layer_0
  10
417.63705
  20
273.76364
  0
VERTEX
  5
114
  8
Layer_0
  10
417.58035
  20
273.57693
  0
VERTEX
  5
115
  8
Layer_0
  10
417.48846
  20
273.40482
  0
VERTEX
  5
116
  8
Layer_0
  10
417.36359
  20
273.2525
  0
VERTEX
  5
117
  8
Layer_0
  10
417.2114
  20
273.12744
  0
VERTEX
  5
118
  8
Layer_0
  10
417.03925
  20
273.03549
  0
VERTEX
  5
119
  8
Layer_0
  10
416.85248
  20
272.97885
  0
VERTEX
  5
11a
  8
Layer_0
  10
416.65643
  20
272.95966
  0
VERTEX
  5
11b
  8
Layer_0
  10
404.65643
  20
272.95966
  0
VERTEX
  5
11c
  8
Layer_0
  10
404.46185
  20
272.97858
  0
VERTEX
  5
11d
  8
Layer_0
  10
404.27972
  20
273.03308
  0
VERTEX
  5
11e
  8
Layer_0
  10
404.1138
  20
273.11957
  0
VERTEX
  5
11f
  8
Layer_0
  10
403.96786
  20
273.23456
  0
VERTEX
  5
120
  8
Layer_0
  10
403.84558
  20
273.37442
  0
VERTEX
  5
121
  8
Layer_0
  10
403.75067
  20
273.53571
  0
VERTEX
  5
122
  8
Layer_0
  10
403.68683
  20
273.71481
  0
VERTEX
  5
123
  8
Layer_0
  10
403.65784
  20
273.9082
  0
VERTEX
  5
124
  8
Layer_0
  10
403.65652
  20
273.95966
  0
VERTEX
  5
125
  8
Layer_0
  10
403.65643
  20
285.95966
  0
VERTEX
  5
126
  8
Layer_0
  10
403.67542
  20
286.15427
  0
VERTEX
  5
127
  8
Layer_0
  10
403.72995
  20
286.3364
  0
VERTEX
  5
128
  8
Layer_0
  10
403.81647
  20
286.50232
  0
VERTEX
  5
129
  8
Layer_0
  10
403.93143
  20
286.64828
  0
VERTEX
  5
12a
  8
Layer_0
  10
404.07132
  20
286.7706
  0
VERTEX
  5
12b
  8
Layer_0
  10
404.23254
  20
286.86554
  0
VERTEX
  5
12c
  8
Layer_0
  10
404.41162
  20
286.92935
  0
VERTEX
  5
12d
  8
Layer_0
  10
404.60498
  20
286.95831
  0
VERTEX
  5
12e
  8
Layer_0
  10
404.65643
  20
286.95963
  0
VERTEX
  5
12f
  8
Layer_0
  10
416.65643
  20
286.95966
  0
VERTEX
  5
130
  8
Layer_0
  10
416.70593
  20
286.95844
  0
VERTEX
  5
131
  8
Layer_0
  10
416.75531
  20
286.95477
  0
VERTEX
  5
132
  8
Layer_0
  10
416.92435
  20
286.92307
  0
VERTEX
  5
133
  8
Layer_0
  10
417.08435
  20
286.86343
  0
VERTEX
  5
134
  8
Layer_0
  10
417.2319
  20
286.77747
  0
VERTEX
  5
135
  8
Layer_0
  10
417.36359
  20
286.66678
  0
VERTEX
  5
136
  8
Layer_0
  10
417.48853
  20
286.51453
  0
VERTEX
  5
137
  8
Layer_0
  10
417.58044
  20
286.34238
  0
VERTEX
  5
138
  8
Layer_0
  10
417.63712
  20
286.15567
  0
VERTEX
  5
139
  8
Layer_0
  10
417.65643
  20
285.95966
  0
SEQEND
  0
POLYLINE
  5
13b
  8
Layer_0
  62
0
  70
1
  66
1
  10
0
  20
0
  30
0
  0
VERTEX
  5
13b
  8
Layer_0
  10
384.31894
  20
266.90964
  0
VERTEX
  5
13c
  8
Layer_0
  10
384.31894
  20
254.90964
  0
VERTEX
  5
13d
  8
Layer_0
  10
384.302
  20
254.72594
  0
VERTEX
  5
13e
  8
Layer_0
  10
384.25214
  20
254.54991
  0
VERTEX
  5
13f
  8
Layer_0
  10
384.17102
  20
254.38596
  0
VERTEX
  5
140
  8
Layer_0
  10
384.0603
  20
254.2384
  0
VERTEX
  5
141
  8
Layer_0
  10
384.02609
  20
254.20247
  0
VERTEX
  5
142
  8
Layer_0
  10
383.87366
  20
254.07776
  0
VERTEX
  5
143
  8
Layer_0
  10
383.70154
  20
253.98595
  0
VERTEX
  5
144
  8
Layer_0
  10
383.51492
  20
253.92918
  0
VERTEX
  5
145
  8
Layer_0
  10
383.31894
  20
253.90964
  0
VERTEX
  5
146
  8
Layer_0
  10
371.31891
  20
253.90964
  0
VERTEX
  5
147
  8
Layer_0
  10
371.12427
  20
253.92853
  0
VERTEX
  5
148
  8
Layer_0
  10
370.94214
  20
253.983
  0
VERTEX
  5
149
  8
Layer_0
  10
370.77618
  20
254.06949
  0
VERTEX
  5
14a
  8
Layer_0
  10
370.63019
  20
254.18446
  0
VERTEX
  5
14b
  8
Layer_0
  10
370.50787
  20
254.32437
  0
VERTEX
  5
14c
  8
Layer_0
  10
370.41296
  20
254.48564
  0
VERTEX
  5
14d
  8
Layer_0
  10
370.34912
  20
254.66476
  0
VERTEX
  5
14e
  8
Layer_0
  10
370.32019
  20
254.85817
  0
VERTEX
  5
14f
  8
Layer_0
  10
370.31891
  20
254.90964
  0
VERTEX
  5
150
  8
Layer_0
  10
370.31891
  20
266.90964
  0
VERTEX
  5
151
  8
Layer_0
  10
370.33789
  20
267.10425
  0
VERTEX
  5
152
  8
Layer_0
  10
370.39243
  20
267.28635
  0
VERTEX
  5
153
  8
Layer_0
  10
370.47894
  20
267.45227
  0
VERTEX
  5
154
  8
Layer_0
  10
370.5939
  20
267.59824
  0
VERTEX
  5
155
  8
Layer_0
  10
370.7338
  20
267.72055
  0
VERTEX
  5
156
  8
Layer_0
  10
370.89502
  20
267.81549
  0
VERTEX
  5
157
  8
Layer_0
  10
371.0741
  20
267.87933
  0
VERTEX
  5
158
  8
Layer_0
  10
371.26746
  20
267.90833
  0
VERTEX
  5
159
  8
Layer_0
  10
371.31891
  20
267.90964
  0
VERTEX
  5
15a
  8
Layer_0
  10
383.31894
  20
267.90964
  0
VERTEX
  5
15b
  8
Layer_0
  10
383.41742
  20
267.90497
  0
VERTEX
  5
15c
  8
Layer_0
  10
383.51495
  20
267.89026
  0
VERTEX
  5
15d
  8
Layer_0
  10
383.65686
  20
267.85077
  0
VERTEX
  5
15e
  8
Layer_0
  10
383.79074
  20
267.79129
  0
VERTEX
  5
15f
  8
Layer_0
  10
383.91452
  20
267.71292
  0
VERTEX
  5
160
  8
Layer_0
  10
384.02603
  20
267.61676
  0
VERTEX
  5
161
  8
Layer_0
  10
384.15091
  20
267.46448
  0
VERTEX
  5
162
  8
Layer_0
  10
384.24277
  20
267.29236
  0
VERTEX
  5
163
  8
Layer_0
  10
384.2995
  20
267.10565
  0
VERTEX
  5
164
  8
Layer_0
  10
384.31894
  20
266.90964
  0
SEQEND
  0
POLYLINE
  5
166
  8
Layer_0
  62
0
  70
1
  66
1
  10
0
  20
0
  30
0
  0
VERTEX
  5
166
  8
Layer_0
  10
398.60645
  20
285.95966
  0
VERTEX
  5
167
  8
Layer_0
  10
398.60645
  20
273.95966
  0
VERTEX
  5
168
  8
Layer_0
  10
398.5896
  20
273.77597
  0
VERTEX
  5
169
  8
Layer_0
  10
398.53967
  20
273.59998
  0
VERTEX
  5
16a
  8
Layer_0
  10
398.4585
  20
273.436
  0
VERTEX
  5
16b
  8
Layer_0
  10
398.34778
  20
273.28845
  0
VERTEX
  5
16c
  8
Layer_0
  10
398.3136
  20
273.2525
  0
VERTEX
  5
16d
  8
Layer_0
  10
398.17172
  20
273.13461
  0
VERTEX
  5
16e
  8
Layer_0
  10
398.01196
  20
273.04547
  0
VERTEX
  5
16f
  8
Layer_0
  10
397.83862
  20
272.98694
  0
VERTEX
  5
170
  8
Layer_0
  10
397.65604
  20
272.96088
  0
VERTEX
  5
171
  8
Layer_0
  10
385.60645
  20
272.95966
  0
VERTEX
  5
172
  8
Layer_0
  10
385.41656
  20
272.97778
  0
VERTEX
  5
173
  8
Layer_0
  10
385.23523
  20
273.03107
  0
VERTEX
  5
174
  8
Layer_0
  10
385.06714
  20
273.11749
  0
VERTEX
  5
175
  8
Layer_0
  10
384.91711
  20
273.2352
  0
VERTEX
  5
176
  8
Layer_0
  10
384.89932
  20
273.25253
  0
VERTEX
  5
177
  8
Layer_0
  10
384.77795
  20
273.39963
  0
VERTEX
  5
178
  8
Layer_0
  10
384.68738
  20
273.56552
  0
VERTEX
  5
179
  8
Layer_0
  10
384.62964
  20
273.74548
  0
VERTEX
  5
17a
  8
Layer_0
  10
384.60672
  20
273.93481
  0
VERTEX
  5
17b
  8
Layer_0
  10
384.60645
  20
285.95966
  0
VERTEX
  5
17c
  8
Layer_0
  10
384.62534
  20
286.15427
  0
VERTEX
  5
17d
  8
Layer_0
  10
384.67981
  20
286.33643
  0
VERTEX
  5
17e
  8
Layer_0
  10
384.7663
  20
286.50238
  0
VERTEX
  5
17f
  8
Layer_0
  10
384.88129
  20
286.64838
  0
VERTEX
  5
180
  8
Layer_0
  10
385.02118
  20
286.77069
  0
VERTEX
  5
181
  8
Layer_0
  10
385.18246
  20
286.86563
  0
VERTEX
  5
182
  8
Layer_0
  10
385.36157
  20
286.92941
  0
VERTEX
  5
183
  8
Layer_0
  10
385.55499
  20
286.95831
  0
VERTEX
  5
184
  8
Layer_0
  10
385.60645
  20
286.95966
  0
VERTEX
  5
185
  8
Layer_0
  10
397.60645
  20
286.95966
  0
VERTEX
  5
186
  8
Layer_0
  10
397.65765
  20
286.95844
  0
VERTEX
  5
187
  8
Layer_0
  10
397.70868
  20
286.95447
  0
VERTEX
  5
188
  8
Layer_0
  10
397.89374
  20
286.91776
  0
VERTEX
  5
189
  8
Layer_0
  10
398.06421
  20
286.84909
  0
VERTEX
  5
18a
  8
Layer_0
  10
398.21692
  20
286.75192
  0
VERTEX
  5
18b
  8
Layer_0
  10
398.34888
  20
286.62973
  0
VERTEX
  5
18c
  8
Layer_0
  10
398.45691
  20
286.48596
  0
VERTEX
  5
18d
  8
Layer_0
  10
398.53796
  20
286.32407
  0
VERTEX
  5
18e
  8
Layer_0
  10
398.58881
  20
286.14746
  0
VERTEX
  5
18f
  8
Layer_0
  10
398.60645
  20
285.95966
  0
SEQEND
  0
POLYLINE
  5
191
  8
Layer_0
  62
0
  70
1
  66
1
  10
0
  20
0
  30
0
  0
VERTEX
  5
191
  8
Layer_0
  10
227.15634
  20
285.95966
  0
VERTEX
  5
192
  8
Layer_0
  10
227.15634
  20
273.95966
  0
VERTEX
  5
193
  8
Layer_0
  10
227.13696
  20
273.76364
  0
VERTEX
  5
194
  8
Layer_0
  10
227.08026
  20
273.57697
  0
VERTEX
  5
195
  8
Layer_0
  10
226.98834
  20
273.40485
  0
VERTEX
  5
196
  8
Layer_0
  10
226.86349
  20
273.2525
  0
VERTEX
  5
197
  8
Layer_0
  10
226.71118
  20
273.12759
  0
VERTEX
  5
198
  8
Layer_0
  10
226.53906
  20
273.03571
  0
VERTEX
  5
199
  8
Layer_0
  10
226.35236
  20
272.97897
  0
VERTEX
  5
19a
  8
Layer_0
  10
226.15634
  20
272.95963
  0
VERTEX
  5
19b
  8
Layer_0
  10
214.15634
  20
272.95966
  0
VERTEX
  5
19c
  8
Layer_0
  10
213.96649
  20
272.97778
  0
VERTEX
  5
19d
  8
Layer_0
  10
213.78516
  20
273.03107
  0
VERTEX
  5
19e
  8
Layer_0
  10
213.61707
  20
273.11749
  0
VERTEX
  5
19f
  8
Layer_0
  10
213.46701
  20
273.23517
  0
VERTEX
  5
1a0
  8
Layer_0
  10
213.44922
  20
273.25253
  0
VERTEX
  5
1a1
  8
Layer_0
  10
213.32782
  20
273.3996
  0
VERTEX
  5
1a2
  8
Layer_0
  10
213.23724
  20
273.56549
  0
VERTEX
  5
1a3
  8
Layer_0
  10
213.1795
  20
273.74548
  0
VERTEX
  5
1a4
  8
Layer_0
  10
213.15662
  20
273.93481
  0
VERTEX
  5
1a5
  8
Layer_0
  10
213.15634
  20
285.95966
  0
VERTEX
  5
1a6
  8
Layer_0
  10
213.17526
  20
286.15427
  0
VERTEX
  5
1a7
  8
Layer_0
  10
213.22977
  20
286.33643
  0
VERTEX
  5
1a8
  8
Layer_0
  10
213.31628
  20
286.50235
  0
VERTEX
  5
1a9
  8
Layer_0
  10
213.43124
  20
286.64838
  0
VERTEX
  5
1aa
  8
Layer_0
  10
213.57114
  20
286.77069
  0
VERTEX
  5
1ab
  8
Layer_0
  10
213.73239
  20
286.86563
  0
VERTEX
  5
1ac
  8
Layer_0
  10
213.9115
  20
286.92941
  0
VERTEX
  5
1ad
  8
Layer_0
  10
214.10489
  20
286.95831
  0
VERTEX
  5
1ae
  8
Layer_0
  10
214.15634
  20
286.95963
  0
VERTEX
  5
1af
  8
Layer_0
  10
226.15634
  20
286.95966
  0
VERTEX
  5
1b0
  8
Layer_0
  10
226.33093
  20
286.94443
  0
VERTEX
  5
1b1
  8
Layer_0
  10
226.50018
  20
286.89896
  0
VERTEX
  5
1b2
  8
Layer_0
  10
226.76901
  20
286.75031
  0
VERTEX
  5
1b3
  8
Layer_0
  10
226.97607
  20
286.53256
  0
VERTEX
  5
1b4
  8
Layer_0
  10
227.10925
  20
286.26318
  0
VERTEX
  5
1b5
  8
Layer_0
  10
227.15634
  20
285.95966
  0
SEQEND
  0
POLYLINE
  5
1b7
  8
Layer_0
  62
0
  70
1
  66
1
  10
0
  20
0
  30
0
  0
VERTEX
  5
1b7
  8
Layer_0
  10
321.4064
  20
272.95966
  0
VERTEX
  5
1b8
  8
Layer_0
  10
309.40637
  20
272.95966
  0
VERTEX
  5
1b9
  8
Layer_0
  10
309.21173
  20
272.97858
  0
VERTEX
  5
1ba
  8
Layer_0
  10
309.0296
  20
273.03305
  0
VERTEX
  5
1bb
  8
Layer_0
  10
308.86365
  20
273.11957
  0
VERTEX
  5
1bc
  8
Layer_0
  10
308.71765
  20
273.2345
  0
VERTEX
  5
1bd
  8
Layer_0
  10
308.59534
  20
273.37439
  0
VERTEX
  5
1be
  8
Layer_0
  10
308.50043
  20
273.53568
  0
VERTEX
  5
1bf
  8
Layer_0
  10
308.43665
  20
273.71478
  0
VERTEX
  5
1c0
  8
Layer_0
  10
308.40771
  20
273.90817
  0
VERTEX
  5
1c1
  8
Layer_0
  10
308.40637
  20
273.95966
  0
VERTEX
  5
1c2
  8
Layer_0
  10
308.40637
  20
285.95966
  0
VERTEX
  5
1c3
  8
Layer_0
  10
308.42456
  20
286.14948
  0
VERTEX
  5
1c4
  8
Layer_0
  10
308.47781
  20
286.33081
  0
VERTEX
  5
1c5
  8
Layer_0
  10
308.56424
  20
286.49893
  0
VERTEX
  5
1c6
  8
Layer_0
  10
308.68195
  20
286.64896
  0
VERTEX
  5
1c7
  8
Layer_0
  10
308.69928
  20
286.66675
  0
VERTEX
  5
1c8
  8
Layer_0
  10
308.84634
  20
286.78812
  0
VERTEX
  5
1c9
  8
Layer_0
  10
309.01227
  20
286.87866
  0
VERTEX
  5
1ca
  8
Layer_0
  10
309.19226
  20
286.9364
  0
VERTEX
  5
1cb
  8
Layer_0
  10
309.38156
  20
286.95929
  0
VERTEX
  5
1cc
  8
Layer_0
  10
321.4064
  20
286.95966
  0
VERTEX
  5
1cd
  8
Layer_0
  10
321.48044
  20
286.95688
  0
VERTEX
  5
1ce
  8
Layer_0
  10
321.55408
  20
286.94867
  0
VERTEX
  5
1cf
  8
Layer_0
  10
321.70959
  20
286.91263
  0
VERTEX
  5
1d0
  8
Layer_0
  10
321.85648
  20
286.85269
  0
VERTEX
  5
1d1
  8
Layer_0
  10
321.99203
  20
286.77029
  0
VERTEX
  5
1d2
  8
Layer_0
  10
322.11353
  20
286.66675
  0
VERTEX
  5
1d3
  8
Layer_0
  10
322.2384
  20
286.51443
  0
VERTEX
  5
1d4
  8
Layer_0
  10
322.33026
  20
286.34232
  0
VERTEX
  5
1d5
  8
Layer_0
  10
322.38702
  20
286.15564
  0
VERTEX
  5
1d6
  8
Layer_0
  10
322.40643
  20
285.95966
  0
VERTEX
  5
1d7
  8
Layer_0
  10
322.4064
  20
273.95966
  0
VERTEX
  5
1d8
  8
Layer_0
  10
322.38721
  20
273.76361
  0
VERTEX
  5
1d9
  8
Layer_0
  10
322.33051
  20
273.57687
  0
VERTEX
  5
1da
  8
Layer_0
  10
322.23865
  20
273.40472
  0
VERTEX
  5
1db
  8
Layer_0
  10
322.11374
  20
273.25244
  0
VERTEX
  5
1dc
  8
Layer_0
  10
321.96136
  20
273.12756
  0
VERTEX
  5
1dd
  8
Layer_0
  10
321.78918
  20
273.03571
  0
VERTEX
  5
1de
  8
Layer_0
  10
321.60245
  20
272.979
  0
VERTEX
  5
1df
  8
Layer_0
  10
321.4064
  20
272.95966
  0
SEQEND
  0
POLYLINE
  5
1e1
  8
Layer_0
  62
0
  70
1
  66
1
  10
0
  20
0
  30
0
  0
VERTEX
  5
1e1
  8
Layer_0
  10
216.5376
  20
229.80963
  0
VERTEX
  5
1e2
  8
Layer_0
  10
230.91885
  20
229.80963
  0
VERTEX
  5
1e3
  8
Layer_0
  10
231.13879
  20
229.7854
  0
VERTEX
  5
1e4
  8
Layer_0
  10
231.34558
  20
229.71436
  0
VERTEX
  5
1e5
  8
Layer_0
  10
231.53189
  20
229.59991
  0
VERTEX
  5
1e6
  8
Layer_0
  10
231.69049
  20
229.44568
  0
VERTEX
  5
1e7
  8
Layer_0
  10
231.78864
  20
229.30347
  0
VERTEX
  5
1e8
  8
Layer_0
  10
231.86032
  20
229.14761
  0
VERTEX
  5
1e9
  8
Layer_0
  10
231.90417
  20
228.98181
  0
VERTEX
  5
1ea
  8
Layer_0
  10
231.91888
  20
228.80963
  0
VERTEX
  5
1eb
  8
Layer_0
  10
231.91885
  20
216.8096
  0
VERTEX
  5
1ec
  8
Layer_0
  10
231.89948
  20
216.61359
  0
VERTEX
  5
1ed
  8
Layer_0
  10
231.84277
  20
216.42691
  0
VERTEX
  5
1ee
  8
Layer_0
  10
231.75085
  20
216.25476
  0
VERTEX
  5
1ef
  8
Layer_0
  10
231.62601
  20
216.10245
  0
VERTEX
  5
1f0
  8
Layer_0
  10
231.47369
  20
215.97754
  0
VERTEX
  5
1f1
  8
Layer_0
  10
231.30157
  20
215.88565
  0
VERTEX
  5
1f2
  8
Layer_0
  10
231.11487
  20
215.82895
  0
VERTEX
  5
1f3
  8
Layer_0
  10
230.91885
  20
215.80963
  0
VERTEX
  5
1f4
  8
Layer_0
  10
216.5376
  20
215.8096
  0
VERTEX
  5
1f5
  8
Layer_0
  10
216.34296
  20
215.82852
  0
VERTEX
  5
1f6
  8
Layer_0
  10
216.16083
  20
215.88303
  0
VERTEX
  5
1f7
  8
Layer_0
  10
215.99487
  20
215.96954
  0
VERTEX
  5
1f8
  8
Layer_0
  10
215.84888
  20
216.08447
  0
VERTEX
  5
1f9
  8
Layer_0
  10
215.72656
  20
216.22433
  0
VERTEX
  5
1fa
  8
Layer_0
  10
215.63159
  20
216.38562
  0
VERTEX
  5
1fb
  8
Layer_0
  10
215.56781
  20
216.56476
  0
VERTEX
  5
1fc
  8
Layer_0
  10
215.53888
  20
216.75815
  0
VERTEX
  5
1fd
  8
Layer_0
  10
215.5376
  20
216.8096
  0
VERTEX
  5
1fe
  8
Layer_0
  10
215.5376
  20
228.80963
  0
VERTEX
  5
1ff
  8
Layer_0
  10
215.55582
  20
228.99945
  0
VERTEX
  5
200
  8
Layer_0
  10
215.6091
  20
229.18076
  0
VERTEX
  5
201
  8
Layer_0
  10
215.6955
  20
229.34888
  0
VERTEX
  5
202
  8
Layer_0
  10
215.81314
  20
229.49896
  0
VERTEX
  5
203
  8
Layer_0
  10
215.83047
  20
229.51672
  0
VERTEX
  5
204
  8
Layer_0
  10
215.97757
  20
229.63812
  0
VERTEX
  5
205
  8
Layer_0
  10
216.14346
  20
229.72867
  0
VERTEX
  5
206
  8
Layer_0
  10
216.32343
  20
229.78638
  0
VERTEX
  5
207
  8
Layer_0
  10
216.51276
  20
229.80927
  0
VERTEX
  5
208
  8
Layer_0
  10
216.5376
  20
229.80963
  0
SEQEND
  0
POLYLINE
  5
20a
  8
Layer_0
  62
0
  70
1
  66
1
  10
0
  20
0
  30
0
  0
VERTEX
  5
20a
  8
Layer_0
  10
380.84393
  20
248.85962
  0
VERTEX
  5
20b
  8
Layer_0
  10
392.84393
  20
248.85962
  0
VERTEX
  5
20c
  8
Layer_0
  10
392.97888
  20
248.85068
  0
VERTEX
  5
20d
  8
Layer_0
  10
393.11133
  20
248.82321
  0
VERTEX
  5
20e
  8
Layer_0
  10
393.34766
  20
248.72322
  0
VERTEX
  5
20f
  8
Layer_0
  10
393.55103
  20
248.56673
  0
VERTEX
  5
210
  8
Layer_0
  10
393.67581
  20
248.41434
  0
VERTEX
  5
211
  8
Layer_0
  10
393.7677
  20
248.24223
  0
VERTEX
  5
212
  8
Layer_0
  10
393.82446
  20
248.0556
  0
VERTEX
  5
213
  8
Layer_0
  10
393.84393
  20
247.85962
  0
VERTEX
  5
214
  8
Layer_0
  10
393.84393
  20
235.85962
  0
VERTEX
  5
215
  8
Layer_0
  10
393.82715
  20
235.67584
  0
VERTEX
  5
216
  8
Layer_0
  10
393.77734
  20
235.49976
  0
VERTEX
  5
217
  8
Layer_0
  10
393.69617
  20
235.33578
  0
VERTEX
  5
218
  8
Layer_0
  10
393.5853
  20
235.18835
  0
VERTEX
  5
219
  8
Layer_0
  10
393.55109
  20
235.15244
  0
VERTEX
  5
21a
  8
Layer_0
  10
393.43954
  20
235.05624
  0
VERTEX
  5
21b
  8
Layer_0
  10
393.3158
  20
234.97784
  0
VERTEX
  5
21c
  8
Layer_0
  10
393.18188
  20
234.91833
  0
VERTEX
  5
21d
  8
Layer_0
  10
393.03998
  20
234.87891
  0
VERTEX
  5
21e
  8
Layer_0
  10
392.9675
  20
234.86615
  0
VERTEX
  5
21f
  8
Layer_0
  10
392.89352
  20
234.86075
  0
VERTEX
  5
220
  8
Layer_0
  10
380.84393
  20
234.85962
  0
VERTEX
  5
221
  8
Layer_0
  10
380.64929
  20
234.8786
  0
VERTEX
  5
222
  8
Layer_0
  10
380.46716
  20
234.93314
  0
VERTEX
  5
223
  8
Layer_0
  10
380.30121
  20
235.01965
  0
VERTEX
  5
224
  8
Layer_0
  10
380.15521
  20
235.13458
  0
VERTEX
  5
225
  8
Layer_0
  10
380.0329
  20
235.27444
  0
VERTEX
  5
226
  8
Layer_0
  10
379.93799
  20
235.43567
  0
VERTEX
  5
227
  8
Layer_0
  10
379.87415
  20
235.61478
  0
VERTEX
  5
228
  8
Layer_0
  10
379.84521
  20
235.80817
  0
VERTEX
  5
229
  8
Layer_0
  10
379.8439
  20
235.85962
  0
VERTEX
  5
22a
  8
Layer_0
  10
379.84393
  20
247.85962
  0
VERTEX
  5
22b
  8
Layer_0
  10
379.86282
  20
248.05423
  0
VERTEX
  5
22c
  8
Layer_0
  10
379.9173
  20
248.23636
  0
VERTEX
  5
22d
  8
Layer_0
  10
380.00378
  20
248.40228
  0
VERTEX
  5
22e
  8
Layer_0
  10
380.11877
  20
248.54825
  0
VERTEX
  5
22f
  8
Layer_0
  10
380.25867
  20
248.67056
  0
VERTEX
  5
230
  8
Layer_0
  10
380.41995
  20
248.76547
  0
VERTEX
  5
231
  8
Layer_0
  10
380.59906
  20
248.82928
  0
VERTEX
  5
232
  8
Layer_0
  10
380.79248
  20
248.85823
  0
VERTEX
  5
233
  8
Layer_0
  10
380.84393
  20
248.85962
  0
SEQEND
  0
POLYLINE
  5
235
  8
Layer_0
  62
0
  70
1
  66
1
  10
0
  20
0
  30
0
  0
VERTEX
  5
235
  8
Layer_0
  10
365.5564
  20
273.95966
  0
VERTEX
  5
236
  8
Layer_0
  10
365.55774
  20
273.90817
  0
VERTEX
  5
237
  8
Layer_0
  10
365.58664
  20
273.71475
  0
VERTEX
  5
238
  8
Layer_0
  10
365.65039
  20
273.53564
  0
VERTEX
  5
239
  8
Layer_0
  10
365.7453
  20
273.37436
  0
VERTEX
  5
23a
  8
Layer_0
  10
365.86765
  20
273.23447
  0
VERTEX
  5
23b
  8
Layer_0
  10
366.01367
  20
273.11951
  0
VERTEX
  5
23c
  8
Layer_0
  10
366.17963
  20
273.03302
  0
VERTEX
  5
23d
  8
Layer_0
  10
366.36179
  20
272.97855
  0
VERTEX
  5
23e
  8
Layer_0
  10
366.55643
  20
272.95966
  0
VERTEX
  5
23f
  8
Layer_0
  10
378.55643
  20
272.95966
  0
VERTEX
  5
240
  8
Layer_0
  10
378.75244
  20
272.97903
  0
VERTEX
  5
241
  8
Layer_0
  10
378.93915
  20
273.03574
  0
VERTEX
  5
242
  8
Layer_0
  10
379.11127
  20
273.12762
  0
VERTEX
  5
243
  8
Layer_0
  10
379.26355
  20
273.2525
  0
VERTEX
  5
244
  8
Layer_0
  10
379.38837
  20
273.40485
  0
VERTEX
  5
245
  8
Layer_0
  10
379.48026
  20
273.57697
  0
VERTEX
  5
246
  8
Layer_0
  10
379.53699
  20
273.76364
  0
VERTEX
  5
247
  8
Layer_0
  10
379.55643
  20
273.95966
  0
VERTEX
  5
248
  8
Layer_0
  10
379.55643
  20
285.95966
  0
VERTEX
  5
249
  8
Layer_0
  10
379.53998
  20
286.14072
  0
VERTEX
  5
24a
  8
Layer_0
  10
379.49255
  20
286.31171
  0
VERTEX
  5
24b
  8
Layer_0
  10
379.41681
  20
286.46945
  0
VERTEX
  5
24c
  8
Layer_0
  10
379.31543
  20
286.61075
  0
VERTEX
  5
24d
  8
Layer_0
  10
379.19122
  20
286.73242
  0
VERTEX
  5
24e
  8
Layer_0
  10
379.04694
  20
286.83136
  0
VERTEX
  5
24f
  8
Layer_0
  10
378.88519
  20
286.9043
  0
VERTEX
  5
250
  8
Layer_0
  10
378.70874
  20
286.94812
  0
VERTEX
  5
251
  8
Layer_0
  10
378.63281
  20
286.95682
  0
VERTEX
  5
252
  8
Layer_0
  10
378.55643
  20
286.95966
  0
VERTEX
  5
253
  8
Layer_0
  10
366.55643
  20
286.95966
  0
VERTEX
  5
254
  8
Layer_0
  10
366.50494
  20
286.95834
  0
VERTEX
  5
255
  8
Layer_0
  10
366.31152
  20
286.92944
  0
VERTEX
  5
256
  8
Layer_0
  10
366.13242
  20
286.86566
  0
VERTEX
  5
257
  8
Layer_0
  10
365.97113
  20
286.77075
  0
VERTEX
  5
258
  8
Layer_0
  10
365.83124
  20
286.64844
  0
VERTEX
  5
259
  8
Layer_0
  10
365.71631
  20
286.50241
  0
VERTEX
  5
25a
  8
Layer_0
  10
365.62982
  20
286.33646
  0
VERTEX
  5
25b
  8
Layer_0
  10
365.57532
  20
286.1543
  0
VERTEX
  5
25c
  8
Layer_0
  10
365.55643
  20
285.95966
  0
VERTEX
  5
25d
  8
Layer_0
  10
365.5564
  20
273.95966
  0
SEQEND
  0
POLYLINE
  5
25f
  8
Layer_0
  62
0
  70
1
  66
1
  10
0
  20
0
  30
0
  0
VERTEX
  5
25f
  8
Layer_0
  10
283.3064
  20
272.95966
  0
VERTEX
  5
260
  8
Layer_0
  10
271.30637
  20
272.95966
  0
VERTEX
  5
261
  8
Layer_0
  10
271.11172
  20
272.97858
  0
VERTEX
  5
262
  8
Layer_0
  10
270.9296
  20
273.03308
  0
VERTEX
  5
263
  8
Layer_0
  10
270.76367
  20
273.11957
  0
VERTEX
  5
264
  8
Layer_0
  10
270.61765
  20
273.23456
  0
VERTEX
  5
265
  8
Layer_0
  10
270.4953
  20
273.37442
  0
VERTEX
  5
266
  8
Layer_0
  10
270.40039
  20
273.53571
  0
VERTEX
  5
267
  8
Layer_0
  10
270.33661
  20
273.71478
  0
VERTEX
  5
268
  8
Layer_0
  10
270.30771
  20
273.9082
  0
VERTEX
  5
269
  8
Layer_0
  10
270.30643
  20
273.95966
  0
VERTEX
  5
26a
  8
Layer_0
  10
270.30637
  20
285.95966
  0
VERTEX
  5
26b
  8
Layer_0
  10
270.32452
  20
286.14948
  0
VERTEX
  5
26c
  8
Layer_0
  10
270.37778
  20
286.33081
  0
VERTEX
  5
26d
  8
Layer_0
  10
270.46423
  20
286.4989
  0
VERTEX
  5
26e
  8
Layer_0
  10
270.58191
  20
286.64896
  0
VERTEX
  5
26f
  8
Layer_0
  10
270.59927
  20
286.66675
  0
VERTEX
  5
270
  8
Layer_0
  10
270.74637
  20
286.78809
  0
VERTEX
  5
271
  8
Layer_0
  10
270.91226
  20
286.87866
  0
VERTEX
  5
272
  8
Layer_0
  10
271.09222
  20
286.9364
  0
VERTEX
  5
273
  8
Layer_0
  10
271.28156
  20
286.95929
  0
VERTEX
  5
274
  8
Layer_0
  10
283.3064
  20
286.95966
  0
VERTEX
  5
275
  8
Layer_0
  10
283.40485
  20
286.95486
  0
VERTEX
  5
276
  8
Layer_0
  10
283.50238
  20
286.94025
  0
VERTEX
  5
277
  8
Layer_0
  10
283.64429
  20
286.90088
  0
VERTEX
  5
278
  8
Layer_0
  10
283.7782
  20
286.8414
  0
VERTEX
  5
279
  8
Layer_0
  10
283.90201
  20
286.763
  0
VERTEX
  5
27a
  8
Layer_0
  10
284.01352
  20
286.66675
  0
VERTEX
  5
27b
  8
Layer_0
  10
284.13843
  20
286.51447
  0
VERTEX
  5
27c
  8
Layer_0
  10
284.23035
  20
286.34235
  0
VERTEX
  5
27d
  8
Layer_0
  10
284.28705
  20
286.15564
  0
VERTEX
  5
27e
  8
Layer_0
  10
284.30643
  20
285.95966
  0
VERTEX
  5
27f
  8
Layer_0
  10
284.3064
  20
273.95966
  0
VERTEX
  5
280
  8
Layer_0
  10
284.28708
  20
273.76361
  0
VERTEX
  5
281
  8
Layer_0
  10
284.23038
  20
273.5769
  0
VERTEX
  5
282
  8
Layer_0
  10
284.13849
  20
273.40475
  0
VERTEX
  5
283
  8
Layer_0
  10
284.01361
  20
273.25244
  0
VERTEX
  5
284
  8
Layer_0
  10
283.86127
  20
273.12753
  0
VERTEX
  5
285
  8
Layer_0
  10
283.68915
  20
273.03564
  0
VERTEX
  5
286
  8
Layer_0
  10
283.50244
  20
272.97894
  0
VERTEX
  5
287
  8
Layer_0
  10
283.3064
  20
272.95966
  0
SEQEND
  0
POLYLINE
  5
289
  8
Layer_0
  62
0
  70
1
  66
1
  10
0
  20
0
  30
0
  0
VERTEX
  5
289
  8
Layer_0
  10
236.96887
  20
254.90964
  0
VERTEX
  5
28a
  8
Layer_0
  10
236.96887
  20
266.90964
  0
VERTEX
  5
28b
  8
Layer_0
  10
236.98779
  20
267.10428
  0
VERTEX
  5
28c
  8
Layer_0
  10
237.04227
  20
267.28644
  0
VERTEX
  5
28d
  8
Layer_0
  10
237.12878
  20
267.45236
  0
VERTEX
  5
28e
  8
Layer_0
  10
237.24371
  20
267.59836
  0
VERTEX
  5
28f
  8
Layer_0
  10
237.38361
  20
267.72067
  0
VERTEX
  5
290
  8
Layer_0
  10
237.54489
  20
267.81561
  0
VERTEX
  5
291
  8
Layer_0
  10
237.724
  20
267.87939
  0
VERTEX
  5
292
  8
Layer_0
  10
237.91739
  20
267.90833
  0
VERTEX
  5
293
  8
Layer_0
  10
237.96887
  20
267.90961
  0
VERTEX
  5
294
  8
Layer_0
  10
249.96887
  20
267.90964
  0
VERTEX
  5
295
  8
Layer_0
  10
250.18784
  20
267.88541
  0
VERTEX
  5
296
  8
Layer_0
  10
250.39618
  20
267.81378
  0
VERTEX
  5
297
  8
Layer_0
  10
250.54456
  20
267.72729
  0
VERTEX
  5
298
  8
Layer_0
  10
250.67599
  20
267.61676
  0
VERTEX
  5
299
  8
Layer_0
  10
250.8009
  20
267.46448
  0
VERTEX
  5
29a
  8
Layer_0
  10
250.89282
  20
267.29236
  0
VERTEX
  5
29b
  8
Layer_0
  10
250.94952
  20
267.10565
  0
VERTEX
  5
29c
  8
Layer_0
  10
250.96893
  20
266.90964
  0
VERTEX
  5
29d
  8
Layer_0
  10
250.96887
  20
254.90964
  0
VERTEX
  5
29e
  8
Layer_0
  10
250.94855
  20
254.7081
  0
VERTEX
  5
29f
  8
Layer_0
  10
250.89026
  20
254.52037
  0
VERTEX
  5
2a0
  8
Layer_0
  10
250.79803
  20
254.35049
  0
VERTEX
  5
2a1
  8
Layer_0
  10
250.67596
  20
254.2025
  0
VERTEX
  5
2a2
  8
Layer_0
  10
250.52795
  20
254.08038
  0
VERTEX
  5
2a3
  8
Layer_0
  10
250.35809
  20
253.98819
  0
VERTEX
  5
2a4
  8
Layer_0
  10
250.17038
  20
253.92992
  0
VERTEX
  5
2a5
  8
Layer_0
  10
249.96887
  20
253.90961
  0
VERTEX
  5
2a6
  8
Layer_0
  10
237.96887
  20
253.90964
  0
VERTEX
  5
2a7
  8
Layer_0
  10
237.77905
  20
253.92784
  0
VERTEX
  5
2a8
  8
Layer_0
  10
237.59766
  20
253.98109
  0
VERTEX
  5
2a9
  8
Layer_0
  10
237.42957
  20
254.0675
  0
VERTEX
  5
2aa
  8
Layer_0
  10
237.27948
  20
254.18518
  0
VERTEX
  5
2ab
  8
Layer_0
  10
237.26172
  20
254.20251
  0
VERTEX
  5
2ac
  8
Layer_0
  10
237.14032
  20
254.34961
  0
VERTEX
  5
2ad
  8
Layer_0
  10
237.04974
  20
254.5155
  0
VERTEX
  5
2ae
  8
Layer_0
  10
236.992
  20
254.69548
  0
VERTEX
  5
2af
  8
Layer_0
  10
236.96912
  20
254.8848
  0
VERTEX
  5
2b0
  8
Layer_0
  10
236.96887
  20
254.90964
  0
SEQEND
  0
POLYLINE
  5
2b2
  8
Layer_0
  62
0
  70
1
  66
1
  10
0
  20
0
  30
0
  0
VERTEX
  5
2b2
  8
Layer_0
  10
354.7439
  20
234.85956
  0
VERTEX
  5
2b3
  8
Layer_0
  10
354.94543
  20
234.87988
  0
VERTEX
  5
2b4
  8
Layer_0
  10
355.13312
  20
234.93811
  0
VERTEX
  5
2b5
  8
Layer_0
  10
355.30295
  20
235.03033
  0
VERTEX
  5
2b6
  8
Layer_0
  10
355.45093
  20
235.15244
  0
VERTEX
  5
2b7
  8
Layer_0
  10
355.573
  20
235.30048
  0
VERTEX
  5
2b8
  8
Layer_0
  10
355.66522
  20
235.47034
  0
VERTEX
  5
2b9
  8
Layer_0
  10
355.72351
  20
235.65808
  0
VERTEX
  5
2ba
  8
Layer_0
  10
355.7439
  20
235.85962
  0
VERTEX
  5
2bb
  8
Layer_0
  10
355.7439
  20
247.85962
  0
VERTEX
  5
2bc
  8
Layer_0
  10
355.72449
  20
248.05563
  0
VERTEX
  5
2bd
  8
Layer_0
  10
355.66779
  20
248.24231
  0
VERTEX
  5
2be
  8
Layer_0
  10
355.57593
  20
248.41444
  0
VERTEX
  5
2bf
  8
Layer_0
  10
355.45102
  20
248.56674
  0
VERTEX
  5
2c0
  8
Layer_0
  10
355.26874
  20
248.71094
  0
VERTEX
  5
2c1
  8
Layer_0
  10
355.05801
  20
248.80902
  0
VERTEX
  5
2c2
  8
Layer_0
  10
354.90298
  20
248.84691
  0
VERTEX
  5
2c3
  8
Layer_0
  10
354.7439
  20
248.85962
  0
VERTEX
  5
2c4
  8
Layer_0
  10
342.71909
  20
248.85925
  0
VERTEX
  5
2c5
  8
Layer_0
  10
342.62061
  20
248.85194
  0
VERTEX
  5
2c6
  8
Layer_0
  10
342.4584
  20
248.81773
  0
VERTEX
  5
2c7
  8
Layer_0
  10
342.30505
  20
248.7578
  0
VERTEX
  5
2c8
  8
Layer_0
  10
342.16351
  20
248.67365
  0
VERTEX
  5
2c9
  8
Layer_0
  10
342.0368
  20
248.56671
  0
VERTEX
  5
2ca
  8
Layer_0
  10
342.01947
  20
248.54895
  0
VERTEX
  5
2cb
  8
Layer_0
  10
341.90198
  20
248.39877
  0
VERTEX
  5
2cc
  8
Layer_0
  10
341.81561
  20
248.23067
  0
VERTEX
  5
2cd
  8
Layer_0
  10
341.7623
  20
248.04938
  0
VERTEX
  5
2ce
  8
Layer_0
  10
341.7439
  20
247.85962
  0
VERTEX
  5
2cf
  8
Layer_0
  10
341.7439
  20
235.85962
  0
VERTEX
  5
2d0
  8
Layer_0
  10
341.74518
  20
235.80817
  0
VERTEX
  5
2d1
  8
Layer_0
  10
341.77405
  20
235.61472
  0
VERTEX
  5
2d2
  8
Layer_0
  10
341.8378
  20
235.43555
  0
VERTEX
  5
2d3
  8
Layer_0
  10
341.93274
  20
235.27423
  0
VERTEX
  5
2d4
  8
Layer_0
  10
342.05505
  20
235.13434
  0
VERTEX
  5
2d5
  8
Layer_0
  10
342.20108
  20
235.01935
  0
VERTEX
  5
2d6
  8
Layer_0
  10
342.36707
  20
234.93286
  0
VERTEX
  5
2d7
  8
Layer_0
  10
342.54922
  20
234.87842
  0
VERTEX
  5
2d8
  8
Layer_0
  10
342.7439
  20
234.85962
  0
VERTEX
  5
2d9
  8
Layer_0
  10
354.7439
  20
234.85956
  0
SEQEND
  0
POLYLINE
  5
2db
  8
Layer_0
  62
0
  70
1
  66
1
  10
0
  20
0
  30
0
  0
VERTEX
  5
2db
  8
Layer_0
  10
246.20633
  20
285.95966
  0
VERTEX
  5
2dc
  8
Layer_0
  10
246.19324
  20
286.12103
  0
VERTEX
  5
2dd
  8
Layer_0
  10
246.15527
  20
286.27524
  0
VERTEX
  5
2de
  8
Layer_0
  10
246.09421
  20
286.41986
  0
VERTEX
  5
2df
  8
Layer_0
  10
246.01175
  20
286.55249
  0
VERTEX
  5
2e0
  8
Layer_0
  10
245.9097
  20
286.67065
  0
VERTEX
  5
2e1
  8
Layer_0
  10
245.78986
  20
286.77203
  0
VERTEX
  5
2e2
  8
Layer_0
  10
245.65393
  20
286.85419
  0
VERTEX
  5
2e3
  8
Layer_0
  10
245.50372
  20
286.91467
  0
VERTEX
  5
2e4
  8
Layer_0
  10
245.35675
  20
286.94839
  0
VERTEX
  5
2e5
  8
Layer_0
  10
245.20636
  20
286.95966
  0
VERTEX
  5
2e6
  8
Layer_0
  10
233.20636
  20
286.95966
  0
VERTEX
  5
2e7
  8
Layer_0
  10
233.15491
  20
286.95831
  0
VERTEX
  5
2e8
  8
Layer_0
  10
232.96149
  20
286.92938
  0
VERTEX
  5
2e9
  8
Layer_0
  10
232.78241
  20
286.8656
  0
VERTEX
  5
2ea
  8
Layer_0
  10
232.62112
  20
286.77069
  0
VERTEX
  5
2eb
  8
Layer_0
  10
232.48123
  20
286.64835
  0
VERTEX
  5
2ec
  8
Layer_0
  10
232.36627
  20
286.50235
  0
VERTEX
  5
2ed
  8
Layer_0
  10
232.27975
  20
286.33643
  0
VERTEX
  5
2ee
  8
Layer_0
  10
232.22528
  20
286.15427
  0
VERTEX
  5
2ef
  8
Layer_0
  10
232.20636
  20
285.95966
  0
VERTEX
  5
2f0
  8
Layer_0
  10
232.20663
  20
273.93481
  0
VERTEX
  5
2f1
  8
Layer_0
  10
232.22955
  20
273.74551
  0
VERTEX
  5
2f2
  8
Layer_0
  10
232.28732
  20
273.56552
  0
VERTEX
  5
2f3
  8
Layer_0
  10
232.37787
  20
273.39963
  0
VERTEX
  5
2f4
  8
Layer_0
  10
232.49921
  20
273.2525
  0
VERTEX
  5
2f5
  8
Layer_0
  10
232.517
  20
273.23517
  0
VERTEX
  5
2f6
  8
Layer_0
  10
232.66702
  20
273.11746
  0
VERTEX
  5
2f7
  8
Layer_0
  10
232.83514
  20
273.03101
  0
VERTEX
  5
2f8
  8
Layer_0
  10
233.01648
  20
272.97775
  0
VERTEX
  5
2f9
  8
Layer_0
  10
233.20636
  20
272.95966
  0
VERTEX
  5
2fa
  8
Layer_0
  10
245.20636
  20
272.95966
  0
VERTEX
  5
2fb
  8
Layer_0
  10
245.40237
  20
272.979
  0
VERTEX
  5
2fc
  8
Layer_0
  10
245.58905
  20
273.03571
  0
VERTEX
  5
2fd
  8
Layer_0
  10
245.76117
  20
273.12759
  0
VERTEX
  5
2fe
  8
Layer_0
  10
245.91351
  20
273.2525
  0
VERTEX
  5
2ff
  8
Layer_0
  10
246.03839
  20
273.40479
  0
VERTEX
  5
300
  8
Layer_0
  10
246.13028
  20
273.5769
  0
VERTEX
  5
301
  8
Layer_0
  10
246.18701
  20
273.76361
  0
VERTEX
  5
302
  8
Layer_0
  10
246.20636
  20
273.95966
  0
VERTEX
  5
303
  8
Layer_0
  10
246.20633
  20
285.95966
  0
SEQEND
  0
POLYLINE
  5
305
  8
Layer_0
  62
0
  70
1
  66
1
  10
0
  20
0
  30
0
  0
VERTEX
  5
305
  8
Layer_0
  10
186.67499
  20
266.90964
  0
VERTEX
  5
306
  8
Layer_0
  10
186.64209
  20
267.16418
  0
VERTEX
  5
307
  8
Layer_0
  10
186.54547
  20
267.40195
  0
VERTEX
  5
308
  8
Layer_0
  10
186.47113
  20
267.51489
  0
VERTEX
  5
309
  8
Layer_0
  10
186.3822
  20
267.61676
  0
VERTEX
  5
30a
  8
Layer_0
  10
186.36438
  20
267.63409
  0
VERTEX
  5
30b
  8
Layer_0
  10
186.21429
  20
267.75177
  0
VERTEX
  5
30c
  8
Layer_0
  10
186.0462
  20
267.8382
  0
VERTEX
  5
30d
  8
Layer_0
  10
185.86487
  20
267.89148
  0
VERTEX
  5
30e
  8
Layer_0
  10
185.67505
  20
267.90964
  0
VERTEX
  5
30f
  8
Layer_0
  10
168.88776
  20
267.9093
  0
VERTEX
  5
310
  8
Layer_0
  10
168.69843
  20
267.88641
  0
VERTEX
  5
311
  8
Layer_0
  10
168.51843
  20
267.82867
  0
VERTEX
  5
312
  8
Layer_0
  10
168.35248
  20
267.7381
  0
VERTEX
  5
313
  8
Layer_0
  10
168.20544
  20
267.61673
  0
VERTEX
  5
314
  8
Layer_0
  10
168.18811
  20
267.59897
  0
VERTEX
  5
315
  8
Layer_0
  10
168.07043
  20
267.44891
  0
VERTEX
  5
316
  8
Layer_0
  10
167.98401
  20
267.28082
  0
VERTEX
  5
317
  8
Layer_0
  10
167.93079
  20
267.09946
  0
VERTEX
  5
318
  8
Layer_0
  10
167.9126
  20
266.90964
  0
VERTEX
  5
319
  8
Layer_0
  10
167.9126
  20
254.90964
  0
VERTEX
  5
31a
  8
Layer_0
  10
167.93286
  20
254.70807
  0
VERTEX
  5
31b
  8
Layer_0
  10
167.99109
  20
254.52034
  0
VERTEX
  5
31c
  8
Layer_0
  10
168.08325
  20
254.35046
  0
VERTEX
  5
31d
  8
Layer_0
  10
168.20538
  20
254.20245
  0
VERTEX
  5
31e
  8
Layer_0
  10
168.35339
  20
254.08035
  0
VERTEX
  5
31f
  8
Layer_0
  10
168.52332
  20
253.98816
  0
VERTEX
  5
320
  8
Layer_0
  10
168.71106
  20
253.9299
  0
VERTEX
  5
321
  8
Layer_0
  10
168.9126
  20
253.90964
  0
VERTEX
  5
322
  8
Layer_0
  10
185.67505
  20
253.90964
  0
VERTEX
  5
323
  8
Layer_0
  10
185.87659
  20
253.9299
  0
VERTEX
  5
324
  8
Layer_0
  10
186.06433
  20
253.98816
  0
VERTEX
  5
325
  8
Layer_0
  10
186.23425
  20
254.08035
  0
VERTEX
  5
326
  8
Layer_0
  10
186.38226
  20
254.20245
  0
VERTEX
  5
327
  8
Layer_0
  10
186.50439
  20
254.35046
  0
VERTEX
  5
328
  8
Layer_0
  10
186.59656
  20
254.52034
  0
VERTEX
  5
329
  8
Layer_0
  10
186.65479
  20
254.70807
  0
VERTEX
  5
32a
  8
Layer_0
  10
186.67505
  20
254.90964
  0
VERTEX
  5
32b
  8
Layer_0
  10
186.67499
  20
266.90964
  0
SEQEND
  0
POLYLINE
  5
32d
  8
Layer_0
  62
0
  70
1
  66
1
  10
0
  20
0
  30
0
  0
VERTEX
  5
32d
  8
Layer_0
  10
279.54388
  20
247.85962
  0
VERTEX
  5
32e
  8
Layer_0
  10
279.54388
  20
235.85962
  0
VERTEX
  5
32f
  8
Layer_0
  10
279.5246
  20
235.66357
  0
VERTEX
  5
330
  8
Layer_0
  10
279.4679
  20
235.47687
  0
VERTEX
  5
331
  8
Layer_0
  10
279.37604
  20
235.30469
  0
VERTEX
  5
332
  8
Layer_0
  10
279.25116
  20
235.15237
  0
VERTEX
  5
333
  8
Layer_0
  10
279.09882
  20
235.02747
  0
VERTEX
  5
334
  8
Layer_0
  10
278.92664
  20
234.93561
  0
VERTEX
  5
335
  8
Layer_0
  10
278.73993
  20
234.87894
  0
VERTEX
  5
336
  8
Layer_0
  10
278.54388
  20
234.85959
  0
VERTEX
  5
337
  8
Layer_0
  10
266.54388
  20
234.85962
  0
VERTEX
  5
338
  8
Layer_0
  10
266.34924
  20
234.87854
  0
VERTEX
  5
339
  8
Layer_0
  10
266.16705
  20
234.93301
  0
VERTEX
  5
33a
  8
Layer_0
  10
266.0011
  20
235.01953
  0
VERTEX
  5
33b
  8
Layer_0
  10
265.8551
  20
235.13446
  0
VERTEX
  5
33c
  8
Layer_0
  10
265.73279
  20
235.27435
  0
VERTEX
  5
33d
  8
Layer_0
  10
265.63785
  20
235.43564
  0
VERTEX
  5
33e
  8
Layer_0
  10
265.57407
  20
235.61475
  0
VERTEX
  5
33f
  8
Layer_0
  10
265.5452
  20
235.80817
  0
VERTEX
  5
340
  8
Layer_0
  10
265.54388
  20
235.85962
  0
VERTEX
  5
341
  8
Layer_0
  10
265.54388
  20
247.85962
  0
VERTEX
  5
342
  8
Layer_0
  10
265.56195
  20
248.04947
  0
VERTEX
  5
343
  8
Layer_0
  10
265.61517
  20
248.23087
  0
VERTEX
  5
344
  8
Layer_0
  10
265.70163
  20
248.39896
  0
VERTEX
  5
345
  8
Layer_0
  10
265.81943
  20
248.54895
  0
VERTEX
  5
346
  8
Layer_0
  10
265.83676
  20
248.56673
  0
VERTEX
  5
347
  8
Layer_0
  10
265.98389
  20
248.68808
  0
VERTEX
  5
348
  8
Layer_0
  10
266.14978
  20
248.7787
  0
VERTEX
  5
349
  8
Layer_0
  10
266.32971
  20
248.83649
  0
VERTEX
  5
34a
  8
Layer_0
  10
266.51904
  20
248.8593
  0
VERTEX
  5
34b
  8
Layer_0
  10
278.54388
  20
248.85962
  0
VERTEX
  5
34c
  8
Layer_0
  10
278.78659
  20
248.82968
  0
VERTEX
  5
34d
  8
Layer_0
  10
279.01477
  20
248.74184
  0
VERTEX
  5
34e
  8
Layer_0
  10
279.1394
  20
248.66306
  0
VERTEX
  5
34f
  8
Layer_0
  10
279.25101
  20
248.56674
  0
VERTEX
  5
350
  8
Layer_0
  10
279.37598
  20
248.41447
  0
VERTEX
  5
351
  8
Layer_0
  10
279.46786
  20
248.24236
  0
VERTEX
  5
352
  8
Layer_0
  10
279.52457
  20
248.05565
  0
VERTEX
  5
353
  8
Layer_0
  10
279.54388
  20
247.85962
  0
SEQEND
  0
POLYLINE
  5
355
  8
Layer_0
  62
0
  70
1
  66
1
  10
0
  20
0
  30
0
  0
VERTEX
  5
355
  8
Layer_0
  10
356.03143
  20
293.00964
  0
VERTEX
  5
356
  8
Layer_0
  10
356.03271
  20
292.95819
  0
VERTEX
  5
357
  8
Layer_0
  10
356.06161
  20
292.76477
  0
VERTEX
  5
358
  8
Layer_0
  10
356.1254
  20
292.58566
  0
VERTEX
  5
359
  8
Layer_0
  10
356.22034
  20
292.42438
  0
VERTEX
  5
35a
  8
Layer_0
  10
356.34265
  20
292.28448
  0
VERTEX
  5
35b
  8
Layer_0
  10
356.48865
  20
292.16953
  0
VERTEX
  5
35c
  8
Layer_0
  10
356.6546
  20
292.08304
  0
VERTEX
  5
35d
  8
Layer_0
  10
356.83679
  20
292.02856
  0
VERTEX
  5
35e
  8
Layer_0
  10
357.03143
  20
292.00964
  0
VERTEX
  5
35f
  8
Layer_0
  10
369.03143
  20
292.00964
  0
VERTEX
  5
360
  8
Layer_0
  10
369.22742
  20
292.02905
  0
VERTEX
  5
361
  8
Layer_0
  10
369.41412
  20
292.08575
  0
VERTEX
  5
362
  8
Layer_0
  10
369.58624
  20
292.17761
  0
VERTEX
  5
363
  8
Layer_0
  10
369.73856
  20
292.30249
  0
VERTEX
  5
364
  8
Layer_0
  10
369.86346
  20
292.45483
  0
VERTEX
  5
365
  8
Layer_0
  10
369.95532
  20
292.62695
  0
VERTEX
  5
366
  8
Layer_0
  10
370.01202
  20
292.81366
  0
VERTEX
  5
367
  8
Layer_0
  10
370.03143
  20
293.00964
  0
VERTEX
  5
368
  8
Layer_0
  10
370.03143
  20
305.00964
  0
VERTEX
  5
369
  8
Layer_0
  10
370.01251
  20
305.20428
  0
VERTEX
  5
36a
  8
Layer_0
  10
369.95804
  20
305.38644
  0
VERTEX
  5
36b
  8
Layer_0
  10
369.87152
  20
305.5524
  0
VERTEX
  5
36c
  8
Layer_0
  10
369.75659
  20
305.69839
  0
VERTEX
  5
36d
  8
Layer_0
  10
369.6167
  20
305.82074
  0
VERTEX
  5
36e
  8
Layer_0
  10
369.45541
  20
305.91568
  0
VERTEX
  5
36f
  8
Layer_0
  10
369.27631
  20
305.97946
  0
VERTEX
  5
370
  8
Layer_0
  10
369.08289
  20
306.00836
  0
VERTEX
  5
371
  8
Layer_0
  10
369.03143
  20
306.00964
  0
VERTEX
  5
372
  8
Layer_0
  10
357.03143
  20
306.00964
  0
VERTEX
  5
373
  8
Layer_0
  10
356.97998
  20
306.00836
  0
VERTEX
  5
374
  8
Layer_0
  10
356.78656
  20
305.97943
  0
VERTEX
  5
375
  8
Layer_0
  10
356.60745
  20
305.91565
  0
VERTEX
  5
376
  8
Layer_0
  10
356.44617
  20
305.82071
  0
VERTEX
  5
377
  8
Layer_0
  10
356.30627
  20
305.69836
  0
VERTEX
  5
378
  8
Layer_0
  10
356.19135
  20
305.55237
  0
VERTEX
  5
379
  8
Layer_0
  10
356.10483
  20
305.38644
  0
VERTEX
  5
37a
  8
Layer_0
  10
356.05035
  20
305.20428
  0
VERTEX
  5
37b
  8
Layer_0
  10
356.03143
  20
305.00964
  0
VERTEX
  5
37c
  8
Layer_0
  10
356.03143
  20
293.00964
  0
SEQEND
  0
POLYLINE
  5
37e
  8
Layer_0
  62
0
  70
1
  66
1
  10
0
  20
0
  30
0
  0
VERTEX
  5
37e
  8
Layer_0
  10
285.59387
  20
248.85962
  0
VERTEX
  5
37f
  8
Layer_0
  10
297.59387
  20
248.85962
  0
VERTEX
  5
380
  8
Layer_0
  10
297.81284
  20
248.83537
  0
VERTEX
  5
381
  8
Layer_0
  10
298.02118
  20
248.76376
  0
VERTEX
  5
382
  8
Layer_0
  10
298.16956
  20
248.67729
  0
VERTEX
  5
383
  8
Layer_0
  10
298.30103
  20
248.56674
  0
VERTEX
  5
384
  8
Layer_0
  10
298.42252
  20
248.41975
  0
VERTEX
  5
385
  8
Layer_0
  10
298.51309
  20
248.25385
  0
VERTEX
  5
386
  8
Layer_0
  10
298.5708
  20
248.07382
  0
VERTEX
  5
387
  8
Layer_0
  10
298.5936
  20
247.88446
  0
VERTEX
  5
388
  8
Layer_0
  10
298.59387
  20
235.85962
  0
VERTEX
  5
389
  8
Layer_0
  10
298.57431
  20
235.66357
  0
VERTEX
  5
38a
  8
Layer_0
  10
298.51755
  20
235.47681
  0
VERTEX
  5
38b
  8
Layer_0
  10
298.42572
  20
235.3046
  0
VERTEX
  5
38c
  8
Layer_0
  10
298.3009
  20
235.15219
  0
VERTEX
  5
38d
  8
Layer_0
  10
298.14865
  20
235.02719
  0
VERTEX
  5
38e
  8
Layer_0
  10
297.97656
  20
234.93527
  0
VERTEX
  5
38f
  8
Layer_0
  10
297.78989
  20
234.87866
  0
VERTEX
  5
390
  8
Layer_0
  10
297.59387
  20
234.85959
  0
VERTEX
  5
391
  8
Layer_0
  10
285.59387
  20
234.85962
  0
VERTEX
  5
392
  8
Layer_0
  10
285.39929
  20
234.87857
  0
VERTEX
  5
393
  8
Layer_0
  10
285.21716
  20
234.93307
  0
VERTEX
  5
394
  8
Layer_0
  10
285.05124
  20
235.01959
  0
VERTEX
  5
395
  8
Layer_0
  10
284.90527
  20
235.13452
  0
VERTEX
  5
396
  8
Layer_0
  10
284.78296
  20
235.27438
  0
VERTEX
  5
397
  8
Layer_0
  10
284.68799
  20
235.43567
  0
VERTEX
  5
398
  8
Layer_0
  10
284.62415
  20
235.61475
  0
VERTEX
  5
399
  8
Layer_0
  10
284.59521
  20
235.80817
  0
VERTEX
  5
39a
  8
Layer_0
  10
284.5939
  20
235.85962
  0
VERTEX
  5
39b
  8
Layer_0
  10
284.59387
  20
247.85962
  0
VERTEX
  5
39c
  8
Layer_0
  10
284.61282
  20
248.05426
  0
VERTEX
  5
39d
  8
Layer_0
  10
284.66733
  20
248.2364
  0
VERTEX
  5
39e
  8
Layer_0
  10
284.75385
  20
248.40234
  0
VERTEX
  5
39f
  8
Layer_0
  10
284.8688
  20
248.54834
  0
VERTEX
  5
3a0
  8
Layer_0
  10
285.0087
  20
248.67067
  0
VERTEX
  5
3a1
  8
Layer_0
  10
285.16992
  20
248.76561
  0
VERTEX
  5
3a2
  8
Layer_0
  10
285.34903
  20
248.82942
  0
VERTEX
  5
3a3
  8
Layer_0
  10
285.54242
  20
248.8584
  0
VERTEX
  5
3a4
  8
Layer_0
  10
285.59387
  20
248.85962
  0
SEQEND
  0
POLYLINE
  5
3a6
  8
Layer_0
  62
0
  70
1
  66
1
  10
0
  20
0
  30
0
  0
VERTEX
  5
3a6
  8
Layer_0
  10
335.69391
  20
234.85962
  0
VERTEX
  5
3a7
  8
Layer_0
  10
323.69391
  20
234.85962
  0
VERTEX
  5
3a8
  8
Layer_0
  10
323.49921
  20
234.87848
  0
VERTEX
  5
3a9
  8
Layer_0
  10
323.31699
  20
234.93292
  0
VERTEX
  5
3aa
  8
Layer_0
  10
323.15097
  20
235.01941
  0
VERTEX
  5
3ab
  8
Layer_0
  10
323.00491
  20
235.13437
  0
VERTEX
  5
3ac
  8
Layer_0
  10
322.88257
  20
235.27426
  0
VERTEX
  5
3ad
  8
Layer_0
  10
322.78766
  20
235.43555
  0
VERTEX
  5
3ae
  8
Layer_0
  10
322.72394
  20
235.61472
  0
VERTEX
  5
3af
  8
Layer_0
  10
322.69519
  20
235.80817
  0
VERTEX
  5
3b0
  8
Layer_0
  10
322.69391
  20
235.85962
  0
VERTEX
  5
3b1
  8
Layer_0
  10
322.69391
  20
247.85962
  0
VERTEX
  5
3b2
  8
Layer_0
  10
322.70966
  20
248.03714
  0
VERTEX
  5
3b3
  8
Layer_0
  10
322.75635
  20
248.2077
  0
VERTEX
  5
3b4
  8
Layer_0
  10
322.8324
  20
248.3674
  0
VERTEX
  5
3b5
  8
Layer_0
  10
322.93622
  20
248.51227
  0
VERTEX
  5
3b6
  8
Layer_0
  10
322.98679
  20
248.56671
  0
VERTEX
  5
3b7
  8
Layer_0
  10
323.13379
  20
248.68817
  0
VERTEX
  5
3b8
  8
Layer_0
  10
323.29968
  20
248.77872
  0
VERTEX
  5
3b9
  8
Layer_0
  10
323.47971
  20
248.83641
  0
VERTEX
  5
3ba
  8
Layer_0
  10
323.66907
  20
248.85927
  0
VERTEX
  5
3bb
  8
Layer_0
  10
335.69391
  20
248.85962
  0
VERTEX
  5
3bc
  8
Layer_0
  10
335.86505
  20
248.84499
  0
VERTEX
  5
3bd
  8
Layer_0
  10
336.03107
  20
248.80107
  0
VERTEX
  5
3be
  8
Layer_0
  10
336.22906
  20
248.70445
  0
VERTEX
  5
3bf
  8
Layer_0
  10
336.401
  20
248.56674
  0
VERTEX
  5
3c0
  8
Layer_0
  10
336.52594
  20
248.41449
  0
VERTEX
  5
3c1
  8
Layer_0
  10
336.61783
  20
248.24236
  0
VERTEX
  5
3c2
  8
Layer_0
  10
336.67453
  20
248.05563
  0
VERTEX
  5
3c3
  8
Layer_0
  10
336.69391
  20
247.85962
  0
VERTEX
  5
3c4
  8
Layer_0
  10
336.69391
  20
235.85962
  0
VERTEX
  5
3c5
  8
Layer_0
  10
336.67358
  20
235.65808
  0
VERTEX
  5
3c6
  8
Layer_0
  10
336.61536
  20
235.47034
  0
VERTEX
  5
3c7
  8
Layer_0
  10
336.52313
  20
235.30051
  0
VERTEX
  5
3c8
  8
Layer_0
  10
336.40106
  20
235.1525
  0
VERTEX
  5
3c9
  8
Layer_0
  10
336.25305
  20
235.0304
  0
VERTEX
  5
3ca
  8
Layer_0
  10
336.08319
  20
234.9382
  0
VERTEX
  5
3cb
  8
Layer_0
  10
335.89545
  20
234.87994
  0
VERTEX
  5
3cc
  8
Layer_0
  10
335.69391
  20
234.85962
  0
SEQEND
  0
POLYLINE
  5
3ce
  8
Layer_0
  62
0
  70
1
  66
1
  10
0
  20
0
  30
0
  0
VERTEX
  5
3ce
  8
Layer_0
  10
407.13144
  20
292.00964
  0
VERTEX
  5
3cf
  8
Layer_0
  10
395.13144
  20
292.00964
  0
VERTEX
  5
3d0
  8
Layer_0
  10
394.94159
  20
292.02783
  0
VERTEX
  5
3d1
  8
Layer_0
  10
394.76025
  20
292.08112
  0
VERTEX
  5
3d2
  8
Layer_0
  10
394.5921
  20
292.16751
  0
VERTEX
  5
3d3
  8
Layer_0
  10
394.44208
  20
292.28522
  0
VERTEX
  5
3d4
  8
Layer_0
  10
394.42432
  20
292.30255
  0
VERTEX
  5
3d5
  8
Layer_0
  10
394.30298
  20
292.44965
  0
VERTEX
  5
3d6
  8
Layer_0
  10
394.2124
  20
292.61554
  0
VERTEX
  5
3d7
  8
Layer_0
  10
394.1546
  20
292.7955
  0
VERTEX
  5
3d8
  8
Layer_0
  10
394.13171
  20
292.9848
  0
VERTEX
  5
3d9
  8
Layer_0
  10
394.13144
  20
305.00964
  0
VERTEX
  5
3da
  8
Layer_0
  10
394.15036
  20
305.20428
  0
VERTEX
  5
3db
  8
Layer_0
  10
394.20486
  20
305.38644
  0
VERTEX
  5
3dc
  8
Layer_0
  10
394.29138
  20
305.5524
  0
VERTEX
  5
3dd
  8
Layer_0
  10
394.40631
  20
305.69839
  0
VERTEX
  5
3de
  8
Layer_0
  10
394.54617
  20
305.82074
  0
VERTEX
  5
3df
  8
Layer_0
  10
394.70746
  20
305.91565
  0
VERTEX
  5
3e0
  8
Layer_0
  10
394.8866
  20
305.97943
  0
VERTEX
  5
3e1
  8
Layer_0
  10
395.07999
  20
306.00833
  0
VERTEX
  5
3e2
  8
Layer_0
  10
395.13144
  20
306.00964
  0
VERTEX
  5
3e3
  8
Layer_0
  10
407.13144
  20
306.00964
  0
VERTEX
  5
3e4
  8
Layer_0
  10
407.18292
  20
306.00836
  0
VERTEX
  5
3e5
  8
Layer_0
  10
407.37634
  20
305.97946
  0
VERTEX
  5
3e6
  8
Layer_0
  10
407.55545
  20
305.91568
  0
VERTEX
  5
3e7
  8
Layer_0
  10
407.71674
  20
305.82074
  0
VERTEX
  5
3e8
  8
Layer_0
  10
407.85663
  20
305.69839
  0
VERTEX
  5
3e9
  8
Layer_0
  10
407.97156
  20
305.5524
  0
VERTEX
  5
3ea
  8
Layer_0
  10
408.05804
  20
305.38644
  0
VERTEX
  5
3eb
  8
Layer_0
  10
408.11255
  20
305.20428
  0
VERTEX
  5
3ec
  8
Layer_0
  10
408.13144
  20
305.00964
  0
VERTEX
  5
3ed
  8
Layer_0
  10
408.13144
  20
293.00964
  0
VERTEX
  5
3ee
  8
Layer_0
  10
408.11206
  20
292.81366
  0
VERTEX
  5
3ef
  8
Layer_0
  10
408.05536
  20
292.62695
  0
VERTEX
  5
3f0
  8
Layer_0
  10
407.9635
  20
292.4548
  0
VERTEX
  5
3f1
  8
Layer_0
  10
407.83859
  20
292.30249
  0
VERTEX
  5
3f2
  8
Layer_0
  10
407.68628
  20
292.17755
  0
VERTEX
  5
3f3
  8
Layer_0
  10
407.51416
  20
292.08563
  0
VERTEX
  5
3f4
  8
Layer_0
  10
407.32745
  20
292.02893
  0
VERTEX
  5
3f5
  8
Layer_0
  10
407.13144
  20
292.00964
  0
SEQEND
  0
POLYLINE
  5
3f7
  8
Layer_0
  62
0
  70
1
  66
1
  10
0
  20
0
  30
0
  0
VERTEX
  5
3f7
  8
Layer_0
  10
333.2189
  20
267.90964
  0
VERTEX
  5
3f8
  8
Layer_0
  10
345.21893
  20
267.90964
  0
VERTEX
  5
3f9
  8
Layer_0
  10
345.32956
  20
267.90356
  0
VERTEX
  5
3fa
  8
Layer_0
  10
345.43887
  20
267.88516
  0
VERTEX
  5
3fb
  8
Layer_0
  10
345.57401
  20
267.84445
  0
VERTEX
  5
3fc
  8
Layer_0
  10
345.70145
  20
267.78546
  0
VERTEX
  5
3fd
  8
Layer_0
  10
345.8194
  20
267.70923
  0
VERTEX
  5
3fe
  8
Layer_0
  10
345.92603
  20
267.61676
  0
VERTEX
  5
3ff
  8
Layer_0
  10
346.0509
  20
267.46442
  0
VERTEX
  5
400
  8
Layer_0
  10
346.14282
  20
267.2923
  0
VERTEX
  5
401
  8
Layer_0
  10
346.19958
  20
267.10565
  0
VERTEX
  5
402
  8
Layer_0
  10
346.21893
  20
266.90964
  0
VERTEX
  5
403
  8
Layer_0
  10
346.21893
  20
254.90964
  0
VERTEX
  5
404
  8
Layer_0
  10
346.19946
  20
254.71359
  0
VERTEX
  5
405
  8
Layer_0
  10
346.14276
  20
254.52686
  0
VERTEX
  5
406
  8
Layer_0
  10
346.0509
  20
254.35468
  0
VERTEX
  5
407
  8
Layer_0
  10
345.92603
  20
254.2023
  0
VERTEX
  5
408
  8
Layer_0
  10
345.77374
  20
254.07736
  0
VERTEX
  5
409
  8
Layer_0
  10
345.60162
  20
253.98544
  0
VERTEX
  5
40a
  8
Layer_0
  10
345.41495
  20
253.92877
  0
VERTEX
  5
40b
  8
Layer_0
  10
345.21893
  20
253.90956
  0
VERTEX
  5
40c
  8
Layer_0
  10
333.2189
  20
253.90964
  0
VERTEX
  5
40d
  8
Layer_0
  10
333.02426
  20
253.92844
  0
VERTEX
  5
40e
  8
Layer_0
  10
332.8421
  20
253.98285
  0
VERTEX
  5
40f
  8
Layer_0
  10
332.67618
  20
254.06934
  0
VERTEX
  5
410
  8
Layer_0
  10
332.53021
  20
254.18433
  0
VERTEX
  5
411
  8
Layer_0
  10
332.4079
  20
254.32425
  0
VERTEX
  5
412
  8
Layer_0
  10
332.31296
  20
254.48558
  0
VERTEX
  5
413
  8
Layer_0
  10
332.24915
  20
254.66473
  0
VERTEX
  5
414
  8
Layer_0
  10
332.22021
  20
254.85817
  0
VERTEX
  5
415
  8
Layer_0
  10
332.2189
  20
254.90964
  0
VERTEX
  5
416
  8
Layer_0
  10
332.2189
  20
266.90964
  0
VERTEX
  5
417
  8
Layer_0
  10
332.23712
  20
267.09946
  0
VERTEX
  5
418
  8
Layer_0
  10
332.29037
  20
267.28082
  0
VERTEX
  5
419
  8
Layer_0
  10
332.37677
  20
267.44891
  0
VERTEX
  5
41a
  8
Layer_0
  10
332.49445
  20
267.59894
  0
VERTEX
  5
41b
  8
Layer_0
  10
332.51178
  20
267.61673
  0
VERTEX
  5
41c
  8
Layer_0
  10
332.65884
  20
267.73816
  0
VERTEX
  5
41d
  8
Layer_0
  10
332.82474
  20
267.8287
  0
VERTEX
  5
41e
  8
Layer_0
  10
333.00473
  20
267.88641
  0
VERTEX
  5
41f
  8
Layer_0
  10
333.19409
  20
267.90924
  0
VERTEX
  5
420
  8
Layer_0
  10
333.2189
  20
267.90964
  0
SEQEND
  0
POLYLINE
  5
422
  8
Layer_0
  62
0
  70
1
  66
1
  10
0
  20
0
  30
0
  0
VERTEX
  5
422
  8
Layer_0
  10
208.10629
  20
228.80963
  0
VERTEX
  5
423
  8
Layer_0
  10
208.0733
  20
229.06412
  0
VERTEX
  5
424
  8
Layer_0
  10
207.97675
  20
229.30191
  0
VERTEX
  5
425
  8
Layer_0
  10
207.9024
  20
229.41486
  0
VERTEX
  5
426
  8
Layer_0
  10
207.81342
  20
229.51672
  0
VERTEX
  5
427
  8
Layer_0
  10
207.79565
  20
229.53406
  0
VERTEX
  5
428
  8
Layer_0
  10
207.64563
  20
229.65176
  0
VERTEX
  5
429
  8
Layer_0
  10
207.47754
  20
229.73819
  0
VERTEX
  5
42a
  8
Layer_0
  10
207.2962
  20
229.79144
  0
VERTEX
  5
42b
  8
Layer_0
  10
207.10632
  20
229.80963
  0
VERTEX
  5
42c
  8
Layer_0
  10
192.70026
  20
229.8093
  0
VERTEX
  5
42d
  8
Layer_0
  10
192.51093
  20
229.78638
  0
VERTEX
  5
42e
  8
Layer_0
  10
192.33096
  20
229.72864
  0
VERTEX
  5
42f
  8
Layer_0
  10
192.16507
  20
229.63806
  0
VERTEX
  5
430
  8
Layer_0
  10
192.01797
  20
229.51672
  0
VERTEX
  5
431
  8
Layer_0
  10
192.00061
  20
229.49896
  0
VERTEX
  5
432
  8
Layer_0
  10
191.88293
  20
229.34894
  0
VERTEX
  5
433
  8
Layer_0
  10
191.79648
  20
229.18079
  0
VERTEX
  5
434
  8
Layer_0
  10
191.74323
  20
228.99945
  0
VERTEX
  5
435
  8
Layer_0
  10
191.72507
  20
228.80963
  0
VERTEX
  5
436
  8
Layer_0
  10
191.72507
  20
216.8096
  0
VERTEX
  5
437
  8
Layer_0
  10
191.72638
  20
216.75815
  0
VERTEX
  5
438
  8
Layer_0
  10
191.75528
  20
216.56476
  0
VERTEX
  5
439
  8
Layer_0
  10
191.81906
  20
216.38562
  0
VERTEX
  5
43a
  8
Layer_0
  10
191.914
  20
216.2243
  0
VERTEX
  5
43b
  8
Layer_0
  10
192.03632
  20
216.08441
  0
VERTEX
  5
43c
  8
Layer_0
  10
192.18231
  20
215.96948
  0
VERTEX
  5
43d
  8
Layer_0
  10
192.34827
  20
215.883
  0
VERTEX
  5
43e
  8
Layer_0
  10
192.53043
  20
215.82849
  0
VERTEX
  5
43f
  8
Layer_0
  10
192.72507
  20
215.8096
  0
VERTEX
  5
440
  8
Layer_0
  10
207.10632
  20
215.8096
  0
VERTEX
  5
441
  8
Layer_0
  10
207.30237
  20
215.82895
  0
VERTEX
  5
442
  8
Layer_0
  10
207.48911
  20
215.88562
  0
VERTEX
  5
443
  8
Layer_0
  10
207.66125
  20
215.97748
  0
VERTEX
  5
444
  8
Layer_0
  10
207.81363
  20
216.10236
  0
VERTEX
  5
445
  8
Layer_0
  10
207.93854
  20
216.2547
  0
VERTEX
  5
446
  8
Layer_0
  10
208.0304
  20
216.42685
  0
VERTEX
  5
447
  8
Layer_0
  10
208.08704
  20
216.61359
  0
VERTEX
  5
448
  8
Layer_0
  10
208.10632
  20
216.8096
  0
VERTEX
  5
449
  8
Layer_0
  10
208.10629
  20
228.80963
  0
SEQEND
  0
POLYLINE
  5
44b
  8
Layer_0
  62
0
  70
1
  66
1
  10
0
  20
0
  30
0
  0
VERTEX
  5
44b
  8
Layer_0
  10
403.36902
  20
266.90964
  0
VERTEX
  5
44c
  8
Layer_0
  10
403.3678
  20
266.95923
  0
VERTEX
  5
44d
  8
Layer_0
  10
403.34167
  20
267.14185
  0
VERTEX
  5
44e
  8
Layer_0
  10
403.28311
  20
267.31512
  0
VERTEX
  5
44f
  8
Layer_0
  10
403.19397
  20
267.47488
  0
VERTEX
  5
450
  8
Layer_0
  10
403.07611
  20
267.61676
  0
VERTEX
  5
451
  8
Layer_0
  10
403.04016
  20
267.65097
  0
VERTEX
  5
452
  8
Layer_0
  10
402.8927
  20
267.76181
  0
VERTEX
  5
453
  8
Layer_0
  10
402.72873
  20
267.84296
  0
VERTEX
  5
454
  8
Layer_0
  10
402.55267
  20
267.89282
  0
VERTEX
  5
455
  8
Layer_0
  10
402.36896
  20
267.90964
  0
VERTEX
  5
456
  8
Layer_0
  10
390.36896
  20
267.90964
  0
VERTEX
  5
457
  8
Layer_0
  10
390.31747
  20
267.90833
  0
VERTEX
  5
458
  8
Layer_0
  10
390.12408
  20
267.87943
  0
VERTEX
  5
459
  8
Layer_0
  10
389.94495
  20
267.81564
  0
VERTEX
  5
45a
  8
Layer_0
  10
389.78366
  20
267.7207
  0
VERTEX
  5
45b
  8
Layer_0
  10
389.6438
  20
267.59839
  0
VERTEX
  5
45c
  8
Layer_0
  10
389.52887
  20
267.45239
  0
VERTEX
  5
45d
  8
Layer_0
  10
389.44235
  20
267.28644
  0
VERTEX
  5
45e
  8
Layer_0
  10
389.38788
  20
267.10428
  0
VERTEX
  5
45f
  8
Layer_0
  10
389.36896
  20
266.90964
  0
VERTEX
  5
460
  8
Layer_0
  10
389.36896
  20
254.90964
  0
VERTEX
  5
461
  8
Layer_0
  10
389.37021
  20
254.85817
  0
VERTEX
  5
462
  8
Layer_0
  10
389.39902
  20
254.6647
  0
VERTEX
  5
463
  8
Layer_0
  10
389.46277
  20
254.48557
  0
VERTEX
  5
464
  8
Layer_0
  10
389.55768
  20
254.32425
  0
VERTEX
  5
465
  8
Layer_0
  10
389.67999
  20
254.18433
  0
VERTEX
  5
466
  8
Layer_0
  10
389.82608
  20
254.06935
  0
VERTEX
  5
467
  8
Layer_0
  10
389.99207
  20
253.98288
  0
VERTEX
  5
468
  8
Layer_0
  10
390.17426
  20
253.92845
  0
VERTEX
  5
469
  8
Layer_0
  10
390.36896
  20
253.90964
  0
VERTEX
  5
46a
  8
Layer_0
  10
402.36896
  20
253.90964
  0
VERTEX
  5
46b
  8
Layer_0
  10
402.56497
  20
253.92906
  0
VERTEX
  5
46c
  8
Layer_0
  10
402.75168
  20
253.98575
  0
VERTEX
  5
46d
  8
Layer_0
  10
402.92383
  20
254.07759
  0
VERTEX
  5
46e
  8
Layer_0
  10
403.07608
  20
254.2025
  0
VERTEX
  5
46f
  8
Layer_0
  10
403.2009
  20
254.35483
  0
VERTEX
  5
470
  8
Layer_0
  10
403.29276
  20
254.52695
  0
VERTEX
  5
471
  8
Layer_0
  10
403.34949
  20
254.71364
  0
VERTEX
  5
472
  8
Layer_0
  10
403.36896
  20
254.90964
  0
VERTEX
  5
473
  8
Layer_0
  10
403.36902
  20
266.90964
  0
SEQEND
  0
POLYLINE
  5
475
  8
Layer_0
  62
0
  70
1
  66
1
  10
0
  20
0
  30
0
  0
VERTEX
  5
475
  8
Layer_0
  10
208.10632
  20
285.95966
  0
VERTEX
  5
476
  8
Layer_0
  10
208.10632
  20
273.95966
  0
VERTEX
  5
477
  8
Layer_0
  10
208.08694
  20
273.76364
  0
VERTEX
  5
478
  8
Layer_0
  10
208.03024
  20
273.57693
  0
VERTEX
  5
479
  8
Layer_0
  10
207.93835
  20
273.40482
  0
VERTEX
  5
47a
  8
Layer_0
  10
207.81348
  20
273.2525
  0
VERTEX
  5
47b
  8
Layer_0
  10
207.66113
  20
273.12762
  0
VERTEX
  5
47c
  8
Layer_0
  10
207.48901
  20
273.03577
  0
VERTEX
  5
47d
  8
Layer_0
  10
207.30234
  20
272.97906
  0
VERTEX
  5
47e
  8
Layer_0
  10
207.10632
  20
272.95966
  0
VERTEX
  5
47f
  8
Layer_0
  10
195.10632
  20
272.95966
  0
VERTEX
  5
480
  8
Layer_0
  10
194.91168
  20
272.97858
  0
VERTEX
  5
481
  8
Layer_0
  10
194.72955
  20
273.03305
  0
VERTEX
  5
482
  8
Layer_0
  10
194.5636
  20
273.11954
  0
VERTEX
  5
483
  8
Layer_0
  10
194.41757
  20
273.2345
  0
VERTEX
  5
484
  8
Layer_0
  10
194.29523
  20
273.37439
  0
VERTEX
  5
485
  8
Layer_0
  10
194.20032
  20
273.53568
  0
VERTEX
  5
486
  8
Layer_0
  10
194.13654
  20
273.71478
  0
VERTEX
  5
487
  8
Layer_0
  10
194.1076
  20
273.90817
  0
VERTEX
  5
488
  8
Layer_0
  10
194.10632
  20
273.95966
  0
VERTEX
  5
489
  8
Layer_0
  10
194.10632
  20
285.95966
  0
VERTEX
  5
48a
  8
Layer_0
  10
194.12524
  20
286.15427
  0
VERTEX
  5
48b
  8
Layer_0
  10
194.17972
  20
286.33643
  0
VERTEX
  5
48c
  8
Layer_0
  10
194.26624
  20
286.50238
  0
VERTEX
  5
48d
  8
Layer_0
  10
194.3812
  20
286.64838
  0
VERTEX
  5
48e
  8
Layer_0
  10
194.52109
  20
286.77069
  0
VERTEX
  5
48f
  8
Layer_0
  10
194.68237
  20
286.86563
  0
VERTEX
  5
490
  8
Layer_0
  10
194.86145
  20
286.92941
  0
VERTEX
  5
491
  8
Layer_0
  10
195.05487
  20
286.95834
  0
VERTEX
  5
492
  8
Layer_0
  10
195.10632
  20
286.95966
  0
VERTEX
  5
493
  8
Layer_0
  10
207.10632
  20
286.95966
  0
VERTEX
  5
494
  8
Layer_0
  10
207.35223
  20
286.9292
  0
VERTEX
  5
495
  8
Layer_0
  10
207.58301
  20
286.83893
  0
VERTEX
  5
496
  8
Layer_0
  10
207.80084
  20
286.67938
  0
VERTEX
  5
497
  8
Layer_0
  10
207.96564
  20
286.47131
  0
VERTEX
  5
498
  8
Layer_0
  10
208.06995
  20
286.22723
  0
VERTEX
  5
499
  8
Layer_0
  10
208.10632
  20
285.95966
  0
SEQEND
  0
POLYLINE
  5
49b
  8
Layer_0
  62
0
  70
1
  66
1
  10
0
  20
0
  30
0
  0
VERTEX
  5
49b
  8
Layer_0
  10
404.65643
  20
229.80954
  0
VERTEX
  5
49c
  8
Layer_0
  10
404.60498
  20
229.80823
  0
VERTEX
  5
49d
  8
Layer_0
  10
404.41153
  20
229.77936
  0
VERTEX
  5
49e
  8
Layer_0
  10
404.23236
  20
229.71564
  0
VERTEX
  5
49f
  8
Layer_0
  10
404.07098
  20
229.62073
  0
VERTEX
  5
4a0
  8
Layer_0
  10
403.93103
  20
229.49841
  0
VERTEX
  5
4a1
  8
Layer_0
  10
403.81604
  20
229.35242
  0
VERTEX
  5
4a2
  8
Layer_0
  10
403.72955
  20
229.18646
  0
VERTEX
  5
4a3
  8
Layer_0
  10
403.67517
  20
229.0043
  0
VERTEX
  5
4a4
  8
Layer_0
  10
403.65643
  20
228.80963
  0
VERTEX
  5
4a5
  8
Layer_0
  10
403.65643
  20
216.8096
  0
VERTEX
  5
4a6
  8
Layer_0
  10
403.65768
  20
216.75815
  0
VERTEX
  5
4a7
  8
Layer_0
  10
403.68665
  20
216.5647
  0
VERTEX
  5
4a8
  8
Layer_0
  10
403.75049
  20
216.3855
  0
VERTEX
  5
4a9
  8
Layer_0
  10
403.8454
  20
216.22412
  0
VERTEX
  5
4aa
  8
Layer_0
  10
403.96771
  20
216.08417
  0
VERTEX
  5
4ab
  8
Layer_0
  10
404.11368
  20
215.96918
  0
VERTEX
  5
4ac
  8
Layer_0
  10
404.2796
  20
215.88269
  0
VERTEX
  5
4ad
  8
Layer_0
  10
404.46176
  20
215.82831
  0
VERTEX
  5
4ae
  8
Layer_0
  10
404.65643
  20
215.8096
  0
VERTEX
  5
4af
  8
Layer_0
  10
419.03769
  20
215.8096
  0
VERTEX
  5
4b0
  8
Layer_0
  10
419.23917
  20
215.83014
  0
VERTEX
  5
4b1
  8
Layer_0
  10
419.42688
  20
215.88855
  0
VERTEX
  5
4b2
  8
Layer_0
  10
419.59671
  20
215.98077
  0
VERTEX
  5
4b3
  8
Layer_0
  10
419.74472
  20
216.10284
  0
VERTEX
  5
4b4
  8
Layer_0
  10
419.86682
  20
216.25079
  0
VERTEX
  5
4b5
  8
Layer_0
  10
419.95905
  20
216.42053
  0
VERTEX
  5
4b6
  8
Layer_0
  10
420.01733
  20
216.60815
  0
VERTEX
  5
4b7
  8
Layer_0
  10
420.03769
  20
216.8096
  0
VERTEX
  5
4b8
  8
Layer_0
  10
420.03769
  20
228.80963
  0
VERTEX
  5
4b9
  8
Layer_0
  10
420.03647
  20
228.85919
  0
VERTEX
  5
4ba
  8
Layer_0
  10
420.01022
  20
229.04172
  0
VERTEX
  5
4bb
  8
Layer_0
  10
419.95157
  20
229.21497
  0
VERTEX
  5
4bc
  8
Layer_0
  10
419.86246
  20
229.37469
  0
VERTEX
  5
4bd
  8
Layer_0
  10
419.74481
  20
229.51672
  0
VERTEX
  5
4be
  8
Layer_0
  10
419.56274
  20
229.66125
  0
VERTEX
  5
4bf
  8
Layer_0
  10
419.35181
  20
229.759
  0
VERTEX
  5
4c0
  8
Layer_0
  10
419.19684
  20
229.79724
  0
VERTEX
  5
4c1
  8
Layer_0
  10
419.03769
  20
229.80963
  0
VERTEX
  5
4c2
  8
Layer_0
  10
404.65643
  20
229.80954
  0
SEQEND
  0
POLYLINE
  5
4c4
  8
Layer_0
  62
0
  70
1
  66
1
  10
0
  20
0
  30
0
  0
VERTEX
  5
4c4
  8
Layer_0
  10
183.29382
  20
272.95953
  0
VERTEX
  5
4c5
  8
Layer_0
  10
183.48987
  20
272.97894
  0
VERTEX
  5
4c6
  8
Layer_0
  10
183.67657
  20
273.03564
  0
VERTEX
  5
4c7
  8
Layer_0
  10
183.84869
  20
273.12756
  0
VERTEX
  5
4c8
  8
Layer_0
  10
184.00098
  20
273.25247
  0
VERTEX
  5
4c9
  8
Layer_0
  10
184.12585
  20
273.40479
  0
VERTEX
  5
4ca
  8
Layer_0
  10
184.21777
  20
273.57693
  0
VERTEX
  5
4cb
  8
Layer_0
  10
184.27441
  20
273.76364
  0
VERTEX
  5
4cc
  8
Layer_0
  10
184.29382
  20
273.95966
  0
VERTEX
  5
4cd
  8
Layer_0
  10
184.29382
  20
285.95966
  0
VERTEX
  5
4ce
  8
Layer_0
  10
184.27686
  20
286.14331
  0
VERTEX
  5
4cf
  8
Layer_0
  10
184.22693
  20
286.31931
  0
VERTEX
  5
4d0
  8
Layer_0
  10
184.14581
  20
286.48325
  0
VERTEX
  5
4d1
  8
Layer_0
  10
184.03516
  20
286.6308
  0
VERTEX
  5
4d2
  8
Layer_0
  10
183.98315
  20
286.68408
  0
VERTEX
  5
4d3
  8
Layer_0
  10
183.83307
  20
286.80179
  0
VERTEX
  5
4d4
  8
Layer_0
  10
183.66498
  20
286.88821
  0
VERTEX
  5
4d5
  8
Layer_0
  10
183.48364
  20
286.94147
  0
VERTEX
  5
4d6
  8
Layer_0
  10
183.29382
  20
286.95966
  0
VERTEX
  5
4d7
  8
Layer_0
  10
171.29382
  20
286.95966
  0
VERTEX
  5
4d8
  8
Layer_0
  10
171.24237
  20
286.95825
  0
VERTEX
  5
4d9
  8
Layer_0
  10
171.04895
  20
286.92935
  0
VERTEX
  5
4da
  8
Layer_0
  10
170.86987
  20
286.86557
  0
VERTEX
  5
4db
  8
Layer_0
  10
170.70862
  20
286.77066
  0
VERTEX
  5
4dc
  8
Layer_0
  10
170.56873
  20
286.64832
  0
VERTEX
  5
4dd
  8
Layer_0
  10
170.4538
  20
286.50232
  0
VERTEX
  5
4de
  8
Layer_0
  10
170.36731
  20
286.33643
  0
VERTEX
  5
4df
  8
Layer_0
  10
170.31281
  20
286.15427
  0
VERTEX
  5
4e0
  8
Layer_0
  10
170.29382
  20
285.95966
  0
VERTEX
  5
4e1
  8
Layer_0
  10
170.29382
  20
273.95966
  0
VERTEX
  5
4e2
  8
Layer_0
  10
170.2951
  20
273.90817
  0
VERTEX
  5
4e3
  8
Layer_0
  10
170.32397
  20
273.71478
  0
VERTEX
  5
4e4
  8
Layer_0
  10
170.38776
  20
273.53568
  0
VERTEX
  5
4e5
  8
Layer_0
  10
170.48267
  20
273.37439
  0
VERTEX
  5
4e6
  8
Layer_0
  10
170.60504
  20
273.2345
  0
VERTEX
  5
4e7
  8
Layer_0
  10
170.7511
  20
273.11954
  0
VERTEX
  5
4e8
  8
Layer_0
  10
170.91705
  20
273.03302
  0
VERTEX
  5
4e9
  8
Layer_0
  10
171.09924
  20
272.97855
  0
VERTEX
  5
4ea
  8
Layer_0
  10
171.29382
  20
272.95966
  0
VERTEX
  5
4eb
  8
Layer_0
  10
183.29382
  20
272.95953
  0
SEQEND
  0
POLYLINE
  5
4ed
  8
Layer_0
  62
0
  70
1
  66
1
  10
0
  20
0
  30
0
  0
VERTEX
  5
4ed
  8
Layer_0
  10
350.98141
  20
305.00964
  0
VERTEX
  5
4ee
  8
Layer_0
  10
350.98141
  20
293.00964
  0
VERTEX
  5
4ef
  8
Layer_0
  10
350.96204
  20
292.81363
  0
VERTEX
  5
4f0
  8
Layer_0
  10
350.90533
  20
292.62695
  0
VERTEX
  5
4f1
  8
Layer_0
  10
350.81348
  20
292.4548
  0
VERTEX
  5
4f2
  8
Layer_0
  10
350.6886
  20
292.30249
  0
VERTEX
  5
4f3
  8
Layer_0
  10
350.53625
  20
292.17764
  0
VERTEX
  5
4f4
  8
Layer_0
  10
350.36411
  20
292.08578
  0
VERTEX
  5
4f5
  8
Layer_0
  10
350.17743
  20
292.02905
  0
VERTEX
  5
4f6
  8
Layer_0
  10
349.98141
  20
292.00964
  0
VERTEX
  5
4f7
  8
Layer_0
  10
337.98141
  20
292.00964
  0
VERTEX
  5
4f8
  8
Layer_0
  10
337.78677
  20
292.02859
  0
VERTEX
  5
4f9
  8
Layer_0
  10
337.60464
  20
292.0831
  0
VERTEX
  5
4fa
  8
Layer_0
  10
337.43872
  20
292.16959
  0
VERTEX
  5
4fb
  8
Layer_0
  10
337.29269
  20
292.28455
  0
VERTEX
  5
4fc
  8
Layer_0
  10
337.17035
  20
292.42444
  0
VERTEX
  5
4fd
  8
Layer_0
  10
337.07544
  20
292.58569
  0
VERTEX
  5
4fe
  8
Layer_0
  10
337.01166
  20
292.7648
  0
VERTEX
  5
4ff
  8
Layer_0
  10
336.98273
  20
292.95819
  0
VERTEX
  5
500
  8
Layer_0
  10
336.98145
  20
293.00964
  0
VERTEX
  5
501
  8
Layer_0
  10
336.98141
  20
305.00964
  0
VERTEX
  5
502
  8
Layer_0
  10
337.00034
  20
305.20428
  0
VERTEX
  5
503
  8
Layer_0
  10
337.05484
  20
305.38641
  0
VERTEX
  5
504
  8
Layer_0
  10
337.14136
  20
305.55237
  0
VERTEX
  5
505
  8
Layer_0
  10
337.25632
  20
305.69836
  0
VERTEX
  5
506
  8
Layer_0
  10
337.39621
  20
305.82068
  0
VERTEX
  5
507
  8
Layer_0
  10
337.55743
  20
305.91559
  0
VERTEX
  5
508
  8
Layer_0
  10
337.73654
  20
305.9794
  0
VERTEX
  5
509
  8
Layer_0
  10
337.92993
  20
306.00836
  0
VERTEX
  5
50a
  8
Layer_0
  10
337.98141
  20
306.00964
  0
VERTEX
  5
50b
  8
Layer_0
  10
350.00623
  20
306.00934
  0
VERTEX
  5
50c
  8
Layer_0
  10
350.19556
  20
305.98645
  0
VERTEX
  5
50d
  8
Layer_0
  10
350.37555
  20
305.92871
  0
VERTEX
  5
50e
  8
Layer_0
  10
350.54147
  20
305.83813
  0
VERTEX
  5
50f
  8
Layer_0
  10
350.68854
  20
305.71677
  0
VERTEX
  5
510
  8
Layer_0
  10
350.81342
  20
305.56445
  0
VERTEX
  5
511
  8
Layer_0
  10
350.90533
  20
305.39233
  0
VERTEX
  5
512
  8
Layer_0
  10
350.96204
  20
305.20566
  0
VERTEX
  5
513
  8
Layer_0
  10
350.98141
  20
305.00964
  0
SEQEND
  0
POLYLINE
  5
515
  8
Layer_0
  62
0
  70
1
  66
1
  10
0
  20
0
  30
0
  0
VERTEX
  5
515
  8
Layer_0
  10
255.73135
  20
305.00964
  0
VERTEX
  5
516
  8
Layer_0
  10
255.73135
  20
293.00964
  0
VERTEX
  5
517
  8
Layer_0
  10
255.71106
  20
292.80807
  0
VERTEX
  5
518
  8
Layer_0
  10
255.65283
  20
292.62036
  0
VERTEX
  5
519
  8
Layer_0
  10
255.56067
  20
292.45047
  0
VERTEX
  5
51a
  8
Layer_0
  10
255.43854
  20
292.30246
  0
VERTEX
  5
51b
  8
Layer_0
  10
255.29053
  20
292.18036
  0
VERTEX
  5
51c
  8
Layer_0
  10
255.12067
  20
292.08813
  0
VERTEX
  5
51d
  8
Layer_0
  10
254.93292
  20
292.02991
  0
VERTEX
  5
51e
  8
Layer_0
  10
254.73135
  20
292.00961
  0
VERTEX
  5
51f
  8
Layer_0
  10
242.73135
  20
292.00964
  0
VERTEX
  5
520
  8
Layer_0
  10
242.53671
  20
292.02856
  0
VERTEX
  5
521
  8
Layer_0
  10
242.35455
  20
292.08304
  0
VERTEX
  5
522
  8
Layer_0
  10
242.18863
  20
292.16956
  0
VERTEX
  5
523
  8
Layer_0
  10
242.04263
  20
292.28448
  0
VERTEX
  5
524
  8
Layer_0
  10
241.92029
  20
292.42441
  0
VERTEX
  5
525
  8
Layer_0
  10
241.82538
  20
292.58569
  0
VERTEX
  5
526
  8
Layer_0
  10
241.76163
  20
292.7648
  0
VERTEX
  5
527
  8
Layer_0
  10
241.73273
  20
292.95819
  0
VERTEX
  5
528
  8
Layer_0
  10
241.73145
  20
293.00964
  0
VERTEX
  5
529
  8
Layer_0
  10
241.73135
  20
305.00964
  0
VERTEX
  5
52a
  8
Layer_0
  10
241.74957
  20
305.19949
  0
VERTEX
  5
52b
  8
Layer_0
  10
241.8028
  20
305.38083
  0
VERTEX
  5
52c
  8
Layer_0
  10
241.88922
  20
305.54892
  0
VERTEX
  5
52d
  8
Layer_0
  10
242.0069
  20
305.69897
  0
VERTEX
  5
52e
  8
Layer_0
  10
242.02426
  20
305.71674
  0
VERTEX
  5
52f
  8
Layer_0
  10
242.17136
  20
305.83813
  0
VERTEX
  5
530
  8
Layer_0
  10
242.33725
  20
305.92871
  0
VERTEX
  5
531
  8
Layer_0
  10
242.51721
  20
305.98645
  0
VERTEX
  5
532
  8
Layer_0
  10
242.70654
  20
306.00931
  0
VERTEX
  5
533
  8
Layer_0
  10
254.73135
  20
306.00964
  0
VERTEX
  5
534
  8
Layer_0
  10
254.78094
  20
306.00842
  0
VERTEX
  5
535
  8
Layer_0
  10
254.96356
  20
305.98236
  0
VERTEX
  5
536
  8
Layer_0
  10
255.13687
  20
305.92377
  0
VERTEX
  5
537
  8
Layer_0
  10
255.2966
  20
305.83463
  0
VERTEX
  5
538
  8
Layer_0
  10
255.43851
  20
305.7168
  0
VERTEX
  5
539
  8
Layer_0
  10
255.56342
  20
305.56448
  0
VERTEX
  5
53a
  8
Layer_0
  10
255.6553
  20
305.39236
  0
VERTEX
  5
53b
  8
Layer_0
  10
255.71201
  20
305.20566
  0
VERTEX
  5
53c
  8
Layer_0
  10
255.73135
  20
305.00964
  0
SEQEND
  0
POLYLINE
  5
53e
  8
Layer_0
  62
0
  70
1
  66
1
  10
0
  20
0
  30
0
  0
VERTEX
  5
53e
  8
Layer_0
  10
307.1189
  20
253.90964
  0
VERTEX
  5
53f
  8
Layer_0
  10
295.1189
  20
253.90964
  0
VERTEX
  5
540
  8
Layer_0
  10
294.92426
  20
253.92856
  0
VERTEX
  5
541
  8
Layer_0
  10
294.74213
  20
253.98303
  0
VERTEX
  5
542
  8
Layer_0
  10
294.57617
  20
254.06952
  0
VERTEX
  5
543
  8
Layer_0
  10
294.43015
  20
254.18448
  0
VERTEX
  5
544
  8
Layer_0
  10
294.3078
  20
254.32437
  0
VERTEX
  5
545
  8
Layer_0
  10
294.21289
  20
254.48566
  0
VERTEX
  5
546
  8
Layer_0
  10
294.14911
  20
254.66476
  0
VERTEX
  5
547
  8
Layer_0
  10
294.12021
  20
254.85817
  0
VERTEX
  5
548
  8
Layer_0
  10
294.1189
  20
254.90964
  0
VERTEX
  5
549
  8
Layer_0
  10
294.1189
  20
266.90964
  0
VERTEX
  5
54a
  8
Layer_0
  10
294.13708
  20
267.09946
  0
VERTEX
  5
54b
  8
Layer_0
  10
294.19034
  20
267.28079
  0
VERTEX
  5
54c
  8
Layer_0
  10
294.27676
  20
267.44888
  0
VERTEX
  5
54d
  8
Layer_0
  10
294.39444
  20
267.59894
  0
VERTEX
  5
54e
  8
Layer_0
  10
294.41177
  20
267.61673
  0
VERTEX
  5
54f
  8
Layer_0
  10
294.55887
  20
267.73807
  0
VERTEX
  5
550
  8
Layer_0
  10
294.72476
  20
267.82864
  0
VERTEX
  5
551
  8
Layer_0
  10
294.90472
  20
267.88641
  0
VERTEX
  5
552
  8
Layer_0
  10
295.09406
  20
267.9093
  0
VERTEX
  5
553
  8
Layer_0
  10
307.1189
  20
267.90964
  0
VERTEX
  5
554
  8
Layer_0
  10
307.26593
  20
267.89883
  0
VERTEX
  5
555
  8
Layer_0
  10
307.40973
  20
267.86642
  0
VERTEX
  5
556
  8
Layer_0
  10
307.63324
  20
267.76721
  0
VERTEX
  5
557
  8
Layer_0
  10
307.82602
  20
267.61676
  0
VERTEX
  5
558
  8
Layer_0
  10
307.9509
  20
267.46445
  0
VERTEX
  5
559
  8
Layer_0
  10
308.04276
  20
267.29233
  0
VERTEX
  5
55a
  8
Layer_0
  10
308.09949
  20
267.10565
  0
VERTEX
  5
55b
  8
Layer_0
  10
308.1189
  20
266.90964
  0
VERTEX
  5
55c
  8
Layer_0
  10
308.1189
  20
254.90964
  0
VERTEX
  5
55d
  8
Layer_0
  10
308.09857
  20
254.70807
  0
VERTEX
  5
55e
  8
Layer_0
  10
308.04031
  20
254.52032
  0
VERTEX
  5
55f
  8
Layer_0
  10
307.94812
  20
254.35042
  0
VERTEX
  5
560
  8
Layer_0
  10
307.82605
  20
254.20239
  0
VERTEX
  5
561
  8
Layer_0
  10
307.67804
  20
254.08026
  0
VERTEX
  5
562
  8
Layer_0
  10
307.50818
  20
253.98808
  0
VERTEX
  5
563
  8
Layer_0
  10
307.32043
  20
253.92987
  0
VERTEX
  5
564
  8
Layer_0
  10
307.1189
  20
253.90964
  0
SEQEND
  0
POLYLINE
  5
566
  8
Layer_0
  62
0
  70
1
  66
1
  10
0
  20
0
  30
0
  0
VERTEX
  5
566
  8
Layer_0
  10
241.44379
  20
247.85962
  0
VERTEX
  5
567
  8
Layer_0
  10
241.41953
  20
248.07951
  0
VERTEX
  5
568
  8
Layer_0
  10
241.34851
  20
248.2863
  0
VERTEX
  5
569
  8
Layer_0
  10
241.23416
  20
248.47266
  0
VERTEX
  5
56a
  8
Layer_0
  10
241.07993
  20
248.63126
  0
VERTEX
  5
56b
  8
Layer_0
  10
240.93774
  20
248.72946
  0
VERTEX
  5
56c
  8
Layer_0
  10
240.78189
  20
248.8011
  0
VERTEX
  5
56d
  8
Layer_0
  10
240.61606
  20
248.84491
  0
VERTEX
  5
56e
  8
Layer_0
  10
240.44385
  20
248.85962
  0
VERTEX
  5
56f
  8
Layer_0
  10
228.44385
  20
248.85962
  0
VERTEX
  5
570
  8
Layer_0
  10
228.3924
  20
248.85832
  0
VERTEX
  5
571
  8
Layer_0
  10
228.19897
  20
248.82938
  0
VERTEX
  5
572
  8
Layer_0
  10
228.0199
  20
248.76556
  0
VERTEX
  5
573
  8
Layer_0
  10
227.85861
  20
248.67065
  0
VERTEX
  5
574
  8
Layer_0
  10
227.71875
  20
248.54832
  0
VERTEX
  5
575
  8
Layer_0
  10
227.60376
  20
248.40233
  0
VERTEX
  5
576
  8
Layer_0
  10
227.51724
  20
248.2364
  0
VERTEX
  5
577
  8
Layer_0
  10
227.46277
  20
248.05426
  0
VERTEX
  5
578
  8
Layer_0
  10
227.44385
  20
247.85962
  0
VERTEX
  5
579
  8
Layer_0
  10
227.44385
  20
235.85962
  0
VERTEX
  5
57a
  8
Layer_0
  10
227.4451
  20
235.80817
  0
VERTEX
  5
57b
  8
Layer_0
  10
227.474
  20
235.61475
  0
VERTEX
  5
57c
  8
Layer_0
  10
227.53778
  20
235.43567
  0
VERTEX
  5
57d
  8
Layer_0
  10
227.63275
  20
235.27438
  0
VERTEX
  5
57e
  8
Layer_0
  10
227.75507
  20
235.13452
  0
VERTEX
  5
57f
  8
Layer_0
  10
227.90109
  20
235.01959
  0
VERTEX
  5
580
  8
Layer_0
  10
228.06705
  20
234.93307
  0
VERTEX
  5
581
  8
Layer_0
  10
228.24921
  20
234.87857
  0
VERTEX
  5
582
  8
Layer_0
  10
228.44385
  20
234.85962
  0
VERTEX
  5
583
  8
Layer_0
  10
240.44385
  20
234.85962
  0
VERTEX
  5
584
  8
Layer_0
  10
240.63989
  20
234.87894
  0
VERTEX
  5
585
  8
Layer_0
  10
240.8266
  20
234.93564
  0
VERTEX
  5
586
  8
Layer_0
  10
240.99872
  20
235.02753
  0
VERTEX
  5
587
  8
Layer_0
  10
241.151
  20
235.1525
  0
VERTEX
  5
588
  8
Layer_0
  10
241.27588
  20
235.30481
  0
VERTEX
  5
589
  8
Layer_0
  10
241.3678
  20
235.47693
  0
VERTEX
  5
58a
  8
Layer_0
  10
241.4245
  20
235.6636
  0
VERTEX
  5
58b
  8
Layer_0
  10
241.44385
  20
235.85962
  0
VERTEX
  5
58c
  8
Layer_0
  10
241.44379
  20
247.85962
  0
SEQEND
  0
POLYLINE
  5
58e
  8
Layer_0
  62
0
  70
1
  66
1
  10
0
  20
0
  30
0
  0
VERTEX
  5
58e
  8
Layer_0
  10
317.9314
  20
293.00964
  0
VERTEX
  5
58f
  8
Layer_0
  10
317.9314
  20
305.00964
  0
VERTEX
  5
590
  8
Layer_0
  10
317.95032
  20
305.20432
  0
VERTEX
  5
591
  8
Layer_0
  10
318.00479
  20
305.38647
  0
VERTEX
  5
592
  8
Layer_0
  10
318.09131
  20
305.55243
  0
VERTEX
  5
593
  8
Layer_0
  10
318.20624
  20
305.69843
  0
VERTEX
  5
594
  8
Layer_0
  10
318.34613
  20
305.82074
  0
VERTEX
  5
595
  8
Layer_0
  10
318.50742
  20
305.91568
  0
VERTEX
  5
596
  8
Layer_0
  10
318.68652
  20
305.97946
  0
VERTEX
  5
597
  8
Layer_0
  10
318.87994
  20
306.00836
  0
VERTEX
  5
598
  8
Layer_0
  10
318.9314
  20
306.00967
  0
VERTEX
  5
599
  8
Layer_0
  10
330.95624
  20
306.00934
  0
VERTEX
  5
59a
  8
Layer_0
  10
331.14557
  20
305.98645
  0
VERTEX
  5
59b
  8
Layer_0
  10
331.32556
  20
305.92871
  0
VERTEX
  5
59c
  8
Layer_0
  10
331.49146
  20
305.83813
  0
VERTEX
  5
59d
  8
Layer_0
  10
331.63855
  20
305.71677
  0
VERTEX
  5
59e
  8
Layer_0
  10
331.76343
  20
305.56445
  0
VERTEX
  5
59f
  8
Layer_0
  10
331.85535
  20
305.39233
  0
VERTEX
  5
5a0
  8
Layer_0
  10
331.91205
  20
305.20566
  0
VERTEX
  5
5a1
  8
Layer_0
  10
331.93143
  20
305.00964
  0
VERTEX
  5
5a2
  8
Layer_0
  10
331.9314
  20
293.00964
  0
VERTEX
  5
5a3
  8
Layer_0
  10
331.91205
  20
292.81366
  0
VERTEX
  5
5a4
  8
Layer_0
  10
331.85535
  20
292.62695
  0
VERTEX
  5
5a5
  8
Layer_0
  10
331.76343
  20
292.45483
  0
VERTEX
  5
5a6
  8
Layer_0
  10
331.63852
  20
292.30255
  0
VERTEX
  5
5a7
  8
Layer_0
  10
331.48621
  20
292.17773
  0
VERTEX
  5
5a8
  8
Layer_0
  10
331.31409
  20
292.08585
  0
VERTEX
  5
5a9
  8
Layer_0
  10
331.12738
  20
292.02911
  0
VERTEX
  5
5aa
  8
Layer_0
  10
330.9314
  20
292.00967
  0
VERTEX
  5
5ab
  8
Layer_0
  10
318.9314
  20
292.00964
  0
VERTEX
  5
5ac
  8
Layer_0
  10
318.73676
  20
292.02859
  0
VERTEX
  5
5ad
  8
Layer_0
  10
318.5546
  20
292.0831
  0
VERTEX
  5
5ae
  8
Layer_0
  10
318.38864
  20
292.16959
  0
VERTEX
  5
5af
  8
Layer_0
  10
318.24261
  20
292.28455
  0
VERTEX
  5
5b0
  8
Layer_0
  10
318.1203
  20
292.42444
  0
VERTEX
  5
5b1
  8
Layer_0
  10
318.02533
  20
292.58569
  0
VERTEX
  5
5b2
  8
Layer_0
  10
317.96155
  20
292.7648
  0
VERTEX
  5
5b3
  8
Layer_0
  10
317.93262
  20
292.95819
  0
VERTEX
  5
5b4
  8
Layer_0
  10
317.9314
  20
293.00964
  0
SEQEND
  0
POLYLINE
  5
5b6
  8
Layer_0
  62
0
  70
1
  66
1
  10
0
  20
0
  30
0
  0
VERTEX
  5
5b6
  8
Layer_0
  10
184.29388
  20
228.80963
  0
VERTEX
  5
5b7
  8
Layer_0
  10
184.28601
  20
228.93558
  0
VERTEX
  5
5b8
  8
Layer_0
  10
184.26239
  20
229.05954
  0
VERTEX
  5
5b9
  8
Layer_0
  10
184.20673
  20
229.21857
  0
VERTEX
  5
5ba
  8
Layer_0
  10
184.12708
  20
229.36307
  0
VERTEX
  5
5bb
  8
Layer_0
  10
184.02606
  20
229.49097
  0
VERTEX
  5
5bc
  8
Layer_0
  10
183.90637
  20
229.60022
  0
VERTEX
  5
5bd
  8
Layer_0
  10
183.77063
  20
229.68878
  0
VERTEX
  5
5be
  8
Layer_0
  10
183.62152
  20
229.75458
  0
VERTEX
  5
5bf
  8
Layer_0
  10
183.46167
  20
229.79553
  0
VERTEX
  5
5c0
  8
Layer_0
  10
183.29382
  20
229.80963
  0
VERTEX
  5
5c1
  8
Layer_0
  10
168.88776
  20
229.8093
  0
VERTEX
  5
5c2
  8
Layer_0
  10
168.69843
  20
229.78644
  0
VERTEX
  5
5c3
  8
Layer_0
  10
168.51843
  20
229.72867
  0
VERTEX
  5
5c4
  8
Layer_0
  10
168.35248
  20
229.63812
  0
VERTEX
  5
5c5
  8
Layer_0
  10
168.20544
  20
229.51672
  0
VERTEX
  5
5c6
  8
Layer_0
  10
168.18811
  20
229.49896
  0
VERTEX
  5
5c7
  8
Layer_0
  10
168.07043
  20
229.34894
  0
VERTEX
  5
5c8
  8
Layer_0
  10
167.98401
  20
229.18079
  0
VERTEX
  5
5c9
  8
Layer_0
  10
167.93073
  20
228.99945
  0
VERTEX
  5
5ca
  8
Layer_0
  10
167.91254
  20
228.80963
  0
VERTEX
  5
5cb
  8
Layer_0
  10
167.9126
  20
216.8096
  0
VERTEX
  5
5cc
  8
Layer_0
  10
167.93286
  20
216.60806
  0
VERTEX
  5
5cd
  8
Layer_0
  10
167.99109
  20
216.42035
  0
VERTEX
  5
5ce
  8
Layer_0
  10
168.08325
  20
216.25049
  0
VERTEX
  5
5cf
  8
Layer_0
  10
168.20538
  20
216.10245
  0
VERTEX
  5
5d0
  8
Layer_0
  10
168.35339
  20
215.98035
  0
VERTEX
  5
5d1
  8
Layer_0
  10
168.52332
  20
215.88815
  0
VERTEX
  5
5d2
  8
Layer_0
  10
168.71106
  20
215.8299
  0
VERTEX
  5
5d3
  8
Layer_0
  10
168.9126
  20
215.8096
  0
VERTEX
  5
5d4
  8
Layer_0
  10
183.29382
  20
215.8096
  0
VERTEX
  5
5d5
  8
Layer_0
  10
183.49536
  20
215.8299
  0
VERTEX
  5
5d6
  8
Layer_0
  10
183.68311
  20
215.88815
  0
VERTEX
  5
5d7
  8
Layer_0
  10
183.85303
  20
215.98035
  0
VERTEX
  5
5d8
  8
Layer_0
  10
184.00104
  20
216.10245
  0
VERTEX
  5
5d9
  8
Layer_0
  10
184.12317
  20
216.25049
  0
VERTEX
  5
5da
  8
Layer_0
  10
184.21533
  20
216.42035
  0
VERTEX
  5
5db
  8
Layer_0
  10
184.27356
  20
216.60806
  0
VERTEX
  5
5dc
  8
Layer_0
  10
184.29382
  20
216.8096
  0
VERTEX
  5
5dd
  8
Layer_0
  10
184.29388
  20
228.80963
  0
SEQEND
  0
POLYLINE
  5
5df
  8
Layer_0
  62
0
  70
1
  66
1
  10
0
  20
0
  30
0
  0
VERTEX
  5
5df
  8
Layer_0
  10
374.79395
  20
247.85962
  0
VERTEX
  5
5e0
  8
Layer_0
  10
374.79395
  20
235.85962
  0
VERTEX
  5
5e1
  8
Layer_0
  10
374.77359
  20
235.65808
  0
VERTEX
  5
5e2
  8
Layer_0
  10
374.7153
  20
235.47034
  0
VERTEX
  5
5e3
  8
Layer_0
  10
374.62311
  20
235.30048
  0
VERTEX
  5
5e4
  8
Layer_0
  10
374.50101
  20
235.15244
  0
VERTEX
  5
5e5
  8
Layer_0
  10
374.353
  20
235.03033
  0
VERTEX
  5
5e6
  8
Layer_0
  10
374.18317
  20
234.93811
  0
VERTEX
  5
5e7
  8
Layer_0
  10
373.99545
  20
234.87988
  0
VERTEX
  5
5e8
  8
Layer_0
  10
373.79395
  20
234.85962
  0
VERTEX
  5
5e9
  8
Layer_0
  10
361.79391
  20
234.85962
  0
VERTEX
  5
5ea
  8
Layer_0
  10
361.59924
  20
234.87842
  0
VERTEX
  5
5eb
  8
Layer_0
  10
361.41705
  20
234.93286
  0
VERTEX
  5
5ec
  8
Layer_0
  10
361.25107
  20
235.01935
  0
VERTEX
  5
5ed
  8
Layer_0
  10
361.10504
  20
235.13434
  0
VERTEX
  5
5ee
  8
Layer_0
  10
360.98273
  20
235.27423
  0
VERTEX
  5
5ef
  8
Layer_0
  10
360.88779
  20
235.43555
  0
VERTEX
  5
5f0
  8
Layer_0
  10
360.82404
  20
235.61472
  0
VERTEX
  5
5f1
  8
Layer_0
  10
360.7952
  20
235.80817
  0
VERTEX
  5
5f2
  8
Layer_0
  10
360.79391
  20
235.85962
  0
VERTEX
  5
5f3
  8
Layer_0
  10
360.79391
  20
247.85962
  0
VERTEX
  5
5f4
  8
Layer_0
  10
360.80994
  20
248.03711
  0
VERTEX
  5
5f5
  8
Layer_0
  10
360.85663
  20
248.20764
  0
VERTEX
  5
5f6
  8
Layer_0
  10
360.93262
  20
248.36734
  0
VERTEX
  5
5f7
  8
Layer_0
  10
361.03625
  20
248.51228
  0
VERTEX
  5
5f8
  8
Layer_0
  10
361.08679
  20
248.56674
  0
VERTEX
  5
5f9
  8
Layer_0
  10
361.23395
  20
248.68802
  0
VERTEX
  5
5fa
  8
Layer_0
  10
361.39984
  20
248.77858
  0
VERTEX
  5
5fb
  8
Layer_0
  10
361.5798
  20
248.83636
  0
VERTEX
  5
5fc
  8
Layer_0
  10
361.7691
  20
248.85934
  0
VERTEX
  5
5fd
  8
Layer_0
  10
373.79395
  20
248.85962
  0
VERTEX
  5
5fe
  8
Layer_0
  10
373.92883
  20
248.8504
  0
VERTEX
  5
5ff
  8
Layer_0
  10
374.06131
  20
248.82321
  0
VERTEX
  5
600
  8
Layer_0
  10
374.08478
  20
248.81641
  0
VERTEX
  5
601
  8
Layer_0
  10
374.30823
  20
248.71719
  0
VERTEX
  5
602
  8
Layer_0
  10
374.50104
  20
248.56673
  0
VERTEX
  5
603
  8
Layer_0
  10
374.62579
  20
248.41437
  0
VERTEX
  5
604
  8
Layer_0
  10
374.71765
  20
248.24225
  0
VERTEX
  5
605
  8
Layer_0
  10
374.77438
  20
248.0556
  0
VERTEX
  5
606
  8
Layer_0
  10
374.79395
  20
247.85962
  0
SEQEND
  0
POLYLINE
  5
608
  8
Layer_0
  62
0
  70
1
  66
1
  10
0
  20
0
  30
0
  0
VERTEX
  5
608
  8
Layer_0
  10
316.64389
  20
234.85962
  0
VERTEX
  5
609
  8
Layer_0
  10
304.64389
  20
234.85962
  0
VERTEX
  5
60a
  8
Layer_0
  10
304.44928
  20
234.87857
  0
VERTEX
  5
60b
  8
Layer_0
  10
304.26715
  20
234.93307
  0
VERTEX
  5
60c
  8
Layer_0
  10
304.10126
  20
235.01959
  0
VERTEX
  5
60d
  8
Layer_0
  10
303.95529
  20
235.13455
  0
VERTEX
  5
60e
  8
Layer_0
  10
303.83298
  20
235.27444
  0
VERTEX
  5
60f
  8
Layer_0
  10
303.73804
  20
235.43567
  0
VERTEX
  5
610
  8
Layer_0
  10
303.67419
  20
235.61478
  0
VERTEX
  5
611
  8
Layer_0
  10
303.6452
  20
235.80817
  0
VERTEX
  5
612
  8
Layer_0
  10
303.64389
  20
235.85962
  0
VERTEX
  5
613
  8
Layer_0
  10
303.64389
  20
247.85962
  0
VERTEX
  5
614
  8
Layer_0
  10
303.66214
  20
248.04942
  0
VERTEX
  5
615
  8
Layer_0
  10
303.71542
  20
248.23074
  0
VERTEX
  5
616
  8
Layer_0
  10
303.80182
  20
248.39883
  0
VERTEX
  5
617
  8
Layer_0
  10
303.91943
  20
248.54895
  0
VERTEX
  5
618
  8
Layer_0
  10
303.93677
  20
248.56673
  0
VERTEX
  5
619
  8
Layer_0
  10
304.08383
  20
248.68817
  0
VERTEX
  5
61a
  8
Layer_0
  10
304.24976
  20
248.77879
  0
VERTEX
  5
61b
  8
Layer_0
  10
304.42975
  20
248.83652
  0
VERTEX
  5
61c
  8
Layer_0
  10
304.61908
  20
248.85928
  0
VERTEX
  5
61d
  8
Layer_0
  10
316.64389
  20
248.85962
  0
VERTEX
  5
61e
  8
Layer_0
  10
316.815
  20
248.84496
  0
VERTEX
  5
61f
  8
Layer_0
  10
316.98108
  20
248.80107
  0
VERTEX
  5
620
  8
Layer_0
  10
317.00394
  20
248.79257
  0
VERTEX
  5
621
  8
Layer_0
  10
317.18921
  20
248.69772
  0
VERTEX
  5
622
  8
Layer_0
  10
317.35101
  20
248.56674
  0
VERTEX
  5
623
  8
Layer_0
  10
317.47577
  20
248.41437
  0
VERTEX
  5
624
  8
Layer_0
  10
317.56763
  20
248.24225
  0
VERTEX
  5
625
  8
Layer_0
  10
317.62439
  20
248.0556
  0
VERTEX
  5
626
  8
Layer_0
  10
317.64392
  20
247.85962
  0
VERTEX
  5
627
  8
Layer_0
  10
317.64389
  20
235.85962
  0
VERTEX
  5
628
  8
Layer_0
  10
317.62354
  20
235.65811
  0
VERTEX
  5
629
  8
Layer_0
  10
317.56528
  20
235.4704
  0
VERTEX
  5
62a
  8
Layer_0
  10
317.47308
  20
235.30054
  0
VERTEX
  5
62b
  8
Layer_0
  10
317.35098
  20
235.15253
  0
VERTEX
  5
62c
  8
Layer_0
  10
317.20297
  20
235.03046
  0
VERTEX
  5
62d
  8
Layer_0
  10
317.03314
  20
234.93823
  0
VERTEX
  5
62e
  8
Layer_0
  10
316.84543
  20
234.87994
  0
VERTEX
  5
62f
  8
Layer_0
  10
316.64389
  20
234.85962
  0
SEQEND
  0
POLYLINE
  5
631
  8
Layer_0
  62
0
  70
1
  66
1
  10
0
  20
0
  30
0
  0
VERTEX
  5
631
  8
Layer_0
  10
260.4939
  20
247.85962
  0
VERTEX
  5
632
  8
Layer_0
  10
260.47455
  20
248.05565
  0
VERTEX
  5
633
  8
Layer_0
  10
260.41785
  20
248.24236
  0
VERTEX
  5
634
  8
Layer_0
  10
260.32593
  20
248.41449
  0
VERTEX
  5
635
  8
Layer_0
  10
260.20099
  20
248.56676
  0
VERTEX
  5
636
  8
Layer_0
  10
260.1185
  20
248.64078
  0
VERTEX
  5
637
  8
Layer_0
  10
260.02814
  20
248.70497
  0
VERTEX
  5
638
  8
Layer_0
  10
259.90378
  20
248.77171
  0
VERTEX
  5
639
  8
Layer_0
  10
259.77194
  20
248.82008
  0
VERTEX
  5
63a
  8
Layer_0
  10
259.63464
  20
248.84958
  0
VERTEX
  5
63b
  8
Layer_0
  10
259.49387
  20
248.85962
  0
VERTEX
  5
63c
  8
Layer_0
  10
247.46902
  20
248.85931
  0
VERTEX
  5
63d
  8
Layer_0
  10
247.27972
  20
248.83644
  0
VERTEX
  5
63e
  8
Layer_0
  10
247.09973
  20
248.7787
  0
VERTEX
  5
63f
  8
Layer_0
  10
246.93381
  20
248.68813
  0
VERTEX
  5
640
  8
Layer_0
  10
246.78674
  20
248.56674
  0
VERTEX
  5
641
  8
Layer_0
  10
246.76941
  20
248.54895
  0
VERTEX
  5
642
  8
Layer_0
  10
246.65179
  20
248.39886
  0
VERTEX
  5
643
  8
Layer_0
  10
246.56543
  20
248.23077
  0
VERTEX
  5
644
  8
Layer_0
  10
246.51215
  20
248.04944
  0
VERTEX
  5
645
  8
Layer_0
  10
246.49387
  20
247.85962
  0
VERTEX
  5
646
  8
Layer_0
  10
246.49387
  20
235.85962
  0
VERTEX
  5
647
  8
Layer_0
  10
246.49521
  20
235.80817
  0
VERTEX
  5
648
  8
Layer_0
  10
246.52411
  20
235.61475
  0
VERTEX
  5
649
  8
Layer_0
  10
246.58789
  20
235.43564
  0
VERTEX
  5
64a
  8
Layer_0
  10
246.6828
  20
235.27435
  0
VERTEX
  5
64b
  8
Layer_0
  10
246.80515
  20
235.13446
  0
VERTEX
  5
64c
  8
Layer_0
  10
246.95114
  20
235.01947
  0
VERTEX
  5
64d
  8
Layer_0
  10
247.11707
  20
234.93298
  0
VERTEX
  5
64e
  8
Layer_0
  10
247.29922
  20
234.87851
  0
VERTEX
  5
64f
  8
Layer_0
  10
247.49387
  20
234.85962
  0
VERTEX
  5
650
  8
Layer_0
  10
259.49387
  20
234.85962
  0
VERTEX
  5
651
  8
Layer_0
  10
259.6954
  20
234.87994
  0
VERTEX
  5
652
  8
Layer_0
  10
259.88312
  20
234.93817
  0
VERTEX
  5
653
  8
Layer_0
  10
260.05298
  20
235.03033
  0
VERTEX
  5
654
  8
Layer_0
  10
260.20099
  20
235.15244
  0
VERTEX
  5
655
  8
Layer_0
  10
260.32306
  20
235.30048
  0
VERTEX
  5
656
  8
Layer_0
  10
260.41528
  20
235.47034
  0
VERTEX
  5
657
  8
Layer_0
  10
260.47357
  20
235.65808
  0
VERTEX
  5
658
  8
Layer_0
  10
260.49387
  20
235.85962
  0
VERTEX
  5
659
  8
Layer_0
  10
260.4939
  20
247.85962
  0
SEQEND
  0
POLYLINE
  5
65b
  8
Layer_0
  62
0
  70
1
  66
1
  10
0
  20
0
  30
0
  0
VERTEX
  5
65b
  8
Layer_0
  10
375.08142
  20
293.00964
  0
VERTEX
  5
65c
  8
Layer_0
  10
375.08173
  20
292.9848
  0
VERTEX
  5
65d
  8
Layer_0
  10
375.10455
  20
292.79547
  0
VERTEX
  5
65e
  8
Layer_0
  10
375.16229
  20
292.61551
  0
VERTEX
  5
65f
  8
Layer_0
  10
375.25293
  20
292.44962
  0
VERTEX
  5
660
  8
Layer_0
  10
375.37433
  20
292.30255
  0
VERTEX
  5
661
  8
Layer_0
  10
375.39209
  20
292.28522
  0
VERTEX
  5
662
  8
Layer_0
  10
375.54211
  20
292.16748
  0
VERTEX
  5
663
  8
Layer_0
  10
375.71027
  20
292.08105
  0
VERTEX
  5
664
  8
Layer_0
  10
375.8916
  20
292.02777
  0
VERTEX
  5
665
  8
Layer_0
  10
376.08142
  20
292.00964
  0
VERTEX
  5
666
  8
Layer_0
  10
388.08142
  20
292.00964
  0
VERTEX
  5
667
  8
Layer_0
  10
388.27747
  20
292.02902
  0
VERTEX
  5
668
  8
Layer_0
  10
388.46417
  20
292.08575
  0
VERTEX
  5
669
  8
Layer_0
  10
388.63629
  20
292.17761
  0
VERTEX
  5
66a
  8
Layer_0
  10
388.78857
  20
292.30249
  0
VERTEX
  5
66b
  8
Layer_0
  10
388.91351
  20
292.4548
  0
VERTEX
  5
66c
  8
Layer_0
  10
389.00537
  20
292.62695
  0
VERTEX
  5
66d
  8
Layer_0
  10
389.06204
  20
292.81363
  0
VERTEX
  5
66e
  8
Layer_0
  10
389.08142
  20
293.00964
  0
VERTEX
  5
66f
  8
Layer_0
  10
389.08142
  20
305.00964
  0
VERTEX
  5
670
  8
Layer_0
  10
389.0625
  20
305.20428
  0
VERTEX
  5
671
  8
Layer_0
  10
389.00803
  20
305.38644
  0
VERTEX
  5
672
  8
Layer_0
  10
388.92151
  20
305.5524
  0
VERTEX
  5
673
  8
Layer_0
  10
388.80658
  20
305.69839
  0
VERTEX
  5
674
  8
Layer_0
  10
388.66669
  20
305.82074
  0
VERTEX
  5
675
  8
Layer_0
  10
388.5054
  20
305.91568
  0
VERTEX
  5
676
  8
Layer_0
  10
388.32629
  20
305.97946
  0
VERTEX
  5
677
  8
Layer_0
  10
388.13287
  20
306.00836
  0
VERTEX
  5
678
  8
Layer_0
  10
388.08142
  20
306.00964
  0
VERTEX
  5
679
  8
Layer_0
  10
376.08142
  20
306.00964
  0
VERTEX
  5
67a
  8
Layer_0
  10
376.02997
  20
306.00833
  0
VERTEX
  5
67b
  8
Layer_0
  10
375.83655
  20
305.9794
  0
VERTEX
  5
67c
  8
Layer_0
  10
375.65747
  20
305.91562
  0
VERTEX
  5
67d
  8
Layer_0
  10
375.49619
  20
305.82068
  0
VERTEX
  5
67e
  8
Layer_0
  10
375.35632
  20
305.69836
  0
VERTEX
  5
67f
  8
Layer_0
  10
375.24133
  20
305.55237
  0
VERTEX
  5
680
  8
Layer_0
  10
375.15485
  20
305.38644
  0
VERTEX
  5
681
  8
Layer_0
  10
375.10034
  20
305.20428
  0
VERTEX
  5
682
  8
Layer_0
  10
375.08142
  20
305.00964
  0
VERTEX
  5
683
  8
Layer_0
  10
375.08142
  20
293.00964
  0
SEQEND
  0
POLYLINE
  5
685
  8
Layer_0
  62
0
  70
1
  66
1
  10
0
  20
0
  30
0
  0
VERTEX
  5
685
  8
Layer_0
  10
179.53131
  20
305.00964
  0
VERTEX
  5
686
  8
Layer_0
  10
179.51721
  20
305.17755
  0
VERTEX
  5
687
  8
Layer_0
  10
179.47626
  20
305.33737
  0
VERTEX
  5
688
  8
Layer_0
  10
179.41046
  20
305.48645
  0
VERTEX
  5
689
  8
Layer_0
  10
179.3219
  20
305.62219
  0
VERTEX
  5
68a
  8
Layer_0
  10
179.21265
  20
305.74185
  0
VERTEX
  5
68b
  8
Layer_0
  10
179.08478
  20
305.84286
  0
VERTEX
  5
68c
  8
Layer_0
  10
178.94031
  20
305.92252
  0
VERTEX
  5
68d
  8
Layer_0
  10
178.78125
  20
305.97818
  0
VERTEX
  5
68e
  8
Layer_0
  10
178.65723
  20
306.0018
  0
VERTEX
  5
68f
  8
Layer_0
  10
178.53131
  20
306.00964
  0
VERTEX
  5
690
  8
Layer_0
  10
166.53131
  20
306.00964
  0
VERTEX
  5
691
  8
Layer_0
  10
166.47986
  20
306.00836
  0
VERTEX
  5
692
  8
Layer_0
  10
166.2865
  20
305.97943
  0
VERTEX
  5
693
  8
Layer_0
  10
166.10736
  20
305.91565
  0
VERTEX
  5
694
  8
Layer_0
  10
165.94611
  20
305.82071
  0
VERTEX
  5
695
  8
Layer_0
  10
165.80621
  20
305.69836
  0
VERTEX
  5
696
  8
Layer_0
  10
165.69122
  20
305.55237
  0
VERTEX
  5
697
  8
Layer_0
  10
165.60474
  20
305.38644
  0
VERTEX
  5
698
  8
Layer_0
  10
165.55023
  20
305.20428
  0
VERTEX
  5
699
  8
Layer_0
  10
165.53131
  20
305.00964
  0
VERTEX
  5
69a
  8
Layer_0
  10
165.53131
  20
293.00964
  0
VERTEX
  5
69b
  8
Layer_0
  10
165.53265
  20
292.95819
  0
VERTEX
  5
69c
  8
Layer_0
  10
165.56152
  20
292.76477
  0
VERTEX
  5
69d
  8
Layer_0
  10
165.62531
  20
292.58566
  0
VERTEX
  5
69e
  8
Layer_0
  10
165.72021
  20
292.42438
  0
VERTEX
  5
69f
  8
Layer_0
  10
165.84253
  20
292.28448
  0
VERTEX
  5
6a0
  8
Layer_0
  10
165.98853
  20
292.16953
  0
VERTEX
  5
6a1
  8
Layer_0
  10
166.15448
  20
292.08304
  0
VERTEX
  5
6a2
  8
Layer_0
  10
166.33667
  20
292.02856
  0
VERTEX
  5
6a3
  8
Layer_0
  10
166.53131
  20
292.00964
  0
VERTEX
  5
6a4
  8
Layer_0
  10
178.53131
  20
292.00964
  0
VERTEX
  5
6a5
  8
Layer_0
  10
178.72729
  20
292.02899
  0
VERTEX
  5
6a6
  8
Layer_0
  10
178.914
  20
292.08572
  0
VERTEX
  5
6a7
  8
Layer_0
  10
179.08612
  20
292.17761
  0
VERTEX
  5
6a8
  8
Layer_0
  10
179.23846
  20
292.30252
  0
VERTEX
  5
6a9
  8
Layer_0
  10
179.3634
  20
292.45483
  0
VERTEX
  5
6aa
  8
Layer_0
  10
179.45526
  20
292.62695
  0
VERTEX
  5
6ab
  8
Layer_0
  10
179.51196
  20
292.81366
  0
VERTEX
  5
6ac
  8
Layer_0
  10
179.53131
  20
293.00964
  0
VERTEX
  5
6ad
  8
Layer_0
  10
179.53131
  20
305.00964
  0
SEQEND
  0
POLYLINE
  5
6af
  8
Layer_0
  62
0
  70
1
  66
1
  10
0
  20
0
  30
0
  0
VERTEX
  5
6af
  8
Layer_0
  10
314.16888
  20
267.90964
  0
VERTEX
  5
6b0
  8
Layer_0
  10
326.16888
  20
267.90964
  0
VERTEX
  5
6b1
  8
Layer_0
  10
326.29175
  20
267.9021
  0
VERTEX
  5
6b2
  8
Layer_0
  10
326.41266
  20
267.87949
  0
VERTEX
  5
6b3
  8
Layer_0
  10
326.66217
  20
267.77957
  0
VERTEX
  5
6b4
  8
Layer_0
  10
326.87604
  20
267.61676
  0
VERTEX
  5
6b5
  8
Layer_0
  10
327.00092
  20
267.46442
  0
VERTEX
  5
6b6
  8
Layer_0
  10
327.09277
  20
267.2923
  0
VERTEX
  5
6b7
  8
Layer_0
  10
327.14954
  20
267.10562
  0
VERTEX
  5
6b8
  8
Layer_0
  10
327.16891
  20
266.90964
  0
VERTEX
  5
6b9
  8
Layer_0
  10
327.16888
  20
254.90964
  0
VERTEX
  5
6ba
  8
Layer_0
  10
327.14853
  20
254.7081
  0
VERTEX
  5
6bb
  8
Layer_0
  10
327.09024
  20
254.52039
  0
VERTEX
  5
6bc
  8
Layer_0
  10
326.99805
  20
254.35051
  0
VERTEX
  5
6bd
  8
Layer_0
  10
326.87595
  20
254.20251
  0
VERTEX
  5
6be
  8
Layer_0
  10
326.72794
  20
254.08038
  0
VERTEX
  5
6bf
  8
Layer_0
  10
326.55811
  20
253.98817
  0
VERTEX
  5
6c0
  8
Layer_0
  10
326.37039
  20
253.92989
  0
VERTEX
  5
6c1
  8
Layer_0
  10
326.16888
  20
253.90958
  0
VERTEX
  5
6c2
  8
Layer_0
  10
314.16888
  20
253.90964
  0
VERTEX
  5
6c3
  8
Layer_0
  10
313.97427
  20
253.92857
  0
VERTEX
  5
6c4
  8
Layer_0
  10
313.79211
  20
253.98306
  0
VERTEX
  5
6c5
  8
Layer_0
  10
313.62619
  20
254.06955
  0
VERTEX
  5
6c6
  8
Layer_0
  10
313.48022
  20
254.18451
  0
VERTEX
  5
6c7
  8
Layer_0
  10
313.35791
  20
254.3244
  0
VERTEX
  5
6c8
  8
Layer_0
  10
313.263
  20
254.48567
  0
VERTEX
  5
6c9
  8
Layer_0
  10
313.19916
  20
254.66476
  0
VERTEX
  5
6ca
  8
Layer_0
  10
313.17023
  20
254.85817
  0
VERTEX
  5
6cb
  8
Layer_0
  10
313.16888
  20
254.90964
  0
VERTEX
  5
6cc
  8
Layer_0
  10
313.16888
  20
266.90964
  0
VERTEX
  5
6cd
  8
Layer_0
  10
313.18707
  20
267.09946
  0
VERTEX
  5
6ce
  8
Layer_0
  10
313.24033
  20
267.28079
  0
VERTEX
  5
6cf
  8
Layer_0
  10
313.32678
  20
267.44888
  0
VERTEX
  5
6d0
  8
Layer_0
  10
313.44446
  20
267.59894
  0
VERTEX
  5
6d1
  8
Layer_0
  10
313.46179
  20
267.61673
  0
VERTEX
  5
6d2
  8
Layer_0
  10
313.60886
  20
267.7381
  0
VERTEX
  5
6d3
  8
Layer_0
  10
313.77478
  20
267.82864
  0
VERTEX
  5
6d4
  8
Layer_0
  10
313.95477
  20
267.88638
  0
VERTEX
  5
6d5
  8
Layer_0
  10
314.14407
  20
267.90927
  0
VERTEX
  5
6d6
  8
Layer_0
  10
314.16888
  20
267.90964
  0
SEQEND
  0
POLYLINE
  5
6d8
  8
Layer_0
  62
0
  70
1
  66
1
  10
0
  20
0
  30
0
  0
VERTEX
  5
6d8
  8
Layer_0
  10
231.91882
  20
266.90964
  0
VERTEX
  5
6d9
  8
Layer_0
  10
231.88568
  20
267.16528
  0
VERTEX
  5
6da
  8
Layer_0
  10
231.79028
  20
267.40039
  0
VERTEX
  5
6db
  8
Layer_0
  10
231.63879
  20
267.60394
  0
VERTEX
  5
6dc
  8
Layer_0
  10
231.43738
  20
267.76486
  0
VERTEX
  5
6dd
  8
Layer_0
  10
231.18808
  20
267.87296
  0
VERTEX
  5
6de
  8
Layer_0
  10
230.91885
  20
267.90964
  0
VERTEX
  5
6df
  8
Layer_0
  10
218.91885
  20
267.90964
  0
VERTEX
  5
6e0
  8
Layer_0
  10
218.86737
  20
267.90833
  0
VERTEX
  5
6e1
  8
Layer_0
  10
218.67395
  20
267.87943
  0
VERTEX
  5
6e2
  8
Layer_0
  10
218.49487
  20
267.81564
  0
VERTEX
  5
6e3
  8
Layer_0
  10
218.33359
  20
267.7207
  0
VERTEX
  5
6e4
  8
Layer_0
  10
218.19373
  20
267.59839
  0
VERTEX
  5
6e5
  8
Layer_0
  10
218.0788
  20
267.45236
  0
VERTEX
  5
6e6
  8
Layer_0
  10
217.99228
  20
267.28644
  0
VERTEX
  5
6e7
  8
Layer_0
  10
217.93777
  20
267.10428
  0
VERTEX
  5
6e8
  8
Layer_0
  10
217.91885
  20
266.90964
  0
VERTEX
  5
6e9
  8
Layer_0
  10
217.91913
  20
254.8848
  0
VERTEX
  5
6ea
  8
Layer_0
  10
217.94208
  20
254.6955
  0
VERTEX
  5
6eb
  8
Layer_0
  10
217.99982
  20
254.51553
  0
VERTEX
  5
6ec
  8
Layer_0
  10
218.09039
  20
254.34964
  0
VERTEX
  5
6ed
  8
Layer_0
  10
218.21173
  20
254.20251
  0
VERTEX
  5
6ee
  8
Layer_0
  10
218.36401
  20
254.07761
  0
VERTEX
  5
6ef
  8
Layer_0
  10
218.53613
  20
253.98572
  0
VERTEX
  5
6f0
  8
Layer_0
  10
218.72284
  20
253.92902
  0
VERTEX
  5
6f1
  8
Layer_0
  10
218.91885
  20
253.90964
  0
VERTEX
  5
6f2
  8
Layer_0
  10
230.91885
  20
253.90964
  0
VERTEX
  5
6f3
  8
Layer_0
  10
231.11487
  20
253.92896
  0
VERTEX
  5
6f4
  8
Layer_0
  10
231.30157
  20
253.98569
  0
VERTEX
  5
6f5
  8
Layer_0
  10
231.47369
  20
254.07758
  0
VERTEX
  5
6f6
  8
Layer_0
  10
231.62598
  20
254.2025
  0
VERTEX
  5
6f7
  8
Layer_0
  10
231.75085
  20
254.35483
  0
VERTEX
  5
6f8
  8
Layer_0
  10
231.84277
  20
254.52695
  0
VERTEX
  5
6f9
  8
Layer_0
  10
231.89948
  20
254.71362
  0
VERTEX
  5
6fa
  8
Layer_0
  10
231.91885
  20
254.90964
  0
VERTEX
  5
6fb
  8
Layer_0
  10
231.91882
  20
266.90964
  0
SEQEND
  0
POLYLINE
  5
6fd
  8
Layer_0
  62
0
  70
1
  66
1
  10
0
  20
0
  30
0
  0
VERTEX
  5
6fd
  8
Layer_0
  10
270.01886
  20
266.90964
  0
VERTEX
  5
6fe
  8
Layer_0
  10
270.01886
  20
254.90964
  0
VERTEX
  5
6ff
  8
Layer_0
  10
269.99854
  20
254.7081
  0
VERTEX
  5
700
  8
Layer_0
  10
269.94025
  20
254.52039
  0
VERTEX
  5
701
  8
Layer_0
  10
269.84802
  20
254.35052
  0
VERTEX
  5
702
  8
Layer_0
  10
269.72595
  20
254.20253
  0
VERTEX
  5
703
  8
Layer_0
  10
269.57794
  20
254.08041
  0
VERTEX
  5
704
  8
Layer_0
  10
269.40808
  20
253.98822
  0
VERTEX
  5
705
  8
Layer_0
  10
269.22037
  20
253.92993
  0
VERTEX
  5
706
  8
Layer_0
  10
269.01886
  20
253.90961
  0
VERTEX
  5
707
  8
Layer_0
  10
257.01886
  20
253.90964
  0
VERTEX
  5
708
  8
Layer_0
  10
256.82425
  20
253.92859
  0
VERTEX
  5
709
  8
Layer_0
  10
256.64209
  20
253.98306
  0
VERTEX
  5
70a
  8
Layer_0
  10
256.47617
  20
254.06958
  0
VERTEX
  5
70b
  8
Layer_0
  10
256.3302
  20
254.18454
  0
VERTEX
  5
70c
  8
Layer_0
  10
256.20789
  20
254.32443
  0
VERTEX
  5
70d
  8
Layer_0
  10
256.11298
  20
254.48569
  0
VERTEX
  5
70e
  8
Layer_0
  10
256.04913
  20
254.66479
  0
VERTEX
  5
70f
  8
Layer_0
  10
256.0202
  20
254.85817
  0
VERTEX
  5
710
  8
Layer_0
  10
256.01892
  20
254.90964
  0
VERTEX
  5
711
  8
Layer_0
  10
256.01886
  20
266.90964
  0
VERTEX
  5
712
  8
Layer_0
  10
256.03711
  20
267.09946
  0
VERTEX
  5
713
  8
Layer_0
  10
256.09039
  20
267.28079
  0
VERTEX
  5
714
  8
Layer_0
  10
256.17679
  20
267.44888
  0
VERTEX
  5
715
  8
Layer_0
  10
256.29443
  20
267.59897
  0
VERTEX
  5
716
  8
Layer_0
  10
256.31177
  20
267.61673
  0
VERTEX
  5
717
  8
Layer_0
  10
256.45886
  20
267.73804
  0
VERTEX
  5
718
  8
Layer_0
  10
256.62479
  20
267.82861
  0
VERTEX
  5
719
  8
Layer_0
  10
256.80475
  20
267.88635
  0
VERTEX
  5
71a
  8
Layer_0
  10
256.99402
  20
267.9093
  0
VERTEX
  5
71b
  8
Layer_0
  10
269.01886
  20
267.90964
  0
VERTEX
  5
71c
  8
Layer_0
  10
269.21399
  20
267.89047
  0
VERTEX
  5
71d
  8
Layer_0
  10
269.40158
  20
267.83353
  0
VERTEX
  5
71e
  8
Layer_0
  10
269.5744
  20
267.74106
  0
VERTEX
  5
71f
  8
Layer_0
  10
269.72601
  20
267.61676
  0
VERTEX
  5
720
  8
Layer_0
  10
269.85089
  20
267.46445
  0
VERTEX
  5
721
  8
Layer_0
  10
269.94275
  20
267.29233
  0
VERTEX
  5
722
  8
Layer_0
  10
269.99945
  20
267.10565
  0
VERTEX
  5
723
  8
Layer_0
  10
270.01886
  20
266.90964
  0
SEQEND
  0
POLYLINE
  5
725
  8
Layer_0
  62
0
  70
1
  66
1
  10
0
  20
0
  30
0
  0
VERTEX
  5
725
  8
Layer_0
  10
290.35638
  20
286.95966
  0
VERTEX
  5
726
  8
Layer_0
  10
302.35638
  20
286.95966
  0
VERTEX
  5
727
  8
Layer_0
  10
302.44263
  20
286.95599
  0
VERTEX
  5
728
  8
Layer_0
  10
302.52829
  20
286.94476
  0
VERTEX
  5
729
  8
Layer_0
  10
302.677
  20
286.90686
  0
VERTEX
  5
72a
  8
Layer_0
  10
302.81738
  20
286.84708
  0
VERTEX
  5
72b
  8
Layer_0
  10
302.94702
  20
286.76663
  0
VERTEX
  5
72c
  8
Layer_0
  10
303.06354
  20
286.66675
  0
VERTEX
  5
72d
  8
Layer_0
  10
303.18835
  20
286.51443
  0
VERTEX
  5
72e
  8
Layer_0
  10
303.28021
  20
286.34232
  0
VERTEX
  5
72f
  8
Layer_0
  10
303.33698
  20
286.15564
  0
VERTEX
  5
730
  8
Layer_0
  10
303.35645
  20
285.95966
  0
VERTEX
  5
731
  8
Layer_0
  10
303.35638
  20
273.95966
  0
VERTEX
  5
732
  8
Layer_0
  10
303.33606
  20
273.75809
  0
VERTEX
  5
733
  8
Layer_0
  10
303.27777
  20
273.57037
  0
VERTEX
  5
734
  8
Layer_0
  10
303.18555
  20
273.40048
  0
VERTEX
  5
735
  8
Layer_0
  10
303.06348
  20
273.25247
  0
VERTEX
  5
736
  8
Layer_0
  10
302.9155
  20
273.13034
  0
VERTEX
  5
737
  8
Layer_0
  10
302.74567
  20
273.03815
  0
VERTEX
  5
738
  8
Layer_0
  10
302.55792
  20
272.97986
  0
VERTEX
  5
739
  8
Layer_0
  10
302.35638
  20
272.95959
  0
VERTEX
  5
73a
  8
Layer_0
  10
290.35638
  20
272.95966
  0
VERTEX
  5
73b
  8
Layer_0
  10
290.16171
  20
272.97845
  0
VERTEX
  5
73c
  8
Layer_0
  10
289.97955
  20
273.0329
  0
VERTEX
  5
73d
  8
Layer_0
  10
289.8136
  20
273.11938
  0
VERTEX
  5
73e
  8
Layer_0
  10
289.66757
  20
273.23438
  0
VERTEX
  5
73f
  8
Layer_0
  10
289.54523
  20
273.3743
  0
VERTEX
  5
740
  8
Layer_0
  10
289.45032
  20
273.53558
  0
VERTEX
  5
741
  8
Layer_0
  10
289.3866
  20
273.71472
  0
VERTEX
  5
742
  8
Layer_0
  10
289.35773
  20
273.90817
  0
VERTEX
  5
743
  8
Layer_0
  10
289.35641
  20
273.95966
  0
VERTEX
  5
744
  8
Layer_0
  10
289.35638
  20
285.95966
  0
VERTEX
  5
745
  8
Layer_0
  10
289.37457
  20
286.14948
  0
VERTEX
  5
746
  8
Layer_0
  10
289.42786
  20
286.33081
  0
VERTEX
  5
747
  8
Layer_0
  10
289.51428
  20
286.4989
  0
VERTEX
  5
748
  8
Layer_0
  10
289.63193
  20
286.64896
  0
VERTEX
  5
749
  8
Layer_0
  10
289.64929
  20
286.66675
  0
VERTEX
  5
74a
  8
Layer_0
  10
289.79639
  20
286.78809
  0
VERTEX
  5
74b
  8
Layer_0
  10
289.96228
  20
286.87869
  0
VERTEX
  5
74c
  8
Layer_0
  10
290.14224
  20
286.93643
  0
VERTEX
  5
74d
  8
Layer_0
  10
290.33154
  20
286.95929
  0
VERTEX
  5
74e
  8
Layer_0
  10
290.35638
  20
286.95966
  0
SEQEND
  0
POLYLINE
  5
750
  8
Layer_0
  62
0
  70
1
  66
1
  10
0
  20
0
  30
0
  0
VERTEX
  5
750
  8
Layer_0
  10
216.63135
  20
292.00964
  0
VERTEX
  5
751
  8
Layer_0
  10
204.63135
  20
292.00964
  0
VERTEX
  5
752
  8
Layer_0
  10
204.44147
  20
292.02783
  0
VERTEX
  5
753
  8
Layer_0
  10
204.26013
  20
292.08109
  0
VERTEX
  5
754
  8
Layer_0
  10
204.09204
  20
292.16751
  0
VERTEX
  5
755
  8
Layer_0
  10
203.94199
  20
292.28522
  0
VERTEX
  5
756
  8
Layer_0
  10
203.92422
  20
292.30255
  0
VERTEX
  5
757
  8
Layer_0
  10
203.80286
  20
292.44962
  0
VERTEX
  5
758
  8
Layer_0
  10
203.71228
  20
292.61551
  0
VERTEX
  5
759
  8
Layer_0
  10
203.65454
  20
292.7955
  0
VERTEX
  5
75a
  8
Layer_0
  10
203.63165
  20
292.9848
  0
VERTEX
  5
75b
  8
Layer_0
  10
203.63135
  20
305.00964
  0
VERTEX
  5
75c
  8
Layer_0
  10
203.65027
  20
305.20428
  0
VERTEX
  5
75d
  8
Layer_0
  10
203.70474
  20
305.38644
  0
VERTEX
  5
75e
  8
Layer_0
  10
203.79126
  20
305.55237
  0
VERTEX
  5
75f
  8
Layer_0
  10
203.90622
  20
305.69836
  0
VERTEX
  5
760
  8
Layer_0
  10
204.04611
  20
305.82068
  0
VERTEX
  5
761
  8
Layer_0
  10
204.2074
  20
305.91562
  0
VERTEX
  5
762
  8
Layer_0
  10
204.38647
  20
305.9794
  0
VERTEX
  5
763
  8
Layer_0
  10
204.5799
  20
306.00833
  0
VERTEX
  5
764
  8
Layer_0
  10
204.63135
  20
306.00964
  0
VERTEX
  5
765
  8
Layer_0
  10
216.63135
  20
306.00964
  0
VERTEX
  5
766
  8
Layer_0
  10
216.68256
  20
306.00836
  0
VERTEX
  5
767
  8
Layer_0
  10
216.73358
  20
306.00449
  0
VERTEX
  5
768
  8
Layer_0
  10
216.91861
  20
305.96774
  0
VERTEX
  5
769
  8
Layer_0
  10
217.08905
  20
305.89905
  0
VERTEX
  5
76a
  8
Layer_0
  10
217.24182
  20
305.80191
  0
VERTEX
  5
76b
  8
Layer_0
  10
217.37378
  20
305.67972
  0
VERTEX
  5
76c
  8
Layer_0
  10
217.48181
  20
305.53595
  0
VERTEX
  5
76d
  8
Layer_0
  10
217.56287
  20
305.37405
  0
VERTEX
  5
76e
  8
Layer_0
  10
217.61371
  20
305.19748
  0
VERTEX
  5
76f
  8
Layer_0
  10
217.63135
  20
305.00964
  0
VERTEX
  5
770
  8
Layer_0
  10
217.63135
  20
293.00964
  0
VERTEX
  5
771
  8
Layer_0
  10
217.61194
  20
292.81363
  0
VERTEX
  5
772
  8
Layer_0
  10
217.55524
  20
292.62695
  0
VERTEX
  5
773
  8
Layer_0
  10
217.46338
  20
292.4548
  0
VERTEX
  5
774
  8
Layer_0
  10
217.33847
  20
292.30249
  0
VERTEX
  5
775
  8
Layer_0
  10
217.18616
  20
292.17761
  0
VERTEX
  5
776
  8
Layer_0
  10
217.01404
  20
292.08572
  0
VERTEX
  5
777
  8
Layer_0
  10
216.82736
  20
292.02902
  0
VERTEX
  5
778
  8
Layer_0
  10
216.63135
  20
292.00964
  0
SEQEND
  0
POLYLINE
  5
77a
  8
Layer_0
  62
0
  70
1
  66
1
  10
0
  20
0
  30
0
  0
VERTEX
  5
77a
  8
Layer_0
  10
364.26892
  20
253.90965
  0
VERTEX
  5
77b
  8
Layer_0
  10
364.46497
  20
253.92914
  0
VERTEX
  5
77c
  8
Layer_0
  10
364.65173
  20
253.98589
  0
VERTEX
  5
77d
  8
Layer_0
  10
364.82391
  20
254.07773
  0
VERTEX
  5
77e
  8
Layer_0
  10
364.97632
  20
254.20255
  0
VERTEX
  5
77f
  8
Layer_0
  10
365.10126
  20
254.35481
  0
VERTEX
  5
780
  8
Layer_0
  10
365.19318
  20
254.52692
  0
VERTEX
  5
781
  8
Layer_0
  10
365.24982
  20
254.71361
  0
VERTEX
  5
782
  8
Layer_0
  10
365.26892
  20
254.90964
  0
VERTEX
  5
783
  8
Layer_0
  10
365.26892
  20
266.90964
  0
VERTEX
  5
784
  8
Layer_0
  10
365.2496
  20
267.10565
  0
VERTEX
  5
785
  8
Layer_0
  10
365.1929
  20
267.29236
  0
VERTEX
  5
786
  8
Layer_0
  10
365.10101
  20
267.46448
  0
VERTEX
  5
787
  8
Layer_0
  10
364.97601
  20
267.61676
  0
VERTEX
  5
788
  8
Layer_0
  10
364.86951
  20
267.70932
  0
VERTEX
  5
789
  8
Layer_0
  10
364.75153
  20
267.78558
  0
VERTEX
  5
78a
  8
Layer_0
  10
364.62405
  20
267.84454
  0
VERTEX
  5
78b
  8
Layer_0
  10
364.48889
  20
267.88513
  0
VERTEX
  5
78c
  8
Layer_0
  10
364.37958
  20
267.90353
  0
VERTEX
  5
78d
  8
Layer_0
  10
364.26892
  20
267.90964
  0
VERTEX
  5
78e
  8
Layer_0
  10
352.24408
  20
267.90936
  0
VERTEX
  5
78f
  8
Layer_0
  10
352.05475
  20
267.88647
  0
VERTEX
  5
790
  8
Layer_0
  10
351.87479
  20
267.82874
  0
VERTEX
  5
791
  8
Layer_0
  10
351.70889
  20
267.73816
  0
VERTEX
  5
792
  8
Layer_0
  10
351.5618
  20
267.61676
  0
VERTEX
  5
793
  8
Layer_0
  10
351.54446
  20
267.59897
  0
VERTEX
  5
794
  8
Layer_0
  10
351.42667
  20
267.44897
  0
VERTEX
  5
795
  8
Layer_0
  10
351.34018
  20
267.28088
  0
VERTEX
  5
796
  8
Layer_0
  10
351.28696
  20
267.09949
  0
VERTEX
  5
797
  8
Layer_0
  10
351.26892
  20
266.90964
  0
VERTEX
  5
798
  8
Layer_0
  10
351.26892
  20
254.90964
  0
VERTEX
  5
799
  8
Layer_0
  10
351.2702
  20
254.85817
  0
VERTEX
  5
79a
  8
Layer_0
  10
351.29901
  20
254.66473
  0
VERTEX
  5
79b
  8
Layer_0
  10
351.36276
  20
254.4856
  0
VERTEX
  5
79c
  8
Layer_0
  10
351.4577
  20
254.3243
  0
VERTEX
  5
79d
  8
Layer_0
  10
351.58002
  20
254.18439
  0
VERTEX
  5
79e
  8
Layer_0
  10
351.72604
  20
254.06941
  0
VERTEX
  5
79f
  8
Layer_0
  10
351.89203
  20
253.98294
  0
VERTEX
  5
7a0
  8
Layer_0
  10
352.07422
  20
253.9285
  0
VERTEX
  5
7a1
  8
Layer_0
  10
352.26892
  20
253.90964
  0
VERTEX
  5
7a2
  8
Layer_0
  10
364.26892
  20
253.90965
  0
SEQEND
  0
POLYLINE
  5
7a4
  8
Layer_0
  62
0
  70
1
  66
1
  10
0
  20
0
  30
0
  0
VERTEX
  5
7a4
  8
Layer_0
  10
379.84393
  20
216.8096
  0
VERTEX
  5
7a5
  8
Layer_0
  10
379.84393
  20
228.80963
  0
VERTEX
  5
7a6
  8
Layer_0
  10
379.87979
  20
229.07605
  0
VERTEX
  5
7a7
  8
Layer_0
  10
379.98578
  20
229.32306
  0
VERTEX
  5
7a8
  8
Layer_0
  10
380.01193
  20
229.36444
  0
VERTEX
  5
7a9
  8
Layer_0
  10
380.07037
  20
229.44339
  0
VERTEX
  5
7aa
  8
Layer_0
  10
380.13681
  20
229.51672
  0
VERTEX
  5
7ab
  8
Layer_0
  10
380.27362
  20
229.63092
  0
VERTEX
  5
7ac
  8
Layer_0
  10
380.42725
  20
229.71848
  0
VERTEX
  5
7ad
  8
Layer_0
  10
380.59384
  20
229.77771
  0
VERTEX
  5
7ae
  8
Layer_0
  10
380.76965
  20
229.80688
  0
VERTEX
  5
7af
  8
Layer_0
  10
380.79437
  20
229.80865
  0
VERTEX
  5
7b0
  8
Layer_0
  10
395.22519
  20
229.80963
  0
VERTEX
  5
7b1
  8
Layer_0
  10
395.32367
  20
229.80463
  0
VERTEX
  5
7b2
  8
Layer_0
  10
395.4212
  20
229.79022
  0
VERTEX
  5
7b3
  8
Layer_0
  10
395.46893
  20
229.77948
  0
VERTEX
  5
7b4
  8
Layer_0
  10
395.56238
  20
229.75107
  0
VERTEX
  5
7b5
  8
Layer_0
  10
395.76022
  20
229.65421
  0
VERTEX
  5
7b6
  8
Layer_0
  10
395.93231
  20
229.51672
  0
VERTEX
  5
7b7
  8
Layer_0
  10
396.05725
  20
229.36447
  0
VERTEX
  5
7b8
  8
Layer_0
  10
396.14914
  20
229.19232
  0
VERTEX
  5
7b9
  8
Layer_0
  10
396.20584
  20
229.00562
  0
VERTEX
  5
7ba
  8
Layer_0
  10
396.22519
  20
228.80963
  0
VERTEX
  5
7bb
  8
Layer_0
  10
396.22519
  20
216.8096
  0
VERTEX
  5
7bc
  8
Layer_0
  10
396.20477
  20
216.60806
  0
VERTEX
  5
7bd
  8
Layer_0
  10
396.14642
  20
216.42032
  0
VERTEX
  5
7be
  8
Layer_0
  10
396.0542
  20
216.25043
  0
VERTEX
  5
7bf
  8
Layer_0
  10
395.93213
  20
216.10239
  0
VERTEX
  5
7c0
  8
Layer_0
  10
395.78418
  20
215.98029
  0
VERTEX
  5
7c1
  8
Layer_0
  10
395.61438
  20
215.88806
  0
VERTEX
  5
7c2
  8
Layer_0
  10
395.4267
  20
215.82983
  0
VERTEX
  5
7c3
  8
Layer_0
  10
395.22519
  20
215.80957
  0
VERTEX
  5
7c4
  8
Layer_0
  10
380.84393
  20
215.8096
  0
VERTEX
  5
7c5
  8
Layer_0
  10
380.64917
  20
215.82837
  0
VERTEX
  5
7c6
  8
Layer_0
  10
380.46692
  20
215.88275
  0
VERTEX
  5
7c7
  8
Layer_0
  10
380.30084
  20
215.96921
  0
VERTEX
  5
7c8
  8
Layer_0
  10
380.15475
  20
216.08417
  0
VERTEX
  5
7c9
  8
Layer_0
  10
380.03241
  20
216.22409
  0
VERTEX
  5
7ca
  8
Layer_0
  10
379.9375
  20
216.38544
  0
VERTEX
  5
7cb
  8
Layer_0
  10
379.87387
  20
216.56464
  0
VERTEX
  5
7cc
  8
Layer_0
  10
379.84518
  20
216.75815
  0
VERTEX
  5
7cd
  8
Layer_0
  10
379.84393
  20
216.8096
  0
SEQEND
  0
POLYLINE
  5
7cf
  8
Layer_0
  62
0
  70
1
  66
1
  10
0
  20
0
  30
0
  0
VERTEX
  5
7cf
  8
Layer_0
  10
280.83136
  20
306.00964
  0
VERTEX
  5
7d0
  8
Layer_0
  10
292.8562
  20
306.00934
  0
VERTEX
  5
7d1
  8
Layer_0
  10
293.04553
  20
305.98645
  0
VERTEX
  5
7d2
  8
Layer_0
  10
293.22552
  20
305.92871
  0
VERTEX
  5
7d3
  8
Layer_0
  10
293.39145
  20
305.83817
  0
VERTEX
  5
7d4
  8
Layer_0
  10
293.53851
  20
305.7168
  0
VERTEX
  5
7d5
  8
Layer_0
  10
293.66339
  20
305.56448
  0
VERTEX
  5
7d6
  8
Layer_0
  10
293.75531
  20
305.39236
  0
VERTEX
  5
7d7
  8
Layer_0
  10
293.81201
  20
305.20566
  0
VERTEX
  5
7d8
  8
Layer_0
  10
293.83139
  20
305.00964
  0
VERTEX
  5
7d9
  8
Layer_0
  10
293.83139
  20
293.00964
  0
VERTEX
  5
7da
  8
Layer_0
  10
293.8111
  20
292.80811
  0
VERTEX
  5
7db
  8
Layer_0
  10
293.75281
  20
292.62036
  0
VERTEX
  5
7dc
  8
Layer_0
  10
293.66058
  20
292.45047
  0
VERTEX
  5
7dd
  8
Layer_0
  10
293.53851
  20
292.30246
  0
VERTEX
  5
7de
  8
Layer_0
  10
293.3905
  20
292.18033
  0
VERTEX
  5
7df
  8
Layer_0
  10
293.22064
  20
292.08813
  0
VERTEX
  5
7e0
  8
Layer_0
  10
293.03293
  20
292.02988
  0
VERTEX
  5
7e1
  8
Layer_0
  10
292.83139
  20
292.00958
  0
VERTEX
  5
7e2
  8
Layer_0
  10
280.83136
  20
292.00964
  0
VERTEX
  5
7e3
  8
Layer_0
  10
280.63672
  20
292.02856
  0
VERTEX
  5
7e4
  8
Layer_0
  10
280.45459
  20
292.08304
  0
VERTEX
  5
7e5
  8
Layer_0
  10
280.28864
  20
292.16956
  0
VERTEX
  5
7e6
  8
Layer_0
  10
280.14264
  20
292.28452
  0
VERTEX
  5
7e7
  8
Layer_0
  10
280.02032
  20
292.42441
  0
VERTEX
  5
7e8
  8
Layer_0
  10
279.92542
  20
292.58569
  0
VERTEX
  5
7e9
  8
Layer_0
  10
279.86163
  20
292.7648
  0
VERTEX
  5
7ea
  8
Layer_0
  10
279.83273
  20
292.95819
  0
VERTEX
  5
7eb
  8
Layer_0
  10
279.83142
  20
293.00964
  0
VERTEX
  5
7ec
  8
Layer_0
  10
279.83136
  20
305.00964
  0
VERTEX
  5
7ed
  8
Layer_0
  10
279.84955
  20
305.19949
  0
VERTEX
  5
7ee
  8
Layer_0
  10
279.90283
  20
305.38083
  0
VERTEX
  5
7ef
  8
Layer_0
  10
279.98926
  20
305.54892
  0
VERTEX
  5
7f0
  8
Layer_0
  10
280.10693
  20
305.69897
  0
VERTEX
  5
7f1
  8
Layer_0
  10
280.12427
  20
305.71674
  0
VERTEX
  5
7f2
  8
Layer_0
  10
280.27133
  20
305.8381
  0
VERTEX
  5
7f3
  8
Layer_0
  10
280.43726
  20
305.92868
  0
VERTEX
  5
7f4
  8
Layer_0
  10
280.61725
  20
305.98642
  0
VERTEX
  5
7f5
  8
Layer_0
  10
280.80655
  20
306.00928
  0
VERTEX
  5
7f6
  8
Layer_0
  10
280.83136
  20
306.00964
  0
SEQEND
  0
POLYLINE
  5
7f8
  8
Layer_0
  62
0
  70
1
  66
1
  10
0
  20
0
  30
0
  0
VERTEX
  5
7f8
  8
Layer_0
  10
346.50641
  20
273.95966
  0
VERTEX
  5
7f9
  8
Layer_0
  10
346.50772
  20
273.90817
  0
VERTEX
  5
7fa
  8
Layer_0
  10
346.53662
  20
273.71475
  0
VERTEX
  5
7fb
  8
Layer_0
  10
346.6004
  20
273.53564
  0
VERTEX
  5
7fc
  8
Layer_0
  10
346.69531
  20
273.37436
  0
VERTEX
  5
7fd
  8
Layer_0
  10
346.81766
  20
273.23444
  0
VERTEX
  5
7fe
  8
Layer_0
  10
346.96368
  20
273.11951
  0
VERTEX
  5
7ff
  8
Layer_0
  10
347.12964
  20
273.03302
  0
VERTEX
  5
800
  8
Layer_0
  10
347.31177
  20
272.97855
  0
VERTEX
  5
801
  8
Layer_0
  10
347.50641
  20
272.95966
  0
VERTEX
  5
802
  8
Layer_0
  10
359.50641
  20
272.95966
  0
VERTEX
  5
803
  8
Layer_0
  10
359.70245
  20
272.9791
  0
VERTEX
  5
804
  8
Layer_0
  10
359.88913
  20
273.0358
  0
VERTEX
  5
805
  8
Layer_0
  10
360.06128
  20
273.12762
  0
VERTEX
  5
806
  8
Layer_0
  10
360.21356
  20
273.25247
  0
VERTEX
  5
807
  8
Layer_0
  10
360.33844
  20
273.40479
  0
VERTEX
  5
808
  8
Layer_0
  10
360.43033
  20
273.5769
  0
VERTEX
  5
809
  8
Layer_0
  10
360.48706
  20
273.76361
  0
VERTEX
  5
80a
  8
Layer_0
  10
360.50641
  20
273.95966
  0
VERTEX
  5
80b
  8
Layer_0
  10
360.50641
  20
285.95966
  0
VERTEX
  5
80c
  8
Layer_0
  10
360.48706
  20
286.15564
  0
VERTEX
  5
80d
  8
Layer_0
  10
360.43036
  20
286.34232
  0
VERTEX
  5
80e
  8
Layer_0
  10
360.33844
  20
286.51443
  0
VERTEX
  5
80f
  8
Layer_0
  10
360.21353
  20
286.66675
  0
VERTEX
  5
810
  8
Layer_0
  10
360.08691
  20
286.77386
  0
VERTEX
  5
811
  8
Layer_0
  10
359.94543
  20
286.85815
  0
VERTEX
  5
812
  8
Layer_0
  10
359.79205
  20
286.91803
  0
VERTEX
  5
813
  8
Layer_0
  10
359.62973
  20
286.95203
  0
VERTEX
  5
814
  8
Layer_0
  10
359.56818
  20
286.95767
  0
VERTEX
  5
815
  8
Layer_0
  10
359.50641
  20
286.95966
  0
VERTEX
  5
816
  8
Layer_0
  10
347.50641
  20
286.95966
  0
VERTEX
  5
817
  8
Layer_0
  10
347.45496
  20
286.95834
  0
VERTEX
  5
818
  8
Layer_0
  10
347.26154
  20
286.92941
  0
VERTEX
  5
819
  8
Layer_0
  10
347.08246
  20
286.86563
  0
VERTEX
  5
81a
  8
Layer_0
  10
346.92117
  20
286.77069
  0
VERTEX
  5
81b
  8
Layer_0
  10
346.78131
  20
286.64838
  0
VERTEX
  5
81c
  8
Layer_0
  10
346.66632
  20
286.50235
  0
VERTEX
  5
81d
  8
Layer_0
  10
346.57983
  20
286.33643
  0
VERTEX
  5
81e
  8
Layer_0
  10
346.52533
  20
286.15427
  0
VERTEX
  5
81f
  8
Layer_0
  10
346.50641
  20
285.95966
  0
VERTEX
  5
820
  8
Layer_0
  10
346.50641
  20
273.95966
  0
SEQEND
  0
POLYLINE
  5
822
  8
Layer_0
  62
0
  70
1
  66
1
  10
0
  20
0
  30
0
  0
VERTEX
  5
822
  8
Layer_0
  10
265.25638
  20
285.95966
  0
VERTEX
  5
823
  8
Layer_0
  10
265.25638
  20
273.95966
  0
VERTEX
  5
824
  8
Layer_0
  10
265.23608
  20
273.75809
  0
VERTEX
  5
825
  8
Layer_0
  10
265.17786
  20
273.57037
  0
VERTEX
  5
826
  8
Layer_0
  10
265.08563
  20
273.40045
  0
VERTEX
  5
827
  8
Layer_0
  10
264.96356
  20
273.25244
  0
VERTEX
  5
828
  8
Layer_0
  10
264.81549
  20
273.13034
  0
VERTEX
  5
829
  8
Layer_0
  10
264.64563
  20
273.03815
  0
VERTEX
  5
82a
  8
Layer_0
  10
264.45792
  20
272.97986
  0
VERTEX
  5
82b
  8
Layer_0
  10
264.25638
  20
272.95959
  0
VERTEX
  5
82c
  8
Layer_0
  10
252.25635
  20
272.95966
  0
VERTEX
  5
82d
  8
Layer_0
  10
252.06171
  20
272.97855
  0
VERTEX
  5
82e
  8
Layer_0
  10
251.87958
  20
273.03302
  0
VERTEX
  5
82f
  8
Layer_0
  10
251.71362
  20
273.11951
  0
VERTEX
  5
830
  8
Layer_0
  10
251.5676
  20
273.23447
  0
VERTEX
  5
831
  8
Layer_0
  10
251.44525
  20
273.37439
  0
VERTEX
  5
832
  8
Layer_0
  10
251.35034
  20
273.53564
  0
VERTEX
  5
833
  8
Layer_0
  10
251.28659
  20
273.71478
  0
VERTEX
  5
834
  8
Layer_0
  10
251.25772
  20
273.9082
  0
VERTEX
  5
835
  8
Layer_0
  10
251.25641
  20
273.95966
  0
VERTEX
  5
836
  8
Layer_0
  10
251.25635
  20
285.95966
  0
VERTEX
  5
837
  8
Layer_0
  10
251.27454
  20
286.14948
  0
VERTEX
  5
838
  8
Layer_0
  10
251.32779
  20
286.33081
  0
VERTEX
  5
839
  8
Layer_0
  10
251.41425
  20
286.4989
  0
VERTEX
  5
83a
  8
Layer_0
  10
251.53192
  20
286.64899
  0
VERTEX
  5
83b
  8
Layer_0
  10
251.54926
  20
286.66675
  0
VERTEX
  5
83c
  8
Layer_0
  10
251.69632
  20
286.78815
  0
VERTEX
  5
83d
  8
Layer_0
  10
251.86224
  20
286.87872
  0
VERTEX
  5
83e
  8
Layer_0
  10
252.04224
  20
286.93646
  0
VERTEX
  5
83f
  8
Layer_0
  10
252.23154
  20
286.95929
  0
VERTEX
  5
840
  8
Layer_0
  10
264.25638
  20
286.95966
  0
VERTEX
  5
841
  8
Layer_0
  10
264.36703
  20
286.95349
  0
VERTEX
  5
842
  8
Layer_0
  10
264.47632
  20
286.93518
  0
VERTEX
  5
843
  8
Layer_0
  10
264.61151
  20
286.8945
  0
VERTEX
  5
844
  8
Layer_0
  10
264.73895
  20
286.83554
  0
VERTEX
  5
845
  8
Layer_0
  10
264.85687
  20
286.75928
  0
VERTEX
  5
846
  8
Layer_0
  10
264.9635
  20
286.66678
  0
VERTEX
  5
847
  8
Layer_0
  10
265.08844
  20
286.51447
  0
VERTEX
  5
848
  8
Layer_0
  10
265.18033
  20
286.34235
  0
VERTEX
  5
849
  8
Layer_0
  10
265.23703
  20
286.15564
  0
VERTEX
  5
84a
  8
Layer_0
  10
265.25638
  20
285.95966
  0
SEQEND
  0
POLYLINE
  5
84c
  8
Layer_0
  62
0
  70
1
  66
1
  10
0
  20
0
  30
0
  0
VERTEX
  5
84c
  8
Layer_0
  10
197.58133
  20
292.00964
  0
VERTEX
  5
84d
  8
Layer_0
  10
185.5813
  20
292.00964
  0
VERTEX
  5
84e
  8
Layer_0
  10
185.39148
  20
292.02783
  0
VERTEX
  5
84f
  8
Layer_0
  10
185.21014
  20
292.08109
  0
VERTEX
  5
850
  8
Layer_0
  10
185.04205
  20
292.16751
  0
VERTEX
  5
851
  8
Layer_0
  10
184.89197
  20
292.28522
  0
VERTEX
  5
852
  8
Layer_0
  10
184.87421
  20
292.30255
  0
VERTEX
  5
853
  8
Layer_0
  10
184.75281
  20
292.44965
  0
VERTEX
  5
854
  8
Layer_0
  10
184.66223
  20
292.61554
  0
VERTEX
  5
855
  8
Layer_0
  10
184.60455
  20
292.7955
  0
VERTEX
  5
856
  8
Layer_0
  10
184.58167
  20
292.9848
  0
VERTEX
  5
857
  8
Layer_0
  10
184.5813
  20
305.00964
  0
VERTEX
  5
858
  8
Layer_0
  10
184.60028
  20
305.20428
  0
VERTEX
  5
859
  8
Layer_0
  10
184.65479
  20
305.38644
  0
VERTEX
  5
85a
  8
Layer_0
  10
184.74127
  20
305.55237
  0
VERTEX
  5
85b
  8
Layer_0
  10
184.8562
  20
305.69836
  0
VERTEX
  5
85c
  8
Layer_0
  10
184.99609
  20
305.82071
  0
VERTEX
  5
85d
  8
Layer_0
  10
185.15735
  20
305.91565
  0
VERTEX
  5
85e
  8
Layer_0
  10
185.33643
  20
305.97943
  0
VERTEX
  5
85f
  8
Layer_0
  10
185.52985
  20
306.00836
  0
VERTEX
  5
860
  8
Layer_0
  10
185.5813
  20
306.00964
  0
VERTEX
  5
861
  8
Layer_0
  10
197.58133
  20
306.00964
  0
VERTEX
  5
862
  8
Layer_0
  10
197.63251
  20
306.00836
  0
VERTEX
  5
863
  8
Layer_0
  10
197.68359
  20
306.00449
  0
VERTEX
  5
864
  8
Layer_0
  10
197.86862
  20
305.96774
  0
VERTEX
  5
865
  8
Layer_0
  10
198.03906
  20
305.89905
  0
VERTEX
  5
866
  8
Layer_0
  10
198.19177
  20
305.80191
  0
VERTEX
  5
867
  8
Layer_0
  10
198.32376
  20
305.67972
  0
VERTEX
  5
868
  8
Layer_0
  10
198.43182
  20
305.53595
  0
VERTEX
  5
869
  8
Layer_0
  10
198.51282
  20
305.37405
  0
VERTEX
  5
86a
  8
Layer_0
  10
198.56372
  20
305.19748
  0
VERTEX
  5
86b
  8
Layer_0
  10
198.58133
  20
305.00964
  0
VERTEX
  5
86c
  8
Layer_0
  10
198.58133
  20
293.00964
  0
VERTEX
  5
86d
  8
Layer_0
  10
198.56195
  20
292.81363
  0
VERTEX
  5
86e
  8
Layer_0
  10
198.50525
  20
292.62695
  0
VERTEX
  5
86f
  8
Layer_0
  10
198.41339
  20
292.4548
  0
VERTEX
  5
870
  8
Layer_0
  10
198.28848
  20
292.30249
  0
VERTEX
  5
871
  8
Layer_0
  10
198.13617
  20
292.17761
  0
VERTEX
  5
872
  8
Layer_0
  10
197.96405
  20
292.08572
  0
VERTEX
  5
873
  8
Layer_0
  10
197.77734
  20
292.02899
  0
VERTEX
  5
874
  8
Layer_0
  10
197.58133
  20
292.00964
  0
SEQEND
  0
POLYLINE
  5
876
  8
Layer_0
  62
0
  70
1
  66
1
  10
0
  20
0
  30
0
  0
VERTEX
  5
876
  8
Layer_0
  10
223.68134
  20
306.00964
  0
VERTEX
  5
877
  8
Layer_0
  10
235.68134
  20
306.00964
  0
VERTEX
  5
878
  8
Layer_0
  10
235.73282
  20
306.00836
  0
VERTEX
  5
879
  8
Layer_0
  10
235.92621
  20
305.97943
  0
VERTEX
  5
87a
  8
Layer_0
  10
236.10535
  20
305.91565
  0
VERTEX
  5
87b
  8
Layer_0
  10
236.26663
  20
305.82074
  0
VERTEX
  5
87c
  8
Layer_0
  10
236.40649
  20
305.69839
  0
VERTEX
  5
87d
  8
Layer_0
  10
236.52142
  20
305.5524
  0
VERTEX
  5
87e
  8
Layer_0
  10
236.60794
  20
305.38644
  0
VERTEX
  5
87f
  8
Layer_0
  10
236.66241
  20
305.20428
  0
VERTEX
  5
880
  8
Layer_0
  10
236.68134
  20
305.00964
  0
VERTEX
  5
881
  8
Layer_0
  10
236.68134
  20
293.00964
  0
VERTEX
  5
882
  8
Layer_0
  10
236.66199
  20
292.81366
  0
VERTEX
  5
883
  8
Layer_0
  10
236.60526
  20
292.62695
  0
VERTEX
  5
884
  8
Layer_0
  10
236.51337
  20
292.45483
  0
VERTEX
  5
885
  8
Layer_0
  10
236.38849
  20
292.30255
  0
VERTEX
  5
886
  8
Layer_0
  10
236.23615
  20
292.17767
  0
VERTEX
  5
887
  8
Layer_0
  10
236.06403
  20
292.08578
  0
VERTEX
  5
888
  8
Layer_0
  10
235.87735
  20
292.02908
  0
VERTEX
  5
889
  8
Layer_0
  10
235.68134
  20
292.0097
  0
VERTEX
  5
88a
  8
Layer_0
  10
223.68134
  20
292.00964
  0
VERTEX
  5
88b
  8
Layer_0
  10
223.49152
  20
292.02783
  0
VERTEX
  5
88c
  8
Layer_0
  10
223.31018
  20
292.08109
  0
VERTEX
  5
88d
  8
Layer_0
  10
223.14203
  20
292.16751
  0
VERTEX
  5
88e
  8
Layer_0
  10
222.992
  20
292.28522
  0
VERTEX
  5
88f
  8
Layer_0
  10
222.97424
  20
292.30255
  0
VERTEX
  5
890
  8
Layer_0
  10
222.85284
  20
292.44965
  0
VERTEX
  5
891
  8
Layer_0
  10
222.76227
  20
292.61554
  0
VERTEX
  5
892
  8
Layer_0
  10
222.70453
  20
292.7955
  0
VERTEX
  5
893
  8
Layer_0
  10
222.68164
  20
292.9848
  0
VERTEX
  5
894
  8
Layer_0
  10
222.68134
  20
305.00964
  0
VERTEX
  5
895
  8
Layer_0
  10
222.70026
  20
305.20428
  0
VERTEX
  5
896
  8
Layer_0
  10
222.75476
  20
305.38644
  0
VERTEX
  5
897
  8
Layer_0
  10
222.84125
  20
305.5524
  0
VERTEX
  5
898
  8
Layer_0
  10
222.95624
  20
305.69843
  0
VERTEX
  5
899
  8
Layer_0
  10
223.0961
  20
305.82074
  0
VERTEX
  5
89a
  8
Layer_0
  10
223.25739
  20
305.91568
  0
VERTEX
  5
89b
  8
Layer_0
  10
223.43646
  20
305.97949
  0
VERTEX
  5
89c
  8
Layer_0
  10
223.62988
  20
306.00842
  0
VERTEX
  5
89d
  8
Layer_0
  10
223.68134
  20
306.00964
  0
SEQEND
  0
POLYLINE
  5
89f
  8
Layer_0
  62
0
  70
1
  66
1
  10
0
  20
0
  30
0
  0
VERTEX
  5
89f
  8
Layer_0
  10
222.39386
  20
247.85962
  0
VERTEX
  5
8a0
  8
Layer_0
  10
222.39386
  20
235.85962
  0
VERTEX
  5
8a1
  8
Layer_0
  10
222.37451
  20
235.6636
  0
VERTEX
  5
8a2
  8
Layer_0
  10
222.31775
  20
235.47693
  0
VERTEX
  5
8a3
  8
Layer_0
  10
222.22583
  20
235.30481
  0
VERTEX
  5
8a4
  8
Layer_0
  10
222.10098
  20
235.1525
  0
VERTEX
  5
8a5
  8
Layer_0
  10
221.94867
  20
235.02762
  0
VERTEX
  5
8a6
  8
Layer_0
  10
221.77655
  20
234.93576
  0
VERTEX
  5
8a7
  8
Layer_0
  10
221.58984
  20
234.87903
  0
VERTEX
  5
8a8
  8
Layer_0
  10
221.39386
  20
234.85962
  0
VERTEX
  5
8a9
  8
Layer_0
  10
209.39383
  20
234.85962
  0
VERTEX
  5
8aa
  8
Layer_0
  10
209.19919
  20
234.87854
  0
VERTEX
  5
8ab
  8
Layer_0
  10
209.01703
  20
234.93301
  0
VERTEX
  5
8ac
  8
Layer_0
  10
208.85107
  20
235.01953
  0
VERTEX
  5
8ad
  8
Layer_0
  10
208.70505
  20
235.13446
  0
VERTEX
  5
8ae
  8
Layer_0
  10
208.5827
  20
235.27435
  0
VERTEX
  5
8af
  8
Layer_0
  10
208.48779
  20
235.43564
  0
VERTEX
  5
8b0
  8
Layer_0
  10
208.42401
  20
235.61475
  0
VERTEX
  5
8b1
  8
Layer_0
  10
208.39511
  20
235.80817
  0
VERTEX
  5
8b2
  8
Layer_0
  10
208.3938
  20
235.85962
  0
VERTEX
  5
8b3
  8
Layer_0
  10
208.39383
  20
247.85962
  0
VERTEX
  5
8b4
  8
Layer_0
  10
208.41275
  20
248.05426
  0
VERTEX
  5
8b5
  8
Layer_0
  10
208.46725
  20
248.2364
  0
VERTEX
  5
8b6
  8
Layer_0
  10
208.55377
  20
248.40234
  0
VERTEX
  5
8b7
  8
Layer_0
  10
208.6687
  20
248.54834
  0
VERTEX
  5
8b8
  8
Layer_0
  10
208.80859
  20
248.67065
  0
VERTEX
  5
8b9
  8
Layer_0
  10
208.96988
  20
248.76559
  0
VERTEX
  5
8ba
  8
Layer_0
  10
209.14899
  20
248.82939
  0
VERTEX
  5
8bb
  8
Layer_0
  10
209.34238
  20
248.85834
  0
VERTEX
  5
8bc
  8
Layer_0
  10
209.39383
  20
248.85963
  0
VERTEX
  5
8bd
  8
Layer_0
  10
221.39386
  20
248.85962
  0
VERTEX
  5
8be
  8
Layer_0
  10
221.60184
  20
248.83797
  0
VERTEX
  5
8bf
  8
Layer_0
  10
221.79868
  20
248.77429
  0
VERTEX
  5
8c0
  8
Layer_0
  10
221.97815
  20
248.67139
  0
VERTEX
  5
8c1
  8
Layer_0
  10
222.13403
  20
248.532
  0
VERTEX
  5
8c2
  8
Layer_0
  10
222.2453
  20
248.38434
  0
VERTEX
  5
8c3
  8
Layer_0
  10
222.32678
  20
248.22011
  0
VERTEX
  5
8c4
  8
Layer_0
  10
222.37689
  20
248.04373
  0
VERTEX
  5
8c5
  8
Layer_0
  10
222.39386
  20
247.85962
  0
SEQEND
  0
POLYLINE
  5
8c7
  8
Layer_0
  62
0
  70
1
  66
1
  10
0
  20
0
  30
0
  0
VERTEX
  5
8c7
  8
Layer_0
  10
260.78137
  20
293.00964
  0
VERTEX
  5
8c8
  8
Layer_0
  10
260.78137
  20
305.00964
  0
VERTEX
  5
8c9
  8
Layer_0
  10
260.79956
  20
305.19949
  0
VERTEX
  5
8ca
  8
Layer_0
  10
260.85281
  20
305.38083
  0
VERTEX
  5
8cb
  8
Layer_0
  10
260.93924
  20
305.54892
  0
VERTEX
  5
8cc
  8
Layer_0
  10
261.05692
  20
305.69897
  0
VERTEX
  5
8cd
  8
Layer_0
  10
261.07428
  20
305.71674
  0
VERTEX
  5
8ce
  8
Layer_0
  10
261.22134
  20
305.8381
  0
VERTEX
  5
8cf
  8
Layer_0
  10
261.38724
  20
305.92868
  0
VERTEX
  5
8d0
  8
Layer_0
  10
261.5672
  20
305.98642
  0
VERTEX
  5
8d1
  8
Layer_0
  10
261.75653
  20
306.00928
  0
VERTEX
  5
8d2
  8
Layer_0
  10
273.78137
  20
306.00964
  0
VERTEX
  5
8d3
  8
Layer_0
  10
273.83096
  20
306.00842
  0
VERTEX
  5
8d4
  8
Layer_0
  10
274.01355
  20
305.98236
  0
VERTEX
  5
8d5
  8
Layer_0
  10
274.18689
  20
305.9238
  0
VERTEX
  5
8d6
  8
Layer_0
  10
274.34662
  20
305.83466
  0
VERTEX
  5
8d7
  8
Layer_0
  10
274.48853
  20
305.7168
  0
VERTEX
  5
8d8
  8
Layer_0
  10
274.6134
  20
305.56448
  0
VERTEX
  5
8d9
  8
Layer_0
  10
274.70532
  20
305.39236
  0
VERTEX
  5
8da
  8
Layer_0
  10
274.76202
  20
305.20566
  0
VERTEX
  5
8db
  8
Layer_0
  10
274.78143
  20
305.00964
  0
VERTEX
  5
8dc
  8
Layer_0
  10
274.78137
  20
293.00964
  0
VERTEX
  5
8dd
  8
Layer_0
  10
274.76105
  20
292.80807
  0
VERTEX
  5
8de
  8
Layer_0
  10
274.70282
  20
292.62033
  0
VERTEX
  5
8df
  8
Layer_0
  10
274.61066
  20
292.45044
  0
VERTEX
  5
8e0
  8
Layer_0
  10
274.48856
  20
292.30243
  0
VERTEX
  5
8e1
  8
Layer_0
  10
274.34052
  20
292.1803
  0
VERTEX
  5
8e2
  8
Layer_0
  10
274.17065
  20
292.08813
  0
VERTEX
  5
8e3
  8
Layer_0
  10
273.98291
  20
292.02988
  0
VERTEX
  5
8e4
  8
Layer_0
  10
273.78137
  20
292.00958
  0
VERTEX
  5
8e5
  8
Layer_0
  10
261.78137
  20
292.00964
  0
VERTEX
  5
8e6
  8
Layer_0
  10
261.58673
  20
292.02856
  0
VERTEX
  5
8e7
  8
Layer_0
  10
261.4046
  20
292.08304
  0
VERTEX
  5
8e8
  8
Layer_0
  10
261.23865
  20
292.16956
  0
VERTEX
  5
8e9
  8
Layer_0
  10
261.09265
  20
292.28452
  0
VERTEX
  5
8ea
  8
Layer_0
  10
260.97034
  20
292.42441
  0
VERTEX
  5
8eb
  8
Layer_0
  10
260.8754
  20
292.58569
  0
VERTEX
  5
8ec
  8
Layer_0
  10
260.81161
  20
292.7648
  0
VERTEX
  5
8ed
  8
Layer_0
  10
260.78271
  20
292.95819
  0
VERTEX
  5
8ee
  8
Layer_0
  10
260.78137
  20
293.00964
  0
SEQEND
  0
POLYLINE
  5
8f0
  8
Layer_0
  62
0
  70
1
  66
1
  10
0
  20
0
  30
0
  0
VERTEX
  5
8f0
  8
Layer_0
  10
275.06888
  20
254.90964
  0
VERTEX
  5
8f1
  8
Layer_0
  10
275.06888
  20
266.90964
  0
VERTEX
  5
8f2
  8
Layer_0
  10
275.0871
  20
267.09946
  0
VERTEX
  5
8f3
  8
Layer_0
  10
275.14032
  20
267.28082
  0
VERTEX
  5
8f4
  8
Layer_0
  10
275.22675
  20
267.44891
  0
VERTEX
  5
8f5
  8
Layer_0
  10
275.34442
  20
267.59894
  0
VERTEX
  5
8f6
  8
Layer_0
  10
275.36176
  20
267.61673
  0
VERTEX
  5
8f7
  8
Layer_0
  10
275.50885
  20
267.7381
  0
VERTEX
  5
8f8
  8
Layer_0
  10
275.67474
  20
267.82874
  0
VERTEX
  5
8f9
  8
Layer_0
  10
275.85474
  20
267.88647
  0
VERTEX
  5
8fa
  8
Layer_0
  10
276.04404
  20
267.9093
  0
VERTEX
  5
8fb
  8
Layer_0
  10
288.06888
  20
267.90964
  0
VERTEX
  5
8fc
  8
Layer_0
  10
288.228
  20
267.897
  0
VERTEX
  5
8fd
  8
Layer_0
  10
288.383
  20
267.85904
  0
VERTEX
  5
8fe
  8
Layer_0
  10
288.59357
  20
267.7608
  0
VERTEX
  5
8ff
  8
Layer_0
  10
288.77597
  20
267.61676
  0
VERTEX
  5
900
  8
Layer_0
  10
288.90076
  20
267.46439
  0
VERTEX
  5
901
  8
Layer_0
  10
288.99265
  20
267.29227
  0
VERTEX
  5
902
  8
Layer_0
  10
289.04938
  20
267.10562
  0
VERTEX
  5
903
  8
Layer_0
  10
289.06882
  20
266.90964
  0
VERTEX
  5
904
  8
Layer_0
  10
289.06888
  20
254.90964
  0
VERTEX
  5
905
  8
Layer_0
  10
289.04858
  20
254.70808
  0
VERTEX
  5
906
  8
Layer_0
  10
288.99033
  20
254.52036
  0
VERTEX
  5
907
  8
Layer_0
  10
288.89813
  20
254.35048
  0
VERTEX
  5
908
  8
Layer_0
  10
288.77603
  20
254.20248
  0
VERTEX
  5
909
  8
Layer_0
  10
288.62799
  20
254.08038
  0
VERTEX
  5
90a
  8
Layer_0
  10
288.45813
  20
253.98819
  0
VERTEX
  5
90b
  8
Layer_0
  10
288.27042
  20
253.92992
  0
VERTEX
  5
90c
  8
Layer_0
  10
288.06888
  20
253.90959
  0
VERTEX
  5
90d
  8
Layer_0
  10
276.06888
  20
253.90964
  0
VERTEX
  5
90e
  8
Layer_0
  10
275.87424
  20
253.92853
  0
VERTEX
  5
90f
  8
Layer_0
  10
275.69208
  20
253.98299
  0
VERTEX
  5
910
  8
Layer_0
  10
275.52612
  20
254.06947
  0
VERTEX
  5
911
  8
Layer_0
  10
275.38013
  20
254.18445
  0
VERTEX
  5
912
  8
Layer_0
  10
275.25781
  20
254.32436
  0
VERTEX
  5
913
  8
Layer_0
  10
275.1629
  20
254.48564
  0
VERTEX
  5
914
  8
Layer_0
  10
275.09906
  20
254.66476
  0
VERTEX
  5
915
  8
Layer_0
  10
275.07013
  20
254.85817
  0
VERTEX
  5
916
  8
Layer_0
  10
275.06888
  20
254.90964
  0
SEQEND
  0
POLYLINE
  5
918
  8
Layer_0
  62
0
  70
1
  66
1
  10
0
  20
0
  30
0
  0
VERTEX
  5
918
  8
Layer_0
  10
340.45642
  20
272.95966
  0
VERTEX
  5
919
  8
Layer_0
  10
328.45642
  20
272.95966
  0
VERTEX
  5
91a
  8
Layer_0
  10
328.26184
  20
272.97861
  0
VERTEX
  5
91b
  8
Layer_0
  10
328.07971
  20
273.03311
  0
VERTEX
  5
91c
  8
Layer_0
  10
327.91379
  20
273.11963
  0
VERTEX
  5
91d
  8
Layer_0
  10
327.76782
  20
273.23459
  0
VERTEX
  5
91e
  8
Layer_0
  10
327.64551
  20
273.37445
  0
VERTEX
  5
91f
  8
Layer_0
  10
327.55054
  20
273.53571
  0
VERTEX
  5
920
  8
Layer_0
  10
327.48669
  20
273.71481
  0
VERTEX
  5
921
  8
Layer_0
  10
327.4577
  20
273.90817
  0
VERTEX
  5
922
  8
Layer_0
  10
327.45642
  20
273.95966
  0
VERTEX
  5
923
  8
Layer_0
  10
327.45642
  20
285.95966
  0
VERTEX
  5
924
  8
Layer_0
  10
327.47534
  20
286.1543
  0
VERTEX
  5
925
  8
Layer_0
  10
327.52982
  20
286.33646
  0
VERTEX
  5
926
  8
Layer_0
  10
327.61633
  20
286.50241
  0
VERTEX
  5
927
  8
Layer_0
  10
327.73126
  20
286.64841
  0
VERTEX
  5
928
  8
Layer_0
  10
327.87112
  20
286.77075
  0
VERTEX
  5
929
  8
Layer_0
  10
328.03241
  20
286.86569
  0
VERTEX
  5
92a
  8
Layer_0
  10
328.21155
  20
286.92947
  0
VERTEX
  5
92b
  8
Layer_0
  10
328.40494
  20
286.95837
  0
VERTEX
  5
92c
  8
Layer_0
  10
328.45642
  20
286.95966
  0
VERTEX
  5
92d
  8
Layer_0
  10
340.45642
  20
286.95966
  0
VERTEX
  5
92e
  8
Layer_0
  10
340.51819
  20
286.95764
  0
VERTEX
  5
92f
  8
Layer_0
  10
340.57971
  20
286.95203
  0
VERTEX
  5
930
  8
Layer_0
  10
340.742
  20
286.91803
  0
VERTEX
  5
931
  8
Layer_0
  10
340.89548
  20
286.85815
  0
VERTEX
  5
932
  8
Layer_0
  10
341.03699
  20
286.77393
  0
VERTEX
  5
933
  8
Layer_0
  10
341.16351
  20
286.66675
  0
VERTEX
  5
934
  8
Layer_0
  10
341.28839
  20
286.51443
  0
VERTEX
  5
935
  8
Layer_0
  10
341.38025
  20
286.34232
  0
VERTEX
  5
936
  8
Layer_0
  10
341.43701
  20
286.15564
  0
VERTEX
  5
937
  8
Layer_0
  10
341.45642
  20
285.95966
  0
VERTEX
  5
938
  8
Layer_0
  10
341.45642
  20
273.95966
  0
VERTEX
  5
939
  8
Layer_0
  10
341.4371
  20
273.76361
  0
VERTEX
  5
93a
  8
Layer_0
  10
341.38037
  20
273.5769
  0
VERTEX
  5
93b
  8
Layer_0
  10
341.28845
  20
273.40479
  0
VERTEX
  5
93c
  8
Layer_0
  10
341.16351
  20
273.25256
  0
VERTEX
  5
93d
  8
Layer_0
  10
341.01123
  20
273.12766
  0
VERTEX
  5
93e
  8
Layer_0
  10
340.83911
  20
273.03577
  0
VERTEX
  5
93f
  8
Layer_0
  10
340.6524
  20
272.97903
  0
VERTEX
  5
940
  8
Layer_0
  10
340.45642
  20
272.95966
  0
SEQEND
  0
POLYLINE
  5
942
  8
Layer_0
  62
0
  70
1
  66
1
  10
0
  20
0
  30
0
  0
VERTEX
  5
942
  8
Layer_0
  10
169.336
  20
251.88
  0
VERTEX
  5
943
  8
Layer_0
  10
169.23999
  20
251.84801
  0
VERTEX
  5
944
  8
Layer_0
  10
169.15881
  20
251.79785
  0
VERTEX
  5
945
  8
Layer_0
  10
169.08002
  20
251.744
  0
VERTEX
  5
946
  8
Layer_0
  10
168.99707
  20
251.62364
  0
VERTEX
  5
947
  8
Layer_0
  10
168.94397
  20
251.48801
  0
VERTEX
  5
948
  8
Layer_0
  10
168.93597
  20
251.392
  0
VERTEX
  5
949
  8
Layer_0
  10
168.93597
  20
248.88
  0
VERTEX
  5
94a
  8
Layer_0
  10
168.73608
  20
248.86429
  0
VERTEX
  5
94b
  8
Layer_0
  10
168.54468
  20
248.81093
  0
VERTEX
  5
94c
  8
Layer_0
  10
168.36774
  20
248.72137
  0
VERTEX
  5
94d
  8
Layer_0
  10
168.21088
  20
248.59717
  0
VERTEX
  5
94e
  8
Layer_0
  10
168.08276
  20
248.44366
  0
VERTEX
  5
94f
  8
Layer_0
  10
167.98981
  20
248.2691
  0
VERTEX
  5
950
  8
Layer_0
  10
167.93463
  20
248.07927
  0
VERTEX
  5
951
  8
Layer_0
  10
167.91998
  20
247.88
  0
VERTEX
  5
952
  8
Layer_0
  10
167.91998
  20
235.88
  0
VERTEX
  5
953
  8
Layer_0
  10
167.94324
  20
235.64008
  0
VERTEX
  5
954
  8
Layer_0
  10
168.02557
  20
235.41705
  0
VERTEX
  5
955
  8
Layer_0
  10
168.16113
  20
235.2215
  0
VERTEX
  5
956
  8
Layer_0
  10
168.34399
  20
235.064
  0
VERTEX
  5
957
  8
Layer_0
  10
168.57599
  20
234.92801
  0
VERTEX
  5
958
  8
Layer_0
  10
168.69092
  20
234.83279
  0
VERTEX
  5
959
  8
Layer_0
  10
168.79022
  20
234.72253
  0
VERTEX
  5
95a
  8
Layer_0
  10
168.87244
  20
234.59903
  0
VERTEX
  5
95b
  8
Layer_0
  10
168.93597
  20
234.46399
  0
VERTEX
  5
95c
  8
Layer_0
  10
168.93597
  20
232.728
  0
VERTEX
  5
95d
  8
Layer_0
  10
168.94397
  20
232.62399
  0
VERTEX
  5
95e
  8
Layer_0
  10
168.97601
  20
232.53601
  0
VERTEX
  5
95f
  8
Layer_0
  10
169.08276
  20
232.37503
  0
VERTEX
  5
960
  8
Layer_0
  10
169.23999
  20
232.26401
  0
VERTEX
  5
961
  8
Layer_0
  10
169.33514
  20
232.24277
  0
VERTEX
  5
962
  8
Layer_0
  10
169.43201
  20
232.23199
  0
VERTEX
  5
963
  8
Layer_0
  10
199.43201
  20
232.23199
  0
VERTEX
  5
964
  8
Layer_0
  10
199.53601
  20
232.23999
  0
VERTEX
  5
965
  8
Layer_0
  10
199.63199
  20
232.26401
  0
VERTEX
  5
966
  8
Layer_0
  10
199.71201
  20
232.31201
  0
VERTEX
  5
967
  8
Layer_0
  10
199.79199
  20
232.37601
  0
VERTEX
  5
968
  8
Layer_0
  10
199.84799
  20
232.448
  0
VERTEX
  5
969
  8
Layer_0
  10
199.91132
  20
232.58194
  0
VERTEX
  5
96a
  8
Layer_0
  10
199.936
  20
232.728
  0
VERTEX
  5
96b
  8
Layer_0
  10
199.936
  20
234.18399
  0
VERTEX
  5
96c
  8
Layer_0
  10
199.95999
  20
234.26401
  0
VERTEX
  5
96d
  8
Layer_0
  10
200.04001
  20
234.42401
  0
VERTEX
  5
96e
  8
Layer_0
  10
200.19156
  20
234.60886
  0
VERTEX
  5
96f
  8
Layer_0
  10
200.37991
  20
234.75037
  0
VERTEX
  5
970
  8
Layer_0
  10
200.59631
  20
234.84271
  0
VERTEX
  5
971
  8
Layer_0
  10
200.832
  20
234.88
  0
VERTEX
  5
972
  8
Layer_0
  10
202.35199
  20
234.88
  0
VERTEX
  5
973
  8
Layer_0
  10
202.55249
  20
234.90259
  0
VERTEX
  5
974
  8
Layer_0
  10
202.7392
  20
234.96216
  0
VERTEX
  5
975
  8
Layer_0
  10
202.9082
  20
235.05481
  0
VERTEX
  5
976
  8
Layer_0
  10
203.05566
  20
235.17676
  0
VERTEX
  5
977
  8
Layer_0
  10
203.17767
  20
235.3241
  0
VERTEX
  5
978
  8
Layer_0
  10
203.27029
  20
235.49298
  0
VERTEX
  5
979
  8
Layer_0
  10
203.32971
  20
235.67957
  0
VERTEX
  5
97a
  8
Layer_0
  10
203.35199
  20
235.88
  0
VERTEX
  5
97b
  8
Layer_0
  10
203.35199
  20
247.88
  0
VERTEX
  5
97c
  8
Layer_0
  10
203.33386
  20
248.0769
  0
VERTEX
  5
97d
  8
Layer_0
  10
203.2782
  20
248.26472
  0
VERTEX
  5
97e
  8
Layer_0
  10
203.18698
  20
248.43797
  0
VERTEX
  5
97f
  8
Layer_0
  10
203.06219
  20
248.5912
  0
VERTEX
  5
980
  8
Layer_0
  10
202.90939
  20
248.71643
  0
VERTEX
  5
981
  8
Layer_0
  10
202.73645
  20
248.80783
  0
VERTEX
  5
982
  8
Layer_0
  10
202.54883
  20
248.86313
  0
VERTEX
  5
983
  8
Layer_0
  10
202.35199
  20
248.88
  0
VERTEX
  5
984
  8
Layer_0
  10
199.936
  20
248.88
  0
VERTEX
  5
985
  8
Layer_0
  10
199.936
  20
251.392
  0
VERTEX
  5
986
  8
Layer_0
  10
199.92801
  20
251.48801
  0
VERTEX
  5
987
  8
Layer_0
  10
199.86011
  20
251.6468
  0
VERTEX
  5
988
  8
Layer_0
  10
199.74783
  20
251.7719
  0
VERTEX
  5
989
  8
Layer_0
  10
199.60162
  20
251.85504
  0
VERTEX
  5
98a
  8
Layer_0
  10
199.43201
  20
251.888
  0
VERTEX
  5
98b
  8
Layer_0
  10
169.43201
  20
251.888
  0
VERTEX
  5
98c
  8
Layer_0
  10
169.336
  20
251.88
  0
SEQEND
  0
POLYLINE
  5
98e
  8
Layer_0
  62
0
  70
1
  66
1
  10
0
  20
0
  30
0
  0
VERTEX
  5
98e
  8
Layer_0
  10
428.24799
  20
286.936
  0
VERTEX
  5
98f
  8
Layer_0
  10
428.07199
  20
286.88
  0
VERTEX
  5
990
  8
Layer_0
  10
427.80981
  20
286.71158
  0
VERTEX
  5
991
  8
Layer_0
  10
427.61356
  20
286.47827
  0
VERTEX
  5
992
  8
Layer_0
  10
427.49451
  20
286.19781
  0
VERTEX
  5
993
  8
Layer_0
  10
427.46399
  20
285.888
  0
VERTEX
  5
994
  8
Layer_0
  10
427.34937
  20
285.80945
  0
VERTEX
  5
995
  8
Layer_0
  10
427.263
  20
285.70367
  0
VERTEX
  5
996
  8
Layer_0
  10
427.20911
  20
285.57806
  0
VERTEX
  5
997
  8
Layer_0
  10
427.19199
  20
285.44
  0
VERTEX
  5
998
  8
Layer_0
  10
427.19199
  20
270.91199
  0
VERTEX
  5
999
  8
Layer_0
  10
412.34399
  20
270.91199
  0
VERTEX
  5
99a
  8
Layer_0
  10
412.15179
  20
270.8656
  0
VERTEX
  5
99b
  8
Layer_0
  10
411.99402
  20
270.75702
  0
VERTEX
  5
99c
  8
Layer_0
  10
411.88525
  20
270.59988
  0
VERTEX
  5
99d
  8
Layer_0
  10
411.84
  20
270.40802
  0
VERTEX
  5
99e
  8
Layer_0
  10
411.84
  20
267.90399
  0
VERTEX
  5
99f
  8
Layer_0
  10
409.392
  20
267.90399
  0
VERTEX
  5
9a0
  8
Layer_0
  10
409.19458
  20
267.88123
  0
VERTEX
  5
9a1
  8
Layer_0
  10
409.01111
  20
267.82172
  0
VERTEX
  5
9a2
  8
Layer_0
  10
408.84534
  20
267.72937
  0
VERTEX
  5
9a3
  8
Layer_0
  10
408.70114
  20
267.60806
  0
VERTEX
  5
9a4
  8
Layer_0
  10
408.58228
  20
267.46176
  0
VERTEX
  5
9a5
  8
Layer_0
  10
408.49258
  20
267.29437
  0
VERTEX
  5
9a6
  8
Layer_0
  10
408.43588
  20
267.1098
  0
VERTEX
  5
9a7
  8
Layer_0
  10
408.41599
  20
266.91199
  0
VERTEX
  5
9a8
  8
Layer_0
  10
408.41599
  20
254.856
  0
VERTEX
  5
9a9
  8
Layer_0
  10
408.44626
  20
254.66299
  0
VERTEX
  5
9aa
  8
Layer_0
  10
408.51089
  20
254.48419
  0
VERTEX
  5
9ab
  8
Layer_0
  10
408.60626
  20
254.32321
  0
VERTEX
  5
9ac
  8
Layer_0
  10
408.72864
  20
254.18364
  0
VERTEX
  5
9ad
  8
Layer_0
  10
408.87445
  20
254.06911
  0
VERTEX
  5
9ae
  8
Layer_0
  10
409.04004
  20
253.98325
  0
VERTEX
  5
9af
  8
Layer_0
  10
409.22174
  20
253.92967
  0
VERTEX
  5
9b0
  8
Layer_0
  10
409.41599
  20
253.912
  0
VERTEX
  5
9b1
  8
Layer_0
  10
410.88
  20
253.912
  0
VERTEX
  5
9b2
  8
Layer_0
  10
411.056
  20
253.896
  0
VERTEX
  5
9b3
  8
Layer_0
  10
411.104
  20
253.88
  0
VERTEX
  5
9b4
  8
Layer_0
  10
411.23999
  20
253.84
  0
VERTEX
  5
9b5
  8
Layer_0
  10
411.44656
  20
253.7341
  0
VERTEX
  5
9b6
  8
Layer_0
  10
411.62009
  20
253.58482
  0
VERTEX
  5
9b7
  8
Layer_0
  10
411.75357
  20
253.39914
  0
VERTEX
  5
9b8
  8
Layer_0
  10
411.84
  20
253.18401
  0
VERTEX
  5
9b9
  8
Layer_0
  10
411.84
  20
251.864
  0
VERTEX
  5
9ba
  8
Layer_0
  10
407.552
  20
251.864
  0
VERTEX
  5
9bb
  8
Layer_0
  10
407.46381
  20
251.86295
  0
VERTEX
  5
9bc
  8
Layer_0
  10
407.37875
  20
251.84369
  0
VERTEX
  5
9bd
  8
Layer_0
  10
407.30029
  20
251.80659
  0
VERTEX
  5
9be
  8
Layer_0
  10
407.23199
  20
251.752
  0
VERTEX
  5
9bf
  8
Layer_0
  10
407.15765
  20
251.66962
  0
VERTEX
  5
9c0
  8
Layer_0
  10
407.10272
  20
251.57465
  0
VERTEX
  5
9c1
  8
Layer_0
  10
407.06842
  20
251.47037
  0
VERTEX
  5
9c2
  8
Layer_0
  10
407.056
  20
251.36
  0
VERTEX
  5
9c3
  8
Layer_0
  10
407.056
  20
248.856
  0
VERTEX
  5
9c4
  8
Layer_0
  10
406.98401
  20
248.856
  0
VERTEX
  5
9c5
  8
Layer_0
  10
406.888
  20
248.84801
  0
VERTEX
  5
9c6
  8
Layer_0
  10
406.86401
  20
248.84801
  0
VERTEX
  5
9c7
  8
Layer_0
  10
406.57007
  20
248.74863
  0
VERTEX
  5
9c8
  8
Layer_0
  10
406.3252
  20
248.5695
  0
VERTEX
  5
9c9
  8
Layer_0
  10
406.14575
  20
248.32564
  0
VERTEX
  5
9ca
  8
Layer_0
  10
406.048
  20
248.032
  0
VERTEX
  5
9cb
  8
Layer_0
  10
406.03201
  20
247.856
  0
VERTEX
  5
9cc
  8
Layer_0
  10
406.03201
  20
235.784
  0
VERTEX
  5
9cd
  8
Layer_0
  10
406.07227
  20
235.54205
  0
VERTEX
  5
9ce
  8
Layer_0
  10
406.16144
  20
235.31647
  0
VERTEX
  5
9cf
  8
Layer_0
  10
406.2959
  20
235.11462
  0
VERTEX
  5
9d0
  8
Layer_0
  10
406.47198
  20
234.944
  0
VERTEX
  5
9d1
  8
Layer_0
  10
406.70401
  20
234.76801
  0
VERTEX
  5
9d2
  8
Layer_0
  10
406.82153
  20
234.65958
  0
VERTEX
  5
9d3
  8
Layer_0
  10
406.92075
  20
234.53528
  0
VERTEX
  5
9d4
  8
Layer_0
  10
406.99957
  20
234.39737
  0
VERTEX
  5
9d5
  8
Layer_0
  10
407.056
  20
234.24799
  0
VERTEX
  5
9d6
  8
Layer_0
  10
407.056
  20
232.70401
  0
VERTEX
  5
9d7
  8
Layer_0
  10
407.064
  20
232.60001
  0
VERTEX
  5
9d8
  8
Layer_0
  10
407.12738
  20
232.44016
  0
VERTEX
  5
9d9
  8
Layer_0
  10
407.23749
  20
232.31387
  0
VERTEX
  5
9da
  8
Layer_0
  10
407.38284
  20
232.23068
  0
VERTEX
  5
9db
  8
Layer_0
  10
407.552
  20
232.20001
  0
VERTEX
  5
9dc
  8
Layer_0
  10
437.552
  20
232.20001
  0
VERTEX
  5
9dd
  8
Layer_0
  10
437.74487
  20
232.24417
  0
VERTEX
  5
9de
  8
Layer_0
  10
437.90262
  20
232.35272
  0
VERTEX
  5
9df
  8
Layer_0
  10
438.01105
  20
232.51093
  0
VERTEX
  5
9e0
  8
Layer_0
  10
438.056
  20
232.70401
  0
VERTEX
  5
9e1
  8
Layer_0
  10
438.056
  20
234.18399
  0
VERTEX
  5
9e2
  8
Layer_0
  10
438.07199
  20
234.23199
  0
VERTEX
  5
9e3
  8
Layer_0
  10
438.19055
  20
234.4458
  0
VERTEX
  5
9e4
  8
Layer_0
  10
438.35391
  20
234.62302
  0
VERTEX
  5
9e5
  8
Layer_0
  10
438.55429
  20
234.75671
  0
VERTEX
  5
9e6
  8
Layer_0
  10
438.784
  20
234.84
  0
VERTEX
  5
9e7
  8
Layer_0
  10
438.97601
  20
234.85599
  0
VERTEX
  5
9e8
  8
Layer_0
  10
445.23199
  20
234.85599
  0
VERTEX
  5
9e9
  8
Layer_0
  10
445.42831
  20
234.87427
  0
VERTEX
  5
9ea
  8
Layer_0
  10
445.61536
  20
234.93042
  0
VERTEX
  5
9eb
  8
Layer_0
  10
445.78778
  20
235.02209
  0
VERTEX
  5
9ec
  8
Layer_0
  10
445.94022
  20
235.14713
  0
VERTEX
  5
9ed
  8
Layer_0
  10
446.065
  20
235.29984
  0
VERTEX
  5
9ee
  8
Layer_0
  10
446.15656
  20
235.47247
  0
VERTEX
  5
9ef
  8
Layer_0
  10
446.21289
  20
235.65961
  0
VERTEX
  5
9f0
  8
Layer_0
  10
446.23199
  20
235.85599
  0
VERTEX
  5
9f1
  8
Layer_0
  10
446.23199
  20
247.912
  0
VERTEX
  5
9f2
  8
Layer_0
  10
446.20255
  20
248.10498
  0
VERTEX
  5
9f3
  8
Layer_0
  10
446.13831
  20
248.2836
  0
VERTEX
  5
9f4
  8
Layer_0
  10
446.04303
  20
248.44434
  0
VERTEX
  5
9f5
  8
Layer_0
  10
445.92047
  20
248.58362
  0
VERTEX
  5
9f6
  8
Layer_0
  10
445.77432
  20
248.69795
  0
VERTEX
  5
9f7
  8
Layer_0
  10
445.6084
  20
248.78381
  0
VERTEX
  5
9f8
  8
Layer_0
  10
445.42636
  20
248.83768
  0
VERTEX
  5
9f9
  8
Layer_0
  10
445.23199
  20
248.856
  0
VERTEX
  5
9fa
  8
Layer_0
  10
438.056
  20
248.856
  0
VERTEX
  5
9fb
  8
Layer_0
  10
438.056
  20
251.248
  0
VERTEX
  5
9fc
  8
Layer_0
  10
442.34399
  20
251.248
  0
VERTEX
  5
9fd
  8
Layer_0
  10
442.44214
  20
251.25821
  0
VERTEX
  5
9fe
  8
Layer_0
  10
442.53549
  20
251.28714
  0
VERTEX
  5
9ff
  8
Layer_0
  10
442.62143
  20
251.33366
  0
VERTEX
  5
a00
  8
Layer_0
  10
442.69733
  20
251.39671
  0
VERTEX
  5
a01
  8
Layer_0
  10
442.75934
  20
251.47343
  0
VERTEX
  5
a02
  8
Layer_0
  10
442.80457
  20
251.56
  0
VERTEX
  5
a03
  8
Layer_0
  10
442.83185
  20
251.65373
  0
VERTEX
  5
a04
  8
Layer_0
  10
442.84
  20
251.752
  0
VERTEX
  5
a05
  8
Layer_0
  10
442.84
  20
252.856
  0
VERTEX
  5
a06
  8
Layer_0
  10
442.84799
  20
252.912
  0
VERTEX
  5
a07
  8
Layer_0
  10
442.84799
  20
254.944
  0
VERTEX
  5
a08
  8
Layer_0
  10
446.35199
  20
254.944
  0
VERTEX
  5
a09
  8
Layer_0
  10
446.54559
  20
254.98305
  0
VERTEX
  5
a0a
  8
Layer_0
  10
446.70377
  20
255.0892
  0
VERTEX
  5
a0b
  8
Layer_0
  10
446.81006
  20
255.24677
  0
VERTEX
  5
a0c
  8
Layer_0
  10
446.84802
  20
255.44
  0
VERTEX
  5
a0d
  8
Layer_0
  10
446.84802
  20
285.44
  0
VERTEX
  5
a0e
  8
Layer_0
  10
446.80801
  20
285.63419
  0
VERTEX
  5
a0f
  8
Layer_0
  10
446.70209
  20
285.79358
  0
VERTEX
  5
a10
  8
Layer_0
  10
446.5451
  20
285.90216
  0
VERTEX
  5
a11
  8
Layer_0
  10
446.35199
  20
285.944
  0
VERTEX
  5
a12
  8
Layer_0
  10
441.80801
  20
285.944
  0
VERTEX
  5
a13
  8
Layer_0
  10
441.65009
  20
286.05301
  0
VERTEX
  5
a14
  8
Layer_0
  10
441.51184
  20
286.18433
  0
VERTEX
  5
a15
  8
Layer_0
  10
441.39566
  20
286.33551
  0
VERTEX
  5
a16
  8
Layer_0
  10
441.30399
  20
286.504
  0
VERTEX
  5
a17
  8
Layer_0
  10
441.23199
  20
286.60001
  0
VERTEX
  5
a18
  8
Layer_0
  10
441.07285
  20
286.7514
  0
VERTEX
  5
a19
  8
Layer_0
  10
440.88727
  20
286.86423
  0
VERTEX
  5
a1a
  8
Layer_0
  10
440.68207
  20
286.93494
  0
VERTEX
  5
a1b
  8
Layer_0
  10
440.46399
  20
286.96002
  0
VERTEX
  5
a1c
  8
Layer_0
  10
428.44
  20
286.96002
  0
VERTEX
  5
a1d
  8
Layer_0
  10
428.24799
  20
286.936
  0
SEQEND
  0
POLYLINE
  5
a1f
  8
Layer_0
  62
0
  70
1
  66
1
  10
0
  20
0
  30
0
  0
VERTEX
  5
a1f
  8
Layer_0
  10
445.40802
  20
305.992
  0
VERTEX
  5
a20
  8
Layer_0
  10
445.60001
  20
305.944
  0
VERTEX
  5
a21
  8
Layer_0
  10
445.86127
  20
305.79187
  0
VERTEX
  5
a22
  8
Layer_0
  10
446.06146
  20
305.57391
  0
VERTEX
  5
a23
  8
Layer_0
  10
446.1889
  20
305.30701
  0
VERTEX
  5
a24
  8
Layer_0
  10
446.23199
  20
305.008
  0
VERTEX
  5
a25
  8
Layer_0
  10
446.23199
  20
293.008
  0
VERTEX
  5
a26
  8
Layer_0
  10
446.18762
  20
292.71622
  0
VERTEX
  5
a27
  8
Layer_0
  10
446.06299
  20
292.45517
  0
VERTEX
  5
a28
  8
Layer_0
  10
445.86887
  20
292.24054
  0
VERTEX
  5
a29
  8
Layer_0
  10
445.616
  20
292.08801
  0
VERTEX
  5
a2a
  8
Layer_0
  10
445.448
  20
291.944
  0
VERTEX
  5
a2b
  8
Layer_0
  10
445.31107
  20
291.77521
  0
VERTEX
  5
a2c
  8
Layer_0
  10
445.20801
  20
291.58398
  0
VERTEX
  5
a2d
  8
Layer_0
  10
445.20801
  20
289.84802
  0
VERTEX
  5
a2e
  8
Layer_0
  10
445.19922
  20
289.74973
  0
VERTEX
  5
a2f
  8
Layer_0
  10
445.17087
  20
289.65631
  0
VERTEX
  5
a30
  8
Layer_0
  10
445.1243
  20
289.5704
  0
VERTEX
  5
a31
  8
Layer_0
  10
445.06085
  20
289.49469
  0
VERTEX
  5
a32
  8
Layer_0
  10
444.98361
  20
289.43304
  0
VERTEX
  5
a33
  8
Layer_0
  10
444.89661
  20
289.38812
  0
VERTEX
  5
a34
  8
Layer_0
  10
444.80249
  20
289.36078
  0
VERTEX
  5
a35
  8
Layer_0
  10
444.70398
  20
289.35199
  0
VERTEX
  5
a36
  8
Layer_0
  10
414.70401
  20
289.35199
  0
VERTEX
  5
a37
  8
Layer_0
  10
414.51038
  20
289.39084
  0
VERTEX
  5
a38
  8
Layer_0
  10
414.35236
  20
289.49695
  0
VERTEX
  5
a39
  8
Layer_0
  10
414.24615
  20
289.65457
  0
VERTEX
  5
a3a
  8
Layer_0
  10
414.20801
  20
289.84802
  0
VERTEX
  5
a3b
  8
Layer_0
  10
414.20801
  20
291.56799
  0
VERTEX
  5
a3c
  8
Layer_0
  10
414.10901
  20
291.76453
  0
VERTEX
  5
a3d
  8
Layer_0
  10
413.9743
  20
291.93585
  0
VERTEX
  5
a3e
  8
Layer_0
  10
413.80844
  20
292.07721
  0
VERTEX
  5
a3f
  8
Layer_0
  10
413.616
  20
292.18402
  0
VERTEX
  5
a40
  8
Layer_0
  10
413.44
  20
292.328
  0
VERTEX
  5
a41
  8
Layer_0
  10
413.33936
  20
292.46265
  0
VERTEX
  5
a42
  8
Layer_0
  10
413.26242
  20
292.61099
  0
VERTEX
  5
a43
  8
Layer_0
  10
413.2103
  20
292.76984
  0
VERTEX
  5
a44
  8
Layer_0
  10
413.18399
  20
292.936
  0
VERTEX
  5
a45
  8
Layer_0
  10
413.18399
  20
305.008
  0
VERTEX
  5
a46
  8
Layer_0
  10
413.20364
  20
305.20715
  0
VERTEX
  5
a47
  8
Layer_0
  10
413.2619
  20
305.39661
  0
VERTEX
  5
a48
  8
Layer_0
  10
413.35641
  20
305.57086
  0
VERTEX
  5
a49
  8
Layer_0
  10
413.48483
  20
305.72437
  0
VERTEX
  5
a4a
  8
Layer_0
  10
413.64127
  20
305.84918
  0
VERTEX
  5
a4b
  8
Layer_0
  10
413.81769
  20
305.93951
  0
VERTEX
  5
a4c
  8
Layer_0
  10
414.00842
  20
305.99323
  0
VERTEX
  5
a4d
  8
Layer_0
  10
414.20801
  20
306.008
  0
VERTEX
  5
a4e
  8
Layer_0
  10
414.20801
  20
308.52802
  0
VERTEX
  5
a4f
  8
Layer_0
  10
165.27197
  20
308.52802
  0
VERTEX
  5
a50
  8
Layer_0
  10
164.81085
  20
308.46045
  0
VERTEX
  5
a51
  8
Layer_0
  10
164.38367
  20
308.30945
  0
VERTEX
  5
a52
  8
Layer_0
  10
163.99878
  20
308.08395
  0
VERTEX
  5
a53
  8
Layer_0
  10
163.66492
  20
307.79294
  0
VERTEX
  5
a54
  8
Layer_0
  10
163.39038
  20
307.44528
  0
VERTEX
  5
a55
  8
Layer_0
  10
163.18378
  20
307.04996
  0
VERTEX
  5
a56
  8
Layer_0
  10
163.05347
  20
306.61588
  0
VERTEX
  5
a57
  8
Layer_0
  10
163.008
  20
306.15198
  0
VERTEX
  5
a58
  8
Layer_0
  10
163.008
  20
215.672
  0
VERTEX
  5
a59
  8
Layer_0
  10
163.05316
  20
215.2041
  0
VERTEX
  5
a5a
  8
Layer_0
  10
163.18762
  20
214.75827
  0
VERTEX
  5
a5b
  8
Layer_0
  10
163.40625
  20
214.34717
  0
VERTEX
  5
a5c
  8
Layer_0
  10
163.70398
  20
213.98346
  0
VERTEX
  5
a5d
  8
Layer_0
  10
164.0675
  20
213.68549
  0
VERTEX
  5
a5e
  8
Layer_0
  10
164.47845
  20
213.46677
  0
VERTEX
  5
a5f
  8
Layer_0
  10
164.92419
  20
213.33252
  0
VERTEX
  5
a60
  8
Layer_0
  10
165.39203
  20
213.28799
  0
VERTEX
  5
a61
  8
Layer_0
  10
245.104
  20
213.28799
  0
VERTEX
  5
a62
  8
Layer_0
  10
245.104
  20
216.80801
  0
VERTEX
  5
a63
  8
Layer_0
  10
241.47198
  20
216.80801
  0
VERTEX
  5
a64
  8
Layer_0
  10
241.2785
  20
216.82959
  0
VERTEX
  5
a65
  8
Layer_0
  10
241.09766
  20
216.88593
  0
VERTEX
  5
a66
  8
Layer_0
  10
240.93286
  20
216.97351
  0
VERTEX
  5
a67
  8
Layer_0
  10
240.7876
  20
217.08896
  0
VERTEX
  5
a68
  8
Layer_0
  10
240.66541
  20
217.22876
  0
VERTEX
  5
a69
  8
Layer_0
  10
240.56976
  20
217.38953
  0
VERTEX
  5
a6a
  8
Layer_0
  10
240.50415
  20
217.56775
  0
VERTEX
  5
a6b
  8
Layer_0
  10
240.47198
  20
217.76001
  0
VERTEX
  5
a6c
  8
Layer_0
  10
240.47198
  20
230.80801
  0
VERTEX
  5
a6d
  8
Layer_0
  10
240.49347
  20
231.00519
  0
VERTEX
  5
a6e
  8
Layer_0
  10
240.55109
  20
231.18915
  0
VERTEX
  5
a6f
  8
Layer_0
  10
240.64105
  20
231.3562
  0
VERTEX
  5
a70
  8
Layer_0
  10
240.75977
  20
231.50256
  0
VERTEX
  5
a71
  8
Layer_0
  10
240.9035
  20
231.62463
  0
VERTEX
  5
a72
  8
Layer_0
  10
241.0686
  20
231.71869
  0
VERTEX
  5
a73
  8
Layer_0
  10
241.25131
  20
231.78107
  0
VERTEX
  5
a74
  8
Layer_0
  10
241.448
  20
231.80801
  0
VERTEX
  5
a75
  8
Layer_0
  10
245.104
  20
231.80801
  0
VERTEX
  5
a76
  8
Layer_0
  10
245.08801
  20
231.95999
  0
VERTEX
  5
a77
  8
Layer_0
  10
245.13489
  20
232.15515
  0
VERTEX
  5
a78
  8
Layer_0
  10
245.24527
  20
232.31525
  0
VERTEX
  5
a79
  8
Layer_0
  10
245.40503
  20
232.42569
  0
VERTEX
  5
a7a
  8
Layer_0
  10
245.60001
  20
232.47198
  0
VERTEX
  5
a7b
  8
Layer_0
  10
275.60001
  20
232.47198
  0
VERTEX
  5
a7c
  8
Layer_0
  10
275.65601
  20
232.48001
  0
VERTEX
  5
a7d
  8
Layer_0
  10
275.70401
  20
232.47198
  0
VERTEX
  5
a7e
  8
Layer_0
  10
317
  20
232.47198
  0
VERTEX
  5
a7f
  8
Layer_0
  10
347.04001
  20
232.46399
  0
VERTEX
  5
a80
  8
Layer_0
  10
359.936
  20
232.46399
  0
VERTEX
  5
a81
  8
Layer_0
  10
360.03201
  20
232.47198
  0
VERTEX
  5
a82
  8
Layer_0
  10
366.03201
  20
232.47198
  0
VERTEX
  5
a83
  8
Layer_0
  10
366.22501
  20
232.4263
  0
VERTEX
  5
a84
  8
Layer_0
  10
366.38333
  20
232.31784
  0
VERTEX
  5
a85
  8
Layer_0
  10
366.492
  20
232.16046
  0
VERTEX
  5
a86
  8
Layer_0
  10
366.53601
  20
231.96799
  0
VERTEX
  5
a87
  8
Layer_0
  10
366.53601
  20
230.76001
  0
VERTEX
  5
a88
  8
Layer_0
  10
366.56091
  20
230.56525
  0
VERTEX
  5
a89
  8
Layer_0
  10
366.62192
  20
230.38467
  0
VERTEX
  5
a8a
  8
Layer_0
  10
366.71521
  20
230.22198
  0
VERTEX
  5
a8b
  8
Layer_0
  10
366.83682
  20
230.08093
  0
VERTEX
  5
a8c
  8
Layer_0
  10
366.98285
  20
229.9653
  0
VERTEX
  5
a8d
  8
Layer_0
  10
367.14932
  20
229.87875
  0
VERTEX
  5
a8e
  8
Layer_0
  10
367.33237
  20
229.82507
  0
VERTEX
  5
a8f
  8
Layer_0
  10
367.52802
  20
229.80801
  0
VERTEX
  5
a90
  8
Layer_0
  10
371.41599
  20
229.80801
  0
VERTEX
  5
a91
  8
Layer_0
  10
371.61661
  20
229.78528
  0
VERTEX
  5
a92
  8
Layer_0
  10
371.80356
  20
229.72571
  0
VERTEX
  5
a93
  8
Layer_0
  10
371.9729
  20
229.63303
  0
VERTEX
  5
a94
  8
Layer_0
  10
372.12064
  20
229.51114
  0
VERTEX
  5
a95
  8
Layer_0
  10
372.2428
  20
229.36383
  0
VERTEX
  5
a96
  8
Layer_0
  10
372.33542
  20
229.19501
  0
VERTEX
  5
a97
  8
Layer_0
  10
372.39447
  20
229.00848
  0
VERTEX
  5
a98
  8
Layer_0
  10
372.41599
  20
228.80801
  0
VERTEX
  5
a99
  8
Layer_0
  10
372.41599
  20
216.80801
  0
VERTEX
  5
a9a
  8
Layer_0
  10
372.39313
  20
216.6076
  0
VERTEX
  5
a9b
  8
Layer_0
  10
372.33344
  20
216.4209
  0
VERTEX
  5
a9c
  8
Layer_0
  10
372.24075
  20
216.25183
  0
VERTEX
  5
a9d
  8
Layer_0
  10
372.11884
  20
216.10431
  0
VERTEX
  5
a9e
  8
Layer_0
  10
371.97159
  20
215.98224
  0
VERTEX
  5
a9f
  8
Layer_0
  10
371.8028
  20
215.88959
  0
VERTEX
  5
aa0
  8
Layer_0
  10
371.61627
  20
215.8302
  0
VERTEX
  5
aa1
  8
Layer_0
  10
371.41599
  20
215.80801
  0
VERTEX
  5
aa2
  8
Layer_0
  10
366.53601
  20
215.80801
  0
VERTEX
  5
aa3
  8
Layer_0
  10
366.53601
  20
213.28799
  0
VERTEX
  5
aa4
  8
Layer_0
  10
446.37601
  20
213.28799
  0
VERTEX
  5
aa5
  8
Layer_0
  10
446.84354
  20
213.33408
  0
VERTEX
  5
aa6
  8
Layer_0
  10
447.289
  20
213.46893
  0
VERTEX
  5
aa7
  8
Layer_0
  10
447.69977
  20
213.68762
  0
VERTEX
  5
aa8
  8
Layer_0
  10
448.06317
  20
213.98517
  0
VERTEX
  5
aa9
  8
Layer_0
  10
448.36087
  20
214.34845
  0
VERTEX
  5
aaa
  8
Layer_0
  10
448.57959
  20
214.75909
  0
VERTEX
  5
aab
  8
Layer_0
  10
448.71436
  20
215.2045
  0
VERTEX
  5
aac
  8
Layer_0
  10
448.76001
  20
215.672
  0
VERTEX
  5
aad
  8
Layer_0
  10
448.76001
  20
306.15198
  0
VERTEX
  5
aae
  8
Layer_0
  10
448.71484
  20
306.62411
  0
VERTEX
  5
aaf
  8
Layer_0
  10
448.58145
  20
307.06491
  0
VERTEX
  5
ab0
  8
Layer_0
  10
448.36899
  20
307.46503
  0
VERTEX
  5
ab1
  8
Layer_0
  10
448.08655
  20
307.81512
  0
VERTEX
  5
ab2
  8
Layer_0
  10
447.74332
  20
308.1058
  0
VERTEX
  5
ab3
  8
Layer_0
  10
447.34839
  20
308.32776
  0
VERTEX
  5
ab4
  8
Layer_0
  10
446.91092
  20
308.47162
  0
VERTEX
  5
ab5
  8
Layer_0
  10
446.44
  20
308.52802
  0
VERTEX
  5
ab6
  8
Layer_0
  10
445.20801
  20
308.52802
  0
VERTEX
  5
ab7
  8
Layer_0
  10
445.20801
  20
306.008
  0
VERTEX
  5
ab8
  8
Layer_0
  10
445.40802
  20
305.992
  0
SEQEND
  0
ENDSEC
  0
EOF
