  0
SECTION
  2
HEADER
  9
$ACADVER
  1
AC1014
  9
$HANDSEED
  5
FFFF
  9
$MEASUREMENT
 70
     1
  0
ENDSEC
  0
SECTION
  2
TABLES
  0
TABLE
  2
VPORT
  5
8
330
0
100
AcDbSymbolTable
 70
     4
  0
VPORT
  5
2E
330
8
100
AcDbSymbolTableRecord
100
AcDbViewportTableRecord
  2
*ACTIVE
 70
     0
 10
0.0
 20
0.0
 11
1.0
 21
1.0
 12
210.0
 22
148.5
 13
0.0
 23
0.0
 14
10.0
 24
10.0
 15
10.0
 25
10.0
 16
0.0
 26
0.0
 36
1.0
 17
0.0
 27
0.0
 37
0.0
 40
341.0
 41
1.24
 42
50.0
 43
0.0
 44
0.0
 50
0.0
 51
0.0
 71
     0
 72
   100
 73
     1
 74
     3
 75
     0
 76
     0
 77
     0
 78
     0
  0
ENDTAB
  0
TABLE
  2
LTYPE
  5
5
330
0
100
AcDbSymbolTable
 70
     1
  0
LTYPE
  5
14
330
5
100
AcDbSymbolTableRecord
100
AcDbLinetypeTableRecord
  2
BYBLOCK
 70
     0
  3

 72
    65
 73
     0
 40
0.0
  0
LTYPE
  5
15
330
5
100
AcDbSymbolTableRecord
100
AcDbLinetypeTableRecord
  2
BYLAYER
 70
     0
  3

 72
    65
 73
     0
 40
0.0
  0
LTYPE
  5
16
330
5
100
AcDbSymbolTableRecord
100
AcDbLinetypeTableRecord
  2
CONTINUOUS
 70
     0
  3
Solid line
 72
    65
 73
     0
 40
0.0
  0
ENDTAB
  0
TABLE
  2
LAYER
  5
2
100
AcDbSymbolTable
 70
1
  0
LAYER
  5
50
100
AcDbSymbolTableRecord
100
AcDbLayerTableRecord
  2
0
 70
0
  6
CONTINUOUS
  0
ENDTAB
  0
TABLE
  2
STYLE
  5
3
330
0
100
AcDbSymbolTable
 70
     1
  0
STYLE
  5
11
330
3
100
AcDbSymbolTableRecord
100
AcDbTextStyleTableRecord
  2
STANDARD
 70
     0
 40
0.0
 41
1.0
 50
0.0
 71
     0
 42
2.5
  3
txt
  4

  0
ENDTAB
  0
TABLE
  2
VIEW
  5
6
330
0
100
AcDbSymbolTable
 70
     0
  0
ENDTAB
  0
TABLE
  2
UCS
  5
7
330
0
100
AcDbSymbolTable
 70
     0
  0
ENDTAB
  0
TABLE
  2
APPID
  5
9
330
0
100
AcDbSymbolTable
 70
     2
  0
APPID
  5
12
330
9
100
AcDbSymbolTableRecord
100
AcDbRegAppTableRecord
  2
ACAD
 70
     0
  0
ENDTAB
  0
TABLE
  2
DIMSTYLE
  5
A
330
0
100
AcDbSymbolTable
 70
     1
  0
DIMSTYLE
105
27
330
A
100
AcDbSymbolTableRecord
100
AcDbDimStyleTableRecord
  2
ISO-25
 70
     0
  3

  4

  5

  6

  7

 40
1.0
 41
2.5
 42
0.625
 43
3.75
 44
1.25
 45
0.0
 46
0.0
 47
0.0
 48
0.0
140
2.5
141
2.5
142
0.0
143
0.03937007874016
144
1.0
145
0.0
146
1.0
147
0.625
 71
     0
 72
     0
 73
     0
 74
     0
 75
     0
 76
     0
 77
     1
 78
     8
170
     0
171
     3
172
     1
173
     0
174
     0
175
     0
176
     0
177
     0
178
     0
270
     2
271
     2
272
     2
273
     2
274
     3
340
11
275
     0
280
     0
281
     0
282
     0
283
     0
284
     8
285
     0
286
     0
287
     3
288
     0
  0
ENDTAB
  0
TABLE
  2
BLOCK_RECORD
  5
1
330
0
100
AcDbSymbolTable
 70
     1
  0
BLOCK_RECORD
  5
1F
330
1
100
AcDbSymbolTableRecord
100
AcDbBlockTableRecord
  2
*MODEL_SPACE
  0
BLOCK_RECORD
  5
1B
330
1
100
AcDbSymbolTableRecord
100
AcDbBlockTableRecord
  2
*PAPER_SPACE
  0
ENDTAB
  0
ENDSEC
  0
SECTION
  2
BLOCKS
  0
BLOCK
  5
20
330
1F
100
AcDbEntity
  8
0
100
AcDbBlockBegin
  2
*MODEL_SPACE
 70
     0
 10
0.0
 20
0.0
 30
0.0
  3
*MODEL_SPACE
  1

  0
ENDBLK
  5
21
330
1F
100
AcDbEntity
  8
0
100
AcDbBlockEnd
  0
BLOCK
  5
1C
330
1B
100
AcDbEntity
 67
     1
  8
0
100
AcDbBlockBegin
  2
*PAPER_SPACE
  1

  0
ENDBLK
  5
1D
330
1B
100
AcDbEntity
 67
     1
  8
0
100
AcDbBlockEnd
  0
ENDSEC
  0
SECTION
  2
ENTITIES
  0
SPLINE
  5
100
100
AcDbEntity
  8
0
 62
7
100
AcDbSpline
 70
8
 71
3
 72
8
 73
4
 74
0
 40
0
 40
0
 40
0
 40
0
 40
1
 40
1
 40
1
 40
1
 10
285.850000
 20
-2.480889
 30
0.0
 10
285.849972
 20
-1.165773
 30
0.0
 10
284.783867
 20
-0.099667
 30
0.0
 10
283.468750
 20
-0.099639
 30
0.0
  0
SPLINE
  5
101
100
AcDbEntity
  8
0
 62
7
100
AcDbSpline
 70
8
 71
3
 72
8
 73
4
 74
0
 40
0
 40
0
 40
0
 40
0
 40
1
 40
1
 40
1
 40
1
 10
0.100000
 20
-92.962389
 30
0.0
 10
0.100028
 20
-94.277506
 30
0.0
 10
1.166133
 20
-95.343612
 30
0.0
 10
2.481250
 20
-95.343639
 30
0.0
  0
SPLINE
  5
102
100
AcDbEntity
  8
0
 62
7
100
AcDbSpline
 70
8
 71
3
 72
8
 73
4
 74
0
 40
0
 40
0
 40
0
 40
0
 40
1
 40
1
 40
1
 40
1
 10
283.468750
 20
-95.343639
 30
0.0
 10
284.783867
 20
-95.343612
 30
0.0
 10
285.849972
 20
-94.277506
 30
0.0
 10
285.850000
 20
-92.962389
 30
0.0
  0
SPLINE
  5
103
100
AcDbEntity
  8
0
 62
7
100
AcDbSpline
 70
8
 71
3
 72
8
 73
4
 74
0
 40
0
 40
0
 40
0
 40
0
 40
1
 40
1
 40
1
 40
1
 10
48.960515
 20
-54.721654
 30
0.0
 10
49.225738
 20
-54.721677
 30
0.0
 10
49.480104
 20
-54.616328
 30
0.0
 10
49.667646
 20
-54.428787
 30
0.0
  0
SPLINE
  5
104
100
AcDbEntity
  8
0
 62
7
100
AcDbSpline
 70
8
 71
3
 72
8
 73
4
 74
0
 40
0
 40
0
 40
0
 40
0
 40
1
 40
1
 40
1
 40
1
 10
49.667646
 20
-54.428787
 30
0.0
 10
49.855187
 20
-54.241246
 30
0.0
 10
49.960537
 20
-53.986880
 30
0.0
 10
49.960515
 20
-53.721657
 30
0.0
  0
SPLINE
  5
105
100
AcDbEntity
  8
0
 62
7
100
AcDbSpline
 70
8
 71
3
 72
8
 73
4
 74
0
 40
0
 40
0
 40
0
 40
0
 40
1
 40
1
 40
1
 40
1
 10
135.973102
 20
-15.621636
 30
0.0
 10
135.973100
 20
-16.173907
 30
0.0
 10
136.420793
 20
-16.621617
 30
0.0
 10
136.973063
 20
-16.621637
 30
0.0
  0
SPLINE
  5
106
100
AcDbEntity
  8
0
 62
7
100
AcDbSpline
 70
8
 71
3
 72
8
 73
4
 74
0
 40
0
 40
0
 40
0
 40
0
 40
1
 40
1
 40
1
 40
1
 10
279.941890
 20
-92.821730
 30
0.0
 10
280.494175
 20
-92.821681
 30
0.0
 10
280.941870
 20
-92.373962
 30
0.0
 10
280.941891
 20
-91.821677
 30
0.0
  0
SPLINE
  5
107
100
AcDbEntity
  8
0
 62
7
100
AcDbSpline
 70
8
 71
3
 72
8
 73
4
 74
0
 40
0
 40
0
 40
0
 40
0
 40
1
 40
1
 40
1
 40
1
 10
240.748193
 20
-34.671646
 30
0.0
 10
240.748197
 20
-35.223901
 30
0.0
 10
241.195865
 20
-35.671602
 30
0.0
 10
241.748119
 20
-35.671646
 30
0.0
  0
SPLINE
  5
108
100
AcDbEntity
  8
0
 62
7
100
AcDbSpline
 70
8
 71
3
 72
8
 73
4
 74
0
 40
0
 40
0
 40
0
 40
0
 40
1
 40
1
 40
1
 40
1
 10
245.505670
 20
-53.722969
 30
0.0
 10
245.505687
 20
-54.275252
 30
0.0
 10
245.953400
 20
-54.722960
 30
0.0
 10
246.505683
 20
-54.722969
 30
0.0
  0
SPLINE
  5
109
100
AcDbEntity
  8
0
 62
7
100
AcDbSpline
 70
8
 71
3
 72
8
 73
4
 74
0
 40
0
 40
0
 40
0
 40
0
 40
1
 40
1
 40
1
 40
1
 10
207.410582
 20
-53.721657
 30
0.0
 10
207.410592
 20
-54.273945
 30
0.0
 10
207.858313
 20
-54.721658
 30
0.0
 10
208.410601
 20
-54.721657
 30
0.0
  0
SPLINE
  5
10a
100
AcDbEntity
  8
0
 62
7
100
AcDbSpline
 70
8
 71
3
 72
8
 73
4
 74
0
 40
0
 40
0
 40
0
 40
0
 40
1
 40
1
 40
1
 40
1
 10
234.698116
 20
-35.671656
 30
0.0
 10
234.963341
 20
-35.671679
 30
0.0
 10
235.217710
 20
-35.566328
 30
0.0
 10
235.405251
 20
-35.378784
 30
0.0
  0
SPLINE
  5
10b
100
AcDbEntity
  8
0
 62
7
100
AcDbSpline
 70
8
 71
3
 72
8
 73
4
 74
0
 40
0
 40
0
 40
0
 40
0
 40
1
 40
1
 40
1
 40
1
 10
235.405251
 20
-35.378784
 30
0.0
 10
235.592793
 20
-35.191241
 30
0.0
 10
235.698142
 20
-34.936871
 30
0.0
 10
235.698117
 20
-34.671646
 30
0.0
  0
LWPOLYLINE
  5
10c
100
AcDbEntity
  8
0
 62
7
100
AcDbPolyline
 90
2
 70
0
 10
64.248024
 20
-34.671646
 30
0.0
 10
64.248024
 20
-22.671640
 30
0.0
  0
SPLINE
  5
10d
100
AcDbEntity
  8
0
 62
7
100
AcDbSpline
 70
8
 71
3
 72
8
 73
4
 74
0
 40
0
 40
0
 40
0
 40
0
 40
1
 40
1
 40
1
 40
1
 10
146.498068
 20
-21.671706
 30
0.0
 10
146.232857
 20
-21.671688
 30
0.0
 10
145.978503
 20
-21.777030
 30
0.0
 10
145.790964
 20
-21.964556
 30
0.0
  0
SPLINE
  5
10e
100
AcDbEntity
  8
0
 62
7
100
AcDbSpline
 70
8
 71
3
 72
8
 73
4
 74
0
 40
0
 40
0
 40
0
 40
0
 40
1
 40
1
 40
1
 40
1
 10
145.790964
 20
-21.964556
 30
0.0
 10
145.603426
 20
-22.152082
 30
0.0
 10
145.498067
 20
-22.406430
 30
0.0
 10
145.498067
 20
-22.671640
 30
0.0
  0
LWPOLYLINE
  5
10f
100
AcDbEntity
  8
0
 62
7
100
AcDbPolyline
 90
2
 70
0
 10
153.690483
 20
-77.821639
 30
0.0
 10
153.690483
 20
-90.821646
 30
0.0
  0
LWPOLYLINE
  5
110
100
AcDbEntity
  8
0
 62
7
100
AcDbPolyline
 90
2
 70
0
 10
68.010526
 20
-78.821670
 30
0.0
 10
53.629268
 20
-78.821670
 30
0.0
  0
SPLINE
  5
111
100
AcDbEntity
  8
0
 62
7
100
AcDbSpline
 70
8
 71
3
 72
8
 73
4
 74
0
 40
0
 40
0
 40
0
 40
0
 40
1
 40
1
 40
1
 40
1
 10
148.973069
 20
-16.621609
 30
0.0
 10
149.238283
 20
-16.621618
 30
0.0
 10
149.492638
 20
-16.516267
 30
0.0
 10
149.680176
 20
-16.328735
 30
0.0
  0
SPLINE
  5
112
100
AcDbEntity
  8
0
 62
7
100
AcDbSpline
 70
8
 71
3
 72
8
 73
4
 74
0
 40
0
 40
0
 40
0
 40
0
 40
1
 40
1
 40
1
 40
1
 10
149.680176
 20
-16.328735
 30
0.0
 10
149.867713
 20
-16.141203
 30
0.0
 10
149.973071
 20
-15.886851
 30
0.0
 10
149.973070
 20
-15.621636
 30
0.0
  0
SPLINE
  5
113
100
AcDbEntity
  8
0
 62
7
100
AcDbSpline
 70
8
 71
3
 72
8
 73
4
 74
0
 40
0
 40
0
 40
0
 40
0
 40
1
 40
1
 40
1
 40
1
 10
229.935613
 20
-73.771753
 30
0.0
 10
230.200852
 20
-73.771776
 30
0.0
 10
230.455232
 20
-73.666415
 30
0.0
 10
230.642776
 20
-73.478855
 30
0.0
  0
SPLINE
  5
114
100
AcDbEntity
  8
0
 62
7
100
AcDbSpline
 70
8
 71
3
 72
8
 73
4
 74
0
 40
0
 40
0
 40
0
 40
0
 40
1
 40
1
 40
1
 40
1
 10
230.642776
 20
-73.478855
 30
0.0
 10
230.830320
 20
-73.291295
 30
0.0
 10
230.935660
 20
-73.036906
 30
0.0
 10
230.935614
 20
-72.771667
 30
0.0
  0
SPLINE
  5
115
100
AcDbEntity
  8
0
 62
7
100
AcDbSpline
 70
8
 71
3
 72
8
 73
4
 74
0
 40
0
 40
0
 40
0
 40
0
 40
1
 40
1
 40
1
 40
1
 10
160.690501
 20
-77.821639
 30
0.0
 10
160.690501
 20
-77.556420
 30
0.0
 10
160.585142
 20
-77.302064
 30
0.0
 10
160.397603
 20
-77.114527
 30
0.0
  0
SPLINE
  5
116
100
AcDbEntity
  8
0
 62
7
100
AcDbSpline
 70
8
 71
3
 72
8
 73
4
 74
0
 40
0
 40
0
 40
0
 40
0
 40
1
 40
1
 40
1
 40
1
 10
160.397603
 20
-77.114527
 30
0.0
 10
160.210063
 20
-76.926990
 30
0.0
 10
159.955705
 20
-76.821635
 30
0.0
 10
159.690486
 20
-76.821638
 30
0.0
  0
SPLINE
  5
117
100
AcDbEntity
  8
0
 62
7
100
AcDbSpline
 70
8
 71
3
 72
8
 73
4
 74
0
 40
0
 40
0
 40
0
 40
0
 40
1
 40
1
 40
1
 40
1
 10
29.975170
 20
-74.747569
 30
0.0
 10
29.975178
 20
-74.482344
 30
0.0
 10
29.869819
 20
-74.227980
 30
0.0
 10
29.682272
 20
-74.040441
 30
0.0
  0
SPLINE
  5
118
100
AcDbEntity
  8
0
 62
7
100
AcDbSpline
 70
8
 71
3
 72
8
 73
4
 74
0
 40
0
 40
0
 40
0
 40
0
 40
1
 40
1
 40
1
 40
1
 10
29.682272
 20
-74.040441
 30
0.0
 10
29.494726
 20
-73.852902
 30
0.0
 10
29.240358
 20
-73.747552
 30
0.0
 10
28.975133
 20
-73.747569
 30
0.0
  0
SPLINE
  5
119
100
AcDbEntity
  8
0
 62
7
100
AcDbSpline
 70
8
 71
3
 72
8
 73
4
 74
0
 40
0
 40
0
 40
0
 40
0
 40
1
 40
1
 40
1
 40
1
 10
136.973063
 20
-2.621601
 30
0.0
 10
136.420775
 20
-2.621622
 30
0.0
 10
135.973067
 20
-3.069343
 30
0.0
 10
135.973062
 20
-3.621630
 30
0.0
  0
SPLINE
  5
11a
100
AcDbEntity
  8
0
 62
7
100
AcDbSpline
 70
8
 71
3
 72
8
 73
4
 74
0
 40
0
 40
0
 40
0
 40
0
 40
1
 40
1
 40
1
 40
1
 10
90.830828
 20
-92.321641
 30
0.0
 10
91.009481
 20
-92.631031
 30
0.0
 10
91.339609
 20
-92.821621
 30
0.0
 10
91.696875
 20
-92.821630
 30
0.0
  0
LWPOLYLINE
  5
11b
100
AcDbEntity
  8
0
 62
7
100
AcDbPolyline
 90
2
 70
0
 10
203.648099
 20
-35.671647
 30
0.0
 10
215.648105
 20
-35.671647
 30
0.0
  0
SPLINE
  5
11c
100
AcDbEntity
  8
0
 62
7
100
AcDbSpline
 70
8
 71
3
 72
8
 73
4
 74
0
 40
0
 40
0
 40
0
 40
0
 40
1
 40
1
 40
1
 40
1
 10
107.398093
 20
-34.671646
 30
0.0
 10
107.398097
 20
-35.223912
 30
0.0
 10
107.845782
 20
-35.671617
 30
0.0
 10
108.398047
 20
-35.671646
 30
0.0
  0
LWPOLYLINE
  5
11d
100
AcDbEntity
  8
0
 62
7
100
AcDbPolyline
 90
2
 70
0
 10
74.060529
 20
-41.721650
 30
0.0
 10
74.060529
 20
-53.721657
 30
0.0
  0
SPLINE
  5
11e
100
AcDbEntity
  8
0
 62
7
100
AcDbSpline
 70
8
 71
3
 72
8
 73
4
 74
0
 40
0
 40
0
 40
0
 40
0
 40
1
 40
1
 40
1
 40
1
 10
35.960581
 20
-53.721657
 30
0.0
 10
35.960591
 20
-54.273910
 30
0.0
 10
36.408256
 20
-54.721608
 30
0.0
 10
36.960509
 20
-54.721658
 30
0.0
  0
SPLINE
  5
11f
100
AcDbEntity
  8
0
 62
7
100
AcDbSpline
 70
8
 71
3
 72
8
 73
4
 74
0
 40
0
 40
0
 40
0
 40
0
 40
1
 40
1
 40
1
 40
1
 10
6.099070
 20
-74.747569
 30
0.0
 10
6.099051
 20
-75.012802
 30
0.0
 10
6.204411
 20
-75.267176
 30
0.0
 10
6.391965
 20
-75.454719
 30
0.0
  0
SPLINE
  5
120
100
AcDbEntity
  8
0
 62
7
100
AcDbSpline
 70
8
 71
3
 72
8
 73
4
 74
0
 40
0
 40
0
 40
0
 40
0
 40
1
 40
1
 40
1
 40
1
 10
6.391965
 20
-75.454719
 30
0.0
 10
6.579518
 20
-75.642261
 30
0.0
 10
6.833899
 20
-75.747604
 30
0.0
 10
7.099132
 20
-75.747569
 30
0.0
  0
SPLINE
  5
121
100
AcDbEntity
  8
0
 62
7
100
AcDbSpline
 70
8
 71
3
 72
8
 73
4
 74
0
 40
0
 40
0
 40
0
 40
0
 40
1
 40
1
 40
1
 40
1
 10
244.216371
 20
-74.771668
 30
0.0
 10
244.216387
 20
-75.323946
 30
0.0
 10
244.664093
 20
-75.771652
 30
0.0
 10
245.216371
 20
-75.771668
 30
0.0
  0
SPLINE
  5
122
100
AcDbEntity
  8
0
 62
7
100
AcDbSpline
 70
8
 71
3
 72
8
 73
4
 74
0
 40
0
 40
0
 40
0
 40
0
 40
1
 40
1
 40
1
 40
1
 10
221.410589
 20
-41.721650
 30
0.0
 10
221.410592
 20
-41.456436
 30
0.0
 10
221.305239
 20
-41.202084
 30
0.0
 10
221.117706
 20
-41.014547
 30
0.0
  0
SPLINE
  5
123
100
AcDbEntity
  8
0
 62
7
100
AcDbSpline
 70
8
 71
3
 72
8
 73
4
 74
0
 40
0
 40
0
 40
0
 40
0
 40
1
 40
1
 40
1
 40
1
 10
221.117706
 20
-41.014547
 30
0.0
 10
220.930173
 20
-40.827011
 30
0.0
 10
220.675822
 20
-40.721652
 30
0.0
 10
220.410608
 20
-40.721650
 30
0.0
  0
LWPOLYLINE
  5
124
100
AcDbEntity
  8
0
 62
7
100
AcDbPolyline
 90
2
 70
0
 10
192.835593
 20
-72.771667
 30
0.0
 10
192.835593
 20
-60.771660
 30
0.0
  0
SPLINE
  5
125
100
AcDbEntity
  8
0
 62
7
100
AcDbSpline
 70
8
 71
3
 72
8
 73
4
 74
0
 40
0
 40
0
 40
0
 40
0
 40
1
 40
1
 40
1
 40
1
 10
83.298000
 20
-22.671640
 30
0.0
 10
83.298001
 20
-22.119368
 30
0.0
 10
82.850305
 20
-21.671658
 30
0.0
 10
82.298033
 20
-21.671639
 30
0.0
  0
SPLINE
  5
126
100
AcDbEntity
  8
0
 62
7
100
AcDbSpline
 70
8
 71
3
 72
8
 73
4
 74
0
 40
0
 40
0
 40
0
 40
0
 40
1
 40
1
 40
1
 40
1
 10
36.975133
 20
-74.647569
 30
0.0
 10
36.934687
 20
-74.647569
 30
0.0
 10
36.898223
 20
-74.671934
 30
0.0
 10
36.882745
 20
-74.709301
 30
0.0
  0
SPLINE
  5
127
100
AcDbEntity
  8
0
 62
7
100
AcDbSpline
 70
8
 71
3
 72
8
 73
4
 74
0
 40
0
 40
0
 40
0
 40
0
 40
1
 40
1
 40
1
 40
1
 10
36.882745
 20
-74.709301
 30
0.0
 10
36.867267
 20
-74.746668
 30
0.0
 10
36.875823
 20
-74.789680
 30
0.0
 10
36.904422
 20
-74.818280
 30
0.0
  0
SPLINE
  5
128
100
AcDbEntity
  8
0
 62
7
100
AcDbSpline
 70
8
 71
3
 72
8
 73
4
 74
0
 40
0
 40
0
 40
0
 40
0
 40
1
 40
1
 40
1
 40
1
 10
36.904422
 20
-74.818280
 30
0.0
 10
36.933022
 20
-74.846880
 30
0.0
 10
36.976034
 20
-74.855435
 30
0.0
 10
37.013401
 20
-74.839957
 30
0.0
  0
SPLINE
  5
129
100
AcDbEntity
  8
0
 62
7
100
AcDbSpline
 70
8
 71
3
 72
8
 73
4
 74
0
 40
0
 40
0
 40
0
 40
0
 40
1
 40
1
 40
1
 40
1
 10
37.013401
 20
-74.839957
 30
0.0
 10
37.050769
 20
-74.824479
 30
0.0
 10
37.075133
 20
-74.788016
 30
0.0
 10
37.075133
 20
-74.747569
 30
0.0
  0
SPLINE
  5
12a
100
AcDbEntity
  8
0
 62
7
100
AcDbSpline
 70
8
 71
3
 72
8
 73
4
 74
0
 40
0
 40
0
 40
0
 40
0
 40
1
 40
1
 40
1
 40
1
 10
37.075133
 20
-74.747569
 30
0.0
 10
37.075133
 20
-74.721048
 30
0.0
 10
37.064597
 20
-74.695612
 30
0.0
 10
37.045844
 20
-74.676859
 30
0.0
  0
SPLINE
  5
12b
100
AcDbEntity
  8
0
 62
7
100
AcDbSpline
 70
8
 71
3
 72
8
 73
4
 74
0
 40
0
 40
0
 40
0
 40
0
 40
1
 40
1
 40
1
 40
1
 10
37.045844
 20
-74.676859
 30
0.0
 10
37.027090
 20
-74.658105
 30
0.0
 10
37.001655
 20
-74.647569
 30
0.0
 10
36.975133
 20
-74.647569
 30
0.0
  0
LWPOLYLINE
  5
12c
100
AcDbEntity
  8
0
 62
7
100
AcDbPolyline
 90
2
 70
0
 10
256.978878
 20
-54.721657
 30
0.0
 10
271.854886
 20
-54.721657
 30
0.0
  0
LWPOLYLINE
  5
12d
100
AcDbEntity
  8
0
 62
7
100
AcDbPolyline
 90
1
 70
1
 10
36.975133
 20
-74.647569
 30
0.0
  0
SPLINE
  5
12e
100
AcDbEntity
  8
0
 62
7
100
AcDbSpline
 70
8
 71
3
 72
8
 73
4
 74
0
 40
0
 40
0
 40
0
 40
0
 40
1
 40
1
 40
1
 40
1
 10
6.004242
 20
-40.721681
 30
0.0
 10
5.739027
 20
-40.721670
 30
0.0
 10
5.484672
 20
-40.827019
 30
0.0
 10
5.297134
 20
-41.014551
 30
0.0
  0
SPLINE
  5
12f
100
AcDbEntity
  8
0
 62
7
100
AcDbSpline
 70
8
 71
3
 72
8
 73
4
 74
0
 40
0
 40
0
 40
0
 40
0
 40
1
 40
1
 40
1
 40
1
 10
5.297134
 20
-41.014551
 30
0.0
 10
5.109596
 20
-41.202083
 30
0.0
 10
5.004239
 20
-41.456436
 30
0.0
 10
5.004242
 20
-41.721650
 30
0.0
  0
LWPOLYLINE
  5
130
100
AcDbEntity
  8
0
 62
7
100
AcDbPolyline
 90
2
 70
0
 10
116.635552
 20
-72.771667
 30
0.0
 10
116.635552
 20
-60.771660
 30
0.0
  0
LWPOLYLINE
  5
131
100
AcDbEntity
  8
0
 62
7
100
AcDbPolyline
 90
2
 70
0
 10
206.123100
 20
-2.621629
 30
0.0
 10
194.123094
 20
-2.621629
 30
0.0
  0
LWPOLYLINE
  5
132
100
AcDbEntity
  8
0
 62
7
100
AcDbPolyline
 90
2
 70
0
 10
135.685562
 20
-72.771667
 30
0.0
 10
135.685562
 20
-60.771660
 30
0.0
  0
LWPOLYLINE
  5
133
100
AcDbEntity
  8
0
 62
7
100
AcDbPolyline
 90
2
 70
0
 10
53.629268
 20
-92.821678
 30
0.0
 10
68.010526
 20
-92.821678
 30
0.0
  0
LWPOLYLINE
  5
134
100
AcDbEntity
  8
0
 62
7
100
AcDbPolyline
 90
2
 70
0
 10
160.785576
 20
-73.771668
 30
0.0
 10
172.785582
 20
-73.771668
 30
0.0
  0
SPLINE
  5
135
100
AcDbEntity
  8
0
 62
7
100
AcDbSpline
 70
8
 71
3
 72
8
 73
4
 74
0
 40
0
 40
0
 40
0
 40
0
 40
1
 40
1
 40
1
 40
1
 10
193.123102
 20
-15.621636
 30
0.0
 10
193.123100
 20
-16.173919
 30
0.0
 10
193.570812
 20
-16.621634
 30
0.0
 10
194.123094
 20
-16.621637
 30
0.0
  0
SPLINE
  5
136
100
AcDbEntity
  8
0
 62
7
100
AcDbSpline
 70
8
 71
3
 72
8
 73
4
 74
0
 40
0
 40
0
 40
0
 40
0
 40
1
 40
1
 40
1
 40
1
 10
265.555682
 20
-21.673021
 30
0.0
 10
265.290468
 20
-21.673000
 30
0.0
 10
265.036109
 20
-21.778342
 30
0.0
 10
264.848570
 20
-21.965872
 30
0.0
  0
SPLINE
  5
137
100
AcDbEntity
  8
0
 62
7
100
AcDbSpline
 70
8
 71
3
 72
8
 73
4
 74
0
 40
0
 40
0
 40
0
 40
0
 40
1
 40
1
 40
1
 40
1
 10
264.848570
 20
-21.965872
 30
0.0
 10
264.661030
 20
-22.153402
 30
0.0
 10
264.555674
 20
-22.407755
 30
0.0
 10
264.555682
 20
-22.672969
 30
0.0
  0
SPLINE
  5
138
100
AcDbEntity
  8
0
 62
7
100
AcDbSpline
 70
8
 71
3
 72
8
 73
4
 74
0
 40
0
 40
0
 40
0
 40
0
 40
1
 40
1
 40
1
 40
1
 10
231.223103
 20
-15.621636
 30
0.0
 10
231.223102
 20
-15.886855
 30
0.0
 10
231.328460
 20
-16.141211
 30
0.0
 10
231.515999
 20
-16.328748
 30
0.0
  0
SPLINE
  5
139
100
AcDbEntity
  8
0
 62
7
100
AcDbSpline
 70
8
 71
3
 72
8
 73
4
 74
0
 40
0
 40
0
 40
0
 40
0
 40
1
 40
1
 40
1
 40
1
 10
231.515999
 20
-16.328748
 30
0.0
 10
231.703538
 20
-16.516285
 30
0.0
 10
231.957895
 20
-16.621640
 30
0.0
 10
232.223114
 20
-16.621636
 30
0.0
  0
LWPOLYLINE
  5
13a
100
AcDbEntity
  8
0
 62
7
100
AcDbPolyline
 90
2
 70
0
 10
183.310588
 20
-53.721657
 30
0.0
 10
183.310588
 20
-41.721650
 30
0.0
  0
SPLINE
  5
13b
100
AcDbEntity
  8
0
 62
7
100
AcDbSpline
 70
8
 71
3
 72
8
 73
4
 74
0
 40
0
 40
0
 40
0
 40
0
 40
1
 40
1
 40
1
 40
1
 10
45.197968
 20
-79.821671
 30
0.0
 10
45.197976
 20
-79.556460
 30
0.0
 10
45.092629
 20
-79.302108
 30
0.0
 10
44.905100
 20
-79.114571
 30
0.0
  0
SPLINE
  5
13c
100
AcDbEntity
  8
0
 62
7
100
AcDbSpline
 70
8
 71
3
 72
8
 73
4
 74
0
 40
0
 40
0
 40
0
 40
0
 40
1
 40
1
 40
1
 40
1
 10
44.905100
 20
-79.114571
 30
0.0
 10
44.717572
 20
-78.927034
 30
0.0
 10
44.463224
 20
-78.821675
 30
0.0
 10
44.198013
 20
-78.821671
 30
0.0
  0
SPLINE
  5
13d
100
AcDbEntity
  8
0
 62
7
100
AcDbSpline
 70
8
 71
3
 72
8
 73
4
 74
0
 40
0
 40
0
 40
0
 40
0
 40
1
 40
1
 40
1
 40
1
 10
169.310581
 20
-53.721657
 30
0.0
 10
169.310591
 20
-54.273938
 30
0.0
 10
169.758300
 20
-54.721648
 30
0.0
 10
170.310581
 20
-54.721658
 30
0.0
  0
SPLINE
  5
13e
100
AcDbEntity
  8
0
 62
7
100
AcDbSpline
 70
8
 71
3
 72
8
 73
4
 74
0
 40
0
 40
0
 40
0
 40
0
 40
1
 40
1
 40
1
 40
1
 10
227.460612
 20
-40.721651
 30
0.0
 10
226.908348
 20
-40.721700
 30
0.0
 10
226.460661
 20
-41.169386
 30
0.0
 10
226.460612
 20
-41.721650
 30
0.0
  0
LWPOLYLINE
  5
13f
100
AcDbEntity
  8
0
 62
7
100
AcDbPolyline
 90
2
 70
0
 10
32.198006
 20
-35.671647
 30
0.0
 10
44.198013
 20
-35.671647
 30
0.0
  0
SPLINE
  5
140
100
AcDbEntity
  8
0
 62
7
100
AcDbSpline
 70
8
 71
3
 72
8
 73
4
 74
0
 40
0
 40
0
 40
0
 40
0
 40
1
 40
1
 40
1
 40
1
 10
250.273118
 20
-15.621630
 30
0.0
 10
250.273115
 20
-15.996657
 30
0.0
 10
250.482949
 20
-16.340158
 30
0.0
 10
250.816621
 20
-16.511353
 30
0.0
  0
LWPOLYLINE
  5
141
100
AcDbEntity
  8
0
 62
7
100
AcDbPolyline
 90
2
 70
0
 10
146.498068
 20
-35.671647
 30
0.0
 10
158.498075
 20
-35.671647
 30
0.0
  0
SPLINE
  5
142
100
AcDbEntity
  8
0
 62
7
100
AcDbSpline
 70
8
 71
3
 72
8
 73
4
 74
0
 40
0
 40
0
 40
0
 40
0
 40
1
 40
1
 40
1
 40
1
 10
176.860546
 20
-91.821683
 30
0.0
 10
176.503286
 20
-91.821667
 30
0.0
 10
176.173156
 20
-92.012253
 30
0.0
 10
175.994521
 20
-92.321647
 30
0.0
  0
SPLINE
  5
143
100
AcDbEntity
  8
0
 62
7
100
AcDbSpline
 70
8
 71
3
 72
8
 73
4
 74
0
 40
0
 40
0
 40
0
 40
0
 40
1
 40
1
 40
1
 40
1
 10
241.748119
 20
-78.821757
 30
0.0
 10
241.195886
 20
-78.821802
 30
0.0
 10
240.748211
 20
-79.269439
 30
0.0
 10
240.748118
 20
-79.821671
 30
0.0
  0
LWPOLYLINE
  5
144
100
AcDbEntity
  8
0
 62
7
100
AcDbPolyline
 90
2
 70
0
 10
280.941891
 20
-91.821677
 30
0.0
 10
280.941891
 20
-79.821671
 30
0.0
  0
SPLINE
  5
145
100
AcDbEntity
  8
0
 62
7
100
AcDbSpline
 70
8
 71
3
 72
8
 73
4
 74
0
 40
0
 40
0
 40
0
 40
0
 40
1
 40
1
 40
1
 40
1
 10
12.099133
 20
-75.747572
 30
0.0
 10
12.651411
 20
-75.747554
 30
0.0
 10
13.099116
 20
-75.299848
 30
0.0
 10
13.099133
 20
-74.747569
 30
0.0
  0
SPLINE
  5
146
100
AcDbEntity
  8
0
 62
7
100
AcDbSpline
 70
8
 71
3
 72
8
 73
4
 74
0
 40
0
 40
0
 40
0
 40
0
 40
1
 40
1
 40
1
 40
1
 10
21.385499
 20
-22.671640
 30
0.0
 10
21.385499
 20
-22.406424
 30
0.0
 10
21.280143
 20
-22.152070
 30
0.0
 10
21.092606
 20
-21.964534
 30
0.0
  0
SPLINE
  5
147
100
AcDbEntity
  8
0
 62
7
100
AcDbSpline
 70
8
 71
3
 72
8
 73
4
 74
0
 40
0
 40
0
 40
0
 40
0
 40
1
 40
1
 40
1
 40
1
 10
21.092606
 20
-21.964534
 30
0.0
 10
20.905070
 20
-21.776997
 30
0.0
 10
20.650716
 20
-21.671640
 30
0.0
 10
20.385500
 20
-21.671640
 30
0.0
  0
SPLINE
  5
148
100
AcDbEntity
  8
0
 62
7
100
AcDbSpline
 70
8
 71
3
 72
8
 73
4
 74
0
 40
0
 40
0
 40
0
 40
0
 40
1
 40
1
 40
1
 40
1
 10
115.635551
 20
-73.771691
 30
0.0
 10
116.187834
 20
-73.771663
 30
0.0
 10
116.635537
 20
-73.323950
 30
0.0
 10
116.635552
 20
-72.771667
 30
0.0
  0
LWPOLYLINE
  5
149
100
AcDbEntity
  8
0
 62
7
100
AcDbPolyline
 90
2
 70
0
 10
69.010526
 20
-91.821677
 30
0.0
 10
69.010526
 20
-79.821671
 30
0.0
  0
LWPOLYLINE
  5
14a
100
AcDbEntity
  8
0
 62
7
100
AcDbPolyline
 90
2
 70
0
 10
175.073083
 20
-16.621637
 30
0.0
 10
187.073090
 20
-16.621637
 30
0.0
  0
LWPOLYLINE
  5
14b
100
AcDbEntity
  8
0
 62
7
100
AcDbPolyline
 90
2
 70
0
 10
48.960515
 20
-40.721650
 30
0.0
 10
36.960509
 20
-40.721650
 30
0.0
  0
LWPOLYLINE
  5
14c
100
AcDbEntity
  8
0
 62
7
100
AcDbPolyline
 90
2
 70
0
 10
92.823039
 20
-15.621636
 30
0.0
 10
92.823039
 20
-3.621630
 30
0.0
  0
LWPOLYLINE
  5
14d
100
AcDbEntity
  8
0
 62
7
100
AcDbPolyline
 90
2
 70
0
 10
221.698109
 20
-22.671640
 30
0.0
 10
221.698109
 20
-34.671646
 30
0.0
  0
LWPOLYLINE
  5
14e
100
AcDbEntity
  8
0
 62
7
100
AcDbPolyline
 90
2
 70
0
 10
44.198013
 20
-21.671639
 30
0.0
 10
32.198006
 20
-21.671639
 30
0.0
  0
LWPOLYLINE
  5
14f
100
AcDbEntity
  8
0
 62
7
100
AcDbPolyline
 90
2
 70
0
 10
132.210560
 20
-54.721657
 30
0.0
 10
144.210567
 20
-54.721657
 30
0.0
  0
SPLINE
  5
150
100
AcDbEntity
  8
0
 62
7
100
AcDbSpline
 70
8
 71
3
 72
8
 73
4
 74
0
 40
0
 40
0
 40
0
 40
0
 40
1
 40
1
 40
1
 40
1
 10
78.535479
 20
-60.771660
 30
0.0
 10
78.535491
 20
-60.219391
 30
0.0
 10
78.087800
 20
-59.771677
 30
0.0
 10
77.535531
 20
-59.771660
 30
0.0
  0
SPLINE
  5
151
100
AcDbEntity
  8
0
 62
7
100
AcDbSpline
 70
8
 71
3
 72
8
 73
4
 74
0
 40
0
 40
0
 40
0
 40
0
 40
1
 40
1
 40
1
 40
1
 10
156.023073
 20
-2.621611
 30
0.0
 10
155.470787
 20
-2.621626
 30
0.0
 10
155.023077
 20
-3.069344
 30
0.0
 10
155.023072
 20
-3.621630
 30
0.0
  0
LWPOLYLINE
  5
152
100
AcDbEntity
  8
0
 62
7
100
AcDbPolyline
 90
2
 70
0
 10
154.690483
 20
-91.821647
 30
0.0
 10
161.396436
 20
-91.821647
 30
0.0
  0
SPLINE
  5
153
100
AcDbEntity
  8
0
 62
7
100
AcDbSpline
 70
8
 71
3
 72
8
 73
4
 74
0
 40
0
 40
0
 40
0
 40
0
 40
1
 40
1
 40
1
 40
1
 10
21.385568
 20
-79.821671
 30
0.0
 10
21.385530
 20
-79.269376
 30
0.0
 10
20.937796
 20
-78.821671
 30
0.0
 10
20.385500
 20
-78.821671
 30
0.0
  0
SPLINE
  5
154
100
AcDbEntity
  8
0
 62
7
100
AcDbSpline
 70
8
 71
3
 72
8
 73
4
 74
0
 40
0
 40
0
 40
0
 40
0
 40
1
 40
1
 40
1
 40
1
 10
20.385500
 20
-35.671740
 30
0.0
 10
20.650733
 20
-35.671740
 30
0.0
 10
20.905101
 20
-35.566371
 30
0.0
 10
21.092640
 20
-35.378814
 30
0.0
  0
SPLINE
  5
155
100
AcDbEntity
  8
0
 62
7
100
AcDbSpline
 70
8
 71
3
 72
8
 73
4
 74
0
 40
0
 40
0
 40
0
 40
0
 40
1
 40
1
 40
1
 40
1
 10
21.092640
 20
-35.378814
 30
0.0
 10
21.280180
 20
-35.191257
 30
0.0
 10
21.385526
 20
-34.936879
 30
0.0
 10
21.385501
 20
-34.671646
 30
0.0
  0
SPLINE
  5
156
100
AcDbEntity
  8
0
 62
7
100
AcDbSpline
 70
8
 71
3
 72
8
 73
4
 74
0
 40
0
 40
0
 40
0
 40
0
 40
1
 40
1
 40
1
 40
1
 10
70.298027
 20
-21.671665
 30
0.0
 10
69.745769
 20
-21.671706
 30
0.0
 10
69.298081
 20
-22.119382
 30
0.0
 10
69.298026
 20
-22.671640
 30
0.0
  0
SPLINE
  5
157
100
AcDbEntity
  8
0
 62
7
100
AcDbSpline
 70
8
 71
3
 72
8
 73
4
 74
0
 40
0
 40
0
 40
0
 40
0
 40
1
 40
1
 40
1
 40
1
 10
264.555670
 20
-34.672969
 30
0.0
 10
264.555687
 20
-35.225252
 30
0.0
 10
265.003399
 20
-35.672959
 30
0.0
 10
265.555682
 20
-35.672969
 30
0.0
  0
SPLINE
  5
158
100
AcDbEntity
  8
0
 62
7
100
AcDbSpline
 70
8
 71
3
 72
8
 73
4
 74
0
 40
0
 40
0
 40
0
 40
0
 40
1
 40
1
 40
1
 40
1
 10
256.129377
 20
-92.821717
 30
0.0
 10
256.681660
 20
-92.821675
 30
0.0
 10
257.129357
 20
-92.373960
 30
0.0
 10
257.129378
 20
-91.821677
 30
0.0
  0
LWPOLYLINE
  5
159
100
AcDbEntity
  8
0
 62
7
100
AcDbPolyline
 90
2
 70
0
 10
179.835586
 20
-73.771668
 30
0.0
 10
191.835593
 20
-73.771668
 30
0.0
  0
SPLINE
  5
15a
100
AcDbEntity
  8
0
 62
7
100
AcDbSpline
 70
8
 71
3
 72
8
 73
4
 74
0
 40
0
 40
0
 40
0
 40
0
 40
1
 40
1
 40
1
 40
1
 10
52.629261
 20
-91.821677
 30
0.0
 10
52.629282
 20
-92.373956
 30
0.0
 10
53.076989
 20
-92.821661
 30
0.0
 10
53.629268
 20
-92.821678
 30
0.0
  0
SPLINE
  5
15b
100
AcDbEntity
  8
0
 62
7
100
AcDbSpline
 70
8
 71
3
 72
8
 73
4
 74
0
 40
0
 40
0
 40
0
 40
0
 40
1
 40
1
 40
1
 40
1
 10
278.456524
 20
-22.238811
 30
0.0
 10
278.590511
 20
-22.516857
 30
0.0
 10
278.845393
 20
-22.717444
 30
0.0
 10
279.147145
 20
-22.782313
 30
0.0
  0
SPLINE
  5
15c
100
AcDbEntity
  8
0
 62
7
100
AcDbSpline
 70
8
 71
3
 72
8
 73
4
 74
0
 40
0
 40
0
 40
0
 40
0
 40
1
 40
1
 40
1
 40
1
 10
198.885596
 20
-59.771635
 30
0.0
 10
198.620376
 20
-59.771636
 30
0.0
 10
198.366018
 20
-59.876997
 30
0.0
 10
198.178482
 20
-60.064539
 30
0.0
  0
SPLINE
  5
15d
100
AcDbEntity
  8
0
 62
7
100
AcDbSpline
 70
8
 71
3
 72
8
 73
4
 74
0
 40
0
 40
0
 40
0
 40
0
 40
1
 40
1
 40
1
 40
1
 10
198.178482
 20
-60.064539
 30
0.0
 10
197.990945
 20
-60.252080
 30
0.0
 10
197.885590
 20
-60.506440
 30
0.0
 10
197.885596
 20
-60.771660
 30
0.0
  0
SPLINE
  5
15e
100
AcDbEntity
  8
0
 62
7
100
AcDbSpline
 70
8
 71
3
 72
8
 73
4
 74
0
 40
0
 40
0
 40
0
 40
0
 40
1
 40
1
 40
1
 40
1
 10
75.060529
 20
-40.721668
 30
0.0
 10
74.508268
 20
-40.721708
 30
0.0
 10
74.060578
 20
-41.169389
 30
0.0
 10
74.060529
 20
-41.721650
 30
0.0
  0
LWPOLYLINE
  5
15f
100
AcDbEntity
  8
0
 62
7
100
AcDbPolyline
 90
2
 70
0
 10
125.066806
 20
-92.821678
 30
0.0
 10
148.973069
 20
-92.821678
 30
0.0
  0
SPLINE
  5
160
100
AcDbEntity
  8
0
 62
7
100
AcDbSpline
 70
8
 71
3
 72
8
 73
4
 74
0
 40
0
 40
0
 40
0
 40
0
 40
1
 40
1
 40
1
 40
1
 10
194.123094
 20
-2.621632
 30
0.0
 10
193.570834
 20
-2.621691
 30
0.0
 10
193.123153
 20
-3.069370
 30
0.0
 10
193.123093
 20
-3.621630
 30
0.0
  0
SPLINE
  5
161
100
AcDbEntity
  8
0
 62
7
100
AcDbSpline
 70
8
 71
3
 72
8
 73
4
 74
0
 40
0
 40
0
 40
0
 40
0
 40
1
 40
1
 40
1
 40
1
 10
140.735572
 20
-72.771667
 30
0.0
 10
140.735587
 20
-73.323943
 30
0.0
 10
141.183289
 20
-73.771648
 30
0.0
 10
141.735565
 20
-73.771667
 30
0.0
  0
LWPOLYLINE
  5
162
100
AcDbEntity
  8
0
 62
7
100
AcDbPolyline
 90
2
 70
0
 10
124.066806
 20
-79.821671
 30
0.0
 10
124.066806
 20
-91.821677
 30
0.0
  0
SPLINE
  5
163
100
AcDbEntity
  8
0
 62
7
100
AcDbSpline
 70
8
 71
3
 72
8
 73
4
 74
0
 40
0
 40
0
 40
0
 40
0
 40
1
 40
1
 40
1
 40
1
 10
97.585580
 20
-60.771660
 30
0.0
 10
97.585586
 20
-60.506435
 30
0.0
 10
97.480225
 20
-60.252072
 30
0.0
 10
97.292679
 20
-60.064533
 30
0.0
  0
SPLINE
  5
164
100
AcDbEntity
  8
0
 62
7
100
AcDbSpline
 70
8
 71
3
 72
8
 73
4
 74
0
 40
0
 40
0
 40
0
 40
0
 40
1
 40
1
 40
1
 40
1
 10
97.292679
 20
-60.064533
 30
0.0
 10
97.105133
 20
-59.876994
 30
0.0
 10
96.850766
 20
-59.771644
 30
0.0
 10
96.585541
 20
-59.771659
 30
0.0
  0
LWPOLYLINE
  5
165
100
AcDbEntity
  8
0
 62
7
100
AcDbPolyline
 90
2
 70
0
 10
225.173111
 20
-2.621629
 30
0.0
 10
213.173104
 20
-2.621629
 30
0.0
  0
LWPOLYLINE
  5
166
100
AcDbEntity
  8
0
 62
7
100
AcDbPolyline
 90
2
 70
0
 10
15.622997
 20
-2.621629
 30
0.0
 10
3.622991
 20
-2.621629
 30
0.0
  0
SPLINE
  5
167
100
AcDbEntity
  8
0
 62
7
100
AcDbSpline
 70
8
 71
3
 72
8
 73
4
 74
0
 40
0
 40
0
 40
0
 40
0
 40
1
 40
1
 40
1
 40
1
 10
164.260590
 20
-41.721650
 30
0.0
 10
164.260593
 20
-41.456431
 30
0.0
 10
164.155235
 20
-41.202073
 30
0.0
 10
163.967695
 20
-41.014535
 30
0.0
  0
SPLINE
  5
168
100
AcDbEntity
  8
0
 62
7
100
AcDbSpline
 70
8
 71
3
 72
8
 73
4
 74
0
 40
0
 40
0
 40
0
 40
0
 40
1
 40
1
 40
1
 40
1
 10
163.967695
 20
-41.014535
 30
0.0
 10
163.780156
 20
-40.826998
 30
0.0
 10
163.525797
 20
-40.721643
 30
0.0
 10
163.260577
 20
-40.721649
 30
0.0
  0
SPLINE
  5
169
100
AcDbEntity
  8
0
 62
7
100
AcDbSpline
 70
8
 71
3
 72
8
 73
4
 74
0
 40
0
 40
0
 40
0
 40
0
 40
1
 40
1
 40
1
 40
1
 10
65.535524
 20
-59.771663
 30
0.0
 10
64.983258
 20
-59.771705
 30
0.0
 10
64.535568
 20
-60.219394
 30
0.0
 10
64.535524
 20
-60.771660
 30
0.0
  0
LWPOLYLINE
  5
16a
100
AcDbEntity
  8
0
 62
7
100
AcDbPolyline
 90
2
 70
0
 10
45.198013
 20
-91.821677
 30
0.0
 10
45.198013
 20
-79.821671
 30
0.0
  0
LWPOLYLINE
  5
16b
100
AcDbEntity
  8
0
 62
7
100
AcDbPolyline
 90
2
 70
0
 10
265.560632
 20
-92.821678
 30
0.0
 10
279.941890
 20
-92.821678
 30
0.0
  0
SPLINE
  5
16c
100
AcDbEntity
  8
0
 62
7
100
AcDbSpline
 70
8
 71
3
 72
8
 73
4
 74
0
 40
0
 40
0
 40
0
 40
0
 40
1
 40
1
 40
1
 40
1
 10
16.623010
 20
-3.621630
 30
0.0
 10
16.623005
 20
-3.069342
 30
0.0
 10
16.175285
 20
-2.621628
 30
0.0
 10
15.622997
 20
-2.621629
 30
0.0
  0
LWPOLYLINE
  5
16d
100
AcDbEntity
  8
0
 62
7
100
AcDbPolyline
 90
2
 70
0
 10
245.216371
 20
-75.771669
 30
0.0
 10
250.216374
 20
-75.771669
 30
0.0
  0
LWPOLYLINE
  5
16e
100
AcDbEntity
  8
0
 62
7
100
AcDbPolyline
 90
2
 70
0
 10
207.123101
 20
-15.621636
 30
0.0
 10
207.123101
 20
-3.621630
 30
0.0
  0
SPLINE
  5
16f
100
AcDbEntity
  8
0
 62
7
100
AcDbSpline
 70
8
 71
3
 72
8
 73
4
 74
0
 40
0
 40
0
 40
0
 40
0
 40
1
 40
1
 40
1
 40
1
 10
257.360128
 20
-18.621568
 30
0.0
 10
257.625347
 20
-18.621614
 30
0.0
 10
257.879717
 20
-18.516281
 30
0.0
 10
258.067261
 20
-18.328750
 30
0.0
  0
SPLINE
  5
170
100
AcDbEntity
  8
0
 62
7
100
AcDbSpline
 70
8
 71
3
 72
8
 73
4
 74
0
 40
0
 40
0
 40
0
 40
0
 40
1
 40
1
 40
1
 40
1
 10
258.067261
 20
-18.328750
 30
0.0
 10
258.254806
 20
-18.141219
 30
0.0
 10
258.360156
 20
-17.886856
 30
0.0
 10
258.360129
 20
-17.621637
 30
0.0
  0
LWPOLYLINE
  5
171
100
AcDbEntity
  8
0
 62
7
100
AcDbPolyline
 90
2
 70
0
 10
257.129378
 20
-91.821677
 30
0.0
 10
257.129378
 20
-79.821671
 30
0.0
  0
LWPOLYLINE
  5
172
100
AcDbEntity
  8
0
 62
7
100
AcDbPolyline
 90
2
 70
0
 10
197.885596
 20
-60.771660
 30
0.0
 10
197.885596
 20
-72.771667
 30
0.0
  0
SPLINE
  5
173
100
AcDbEntity
  8
0
 62
7
100
AcDbSpline
 70
8
 71
3
 72
8
 73
4
 74
0
 40
0
 40
0
 40
0
 40
0
 40
1
 40
1
 40
1
 40
1
 10
20.385500
 20
-92.821640
 30
0.0
 10
20.937770
 20
-92.821640
 30
0.0
 10
21.385480
 20
-92.373948
 30
0.0
 10
21.385501
 20
-91.821677
 30
0.0
  0
SPLINE
  5
174
100
AcDbEntity
  8
0
 62
7
100
AcDbSpline
 70
8
 71
3
 72
8
 73
4
 74
0
 40
0
 40
0
 40
0
 40
0
 40
1
 40
1
 40
1
 40
1
 10
251.273121
 20
-2.621560
 30
0.0
 10
250.720850
 20
-2.621659
 30
0.0
 10
250.273181
 20
-3.069359
 30
0.0
 10
250.273121
 20
-3.621630
 30
0.0
  0
LWPOLYLINE
  5
175
100
AcDbEntity
  8
0
 62
7
100
AcDbPolyline
 90
2
 70
0
 10
55.010519
 20
-41.721650
 30
0.0
 10
55.010519
 20
-53.721657
 30
0.0
  0
LWPOLYLINE
  5
176
100
AcDbEntity
  8
0
 62
7
100
AcDbPolyline
 90
2
 70
0
 10
202.623098
 20
-76.821669
 30
0.0
 10
197.623096
 20
-76.821669
 30
0.0
  0
SPLINE
  5
177
100
AcDbEntity
  8
0
 62
7
100
AcDbSpline
 70
8
 71
3
 72
8
 73
4
 74
0
 40
0
 40
0
 40
0
 40
0
 40
1
 40
1
 40
1
 40
1
 10
124.066762
 20
-91.821677
 30
0.0
 10
124.066783
 20
-92.373971
 30
0.0
 10
124.514513
 20
-92.821681
 30
0.0
 10
125.066806
 20
-92.821677
 30
0.0
  0
LWPOLYLINE
  5
178
100
AcDbEntity
  8
0
 62
7
100
AcDbPolyline
 90
2
 70
0
 10
107.110547
 20
-53.721657
 30
0.0
 10
107.110547
 20
-41.721650
 30
0.0
  0
SPLINE
  5
179
100
AcDbEntity
  8
0
 62
7
100
AcDbSpline
 70
8
 71
3
 72
8
 73
4
 74
0
 40
0
 40
0
 40
0
 40
0
 40
1
 40
1
 40
1
 40
1
 10
122.685555
 20
-59.771594
 30
0.0
 10
122.133255
 20
-59.771619
 30
0.0
 10
121.685543
 20
-60.219360
 30
0.0
 10
121.685555
 20
-60.771660
 30
0.0
  0
LWPOLYLINE
  5
17a
100
AcDbEntity
  8
0
 62
7
100
AcDbPolyline
 90
2
 70
0
 10
241.748119
 20
-35.671647
 30
0.0
 10
253.748126
 20
-35.671647
 30
0.0
  0
SPLINE
  5
17b
100
AcDbEntity
  8
0
 62
7
100
AcDbSpline
 70
8
 71
3
 72
8
 73
4
 74
0
 40
0
 40
0
 40
0
 40
0
 40
1
 40
1
 40
1
 40
1
 10
268.092371
 20
-74.771668
 30
0.0
 10
268.092387
 20
-75.323952
 30
0.0
 10
268.540101
 20
-75.771659
 30
0.0
 10
269.092384
 20
-75.771668
 30
0.0
  0
SPLINE
  5
17c
100
AcDbEntity
  8
0
 62
7
100
AcDbSpline
 70
8
 71
3
 72
8
 73
4
 74
0
 40
0
 40
0
 40
0
 40
0
 40
1
 40
1
 40
1
 40
1
 10
2.623002
 20
-15.621636
 30
0.0
 10
2.623000
 20
-16.173918
 30
0.0
 10
3.070710
 20
-16.621632
 30
0.0
 10
3.622991
 20
-16.621637
 30
0.0
  0
SPLINE
  5
17d
100
AcDbEntity
  8
0
 62
7
100
AcDbSpline
 70
8
 71
3
 72
8
 73
4
 74
0
 40
0
 40
0
 40
0
 40
0
 40
1
 40
1
 40
1
 40
1
 10
5.004182
 20
-53.721657
 30
0.0
 10
5.004247
 20
-54.273939
 30
0.0
 10
5.451961
 20
-54.721625
 30
0.0
 10
6.004242
 20
-54.721657
 30
0.0
  0
SPLINE
  5
17e
100
AcDbEntity
  8
0
 62
7
100
AcDbSpline
 70
8
 71
3
 72
8
 73
4
 74
0
 40
0
 40
0
 40
0
 40
0
 40
1
 40
1
 40
1
 40
1
 10
230.935580
 20
-60.771660
 30
0.0
 10
230.935586
 20
-60.506448
 30
0.0
 10
230.830235
 20
-60.252096
 30
0.0
 10
230.642705
 20
-60.064559
 30
0.0
  0
SPLINE
  5
17f
100
AcDbEntity
  8
0
 62
7
100
AcDbSpline
 70
8
 71
3
 72
8
 73
4
 74
0
 40
0
 40
0
 40
0
 40
0
 40
1
 40
1
 40
1
 40
1
 10
230.642705
 20
-60.064559
 30
0.0
 10
230.455174
 20
-59.877022
 30
0.0
 10
230.200826
 20
-59.771663
 30
0.0
 10
229.935613
 20
-59.771659
 30
0.0
  0
LWPOLYLINE
  5
180
100
AcDbEntity
  8
0
 62
7
100
AcDbPolyline
 90
2
 70
0
 10
20.385500
 20
-21.671639
 30
0.0
 10
8.385493
 20
-21.671639
 30
0.0
  0
LWPOLYLINE
  5
181
100
AcDbEntity
  8
0
 62
7
100
AcDbPolyline
 90
2
 70
0
 10
155.023073
 20
-3.621630
 30
0.0
 10
155.023073
 20
-15.621636
 30
0.0
  0
LWPOLYLINE
  5
182
100
AcDbEntity
  8
0
 62
7
100
AcDbPolyline
 90
2
 70
0
 10
176.566495
 20
-78.821640
 30
0.0
 10
161.690487
 20
-78.821640
 30
0.0
  0
LWPOLYLINE
  5
183
100
AcDbEntity
  8
0
 62
7
100
AcDbPolyline
 90
2
 70
0
 10
115.635551
 20
-59.771660
 30
0.0
 10
103.635545
 20
-59.771660
 30
0.0
  0
SPLINE
  5
184
100
AcDbEntity
  8
0
 62
7
100
AcDbSpline
 70
8
 71
3
 72
8
 73
4
 74
0
 40
0
 40
0
 40
0
 40
0
 40
1
 40
1
 40
1
 40
1
 10
251.360102
 20
-17.621637
 30
0.0
 10
251.360101
 20
-17.886858
 30
0.0
 10
251.465461
 20
-18.141216
 30
0.0
 10
251.653003
 20
-18.328753
 30
0.0
  0
SPLINE
  5
185
100
AcDbEntity
  8
0
 62
7
100
AcDbSpline
 70
8
 71
3
 72
8
 73
4
 74
0
 40
0
 40
0
 40
0
 40
0
 40
1
 40
1
 40
1
 40
1
 10
251.653003
 20
-18.328753
 30
0.0
 10
251.840544
 20
-18.516290
 30
0.0
 10
252.094904
 20
-18.621644
 30
0.0
 10
252.360125
 20
-18.621637
 30
0.0
  0
LWPOLYLINE
  5
186
100
AcDbEntity
  8
0
 62
7
100
AcDbPolyline
 90
2
 70
0
 10
254.748127
 20
-34.671646
 30
0.0
 10
254.748127
 20
-22.671640
 30
0.0
  0
SPLINE
  5
187
100
AcDbEntity
  8
0
 62
7
100
AcDbSpline
 70
8
 71
3
 72
8
 73
4
 74
0
 40
0
 40
0
 40
0
 40
0
 40
1
 40
1
 40
1
 40
1
 10
37.975133
 20
-73.747572
 30
0.0
 10
37.422865
 20
-73.747609
 30
0.0
 10
36.975172
 20
-74.195301
 30
0.0
 10
36.975133
 20
-74.747569
 30
0.0
  0
LWPOLYLINE
  5
188
100
AcDbEntity
  8
0
 62
7
100
AcDbPolyline
 90
2
 70
0
 10
276.092389
 20
-73.771667
 30
0.0
 10
282.324389
 20
-73.771668
 30
0.0
  0
LWPOLYLINE
  5
189
100
AcDbEntity
  8
0
 62
7
100
AcDbPolyline
 90
2
 70
0
 10
78.566127
 20
-91.821667
 30
0.0
 10
89.964823
 20
-91.821629
 30
0.0
  0
SPLINE
  5
18a
100
AcDbEntity
  8
0
 62
7
100
AcDbSpline
 70
8
 71
3
 72
8
 73
4
 74
0
 40
0
 40
0
 40
0
 40
0
 40
1
 40
1
 40
1
 40
1
 10
153.690493
 20
-90.821646
 30
0.0
 10
153.690497
 20
-91.373926
 30
0.0
 10
154.138204
 20
-91.821637
 30
0.0
 10
154.690483
 20
-91.821646
 30
0.0
  0
LWPOLYLINE
  5
18b
100
AcDbEntity
  8
0
 62
7
100
AcDbPolyline
 90
2
 70
0
 10
79.823032
 20
-16.621637
 30
0.0
 10
91.823039
 20
-16.621637
 30
0.0
  0
LWPOLYLINE
  5
18c
100
AcDbEntity
  8
0
 62
7
100
AcDbPolyline
 90
2
 70
0
 10
139.448064
 20
-21.671639
 30
0.0
 10
127.448058
 20
-21.671639
 30
0.0
  0
SPLINE
  5
18d
100
AcDbEntity
  8
0
 62
7
100
AcDbSpline
 70
8
 71
3
 72
8
 73
4
 74
0
 40
0
 40
0
 40
0
 40
0
 40
1
 40
1
 40
1
 40
1
 10
40.723003
 20
-15.621636
 30
0.0
 10
40.723002
 20
-15.886854
 30
0.0
 10
40.828360
 20
-16.141210
 30
0.0
 10
41.015898
 20
-16.328747
 30
0.0
  0
SPLINE
  5
18e
100
AcDbEntity
  8
0
 62
7
100
AcDbSpline
 70
8
 71
3
 72
8
 73
4
 74
0
 40
0
 40
0
 40
0
 40
0
 40
1
 40
1
 40
1
 40
1
 10
41.015898
 20
-16.328747
 30
0.0
 10
41.203436
 20
-16.516284
 30
0.0
 10
41.457793
 20
-16.621639
 30
0.0
 10
41.723011
 20
-16.621636
 30
0.0
  0
SPLINE
  5
18f
100
AcDbEntity
  8
0
 62
7
100
AcDbSpline
 70
8
 71
3
 72
8
 73
4
 74
0
 40
0
 40
0
 40
0
 40
0
 40
1
 40
1
 40
1
 40
1
 10
283.323110
 20
-3.621630
 30
0.0
 10
283.323105
 20
-3.069351
 30
0.0
 10
282.875399
 20
-2.621640
 30
0.0
 10
282.323120
 20
-2.621629
 30
0.0
  0
LWPOLYLINE
  5
190
100
AcDbEntity
  8
0
 62
7
100
AcDbPolyline
 90
2
 70
0
 10
202.360598
 20
-53.721657
 30
0.0
 10
202.360598
 20
-41.721650
 30
0.0
  0
LWPOLYLINE
  5
191
100
AcDbEntity
  8
0
 62
7
100
AcDbPolyline
 90
2
 70
0
 10
172.785582
 20
-59.771660
 30
0.0
 10
160.785576
 20
-59.771660
 30
0.0
  0
LWPOLYLINE
  5
192
100
AcDbEntity
  8
0
 62
7
100
AcDbPolyline
 90
2
 70
0
 10
7.099132
 20
-75.747568
 30
0.0
 10
12.099133
 20
-75.747568
 30
0.0
  0
SPLINE
  5
193
100
AcDbEntity
  8
0
 62
7
100
AcDbSpline
 70
8
 71
3
 72
8
 73
4
 74
0
 40
0
 40
0
 40
0
 40
0
 40
1
 40
1
 40
1
 40
1
 10
222.698109
 20
-21.671647
 30
0.0
 10
222.145848
 20
-21.671698
 30
0.0
 10
221.698163
 20
-22.119379
 30
0.0
 10
221.698108
 20
-22.671640
 30
0.0
  0
SPLINE
  5
194
100
AcDbEntity
  8
0
 62
7
100
AcDbSpline
 70
8
 71
3
 72
8
 73
4
 74
0
 40
0
 40
0
 40
0
 40
0
 40
1
 40
1
 40
1
 40
1
 10
282.779619
 20
-16.511355
 30
0.0
 10
283.113315
 20
-16.340189
 30
0.0
 10
283.323160
 20
-15.996671
 30
0.0
 10
283.323121
 20
-15.621636
 30
0.0
  0
LWPOLYLINE
  5
195
100
AcDbEntity
  8
0
 62
7
100
AcDbPolyline
 90
2
 70
0
 10
279.936933
 20
-55.722969
 30
0.0
 10
279.936933
 20
-45.930019
 30
0.0
  0
LWPOLYLINE
  5
196
100
AcDbEntity
  8
0
 62
7
100
AcDbPolyline
 90
2
 70
0
 10
20.385500
 20
-78.821670
 30
0.0
 10
6.004242
 20
-78.821670
 30
0.0
  0
SPLINE
  5
197
100
AcDbEntity
  8
0
 62
7
100
AcDbSpline
 70
8
 71
3
 72
8
 73
4
 74
0
 40
0
 40
0
 40
0
 40
0
 40
1
 40
1
 40
1
 40
1
 10
281.236141
 20
-18.621681
 30
0.0
 10
281.788434
 20
-18.621659
 30
0.0
 10
282.236143
 20
-18.173930
 30
0.0
 10
282.236142
 20
-17.621637
 30
0.0
  0
LWPOLYLINE
  5
198
100
AcDbEntity
  8
0
 62
7
100
AcDbPolyline
 90
2
 70
0
 10
94.110540
 20
-54.721657
 30
0.0
 10
106.110546
 20
-54.721657
 30
0.0
  0
SPLINE
  5
199
100
AcDbEntity
  8
0
 62
7
100
AcDbSpline
 70
8
 71
3
 72
8
 73
4
 74
0
 40
0
 40
0
 40
0
 40
0
 40
1
 40
1
 40
1
 40
1
 10
148.973069
 20
-92.821609
 30
0.0
 10
149.525334
 20
-92.821626
 30
0.0
 10
149.973049
 20
-92.373943
 30
0.0
 10
149.973070
 20
-91.821677
 30
0.0
  0
LWPOLYLINE
  5
19a
100
AcDbEntity
  8
0
 62
7
100
AcDbPolyline
 90
2
 70
0
 10
209.504352
 20
-91.821677
 30
0.0
 10
209.504352
 20
-79.821671
 30
0.0
  0
SPLINE
  5
19b
100
AcDbEntity
  8
0
 62
7
100
AcDbSpline
 70
8
 71
3
 72
8
 73
4
 74
0
 40
0
 40
0
 40
0
 40
0
 40
1
 40
1
 40
1
 40
1
 10
144.210567
 20
-54.721706
 30
0.0
 10
144.762856
 20
-54.721669
 30
0.0
 10
145.210557
 20
-54.273946
 30
0.0
 10
145.210567
 20
-53.721657
 30
0.0
  0
LWPOLYLINE
  5
19c
100
AcDbEntity
  8
0
 62
7
100
AcDbPolyline
 90
2
 70
0
 10
107.398047
 20
-22.671640
 30
0.0
 10
107.398047
 20
-34.671646
 30
0.0
  0
SPLINE
  5
19d
100
AcDbEntity
  8
0
 62
7
100
AcDbSpline
 70
8
 71
3
 72
8
 73
4
 74
0
 40
0
 40
0
 40
0
 40
0
 40
1
 40
1
 40
1
 40
1
 10
82.298033
 20
-35.671673
 30
0.0
 10
82.563260
 20
-35.671691
 30
0.0
 10
82.817628
 20
-35.566336
 30
0.0
 10
83.005169
 20
-35.378790
 30
0.0
  0
SPLINE
  5
19e
100
AcDbEntity
  8
0
 62
7
100
AcDbSpline
 70
8
 71
3
 72
8
 73
4
 74
0
 40
0
 40
0
 40
0
 40
0
 40
1
 40
1
 40
1
 40
1
 10
83.005169
 20
-35.378790
 30
0.0
 10
83.192710
 20
-35.191244
 30
0.0
 10
83.298059
 20
-34.936873
 30
0.0
 10
83.298034
 20
-34.671646
 30
0.0
  0
SPLINE
  5
19f
100
AcDbEntity
  8
0
 62
7
100
AcDbSpline
 70
8
 71
3
 72
8
 73
4
 74
0
 40
0
 40
0
 40
0
 40
0
 40
1
 40
1
 40
1
 40
1
 10
266.520405
 20
-60.271662
 30
0.0
 10
266.699057
 20
-60.581046
 30
0.0
 10
267.029174
 20
-60.771638
 30
0.0
 10
267.386434
 20
-60.771661
 30
0.0
  0
SPLINE
  5
1a0
100
AcDbEntity
  8
0
 62
7
100
AcDbSpline
 70
8
 71
3
 72
8
 73
4
 74
0
 40
0
 40
0
 40
0
 40
0
 40
1
 40
1
 40
1
 40
1
 10
183.566838
 20
-91.821677
 30
0.0
 10
184.119114
 20
-91.821656
 30
0.0
 10
184.566817
 20
-91.373953
 30
0.0
 10
184.566838
 20
-90.821677
 30
0.0
  0
SPLINE
  5
1a1
100
AcDbEntity
  8
0
 62
7
100
AcDbSpline
 70
8
 71
3
 72
8
 73
4
 74
0
 40
0
 40
0
 40
0
 40
0
 40
1
 40
1
 40
1
 40
1
 10
158.498075
 20
-35.671715
 30
0.0
 10
159.050370
 20
-35.671674
 30
0.0
 10
159.498072
 20
-35.223941
 30
0.0
 10
159.498076
 20
-34.671646
 30
0.0
  0
LWPOLYLINE
  5
1a2
100
AcDbEntity
  8
0
 62
7
100
AcDbPolyline
 90
2
 70
0
 10
7.385493
 20
-22.671640
 30
0.0
 10
7.385493
 20
-34.671646
 30
0.0
  0
SPLINE
  5
1a3
100
AcDbEntity
  8
0
 62
7
100
AcDbSpline
 70
8
 71
3
 72
8
 73
4
 74
0
 40
0
 40
0
 40
0
 40
0
 40
1
 40
1
 40
1
 40
1
 10
150.260581
 20
-53.721657
 30
0.0
 10
150.260591
 20
-54.273934
 30
0.0
 10
150.708294
 20
-54.721642
 30
0.0
 10
151.260571
 20
-54.721658
 30
0.0
  0
SPLINE
  5
1a4
100
AcDbEntity
  8
0
 62
7
100
AcDbSpline
 70
8
 71
3
 72
8
 73
4
 74
0
 40
0
 40
0
 40
0
 40
0
 40
1
 40
1
 40
1
 40
1
 10
244.124377
 20
-59.771716
 30
0.0
 10
243.859164
 20
-59.771696
 30
0.0
 10
243.604807
 20
-59.877039
 30
0.0
 10
243.417267
 20
-60.064567
 30
0.0
  0
SPLINE
  5
1a5
100
AcDbEntity
  8
0
 62
7
100
AcDbSpline
 70
8
 71
3
 72
8
 73
4
 74
0
 40
0
 40
0
 40
0
 40
0
 40
1
 40
1
 40
1
 40
1
 10
243.417267
 20
-60.064567
 30
0.0
 10
243.229728
 20
-60.252096
 30
0.0
 10
243.124371
 20
-60.506447
 30
0.0
 10
243.124377
 20
-60.771660
 30
0.0
  0
LWPOLYLINE
  5
1a6
100
AcDbEntity
  8
0
 62
7
100
AcDbPolyline
 90
2
 70
0
 10
253.748126
 20
-21.671639
 30
0.0
 10
241.748119
 20
-21.671639
 30
0.0
  0
SPLINE
  5
1a7
100
AcDbEntity
  8
0
 62
7
100
AcDbSpline
 70
8
 71
3
 72
8
 73
4
 74
0
 40
0
 40
0
 40
0
 40
0
 40
1
 40
1
 40
1
 40
1
 10
232.316864
 20
-92.821704
 30
0.0
 10
232.869145
 20
-92.821669
 30
0.0
 10
233.316844
 20
-92.373958
 30
0.0
 10
233.316865
 20
-91.821677
 30
0.0
  0
LWPOLYLINE
  5
1a8
100
AcDbEntity
  8
0
 62
7
100
AcDbPolyline
 90
2
 70
0
 10
52.629267
 20
-79.821671
 30
0.0
 10
52.629267
 20
-91.821677
 30
0.0
  0
LWPOLYLINE
  5
1a9
100
AcDbEntity
  8
0
 62
7
100
AcDbPolyline
 90
2
 70
0
 10
232.316864
 20
-78.821670
 30
0.0
 10
217.935607
 20
-78.821670
 30
0.0
  0
SPLINE
  5
1aa
100
AcDbEntity
  8
0
 62
7
100
AcDbSpline
 70
8
 71
3
 72
8
 73
4
 74
0
 40
0
 40
0
 40
0
 40
0
 40
1
 40
1
 40
1
 40
1
 10
129.923059
 20
-16.621699
 30
0.0
 10
130.475355
 20
-16.621667
 30
0.0
 10
130.923062
 20
-16.173932
 30
0.0
 10
130.923060
 20
-15.621636
 30
0.0
  0
SPLINE
  5
1ab
100
AcDbEntity
  8
0
 62
7
100
AcDbSpline
 70
8
 71
3
 72
8
 73
4
 74
0
 40
0
 40
0
 40
0
 40
0
 40
1
 40
1
 40
1
 40
1
 10
96.585541
 20
-73.771681
 30
0.0
 10
97.137822
 20
-73.771659
 30
0.0
 10
97.585527
 20
-73.323948
 30
0.0
 10
97.585542
 20
-72.771667
 30
0.0
  0
LWPOLYLINE
  5
1ac
100
AcDbEntity
  8
0
 62
7
100
AcDbPolyline
 90
2
 70
0
 10
159.498075
 20
-34.671646
 30
0.0
 10
159.498075
 20
-22.671640
 30
0.0
  0
LWPOLYLINE
  5
1ad
100
AcDbEntity
  8
0
 62
7
100
AcDbPolyline
 90
2
 70
0
 10
196.598095
 20
-21.671639
 30
0.0
 10
184.598089
 20
-21.671639
 30
0.0
  0
SPLINE
  5
1ae
100
AcDbEntity
  8
0
 62
7
100
AcDbSpline
 70
8
 71
3
 72
8
 73
4
 74
0
 40
0
 40
0
 40
0
 40
0
 40
1
 40
1
 40
1
 40
1
 10
101.348044
 20
-35.671684
 30
0.0
 10
101.900334
 20
-35.671660
 30
0.0
 10
102.348041
 20
-35.223936
 30
0.0
 10
102.348045
 20
-34.671646
 30
0.0
  0
SPLINE
  5
1af
100
AcDbEntity
  8
0
 62
7
100
AcDbSpline
 70
8
 71
3
 72
8
 73
4
 74
0
 40
0
 40
0
 40
0
 40
0
 40
1
 40
1
 40
1
 40
1
 10
162.262432
 20
-92.321665
 30
0.0
 10
162.083810
 20
-92.012265
 30
0.0
 10
161.753695
 20
-91.821659
 30
0.0
 10
161.396436
 20
-91.821646
 30
0.0
  0
SPLINE
  5
1b0
100
AcDbEntity
  8
0
 62
7
100
AcDbSpline
 70
8
 71
3
 72
8
 73
4
 74
0
 40
0
 40
0
 40
0
 40
0
 40
1
 40
1
 40
1
 40
1
 10
121.685572
 20
-72.771667
 30
0.0
 10
121.685587
 20
-73.323939
 30
0.0
 10
122.133283
 20
-73.771642
 30
0.0
 10
122.685555
 20
-73.771667
 30
0.0
  0
SPLINE
  5
1b1
100
AcDbEntity
  8
0
 62
7
100
AcDbSpline
 70
8
 71
3
 72
8
 73
4
 74
0
 40
0
 40
0
 40
0
 40
0
 40
1
 40
1
 40
1
 40
1
 10
21.673003
 20
-15.621636
 30
0.0
 10
21.673002
 20
-15.886853
 30
0.0
 10
21.778359
 20
-16.141207
 30
0.0
 10
21.965895
 20
-16.328743
 30
0.0
  0
SPLINE
  5
1b2
100
AcDbEntity
  8
0
 62
7
100
AcDbSpline
 70
8
 71
3
 72
8
 73
4
 74
0
 40
0
 40
0
 40
0
 40
0
 40
1
 40
1
 40
1
 40
1
 10
21.965895
 20
-16.328743
 30
0.0
 10
22.153431
 20
-16.516280
 30
0.0
 10
22.407785
 20
-16.621637
 30
0.0
 10
22.673001
 20
-16.621636
 30
0.0
  0
SPLINE
  5
1b3
100
AcDbEntity
  8
0
 62
7
100
AcDbSpline
 70
8
 71
3
 72
8
 73
4
 74
0
 40
0
 40
0
 40
0
 40
0
 40
1
 40
1
 40
1
 40
1
 10
6.012133
 20
-59.747572
 30
0.0
 10
5.459865
 20
-59.747609
 30
0.0
 10
5.012172
 20
-60.195300
 30
0.0
 10
5.012133
 20
-60.747568
 30
0.0
  0
SPLINE
  5
1b4
100
AcDbEntity
  8
0
 62
7
100
AcDbSpline
 70
8
 71
3
 72
8
 73
4
 74
0
 40
0
 40
0
 40
0
 40
0
 40
1
 40
1
 40
1
 40
1
 10
103.635545
 20
-59.771684
 30
0.0
 10
103.370329
 20
-59.771672
 30
0.0
 10
103.115972
 20
-59.877022
 30
0.0
 10
102.928434
 20
-60.064556
 30
0.0
  0
SPLINE
  5
1b5
100
AcDbEntity
  8
0
 62
7
100
AcDbSpline
 70
8
 71
3
 72
8
 73
4
 74
0
 40
0
 40
0
 40
0
 40
0
 40
1
 40
1
 40
1
 40
1
 10
102.928434
 20
-60.064556
 30
0.0
 10
102.740895
 20
-60.252090
 30
0.0
 10
102.635539
 20
-60.506444
 30
0.0
 10
102.635545
 20
-60.771660
 30
0.0
  0
LWPOLYLINE
  5
1b6
100
AcDbEntity
  8
0
 62
7
100
AcDbPolyline
 90
2
 70
0
 10
35.960508
 20
-41.721650
 30
0.0
 10
35.960508
 20
-53.721657
 30
0.0
  0
SPLINE
  5
1b7
100
AcDbEntity
  8
0
 62
7
100
AcDbSpline
 70
8
 71
3
 72
8
 73
4
 74
0
 40
0
 40
0
 40
0
 40
0
 40
1
 40
1
 40
1
 40
1
 10
73.773010
 20
-3.621630
 30
0.0
 10
73.773005
 20
-3.069355
 30
0.0
 10
73.325304
 20
-2.621645
 30
0.0
 10
72.773028
 20
-2.621629
 30
0.0
  0
LWPOLYLINE
  5
1b8
100
AcDbEntity
  8
0
 62
7
100
AcDbPolyline
 90
2
 70
0
 10
159.690486
 20
-76.821639
 30
0.0
 10
154.690483
 20
-76.821639
 30
0.0
  0
SPLINE
  5
1b9
100
AcDbEntity
  8
0
 62
7
100
AcDbSpline
 70
8
 71
3
 72
8
 73
4
 74
0
 40
0
 40
0
 40
0
 40
0
 40
1
 40
1
 40
1
 40
1
 10
149.973110
 20
-3.621630
 30
0.0
 10
149.973108
 20
-3.356407
 30
0.0
 10
149.867744
 20
-3.102049
 30
0.0
 10
149.680200
 20
-2.914511
 30
0.0
  0
SPLINE
  5
1ba
100
AcDbEntity
  8
0
 62
7
100
AcDbSpline
 70
8
 71
3
 72
8
 73
4
 74
0
 40
0
 40
0
 40
0
 40
0
 40
1
 40
1
 40
1
 40
1
 10
149.680200
 20
-2.914511
 30
0.0
 10
149.492655
 20
-2.726974
 30
0.0
 10
149.238292
 20
-2.621621
 30
0.0
 10
148.973069
 20
-2.621629
 30
0.0
  0
LWPOLYLINE
  5
1bb
100
AcDbEntity
  8
0
 62
7
100
AcDbPolyline
 90
2
 70
0
 10
35.673008
 20
-15.621636
 30
0.0
 10
35.673008
 20
-3.621630
 30
0.0
  0
SPLINE
  5
1bc
100
AcDbEntity
  8
0
 62
7
100
AcDbSpline
 70
8
 71
3
 72
8
 73
4
 74
0
 40
0
 40
0
 40
0
 40
0
 40
1
 40
1
 40
1
 40
1
 10
183.598092
 20
-34.671646
 30
0.0
 10
183.598096
 20
-35.223928
 30
0.0
 10
184.045807
 20
-35.671641
 30
0.0
 10
184.598089
 20
-35.671647
 30
0.0
  0
LWPOLYLINE
  5
1bd
100
AcDbEntity
  8
0
 62
7
100
AcDbPolyline
 90
2
 70
0
 10
183.566838
 20
-76.821669
 30
0.0
 10
178.566496
 20
-76.821639
 30
0.0
  0
SPLINE
  5
1be
100
AcDbEntity
  8
0
 62
7
100
AcDbSpline
 70
8
 71
3
 72
8
 73
4
 74
0
 40
0
 40
0
 40
0
 40
0
 40
1
 40
1
 40
1
 40
1
 10
254.748200
 20
-22.671640
 30
0.0
 10
254.748200
 20
-22.406411
 30
0.0
 10
254.642833
 20
-22.152045
 30
0.0
 10
254.455281
 20
-21.964507
 30
0.0
  0
SPLINE
  5
1bf
100
AcDbEntity
  8
0
 62
7
100
AcDbSpline
 70
8
 71
3
 72
8
 73
4
 74
0
 40
0
 40
0
 40
0
 40
0
 40
1
 40
1
 40
1
 40
1
 10
254.455281
 20
-21.964507
 30
0.0
 10
254.267729
 20
-21.776968
 30
0.0
 10
254.013355
 20
-21.671620
 30
0.0
 10
253.748126
 20
-21.671639
 30
0.0
  0
LWPOLYLINE
  5
1c0
100
AcDbEntity
  8
0
 62
7
100
AcDbPolyline
 90
2
 70
0
 10
34.673008
 20
-2.621629
 30
0.0
 10
22.673001
 20
-2.621629
 30
0.0
  0
LWPOLYLINE
  5
1c1
100
AcDbEntity
  8
0
 62
7
100
AcDbPolyline
 90
2
 70
0
 10
158.498075
 20
-21.671639
 30
0.0
 10
146.498068
 20
-21.671639
 30
0.0
  0
LWPOLYLINE
  5
1c2
100
AcDbEntity
  8
0
 62
7
100
AcDbPolyline
 90
2
 70
0
 10
75.060529
 20
-54.721657
 30
0.0
 10
87.060536
 20
-54.721657
 30
0.0
  0
SPLINE
  5
1c3
100
AcDbEntity
  8
0
 62
7
100
AcDbSpline
 70
8
 71
3
 72
8
 73
4
 74
0
 40
0
 40
0
 40
0
 40
0
 40
1
 40
1
 40
1
 40
1
 10
168.023080
 20
-16.621620
 30
0.0
 10
168.288295
 20
-16.621626
 30
0.0
 10
168.542650
 20
-16.516273
 30
0.0
 10
168.730187
 20
-16.328739
 30
0.0
  0
SPLINE
  5
1c4
100
AcDbEntity
  8
0
 62
7
100
AcDbSpline
 70
8
 71
3
 72
8
 73
4
 74
0
 40
0
 40
0
 40
0
 40
0
 40
1
 40
1
 40
1
 40
1
 10
168.730187
 20
-16.328739
 30
0.0
 10
168.917725
 20
-16.141205
 30
0.0
 10
169.023082
 20
-15.886852
 30
0.0
 10
169.023081
 20
-15.621636
 30
0.0
  0
SPLINE
  5
1c5
100
AcDbEntity
  8
0
 62
7
100
AcDbSpline
 70
8
 71
3
 72
8
 73
4
 74
0
 40
0
 40
0
 40
0
 40
0
 40
1
 40
1
 40
1
 40
1
 10
135.685579
 20
-60.771660
 30
0.0
 10
135.685585
 20
-60.506439
 30
0.0
 10
135.580227
 20
-60.252079
 30
0.0
 10
135.392686
 20
-60.064541
 30
0.0
  0
SPLINE
  5
1c6
100
AcDbEntity
  8
0
 62
7
100
AcDbSpline
 70
8
 71
3
 72
8
 73
4
 74
0
 40
0
 40
0
 40
0
 40
0
 40
1
 40
1
 40
1
 40
1
 10
135.392686
 20
-60.064541
 30
0.0
 10
135.205145
 20
-59.877003
 30
0.0
 10
134.950783
 20
-59.771650
 30
0.0
 10
134.685562
 20
-59.771660
 30
0.0
  0
LWPOLYLINE
  5
1c7
100
AcDbEntity
  8
0
 62
7
100
AcDbPolyline
 90
2
 70
0
 10
245.223121
 20
-15.621636
 30
0.0
 10
245.223121
 20
-3.621630
 30
0.0
  0
LWPOLYLINE
  5
1c8
100
AcDbEntity
  8
0
 62
7
100
AcDbPolyline
 90
2
 70
0
 10
78.823032
 20
-3.621630
 30
0.0
 10
78.823032
 20
-15.621636
 30
0.0
  0
LWPOLYLINE
  5
1c9
100
AcDbEntity
  8
0
 62
7
100
AcDbPolyline
 90
2
 70
0
 10
216.648106
 20
-34.671646
 30
0.0
 10
216.648106
 20
-22.671640
 30
0.0
  0
SPLINE
  5
1ca
100
AcDbEntity
  8
0
 62
7
100
AcDbSpline
 70
8
 71
3
 72
8
 73
4
 74
0
 40
0
 40
0
 40
0
 40
0
 40
1
 40
1
 40
1
 40
1
 10
208.410601
 20
-40.721640
 30
0.0
 10
207.858358
 20
-40.721750
 30
0.0
 10
207.410705
 20
-41.169407
 30
0.0
 10
207.410601
 20
-41.721650
 30
0.0
  0
LWPOLYLINE
  5
1cb
100
AcDbEntity
  8
0
 62
7
100
AcDbPolyline
 90
2
 70
0
 10
193.123093
 20
-3.621630
 30
0.0
 10
193.123093
 20
-15.621636
 30
0.0
  0
LWPOLYLINE
  5
1cc
100
AcDbEntity
  8
0
 62
7
100
AcDbPolyline
 90
2
 70
0
 10
148.973069
 20
-2.621629
 30
0.0
 10
136.973063
 20
-2.621629
 30
0.0
  0
LWPOLYLINE
  5
1cd
100
AcDbEntity
  8
0
 62
7
100
AcDbPolyline
 90
2
 70
0
 10
84.585535
 20
-73.771668
 30
0.0
 10
96.585541
 20
-73.771668
 30
0.0
  0
SPLINE
  5
1ce
100
AcDbEntity
  8
0
 62
7
100
AcDbSpline
 70
8
 71
3
 72
8
 73
4
 74
0
 40
0
 40
0
 40
0
 40
0
 40
1
 40
1
 40
1
 40
1
 10
256.978878
 20
-54.721716
 30
0.0
 10
256.713665
 20
-54.721696
 30
0.0
 10
256.459308
 20
-54.827038
 30
0.0
 10
256.271769
 20
-55.014566
 30
0.0
  0
SPLINE
  5
1cf
100
AcDbEntity
  8
0
 62
7
100
AcDbSpline
 70
8
 71
3
 72
8
 73
4
 74
0
 40
0
 40
0
 40
0
 40
0
 40
1
 40
1
 40
1
 40
1
 10
256.271769
 20
-55.014566
 30
0.0
 10
256.084229
 20
-55.202094
 30
0.0
 10
255.978872
 20
-55.456445
 30
0.0
 10
255.978877
 20
-55.721658
 30
0.0
  0
LWPOLYLINE
  5
1d0
100
AcDbEntity
  8
0
 62
7
100
AcDbPolyline
 90
2
 70
0
 10
77.535531
 20
-59.771660
 30
0.0
 10
65.535524
 20
-59.771660
 30
0.0
  0
LWPOLYLINE
  5
1d1
100
AcDbEntity
  8
0
 62
7
100
AcDbPolyline
 90
2
 70
0
 10
169.310580
 20
-41.721650
 30
0.0
 10
169.310580
 20
-53.721657
 30
0.0
  0
SPLINE
  5
1d2
100
AcDbEntity
  8
0
 62
7
100
AcDbSpline
 70
8
 71
3
 72
8
 73
4
 74
0
 40
0
 40
0
 40
0
 40
0
 40
1
 40
1
 40
1
 40
1
 10
58.485521
 20
-73.771661
 30
0.0
 10
58.750743
 20
-73.771682
 30
0.0
 10
59.005108
 20
-73.666333
 30
0.0
 10
59.192649
 20
-73.478793
 30
0.0
  0
SPLINE
  5
1d3
100
AcDbEntity
  8
0
 62
7
100
AcDbSpline
 70
8
 71
3
 72
8
 73
4
 74
0
 40
0
 40
0
 40
0
 40
0
 40
1
 40
1
 40
1
 40
1
 10
59.192649
 20
-73.478793
 30
0.0
 10
59.380190
 20
-73.291254
 30
0.0
 10
59.485541
 20
-73.036889
 30
0.0
 10
59.485522
 20
-72.771667
 30
0.0
  0
SPLINE
  5
1d4
100
AcDbEntity
  8
0
 62
7
100
AcDbSpline
 70
8
 71
3
 72
8
 73
4
 74
0
 40
0
 40
0
 40
0
 40
0
 40
1
 40
1
 40
1
 40
1
 10
131.210582
 20
-53.721657
 30
0.0
 10
131.210592
 20
-54.273929
 30
0.0
 10
131.658288
 20
-54.721635
 30
0.0
 10
132.210560
 20
-54.721657
 30
0.0
  0
SPLINE
  5
1d5
100
AcDbEntity
  8
0
 62
7
100
AcDbSpline
 70
8
 71
3
 72
8
 73
4
 74
0
 40
0
 40
0
 40
0
 40
0
 40
1
 40
1
 40
1
 40
1
 10
207.123110
 20
-3.621630
 30
0.0
 10
207.123105
 20
-3.069344
 30
0.0
 10
206.675387
 20
-2.621629
 30
0.0
 10
206.123100
 20
-2.621629
 30
0.0
  0
SPLINE
  5
1d6
100
AcDbEntity
  8
0
 62
7
100
AcDbSpline
 70
8
 71
3
 72
8
 73
4
 74
0
 40
0
 40
0
 40
0
 40
0
 40
1
 40
1
 40
1
 40
1
 10
127.448058
 20
-21.671696
 30
0.0
 10
127.182846
 20
-21.671681
 30
0.0
 10
126.928492
 20
-21.777025
 30
0.0
 10
126.740954
 20
-21.964553
 30
0.0
  0
SPLINE
  5
1d7
100
AcDbEntity
  8
0
 62
7
100
AcDbSpline
 70
8
 71
3
 72
8
 73
4
 74
0
 40
0
 40
0
 40
0
 40
0
 40
1
 40
1
 40
1
 40
1
 10
126.740954
 20
-21.964553
 30
0.0
 10
126.553415
 20
-22.152080
 30
0.0
 10
126.448057
 20
-22.406429
 30
0.0
 10
126.448057
 20
-22.671640
 30
0.0
  0
SPLINE
  5
1d8
100
AcDbEntity
  8
0
 62
7
100
AcDbSpline
 70
8
 71
3
 72
8
 73
4
 74
0
 40
0
 40
0
 40
0
 40
0
 40
1
 40
1
 40
1
 40
1
 10
203.648099
 20
-21.671637
 30
0.0
 10
203.095836
 20
-21.671693
 30
0.0
 10
202.648153
 20
-22.119377
 30
0.0
 10
202.648098
 20
-22.671640
 30
0.0
  0
SPLINE
  5
1d9
100
AcDbEntity
  8
0
 62
7
100
AcDbSpline
 70
8
 71
3
 72
8
 73
4
 74
0
 40
0
 40
0
 40
0
 40
0
 40
1
 40
1
 40
1
 40
1
 10
188.073109
 20
-3.621630
 30
0.0
 10
188.073107
 20
-3.356411
 30
0.0
 10
187.967746
 20
-3.102056
 30
0.0
 10
187.780206
 20
-2.914519
 30
0.0
  0
SPLINE
  5
1da
100
AcDbEntity
  8
0
 62
7
100
AcDbSpline
 70
8
 71
3
 72
8
 73
4
 74
0
 40
0
 40
0
 40
0
 40
0
 40
1
 40
1
 40
1
 40
1
 10
187.780206
 20
-2.914519
 30
0.0
 10
187.592666
 20
-2.726983
 30
0.0
 10
187.338309
 20
-2.621628
 30
0.0
 10
187.073090
 20
-2.621630
 30
0.0
  0
SPLINE
  5
1db
100
AcDbEntity
  8
0
 62
7
100
AcDbSpline
 70
8
 71
3
 72
8
 73
4
 74
0
 40
0
 40
0
 40
0
 40
0
 40
1
 40
1
 40
1
 40
1
 10
240.748062
 20
-91.821677
 30
0.0
 10
240.748083
 20
-92.373976
 30
0.0
 10
241.195821
 20
-92.821688
 30
0.0
 10
241.748119
 20
-92.821677
 30
0.0
  0
SPLINE
  5
1dc
100
AcDbEntity
  8
0
 62
7
100
AcDbSpline
 70
8
 71
3
 72
8
 73
4
 74
0
 40
0
 40
0
 40
0
 40
0
 40
1
 40
1
 40
1
 40
1
 10
268.092372
 20
-74.771668
 30
0.0
 10
268.092380
 20
-74.506451
 30
0.0
 10
267.987027
 20
-74.252094
 30
0.0
 10
267.799491
 20
-74.064557
 30
0.0
  0
SPLINE
  5
1dd
100
AcDbEntity
  8
0
 62
7
100
AcDbSpline
 70
8
 71
3
 72
8
 73
4
 74
0
 40
0
 40
0
 40
0
 40
0
 40
1
 40
1
 40
1
 40
1
 10
267.799491
 20
-74.064557
 30
0.0
 10
267.611956
 20
-73.877019
 30
0.0
 10
267.357600
 20
-73.771663
 30
0.0
 10
267.092383
 20
-73.771667
 30
0.0
  0
SPLINE
  5
1de
100
AcDbEntity
  8
0
 62
7
100
AcDbSpline
 70
8
 71
3
 72
8
 73
4
 74
0
 40
0
 40
0
 40
0
 40
0
 40
1
 40
1
 40
1
 40
1
 10
22.673001
 20
-2.621639
 30
0.0
 10
22.120742
 20
-2.621694
 30
0.0
 10
21.673060
 20
-3.069372
 30
0.0
 10
21.673000
 20
-3.621630
 30
0.0
  0
LWPOLYLINE
  5
1df
100
AcDbEntity
  8
0
 62
7
100
AcDbPolyline
 90
2
 70
0
 10
134.685562
 20
-59.771660
 30
0.0
 10
122.685555
 20
-59.771660
 30
0.0
  0
LWPOLYLINE
  5
1e0
100
AcDbEntity
  8
0
 62
7
100
AcDbPolyline
 90
2
 70
0
 10
246.505683
 20
-40.722969
 30
0.0
 10
265.936933
 20
-40.722969
 30
0.0
  0
SPLINE
  5
1e1
100
AcDbEntity
  8
0
 62
7
100
AcDbSpline
 70
8
 71
3
 72
8
 73
4
 74
0
 40
0
 40
0
 40
0
 40
0
 40
1
 40
1
 40
1
 40
1
 10
279.936935
 20
-30.465918
 30
0.0
 10
279.936927
 20
-30.823185
 30
0.0
 10
280.127528
 20
-31.153315
 30
0.0
 10
280.436933
 20
-31.331943
 30
0.0
  0
SPLINE
  5
1e2
100
AcDbEntity
  8
0
 62
7
100
AcDbSpline
 70
8
 71
3
 72
8
 73
4
 74
0
 40
0
 40
0
 40
0
 40
0
 40
1
 40
1
 40
1
 40
1
 10
259.360129
 20
-16.621568
 30
0.0
 10
258.807856
 20
-16.621663
 30
0.0
 10
258.360185
 20
-17.069365
 30
0.0
 10
258.360129
 20
-17.621637
 30
0.0
  0
SPLINE
  5
1e3
100
AcDbEntity
  8
0
 62
7
100
AcDbSpline
 70
8
 71
3
 72
8
 73
4
 74
0
 40
0
 40
0
 40
0
 40
0
 40
1
 40
1
 40
1
 40
1
 10
98.873042
 20
-2.621680
 30
0.0
 10
98.607831
 20
-2.621669
 30
0.0
 10
98.353478
 20
-2.727016
 30
0.0
 10
98.165940
 20
-2.914544
 30
0.0
  0
SPLINE
  5
1e4
100
AcDbEntity
  8
0
 62
7
100
AcDbSpline
 70
8
 71
3
 72
8
 73
4
 74
0
 40
0
 40
0
 40
0
 40
0
 40
1
 40
1
 40
1
 40
1
 10
98.165940
 20
-2.914544
 30
0.0
 10
97.978403
 20
-3.102071
 30
0.0
 10
97.873043
 20
-3.356419
 30
0.0
 10
97.873041
 20
-3.621630
 30
0.0
  0
LWPOLYLINE
  5
1e5
100
AcDbEntity
  8
0
 62
7
100
AcDbPolyline
 90
2
 70
0
 10
244.223121
 20
-2.621629
 30
0.0
 10
232.223114
 20
-2.621629
 30
0.0
  0
SPLINE
  5
1e6
100
AcDbEntity
  8
0
 62
7
100
AcDbSpline
 70
8
 71
3
 72
8
 73
4
 74
0
 40
0
 40
0
 40
0
 40
0
 40
1
 40
1
 40
1
 40
1
 10
31.197993
 20
-34.671646
 30
0.0
 10
31.197997
 20
-35.223935
 30
0.0
 10
31.645718
 20
-35.671650
 30
0.0
 10
32.198006
 20
-35.671646
 30
0.0
  0
SPLINE
  5
1e7
100
AcDbEntity
  8
0
 62
7
100
AcDbSpline
 70
8
 71
3
 72
8
 73
4
 74
0
 40
0
 40
0
 40
0
 40
0
 40
1
 40
1
 40
1
 40
1
 10
139.448064
 20
-35.671704
 30
0.0
 10
140.000357
 20
-35.671669
 30
0.0
 10
140.448061
 20
-35.223939
 30
0.0
 10
140.448065
 20
-34.671646
 30
0.0
  0
LWPOLYLINE
  5
1e8
100
AcDbEntity
  8
0
 62
7
100
AcDbPolyline
 90
2
 70
0
 10
282.324389
 20
-59.771660
 30
0.0
 10
270.324383
 20
-59.771660
 30
0.0
  0
SPLINE
  5
1e9
100
AcDbEntity
  8
0
 62
7
100
AcDbSpline
 70
8
 71
3
 72
8
 73
4
 74
0
 40
0
 40
0
 40
0
 40
0
 40
1
 40
1
 40
1
 40
1
 10
174.073103
 20
-15.621636
 30
0.0
 10
174.073101
 20
-16.173914
 30
0.0
 10
174.520805
 20
-16.621627
 30
0.0
 10
175.073083
 20
-16.621636
 30
0.0
  0
LWPOLYLINE
  5
1ea
100
AcDbEntity
  8
0
 62
7
100
AcDbPolyline
 90
2
 70
0
 10
105.428933
 20
-91.821629
 30
0.0
 10
112.135225
 20
-91.821659
 30
0.0
  0
LWPOLYLINE
  5
1eb
100
AcDbEntity
  8
0
 62
7
100
AcDbPolyline
 90
2
 70
0
 10
91.823039
 20
-2.621629
 30
0.0
 10
79.823032
 20
-2.621629
 30
0.0
  0
SPLINE
  5
1ec
100
AcDbEntity
  8
0
 62
7
100
AcDbSpline
 70
8
 71
3
 72
8
 73
4
 74
0
 40
0
 40
0
 40
0
 40
0
 40
1
 40
1
 40
1
 40
1
 10
63.248023
 20
-35.671663
 30
0.0
 10
63.513249
 20
-35.671684
 30
0.0
 10
63.767617
 20
-35.566331
 30
0.0
 10
63.955159
 20
-35.378787
 30
0.0
  0
SPLINE
  5
1ed
100
AcDbEntity
  8
0
 62
7
100
AcDbSpline
 70
8
 71
3
 72
8
 73
4
 74
0
 40
0
 40
0
 40
0
 40
0
 40
1
 40
1
 40
1
 40
1
 10
63.955159
 20
-35.378787
 30
0.0
 10
64.142700
 20
-35.191242
 30
0.0
 10
64.248049
 20
-34.936872
 30
0.0
 10
64.248024
 20
-34.671646
 30
0.0
  0
SPLINE
  5
1ee
100
AcDbEntity
  8
0
 62
7
100
AcDbSpline
 70
8
 71
3
 72
8
 73
4
 74
0
 40
0
 40
0
 40
0
 40
0
 40
1
 40
1
 40
1
 40
1
 10
159.785571
 20
-72.771667
 30
0.0
 10
159.785586
 20
-73.323948
 30
0.0
 10
160.233296
 20
-73.771655
 30
0.0
 10
160.785576
 20
-73.771668
 30
0.0
  0
LWPOLYLINE
  5
1ef
100
AcDbEntity
  8
0
 62
7
100
AcDbPolyline
 90
2
 70
0
 10
6.004242
 20
-54.721657
 30
0.0
 10
22.766751
 20
-54.721657
 30
0.0
  0
LWPOLYLINE
  5
1f0
100
AcDbEntity
  8
0
 62
7
100
AcDbPolyline
 90
2
 70
0
 10
140.448065
 20
-34.671646
 30
0.0
 10
140.448065
 20
-22.671640
 30
0.0
  0
LWPOLYLINE
  5
1f1
100
AcDbEntity
  8
0
 62
7
100
AcDbPolyline
 90
2
 70
0
 10
282.236121
 20
-17.401082
 30
0.0
 10
282.236142
 20
-17.621637
 30
0.0
  0
LWPOLYLINE
  5
1f2
100
AcDbEntity
  8
0
 62
7
100
AcDbPolyline
 90
2
 70
0
 10
88.348037
 20
-22.671640
 30
0.0
 10
88.348037
 20
-34.671646
 30
0.0
  0
SPLINE
  5
1f3
100
AcDbEntity
  8
0
 62
7
100
AcDbSpline
 70
8
 71
3
 72
8
 73
4
 74
0
 40
0
 40
0
 40
0
 40
0
 40
1
 40
1
 40
1
 40
1
 10
105.134882
 20
-78.821622
 30
0.0
 10
105.400100
 20
-78.821627
 30
0.0
 10
105.654457
 20
-78.716272
 30
0.0
 10
105.841995
 20
-78.528734
 30
0.0
  0
SPLINE
  5
1f4
100
AcDbEntity
  8
0
 62
7
100
AcDbSpline
 70
8
 71
3
 72
8
 73
4
 74
0
 40
0
 40
0
 40
0
 40
0
 40
1
 40
1
 40
1
 40
1
 10
105.841995
 20
-78.528734
 30
0.0
 10
106.029532
 20
-78.341196
 30
0.0
 10
106.134888
 20
-78.086840
 30
0.0
 10
106.134883
 20
-77.821621
 30
0.0
  0
LWPOLYLINE
  5
1f5
100
AcDbEntity
  8
0
 62
7
100
AcDbPolyline
 90
2
 70
0
 10
144.210567
 20
-40.721650
 30
0.0
 10
132.210560
 20
-40.721650
 30
0.0
  0
LWPOLYLINE
  5
1f6
100
AcDbEntity
  8
0
 62
7
100
AcDbPolyline
 90
2
 70
0
 10
198.885596
 20
-73.771668
 30
0.0
 10
210.885603
 20
-73.771668
 30
0.0
  0
LWPOLYLINE
  5
1f7
100
AcDbEntity
  8
0
 62
7
100
AcDbPolyline
 90
2
 70
0
 10
163.128488
 20
-92.821647
 30
0.0
 10
175.128495
 20
-92.821647
 30
0.0
  0
LWPOLYLINE
  5
1f8
100
AcDbEntity
  8
0
 62
7
100
AcDbPolyline
 90
2
 70
0
 10
83.298034
 20
-34.671646
 30
0.0
 10
83.298034
 20
-22.671640
 30
0.0
  0
LWPOLYLINE
  5
1f9
100
AcDbEntity
  8
0
 62
7
100
AcDbPolyline
 90
2
 70
0
 10
169.023080
 20
-15.621636
 30
0.0
 10
169.023080
 20
-3.621630
 30
0.0
  0
LWPOLYLINE
  5
1fa
100
AcDbEntity
  8
0
 62
7
100
AcDbPolyline
 90
2
 70
0
 10
83.585534
 20
-60.771660
 30
0.0
 10
83.585534
 20
-72.771667
 30
0.0
  0
LWPOLYLINE
  5
1fb
100
AcDbEntity
  8
0
 62
7
100
AcDbPolyline
 90
2
 70
0
 10
44.198013
 20
-78.821670
 30
0.0
 10
29.816755
 20
-78.821670
 30
0.0
  0
LWPOLYLINE
  5
1fc
100
AcDbEntity
  8
0
 62
7
100
AcDbPolyline
 90
2
 70
0
 10
279.936933
 20
-23.759969
 30
0.0
 10
279.936933
 20
-30.465918
 30
0.0
  0
LWPOLYLINE
  5
1fd
100
AcDbEntity
  8
0
 62
7
100
AcDbPolyline
 90
2
 70
0
 10
176.860546
 20
-91.821647
 30
0.0
 10
183.566838
 20
-91.821677
 30
0.0
  0
SPLINE
  5
1fe
100
AcDbEntity
  8
0
 62
7
100
AcDbSpline
 70
8
 71
3
 72
8
 73
4
 74
0
 40
0
 40
0
 40
0
 40
0
 40
1
 40
1
 40
1
 40
1
 10
170.310581
 20
-40.721720
 30
0.0
 10
170.045370
 20
-40.721699
 30
0.0
 10
169.791014
 20
-40.827039
 30
0.0
 10
169.603475
 20
-41.014565
 30
0.0
  0
SPLINE
  5
1ff
100
AcDbEntity
  8
0
 62
7
100
AcDbSpline
 70
8
 71
3
 72
8
 73
4
 74
0
 40
0
 40
0
 40
0
 40
0
 40
1
 40
1
 40
1
 40
1
 10
169.603475
 20
-41.014565
 30
0.0
 10
169.415936
 20
-41.202091
 30
0.0
 10
169.310578
 20
-41.456439
 30
0.0
 10
169.310581
 20
-41.721650
 30
0.0
  0
LWPOLYLINE
  5
200
100
AcDbEntity
  8
0
 62
7
100
AcDbPolyline
 90
2
 70
0
 10
188.073090
 20
-15.621636
 30
0.0
 10
188.073090
 20
-3.621630
 30
0.0
  0
SPLINE
  5
201
100
AcDbEntity
  8
0
 62
7
100
AcDbSpline
 70
8
 71
3
 72
8
 73
4
 74
0
 40
0
 40
0
 40
0
 40
0
 40
1
 40
1
 40
1
 40
1
 10
245.223109
 20
-3.621630
 30
0.0
 10
245.223104
 20
-3.069352
 30
0.0
 10
244.775399
 20
-2.621642
 30
0.0
 10
244.223121
 20
-2.621630
 30
0.0
  0
SPLINE
  5
202
100
AcDbEntity
  8
0
 62
7
100
AcDbSpline
 70
8
 71
3
 72
8
 73
4
 74
0
 40
0
 40
0
 40
0
 40
0
 40
1
 40
1
 40
1
 40
1
 10
69.010568
 20
-79.821671
 30
0.0
 10
69.010475
 20
-79.269409
 30
0.0
 10
68.562789
 20
-78.821741
 30
0.0
 10
68.010526
 20
-78.821671
 30
0.0
  0
LWPOLYLINE
  5
203
100
AcDbEntity
  8
0
 62
7
100
AcDbPolyline
 90
2
 70
0
 10
149.973070
 20
-15.621636
 30
0.0
 10
149.973070
 20
-3.621630
 30
0.0
  0
SPLINE
  5
204
100
AcDbEntity
  8
0
 62
7
100
AcDbSpline
 70
8
 71
3
 72
8
 73
4
 74
0
 40
0
 40
0
 40
0
 40
0
 40
1
 40
1
 40
1
 40
1
 10
246.505683
 20
-40.723022
 30
0.0
 10
246.240469
 20
-40.723000
 30
0.0
 10
245.986110
 20
-40.828343
 30
0.0
 10
245.798571
 20
-41.015873
 30
0.0
  0
SPLINE
  5
205
100
AcDbEntity
  8
0
 62
7
100
AcDbSpline
 70
8
 71
3
 72
8
 73
4
 74
0
 40
0
 40
0
 40
0
 40
0
 40
1
 40
1
 40
1
 40
1
 10
245.798571
 20
-41.015873
 30
0.0
 10
245.611031
 20
-41.203402
 30
0.0
 10
245.505675
 20
-41.457755
 30
0.0
 10
245.505683
 20
-41.722969
 30
0.0
  0
LWPOLYLINE
  5
206
100
AcDbEntity
  8
0
 62
7
100
AcDbPolyline
 90
2
 70
0
 10
51.248017
 20
-35.671647
 30
0.0
 10
63.248023
 20
-35.671647
 30
0.0
  0
LWPOLYLINE
  5
207
100
AcDbEntity
  8
0
 62
7
100
AcDbPolyline
 90
2
 70
0
 10
121.398054
 20
-34.671646
 30
0.0
 10
121.398054
 20
-22.671640
 30
0.0
  0
LWPOLYLINE
  5
208
100
AcDbEntity
  8
0
 62
7
100
AcDbPolyline
 90
2
 70
0
 10
56.010519
 20
-54.721657
 30
0.0
 10
68.010526
 20
-54.721657
 30
0.0
  0
SPLINE
  5
209
100
AcDbEntity
  8
0
 62
7
100
AcDbSpline
 70
8
 71
3
 72
8
 73
4
 74
0
 40
0
 40
0
 40
0
 40
0
 40
1
 40
1
 40
1
 40
1
 10
217.935607
 20
-78.821645
 30
0.0
 10
217.670385
 20
-78.821643
 30
0.0
 10
217.416026
 20
-78.927003
 30
0.0
 10
217.228489
 20
-79.114546
 30
0.0
  0
SPLINE
  5
20a
100
AcDbEntity
  8
0
 62
7
100
AcDbSpline
 70
8
 71
3
 72
8
 73
4
 74
0
 40
0
 40
0
 40
0
 40
0
 40
1
 40
1
 40
1
 40
1
 10
217.228489
 20
-79.114546
 30
0.0
 10
217.040951
 20
-79.302088
 30
0.0
 10
216.935598
 20
-79.556450
 30
0.0
 10
216.935606
 20
-79.821671
 30
0.0
  0
LWPOLYLINE
  5
20b
100
AcDbEntity
  8
0
 62
7
100
AcDbPolyline
 90
2
 70
0
 10
210.885603
 20
-59.771660
 30
0.0
 10
198.885596
 20
-59.771660
 30
0.0
  0
SPLINE
  5
20c
100
AcDbEntity
  8
0
 62
7
100
AcDbSpline
 70
8
 71
3
 72
8
 73
4
 74
0
 40
0
 40
0
 40
0
 40
0
 40
1
 40
1
 40
1
 40
1
 10
108.398047
 20
-21.671685
 30
0.0
 10
108.132834
 20
-21.671673
 30
0.0
 10
107.878480
 20
-21.777019
 30
0.0
 10
107.690942
 20
-21.964549
 30
0.0
  0
SPLINE
  5
20d
100
AcDbEntity
  8
0
 62
7
100
AcDbSpline
 70
8
 71
3
 72
8
 73
4
 74
0
 40
0
 40
0
 40
0
 40
0
 40
1
 40
1
 40
1
 40
1
 10
107.690942
 20
-21.964549
 30
0.0
 10
107.503404
 20
-22.152078
 30
0.0
 10
107.398046
 20
-22.406428
 30
0.0
 10
107.398046
 20
-22.671640
 30
0.0
  0
SPLINE
  5
20e
100
AcDbEntity
  8
0
 62
7
100
AcDbSpline
 70
8
 71
3
 72
8
 73
4
 74
0
 40
0
 40
0
 40
0
 40
0
 40
1
 40
1
 40
1
 40
1
 10
175.128495
 20
-92.821638
 30
0.0
 10
175.485759
 20
-92.821640
 30
0.0
 10
175.815885
 20
-92.631045
 30
0.0
 10
175.994520
 20
-92.321647
 30
0.0
  0
SPLINE
  5
20f
100
AcDbEntity
  8
0
 62
7
100
AcDbSpline
 70
8
 71
3
 72
8
 73
4
 74
0
 40
0
 40
0
 40
0
 40
0
 40
1
 40
1
 40
1
 40
1
 10
59.485479
 20
-60.771660
 30
0.0
 10
59.485491
 20
-60.219387
 30
0.0
 10
59.037794
 20
-59.771672
 30
0.0
 10
58.485521
 20
-59.771660
 30
0.0
  0
LWPOLYLINE
  5
210
100
AcDbEntity
  8
0
 62
7
100
AcDbPolyline
 90
2
 70
0
 10
40.443383
 20
-60.747568
 30
0.0
 10
40.443383
 20
-72.747569
 30
0.0
  0
SPLINE
  5
211
100
AcDbEntity
  8
0
 62
7
100
AcDbSpline
 70
8
 71
3
 72
8
 73
4
 74
0
 40
0
 40
0
 40
0
 40
0
 40
1
 40
1
 40
1
 40
1
 10
35.673009
 20
-3.621630
 30
0.0
 10
35.673004
 20
-3.069347
 30
0.0
 10
35.225291
 20
-2.621635
 30
0.0
 10
34.673008
 20
-2.621630
 30
0.0
  0
SPLINE
  5
212
100
AcDbEntity
  8
0
 62
7
100
AcDbSpline
 70
8
 71
3
 72
8
 73
4
 74
0
 40
0
 40
0
 40
0
 40
0
 40
1
 40
1
 40
1
 40
1
 10
278.456518
 20
-22.238814
 30
0.0
 10
278.289801
 20
-21.892872
 30
0.0
 10
277.939701
 20
-21.672963
 30
0.0
 10
277.555682
 20
-21.672970
 30
0.0
  0
SPLINE
  5
213
100
AcDbEntity
  8
0
 62
7
100
AcDbSpline
 70
8
 71
3
 72
8
 73
4
 74
0
 40
0
 40
0
 40
0
 40
0
 40
1
 40
1
 40
1
 40
1
 10
113.160550
 20
-40.721689
 30
0.0
 10
112.895336
 20
-40.721676
 30
0.0
 10
112.640980
 20
-40.827023
 30
0.0
 10
112.453442
 20
-41.014554
 30
0.0
  0
SPLINE
  5
214
100
AcDbEntity
  8
0
 62
7
100
AcDbSpline
 70
8
 71
3
 72
8
 73
4
 74
0
 40
0
 40
0
 40
0
 40
0
 40
1
 40
1
 40
1
 40
1
 10
112.453442
 20
-41.014554
 30
0.0
 10
112.265904
 20
-41.202085
 30
0.0
 10
112.160547
 20
-41.456437
 30
0.0
 10
112.160550
 20
-41.721650
 30
0.0
  0
SPLINE
  5
215
100
AcDbEntity
  8
0
 62
7
100
AcDbSpline
 70
8
 71
3
 72
8
 73
4
 74
0
 40
0
 40
0
 40
0
 40
0
 40
1
 40
1
 40
1
 40
1
 10
55.010482
 20
-53.721657
 30
0.0
 10
55.010487
 20
-53.986879
 30
0.0
 10
55.115850
 20
-54.241236
 30
0.0
 10
55.303394
 20
-54.428772
 30
0.0
  0
SPLINE
  5
216
100
AcDbEntity
  8
0
 62
7
100
AcDbSpline
 70
8
 71
3
 72
8
 73
4
 74
0
 40
0
 40
0
 40
0
 40
0
 40
1
 40
1
 40
1
 40
1
 10
55.303394
 20
-54.428772
 30
0.0
 10
55.490937
 20
-54.616308
 30
0.0
 10
55.745298
 20
-54.721662
 30
0.0
 10
56.010519
 20
-54.721657
 30
0.0
  0
LWPOLYLINE
  5
217
100
AcDbEntity
  8
0
 62
7
100
AcDbPolyline
 90
2
 70
0
 10
113.160550
 20
-54.721657
 30
0.0
 10
125.160557
 20
-54.721657
 30
0.0
  0
SPLINE
  5
218
100
AcDbEntity
  8
0
 62
7
100
AcDbSpline
 70
8
 71
3
 72
8
 73
4
 74
0
 40
0
 40
0
 40
0
 40
0
 40
1
 40
1
 40
1
 40
1
 10
160.785576
 20
-59.771715
 30
0.0
 10
160.520363
 20
-59.771695
 30
0.0
 10
160.266006
 20
-59.877038
 30
0.0
 10
160.078466
 20
-60.064567
 30
0.0
  0
SPLINE
  5
219
100
AcDbEntity
  8
0
 62
7
100
AcDbSpline
 70
8
 71
3
 72
8
 73
4
 74
0
 40
0
 40
0
 40
0
 40
0
 40
1
 40
1
 40
1
 40
1
 10
160.078466
 20
-60.064567
 30
0.0
 10
159.890927
 20
-60.252096
 30
0.0
 10
159.785570
 20
-60.506447
 30
0.0
 10
159.785576
 20
-60.771660
 30
0.0
  0
LWPOLYLINE
  5
21a
100
AcDbEntity
  8
0
 62
7
100
AcDbPolyline
 90
2
 70
0
 10
130.923060
 20
-15.621636
 30
0.0
 10
130.923060
 20
-3.621630
 30
0.0
  0
LWPOLYLINE
  5
21b
100
AcDbEntity
  8
0
 62
7
100
AcDbPolyline
 90
2
 70
0
 10
145.210567
 20
-53.721657
 30
0.0
 10
145.210567
 20
-41.721650
 30
0.0
  0
SPLINE
  5
21c
100
AcDbEntity
  8
0
 62
7
100
AcDbSpline
 70
8
 71
3
 72
8
 73
4
 74
0
 40
0
 40
0
 40
0
 40
0
 40
1
 40
1
 40
1
 40
1
 10
226.173109
 20
-3.621630
 30
0.0
 10
226.173104
 20
-3.069348
 30
0.0
 10
225.725393
 20
-2.621636
 30
0.0
 10
225.173111
 20
-2.621630
 30
0.0
  0
LWPOLYLINE
  5
21d
100
AcDbEntity
  8
0
 62
7
100
AcDbPolyline
 90
2
 70
0
 10
178.835586
 20
-60.771660
 30
0.0
 10
178.835586
 20
-72.771667
 30
0.0
  0
SPLINE
  5
21e
100
AcDbEntity
  8
0
 62
7
100
AcDbSpline
 70
8
 71
3
 72
8
 73
4
 74
0
 40
0
 40
0
 40
0
 40
0
 40
1
 40
1
 40
1
 40
1
 10
196.063718
 20
-78.923976
 30
0.0
 10
195.721311
 20
-79.092033
 30
0.0
 10
195.504332
 20
-79.440245
 30
0.0
 10
195.504344
 20
-79.821671
 30
0.0
  0
SPLINE
  5
21f
100
AcDbEntity
  8
0
 62
7
100
AcDbSpline
 70
8
 71
3
 72
8
 73
4
 74
0
 40
0
 40
0
 40
0
 40
0
 40
1
 40
1
 40
1
 40
1
 10
68.010526
 20
-92.821666
 30
0.0
 10
68.275755
 20
-92.821712
 30
0.0
 10
68.530134
 20
-92.716372
 30
0.0
 10
68.717680
 20
-92.528828
 30
0.0
  0
SPLINE
  5
220
100
AcDbEntity
  8
0
 62
7
100
AcDbSpline
 70
8
 71
3
 72
8
 73
4
 74
0
 40
0
 40
0
 40
0
 40
0
 40
1
 40
1
 40
1
 40
1
 10
68.717680
 20
-92.528828
 30
0.0
 10
68.905226
 20
-92.341284
 30
0.0
 10
69.010570
 20
-92.086906
 30
0.0
 10
69.010527
 20
-91.821677
 30
0.0
  0
LWPOLYLINE
  5
221
100
AcDbEntity
  8
0
 62
7
100
AcDbPolyline
 90
2
 70
0
 10
129.923059
 20
-2.621629
 30
0.0
 10
117.923053
 20
-2.621629
 30
0.0
  0
LWPOLYLINE
  5
222
100
AcDbEntity
  8
0
 62
7
100
AcDbPolyline
 90
2
 70
0
 10
87.060536
 20
-40.721650
 30
0.0
 10
75.060529
 20
-40.721650
 30
0.0
  0
LWPOLYLINE
  5
223
100
AcDbEntity
  8
0
 62
7
100
AcDbPolyline
 90
2
 70
0
 10
54.723018
 20
-15.621636
 30
0.0
 10
54.723018
 20
-3.621630
 30
0.0
  0
SPLINE
  5
224
100
AcDbEntity
  8
0
 62
7
100
AcDbSpline
 70
8
 71
3
 72
8
 73
4
 74
0
 40
0
 40
0
 40
0
 40
0
 40
1
 40
1
 40
1
 40
1
 10
197.623096
 20
-76.821734
 30
0.0
 10
197.357883
 20
-76.821709
 30
0.0
 10
197.103524
 20
-76.927049
 30
0.0
 10
196.915983
 20
-77.114577
 30
0.0
  0
SPLINE
  5
225
100
AcDbEntity
  8
0
 62
7
100
AcDbSpline
 70
8
 71
3
 72
8
 73
4
 74
0
 40
0
 40
0
 40
0
 40
0
 40
1
 40
1
 40
1
 40
1
 10
196.915983
 20
-77.114577
 30
0.0
 10
196.728443
 20
-77.302105
 30
0.0
 10
196.623087
 20
-77.556457
 30
0.0
 10
196.623095
 20
-77.821670
 30
0.0
  0
SPLINE
  5
226
100
AcDbEntity
  8
0
 62
7
100
AcDbSpline
 70
8
 71
3
 72
8
 73
4
 74
0
 40
0
 40
0
 40
0
 40
0
 40
1
 40
1
 40
1
 40
1
 10
165.548078
 20
-21.671616
 30
0.0
 10
164.995789
 20
-21.671628
 30
0.0
 10
164.548076
 20
-22.119351
 30
0.0
 10
164.548077
 20
-22.671640
 30
0.0
  0
LWPOLYLINE
  5
227
100
AcDbEntity
  8
0
 62
7
100
AcDbPolyline
 90
2
 70
0
 10
6.004242
 20
-92.821678
 30
0.0
 10
20.385500
 20
-92.821678
 30
0.0
  0
SPLINE
  5
228
100
AcDbEntity
  8
0
 62
7
100
AcDbSpline
 70
8
 71
3
 72
8
 73
4
 74
0
 40
0
 40
0
 40
0
 40
0
 40
1
 40
1
 40
1
 40
1
 10
220.410608
 20
-54.721647
 30
0.0
 10
220.675838
 20
-54.721698
 30
0.0
 10
220.930220
 20
-54.616359
 30
0.0
 10
221.117767
 20
-54.428814
 30
0.0
  0
SPLINE
  5
229
100
AcDbEntity
  8
0
 62
7
100
AcDbSpline
 70
8
 71
3
 72
8
 73
4
 74
0
 40
0
 40
0
 40
0
 40
0
 40
1
 40
1
 40
1
 40
1
 10
221.117767
 20
-54.428814
 30
0.0
 10
221.305315
 20
-54.241269
 30
0.0
 10
221.410656
 20
-53.986888
 30
0.0
 10
221.410608
 20
-53.721657
 30
0.0
  0
LWPOLYLINE
  5
22a
100
AcDbEntity
  8
0
 62
7
100
AcDbPolyline
 90
2
 70
0
 10
173.785583
 20
-72.771667
 30
0.0
 10
173.785583
 20
-60.771660
 30
0.0
  0
SPLINE
  5
22b
100
AcDbEntity
  8
0
 62
7
100
AcDbSpline
 70
8
 71
3
 72
8
 73
4
 74
0
 40
0
 40
0
 40
0
 40
0
 40
1
 40
1
 40
1
 40
1
 10
97.873103
 20
-15.621636
 30
0.0
 10
97.873101
 20
-16.173898
 30
0.0
 10
98.320780
 20
-16.621604
 30
0.0
 10
98.873042
 20
-16.621636
 30
0.0
  0
LWPOLYLINE
  5
22c
100
AcDbEntity
  8
0
 62
7
100
AcDbPolyline
 90
2
 70
0
 10
250.273121
 20
-3.621630
 30
0.0
 10
250.273121
 20
-15.621630
 30
0.0
  0
LWPOLYLINE
  5
22d
100
AcDbEntity
  8
0
 62
7
100
AcDbPolyline
 90
2
 70
0
 10
97.585542
 20
-72.771667
 30
0.0
 10
97.585542
 20
-60.771660
 30
0.0
  0
SPLINE
  5
22e
100
AcDbEntity
  8
0
 62
7
100
AcDbSpline
 70
8
 71
3
 72
8
 73
4
 74
0
 40
0
 40
0
 40
0
 40
0
 40
1
 40
1
 40
1
 40
1
 10
36.960509
 20
-40.721648
 30
0.0
 10
36.408244
 20
-40.721699
 30
0.0
 10
35.960558
 20
-41.169386
 30
0.0
 10
35.960509
 20
-41.721650
 30
0.0
  0
SPLINE
  5
22f
100
AcDbEntity
  8
0
 62
7
100
AcDbSpline
 70
8
 71
3
 72
8
 73
4
 74
0
 40
0
 40
0
 40
0
 40
0
 40
1
 40
1
 40
1
 40
1
 10
91.823039
 20
-16.621679
 30
0.0
 10
92.375332
 20
-16.621658
 30
0.0
 10
92.823042
 20
-16.173929
 30
0.0
 10
92.823040
 20
-15.621636
 30
0.0
  0
SPLINE
  5
230
100
AcDbEntity
  8
0
 62
7
100
AcDbSpline
 70
8
 71
3
 72
8
 73
4
 74
0
 40
0
 40
0
 40
0
 40
0
 40
1
 40
1
 40
1
 40
1
 10
45.197999
 20
-22.671640
 30
0.0
 10
45.198000
 20
-22.119361
 30
0.0
 10
44.750293
 20
-21.671648
 30
0.0
 10
44.198013
 20
-21.671640
 30
0.0
  0
SPLINE
  5
231
100
AcDbEntity
  8
0
 62
7
100
AcDbSpline
 70
8
 71
3
 72
8
 73
4
 74
0
 40
0
 40
0
 40
0
 40
0
 40
1
 40
1
 40
1
 40
1
 10
276.092389
 20
-73.771727
 30
0.0
 10
275.827175
 20
-73.771704
 30
0.0
 10
275.572817
 20
-73.877045
 30
0.0
 10
275.385277
 20
-74.064574
 30
0.0
  0
SPLINE
  5
232
100
AcDbEntity
  8
0
 62
7
100
AcDbSpline
 70
8
 71
3
 72
8
 73
4
 74
0
 40
0
 40
0
 40
0
 40
0
 40
1
 40
1
 40
1
 40
1
 10
275.385277
 20
-74.064574
 30
0.0
 10
275.197737
 20
-74.252102
 30
0.0
 10
275.092380
 20
-74.506455
 30
0.0
 10
275.092388
 20
-74.771668
 30
0.0
  0
SPLINE
  5
233
100
AcDbEntity
  8
0
 62
7
100
AcDbSpline
 70
8
 71
3
 72
8
 73
4
 74
0
 40
0
 40
0
 40
0
 40
0
 40
1
 40
1
 40
1
 40
1
 10
141.735565
 20
-59.771704
 30
0.0
 10
141.470351
 20
-59.771687
 30
0.0
 10
141.215994
 20
-59.877032
 30
0.0
 10
141.028455
 20
-60.064563
 30
0.0
  0
SPLINE
  5
234
100
AcDbEntity
  8
0
 62
7
100
AcDbSpline
 70
8
 71
3
 72
8
 73
4
 74
0
 40
0
 40
0
 40
0
 40
0
 40
1
 40
1
 40
1
 40
1
 10
141.028455
 20
-60.064563
 30
0.0
 10
140.840916
 20
-60.252094
 30
0.0
 10
140.735559
 20
-60.506446
 30
0.0
 10
140.735565
 20
-60.771660
 30
0.0
  0
LWPOLYLINE
  5
235
100
AcDbEntity
  8
0
 62
7
100
AcDbPolyline
 90
2
 70
0
 10
265.936933
 20
-35.672969
 30
0.0
 10
265.555682
 20
-35.672969
 30
0.0
  0
LWPOLYLINE
  5
236
100
AcDbEntity
  8
0
 62
7
100
AcDbPolyline
 90
2
 70
0
 10
126.160557
 20
-53.721657
 30
0.0
 10
126.160557
 20
-41.721650
 30
0.0
  0
SPLINE
  5
237
100
AcDbEntity
  8
0
 62
7
100
AcDbSpline
 70
8
 71
3
 72
8
 73
4
 74
0
 40
0
 40
0
 40
0
 40
0
 40
1
 40
1
 40
1
 40
1
 10
15.622997
 20
-16.621637
 30
0.0
 10
15.888222
 20
-16.621665
 30
0.0
 10
16.142592
 20
-16.516316
 30
0.0
 10
16.330135
 20
-16.328774
 30
0.0
  0
SPLINE
  5
238
100
AcDbEntity
  8
0
 62
7
100
AcDbSpline
 70
8
 71
3
 72
8
 73
4
 74
0
 40
0
 40
0
 40
0
 40
0
 40
1
 40
1
 40
1
 40
1
 10
16.330135
 20
-16.328774
 30
0.0
 10
16.517677
 20
-16.141231
 30
0.0
 10
16.623025
 20
-15.886861
 30
0.0
 10
16.622998
 20
-15.621636
 30
0.0
  0
SPLINE
  5
239
100
AcDbEntity
  8
0
 62
7
100
AcDbSpline
 70
8
 71
3
 72
8
 73
4
 74
0
 40
0
 40
0
 40
0
 40
0
 40
1
 40
1
 40
1
 40
1
 10
270.324383
 20
-59.771672
 30
0.0
 10
269.967113
 20
-59.771643
 30
0.0
 10
269.636974
 20
-59.962244
 30
0.0
 10
269.458358
 20
-60.271660
 30
0.0
  0
LWPOLYLINE
  5
23a
100
AcDbEntity
  8
0
 62
7
100
AcDbPolyline
 90
2
 70
0
 10
174.073083
 20
-3.621630
 30
0.0
 10
174.073083
 20
-15.621636
 30
0.0
  0
SPLINE
  5
23b
100
AcDbEntity
  8
0
 62
7
100
AcDbSpline
 70
8
 71
3
 72
8
 73
4
 74
0
 40
0
 40
0
 40
0
 40
0
 40
1
 40
1
 40
1
 40
1
 10
56.010519
 20
-40.721658
 30
0.0
 10
55.458256
 20
-40.721703
 30
0.0
 10
55.010568
 20
-41.169387
 30
0.0
 10
55.010519
 20
-41.721650
 30
0.0
  0
LWPOLYLINE
  5
23c
100
AcDbEntity
  8
0
 62
7
100
AcDbPolyline
 90
2
 70
0
 10
196.623095
 20
-77.821670
 30
0.0
 10
196.623095
 20
-78.026287
 30
0.0
  0
LWPOLYLINE
  5
23d
100
AcDbEntity
  8
0
 62
7
100
AcDbPolyline
 90
2
 70
0
 10
245.505683
 20
-41.722969
 30
0.0
 10
245.505683
 20
-53.722969
 30
0.0
  0
SPLINE
  5
23e
100
AcDbEntity
  8
0
 62
7
100
AcDbSpline
 70
8
 71
3
 72
8
 73
4
 74
0
 40
0
 40
0
 40
0
 40
0
 40
1
 40
1
 40
1
 40
1
 10
74.060482
 20
-53.721657
 30
0.0
 10
74.060487
 20
-53.986880
 30
0.0
 10
74.165852
 20
-54.241239
 30
0.0
 10
74.353397
 20
-54.428775
 30
0.0
  0
SPLINE
  5
23f
100
AcDbEntity
  8
0
 62
7
100
AcDbSpline
 70
8
 71
3
 72
8
 73
4
 74
0
 40
0
 40
0
 40
0
 40
0
 40
1
 40
1
 40
1
 40
1
 10
74.353397
 20
-54.428775
 30
0.0
 10
74.540943
 20
-54.616312
 30
0.0
 10
74.795306
 20
-54.721665
 30
0.0
 10
75.060529
 20
-54.721657
 30
0.0
  0
LWPOLYLINE
  5
240
100
AcDbEntity
  8
0
 62
7
100
AcDbPolyline
 90
2
 70
0
 10
91.696875
 20
-92.821629
 30
0.0
 10
103.696882
 20
-92.821629
 30
0.0
  0
SPLINE
  5
241
100
AcDbEntity
  8
0
 62
7
100
AcDbSpline
 70
8
 71
3
 72
8
 73
4
 74
0
 40
0
 40
0
 40
0
 40
0
 40
1
 40
1
 40
1
 40
1
 10
232.223114
 20
-2.621652
 30
0.0
 10
231.670857
 20
-2.621700
 30
0.0
 10
231.223173
 20
-3.069374
 30
0.0
 10
231.223113
 20
-3.621630
 30
0.0
  0
LWPOLYLINE
  5
242
100
AcDbEntity
  8
0
 62
7
100
AcDbPolyline
 90
2
 70
0
 10
28.816754
 20
-79.821671
 30
0.0
 10
28.816754
 20
-91.821677
 30
0.0
  0
LWPOLYLINE
  5
243
100
AcDbEntity
  8
0
 62
7
100
AcDbPolyline
 90
2
 70
0
 10
264.555682
 20
-22.672969
 30
0.0
 10
264.555682
 20
-34.672969
 30
0.0
  0
SPLINE
  5
244
100
AcDbEntity
  8
0
 62
7
100
AcDbSpline
 70
8
 71
3
 72
8
 73
4
 74
0
 40
0
 40
0
 40
0
 40
0
 40
1
 40
1
 40
1
 40
1
 10
202.360589
 20
-41.721650
 30
0.0
 10
202.360592
 20
-41.456435
 30
0.0
 10
202.255237
 20
-41.202080
 30
0.0
 10
202.067702
 20
-41.014544
 30
0.0
  0
SPLINE
  5
245
100
AcDbEntity
  8
0
 62
7
100
AcDbSpline
 70
8
 71
3
 72
8
 73
4
 74
0
 40
0
 40
0
 40
0
 40
0
 40
1
 40
1
 40
1
 40
1
 10
202.067702
 20
-41.014544
 30
0.0
 10
201.880167
 20
-40.827007
 30
0.0
 10
201.625814
 20
-40.721650
 30
0.0
 10
201.360598
 20
-40.721650
 30
0.0
  0
SPLINE
  5
246
100
AcDbEntity
  8
0
 62
7
100
AcDbSpline
 70
8
 71
3
 72
8
 73
4
 74
0
 40
0
 40
0
 40
0
 40
0
 40
1
 40
1
 40
1
 40
1
 10
59.773002
 20
-15.621636
 30
0.0
 10
59.773001
 20
-15.886857
 30
0.0
 10
59.878361
 20
-16.141214
 30
0.0
 10
60.065901
 20
-16.328751
 30
0.0
  0
SPLINE
  5
247
100
AcDbEntity
  8
0
 62
7
100
AcDbSpline
 70
8
 71
3
 72
8
 73
4
 74
0
 40
0
 40
0
 40
0
 40
0
 40
1
 40
1
 40
1
 40
1
 10
60.065901
 20
-16.328751
 30
0.0
 10
60.253442
 20
-16.516289
 30
0.0
 10
60.507802
 20
-16.621643
 30
0.0
 10
60.773022
 20
-16.621637
 30
0.0
  0
LWPOLYLINE
  5
248
100
AcDbEntity
  8
0
 62
7
100
AcDbPolyline
 90
2
 70
0
 10
36.960509
 20
-54.721657
 30
0.0
 10
48.960515
 20
-54.721657
 30
0.0
  0
LWPOLYLINE
  5
249
100
AcDbEntity
  8
0
 62
7
100
AcDbPolyline
 90
2
 70
0
 10
240.748119
 20
-22.671640
 30
0.0
 10
240.748119
 20
-34.671646
 30
0.0
  0
SPLINE
  5
24a
100
AcDbEntity
  8
0
 62
7
100
AcDbSpline
 70
8
 71
3
 72
8
 73
4
 74
0
 40
0
 40
0
 40
0
 40
0
 40
1
 40
1
 40
1
 40
1
 10
206.123100
 20
-16.621640
 30
0.0
 10
206.388325
 20
-16.621667
 30
0.0
 10
206.642695
 20
-16.516318
 30
0.0
 10
206.830238
 20
-16.328775
 30
0.0
  0
SPLINE
  5
24b
100
AcDbEntity
  8
0
 62
7
100
AcDbSpline
 70
8
 71
3
 72
8
 73
4
 74
0
 40
0
 40
0
 40
0
 40
0
 40
1
 40
1
 40
1
 40
1
 10
206.830238
 20
-16.328775
 30
0.0
 10
207.017780
 20
-16.141232
 30
0.0
 10
207.123128
 20
-15.886862
 30
0.0
 10
207.123101
 20
-15.621636
 30
0.0
  0
LWPOLYLINE
  5
24c
100
AcDbEntity
  8
0
 62
7
100
AcDbPolyline
 90
2
 70
0
 10
50.248016
 20
-22.671640
 30
0.0
 10
50.248016
 20
-34.671646
 30
0.0
  0
LWPOLYLINE
  5
24d
100
AcDbEntity
  8
0
 62
7
100
AcDbPolyline
 90
2
 70
0
 10
159.785575
 20
-60.771660
 30
0.0
 10
159.785575
 20
-72.771667
 30
0.0
  0
SPLINE
  5
24e
100
AcDbEntity
  8
0
 62
7
100
AcDbSpline
 70
8
 71
3
 72
8
 73
4
 74
0
 40
0
 40
0
 40
0
 40
0
 40
1
 40
1
 40
1
 40
1
 10
89.258918
 20
-77.821621
 30
0.0
 10
89.258908
 20
-78.373893
 30
0.0
 10
89.706602
 20
-78.821607
 30
0.0
 10
90.258874
 20
-78.821621
 30
0.0
  0
SPLINE
  5
24f
100
AcDbEntity
  8
0
 62
7
100
AcDbSpline
 70
8
 71
3
 72
8
 73
4
 74
0
 40
0
 40
0
 40
0
 40
0
 40
1
 40
1
 40
1
 40
1
 10
176.566495
 20
-78.821635
 30
0.0
 10
176.831711
 20
-78.821637
 30
0.0
 10
177.086065
 20
-78.716281
 30
0.0
 10
177.273602
 20
-78.528745
 30
0.0
  0
SPLINE
  5
250
100
AcDbEntity
  8
0
 62
7
100
AcDbSpline
 70
8
 71
3
 72
8
 73
4
 74
0
 40
0
 40
0
 40
0
 40
0
 40
1
 40
1
 40
1
 40
1
 10
177.273602
 20
-78.528745
 30
0.0
 10
177.461139
 20
-78.341209
 30
0.0
 10
177.566496
 20
-78.086856
 30
0.0
 10
177.566496
 20
-77.821639
 30
0.0
  0
SPLINE
  5
251
100
AcDbEntity
  8
0
 62
7
100
AcDbSpline
 70
8
 71
3
 72
8
 73
4
 74
0
 40
0
 40
0
 40
0
 40
0
 40
1
 40
1
 40
1
 40
1
 10
111.873109
 20
-3.621630
 30
0.0
 10
111.873107
 20
-3.356404
 30
0.0
 10
111.767741
 20
-3.102043
 30
0.0
 10
111.580192
 20
-2.914505
 30
0.0
  0
SPLINE
  5
252
100
AcDbEntity
  8
0
 62
7
100
AcDbSpline
 70
8
 71
3
 72
8
 73
4
 74
0
 40
0
 40
0
 40
0
 40
0
 40
1
 40
1
 40
1
 40
1
 10
111.580192
 20
-2.914505
 30
0.0
 10
111.392643
 20
-2.726967
 30
0.0
 10
111.138275
 20
-2.621617
 30
0.0
 10
110.873049
 20
-2.621630
 30
0.0
  0
LWPOLYLINE
  5
253
100
AcDbEntity
  8
0
 62
7
100
AcDbPolyline
 90
2
 70
0
 10
70.298027
 20
-35.671647
 30
0.0
 10
82.298033
 20
-35.671647
 30
0.0
  0
SPLINE
  5
254
100
AcDbEntity
  8
0
 62
7
100
AcDbSpline
 70
8
 71
3
 72
8
 73
4
 74
0
 40
0
 40
0
 40
0
 40
0
 40
1
 40
1
 40
1
 40
1
 10
283.324380
 20
-60.771660
 30
0.0
 10
283.324386
 20
-60.506444
 30
0.0
 10
283.219032
 20
-60.252088
 30
0.0
 10
283.031496
 20
-60.064550
 30
0.0
  0
SPLINE
  5
255
100
AcDbEntity
  8
0
 62
7
100
AcDbSpline
 70
8
 71
3
 72
8
 73
4
 74
0
 40
0
 40
0
 40
0
 40
0
 40
1
 40
1
 40
1
 40
1
 10
283.031496
 20
-60.064550
 30
0.0
 10
282.843961
 20
-59.877013
 30
0.0
 10
282.589606
 20
-59.771656
 30
0.0
 10
282.324389
 20
-59.771659
 30
0.0
  0
LWPOLYLINE
  5
256
100
AcDbEntity
  8
0
 62
7
100
AcDbPolyline
 90
2
 70
0
 10
106.110546
 20
-40.721650
 30
0.0
 10
94.110540
 20
-40.721650
 30
0.0
  0
LWPOLYLINE
  5
257
100
AcDbEntity
  8
0
 62
7
100
AcDbPolyline
 90
2
 70
0
 10
184.566838
 20
-90.821677
 30
0.0
 10
184.566839
 20
-77.821670
 30
0.0
  0
SPLINE
  5
258
100
AcDbEntity
  8
0
 62
7
100
AcDbSpline
 70
8
 71
3
 72
8
 73
4
 74
0
 40
0
 40
0
 40
0
 40
0
 40
1
 40
1
 40
1
 40
1
 10
213.173104
 20
-2.621642
 30
0.0
 10
212.620846
 20
-2.621695
 30
0.0
 10
212.173163
 20
-3.069372
 30
0.0
 10
212.173103
 20
-3.621630
 30
0.0
  0
LWPOLYLINE
  5
259
100
AcDbEntity
  8
0
 62
7
100
AcDbPolyline
 90
2
 70
0
 10
23.766752
 20
-53.721657
 30
0.0
 10
23.766752
 20
-41.721650
 30
0.0
  0
SPLINE
  5
25a
100
AcDbEntity
  8
0
 62
7
100
AcDbSpline
 70
8
 71
3
 72
8
 73
4
 74
0
 40
0
 40
0
 40
0
 40
0
 40
1
 40
1
 40
1
 40
1
 10
5.012143
 20
-72.747569
 30
0.0
 10
5.012154
 20
-73.122588
 30
0.0
 10
5.221978
 20
-73.466081
 30
0.0
 10
5.555633
 20
-73.637292
 30
0.0
  0
SPLINE
  5
25b
100
AcDbEntity
  8
0
 62
7
100
AcDbSpline
 70
8
 71
3
 72
8
 73
4
 74
0
 40
0
 40
0
 40
0
 40
0
 40
1
 40
1
 40
1
 40
1
 10
126.160489
 20
-41.721650
 30
0.0
 10
126.160518
 20
-41.456437
 30
0.0
 10
126.055180
 20
-41.202076
 30
0.0
 10
125.867652
 20
-41.014535
 30
0.0
  0
SPLINE
  5
25c
100
AcDbEntity
  8
0
 62
7
100
AcDbSpline
 70
8
 71
3
 72
8
 73
4
 74
0
 40
0
 40
0
 40
0
 40
0
 40
1
 40
1
 40
1
 40
1
 10
125.867652
 20
-41.014535
 30
0.0
 10
125.680124
 20
-40.826994
 30
0.0
 10
125.425771
 20
-40.721639
 30
0.0
 10
125.160557
 20
-40.721650
 30
0.0
  0
SPLINE
  5
25d
100
AcDbEntity
  8
0
 62
7
100
AcDbSpline
 70
8
 71
3
 72
8
 73
4
 74
0
 40
0
 40
0
 40
0
 40
0
 40
1
 40
1
 40
1
 40
1
 10
88.060589
 20
-41.721650
 30
0.0
 10
88.060592
 20
-41.456424
 30
0.0
 10
87.955229
 20
-41.202060
 30
0.0
 10
87.767680
 20
-41.014522
 30
0.0
  0
SPLINE
  5
25e
100
AcDbEntity
  8
0
 62
7
100
AcDbSpline
 70
8
 71
3
 72
8
 73
4
 74
0
 40
0
 40
0
 40
0
 40
0
 40
1
 40
1
 40
1
 40
1
 10
87.767680
 20
-41.014522
 30
0.0
 10
87.580132
 20
-40.826983
 30
0.0
 10
87.325763
 20
-40.721633
 30
0.0
 10
87.060536
 20
-40.721650
 30
0.0
  0
LWPOLYLINE
  5
25f
100
AcDbEntity
  8
0
 62
7
100
AcDbPolyline
 90
2
 70
0
 10
108.398047
 20
-35.671647
 30
0.0
 10
120.398054
 20
-35.671647
 30
0.0
  0
LWPOLYLINE
  5
260
100
AcDbEntity
  8
0
 62
7
100
AcDbPolyline
 90
2
 70
0
 10
112.160550
 20
-41.721650
 30
0.0
 10
112.160550
 20
-53.721657
 30
0.0
  0
LWPOLYLINE
  5
261
100
AcDbEntity
  8
0
 62
7
100
AcDbPolyline
 90
2
 70
0
 10
202.648098
 20
-22.671640
 30
0.0
 10
202.648098
 20
-34.671646
 30
0.0
  0
SPLINE
  5
262
100
AcDbEntity
  8
0
 62
7
100
AcDbSpline
 70
8
 71
3
 72
8
 73
4
 74
0
 40
0
 40
0
 40
0
 40
0
 40
1
 40
1
 40
1
 40
1
 10
6.099116
 20
-74.527015
 30
0.0
 10
6.099070
 20
-74.152008
 30
0.0
 10
5.889260
 20
-73.808534
 30
0.0
 10
5.555633
 20
-73.637293
 30
0.0
  0
SPLINE
  5
263
100
AcDbEntity
  8
0
 62
7
100
AcDbSpline
 70
8
 71
3
 72
8
 73
4
 74
0
 40
0
 40
0
 40
0
 40
0
 40
1
 40
1
 40
1
 40
1
 10
6.004242
 20
-78.821680
 30
0.0
 10
5.739024
 20
-78.821669
 30
0.0
 10
5.484664
 20
-78.927021
 30
0.0
 10
5.297126
 20
-79.114558
 30
0.0
  0
SPLINE
  5
264
100
AcDbEntity
  8
0
 62
7
100
AcDbSpline
 70
8
 71
3
 72
8
 73
4
 74
0
 40
0
 40
0
 40
0
 40
0
 40
1
 40
1
 40
1
 40
1
 10
5.297126
 20
-79.114558
 30
0.0
 10
5.109587
 20
-79.302095
 30
0.0
 10
5.004233
 20
-79.556453
 30
0.0
 10
5.004241
 20
-79.821671
 30
0.0
  0
LWPOLYLINE
  5
265
100
AcDbEntity
  8
0
 62
7
100
AcDbPolyline
 90
2
 70
0
 10
153.735572
 20
-59.771660
 30
0.0
 10
141.735565
 20
-59.771660
 30
0.0
  0
SPLINE
  5
266
100
AcDbEntity
  8
0
 62
7
100
AcDbSpline
 70
8
 71
3
 72
8
 73
4
 74
0
 40
0
 40
0
 40
0
 40
0
 40
1
 40
1
 40
1
 40
1
 10
77.535531
 20
-73.771671
 30
0.0
 10
77.800754
 20
-73.771690
 30
0.0
 10
78.055119
 20
-73.666338
 30
0.0
 10
78.242660
 20
-73.478797
 30
0.0
  0
SPLINE
  5
267
100
AcDbEntity
  8
0
 62
7
100
AcDbSpline
 70
8
 71
3
 72
8
 73
4
 74
0
 40
0
 40
0
 40
0
 40
0
 40
1
 40
1
 40
1
 40
1
 10
78.242660
 20
-73.478797
 30
0.0
 10
78.430200
 20
-73.291256
 30
0.0
 10
78.535551
 20
-73.036890
 30
0.0
 10
78.535532
 20
-72.771667
 30
0.0
  0
LWPOLYLINE
  5
268
100
AcDbEntity
  8
0
 62
7
100
AcDbPolyline
 90
2
 70
0
 10
149.973070
 20
-91.821677
 30
0.0
 10
149.973070
 20
-79.821671
 30
0.0
  0
SPLINE
  5
269
100
AcDbEntity
  8
0
 62
7
100
AcDbSpline
 70
8
 71
3
 72
8
 73
4
 74
0
 40
0
 40
0
 40
0
 40
0
 40
1
 40
1
 40
1
 40
1
 10
7.385493
 20
-34.671646
 30
0.0
 10
7.385497
 20
-35.223929
 30
0.0
 10
7.833210
 20
-35.671642
 30
0.0
 10
8.385493
 20
-35.671646
 30
0.0
  0
LWPOLYLINE
  5
26a
100
AcDbEntity
  8
0
 62
7
100
AcDbPolyline
 90
2
 70
0
 10
252.360125
 20
-18.621638
 30
0.0
 10
257.360128
 20
-18.621638
 30
0.0
  0
SPLINE
  5
26b
100
AcDbEntity
  8
0
 62
7
100
AcDbSpline
 70
8
 71
3
 72
8
 73
4
 74
0
 40
0
 40
0
 40
0
 40
0
 40
1
 40
1
 40
1
 40
1
 10
78.566127
 20
-76.821665
 30
0.0
 10
78.300909
 20
-76.821658
 30
0.0
 10
78.046552
 20
-76.927012
 30
0.0
 10
77.859014
 20
-77.114549
 30
0.0
  0
SPLINE
  5
26c
100
AcDbEntity
  8
0
 62
7
100
AcDbSpline
 70
8
 71
3
 72
8
 73
4
 74
0
 40
0
 40
0
 40
0
 40
0
 40
1
 40
1
 40
1
 40
1
 10
77.859014
 20
-77.114549
 30
0.0
 10
77.671476
 20
-77.302086
 30
0.0
 10
77.566120
 20
-77.556442
 30
0.0
 10
77.566126
 20
-77.821660
 30
0.0
  0
LWPOLYLINE
  5
26d
100
AcDbEntity
  8
0
 62
7
100
AcDbPolyline
 90
2
 70
0
 10
208.504352
 20
-78.821670
 30
0.0
 10
204.623099
 20
-78.821670
 30
0.0
  0
LWPOLYLINE
  5
26e
100
AcDbEntity
  8
0
 62
7
100
AcDbPolyline
 90
2
 70
0
 10
215.648105
 20
-21.671639
 30
0.0
 10
203.648099
 20
-21.671639
 30
0.0
  0
SPLINE
  5
26f
100
AcDbEntity
  8
0
 62
7
100
AcDbSpline
 70
8
 71
3
 72
8
 73
4
 74
0
 40
0
 40
0
 40
0
 40
0
 40
1
 40
1
 40
1
 40
1
 10
89.348037
 20
-21.671675
 30
0.0
 10
89.082823
 20
-21.671666
 30
0.0
 10
88.828469
 20
-21.777014
 30
0.0
 10
88.640931
 20
-21.964545
 30
0.0
  0
SPLINE
  5
270
100
AcDbEntity
  8
0
 62
7
100
AcDbSpline
 70
8
 71
3
 72
8
 73
4
 74
0
 40
0
 40
0
 40
0
 40
0
 40
1
 40
1
 40
1
 40
1
 10
88.640931
 20
-21.964545
 30
0.0
 10
88.453394
 20
-22.152076
 30
0.0
 10
88.348036
 20
-22.406427
 30
0.0
 10
88.348036
 20
-22.671640
 30
0.0
  0
LWPOLYLINE
  5
271
100
AcDbEntity
  8
0
 62
7
100
AcDbPolyline
 90
2
 70
0
 10
121.685555
 20
-60.771660
 30
0.0
 10
121.685555
 20
-72.771667
 30
0.0
  0
SPLINE
  5
272
100
AcDbEntity
  8
0
 62
7
100
AcDbSpline
 70
8
 71
3
 72
8
 73
4
 74
0
 40
0
 40
0
 40
0
 40
0
 40
1
 40
1
 40
1
 40
1
 10
69.010489
 20
-41.721650
 30
0.0
 10
69.010495
 20
-41.169378
 30
0.0
 10
68.562799
 20
-40.721665
 30
0.0
 10
68.010526
 20
-40.721650
 30
0.0
  0
SPLINE
  5
273
100
AcDbEntity
  8
0
 62
7
100
AcDbSpline
 70
8
 71
3
 72
8
 73
4
 74
0
 40
0
 40
0
 40
0
 40
0
 40
1
 40
1
 40
1
 40
1
 10
107.134883
 20
-76.821622
 30
0.0
 10
106.582603
 20
-76.821632
 30
0.0
 10
106.134893
 20
-77.269341
 30
0.0
 10
106.134883
 20
-77.821621
 30
0.0
  0
SPLINE
  5
274
100
AcDbEntity
  8
0
 62
7
100
AcDbSpline
 70
8
 71
3
 72
8
 73
4
 74
0
 40
0
 40
0
 40
0
 40
0
 40
1
 40
1
 40
1
 40
1
 10
272.854881
 20
-55.721658
 30
0.0
 10
272.854886
 20
-55.456441
 30
0.0
 10
272.749532
 20
-55.202085
 30
0.0
 10
272.561995
 20
-55.014548
 30
0.0
  0
SPLINE
  5
275
100
AcDbEntity
  8
0
 62
7
100
AcDbSpline
 70
8
 71
3
 72
8
 73
4
 74
0
 40
0
 40
0
 40
0
 40
0
 40
1
 40
1
 40
1
 40
1
 10
272.561995
 20
-55.014548
 30
0.0
 10
272.374459
 20
-54.827010
 30
0.0
 10
272.120103
 20
-54.721655
 30
0.0
 10
271.854886
 20
-54.721658
 30
0.0
  0
LWPOLYLINE
  5
276
100
AcDbEntity
  8
0
 62
7
100
AcDbPolyline
 90
2
 70
0
 10
126.448057
 20
-22.671640
 30
0.0
 10
126.448057
 20
-34.671646
 30
0.0
  0
SPLINE
  5
277
100
AcDbEntity
  8
0
 62
7
100
AcDbSpline
 70
8
 71
3
 72
8
 73
4
 74
0
 40
0
 40
0
 40
0
 40
0
 40
1
 40
1
 40
1
 40
1
 10
252.216375
 20
-73.771714
 30
0.0
 10
251.951160
 20
-73.771694
 30
0.0
 10
251.696802
 20
-73.877039
 30
0.0
 10
251.509263
 20
-74.064569
 30
0.0
  0
SPLINE
  5
278
100
AcDbEntity
  8
0
 62
7
100
AcDbSpline
 70
8
 71
3
 72
8
 73
4
 74
0
 40
0
 40
0
 40
0
 40
0
 40
1
 40
1
 40
1
 40
1
 10
251.509263
 20
-74.064569
 30
0.0
 10
251.321723
 20
-74.252100
 30
0.0
 10
251.216367
 20
-74.506454
 30
0.0
 10
251.216375
 20
-74.771668
 30
0.0
  0
LWPOLYLINE
  5
279
100
AcDbEntity
  8
0
 62
7
100
AcDbPolyline
 90
2
 70
0
 10
184.598089
 20
-35.671647
 30
0.0
 10
196.598095
 20
-35.671647
 30
0.0
  0
LWPOLYLINE
  5
27a
100
AcDbEntity
  8
0
 62
7
100
AcDbPolyline
 90
2
 70
0
 10
30.975133
 20
-75.747568
 30
0.0
 10
35.975133
 20
-75.747568
 30
0.0
  0
LWPOLYLINE
  5
27b
100
AcDbEntity
  8
0
 62
7
100
AcDbPolyline
 90
2
 70
0
 10
5.004242
 20
-79.821671
 30
0.0
 10
5.004242
 20
-91.821677
 30
0.0
  0
SPLINE
  5
27c
100
AcDbEntity
  8
0
 62
7
100
AcDbSpline
 70
8
 71
3
 72
8
 73
4
 74
0
 40
0
 40
0
 40
0
 40
0
 40
1
 40
1
 40
1
 40
1
 10
32.198006
 20
-21.671644
 30
0.0
 10
31.645744
 20
-21.671696
 30
0.0
 10
31.198060
 20
-22.119378
 30
0.0
 10
31.198005
 20
-22.671640
 30
0.0
  0
LWPOLYLINE
  5
27d
100
AcDbEntity
  8
0
 62
7
100
AcDbPolyline
 90
2
 70
0
 10
22.673001
 20
-16.621637
 30
0.0
 10
34.673008
 20
-16.621637
 30
0.0
  0
LWPOLYLINE
  5
27e
100
AcDbEntity
  8
0
 62
7
100
AcDbPolyline
 90
2
 70
0
 10
249.973933
 20
-56.722969
 30
0.0
 10
254.978877
 20
-56.721658
 30
0.0
  0
SPLINE
  5
27f
100
AcDbEntity
  8
0
 62
7
100
AcDbSpline
 70
8
 71
3
 72
8
 73
4
 74
0
 40
0
 40
0
 40
0
 40
0
 40
1
 40
1
 40
1
 40
1
 10
120.398054
 20
-35.671694
 30
0.0
 10
120.950345
 20
-35.671665
 30
0.0
 10
121.398051
 20
-35.223938
 30
0.0
 10
121.398055
 20
-34.671646
 30
0.0
  0
LWPOLYLINE
  5
280
100
AcDbEntity
  8
0
 62
7
100
AcDbPolyline
 90
2
 70
0
 10
201.360598
 20
-40.721650
 30
0.0
 10
189.360591
 20
-40.721650
 30
0.0
  0
LWPOLYLINE
  5
281
100
AcDbEntity
  8
0
 62
7
100
AcDbPolyline
 90
2
 70
0
 10
120.398054
 20
-21.671639
 30
0.0
 10
108.398047
 20
-21.671639
 30
0.0
  0
SPLINE
  5
282
100
AcDbEntity
  8
0
 62
7
100
AcDbSpline
 70
8
 71
3
 72
8
 73
4
 74
0
 40
0
 40
0
 40
0
 40
0
 40
1
 40
1
 40
1
 40
1
 10
83.585571
 20
-72.771667
 30
0.0
 10
83.585586
 20
-73.323932
 30
0.0
 10
84.033271
 20
-73.771632
 30
0.0
 10
84.585535
 20
-73.771668
 30
0.0
  0
SPLINE
  5
283
100
AcDbEntity
  8
0
 62
7
100
AcDbSpline
 70
8
 71
3
 72
8
 73
4
 74
0
 40
0
 40
0
 40
0
 40
0
 40
1
 40
1
 40
1
 40
1
 10
203.623070
 20
-77.821670
 30
0.0
 10
203.623078
 20
-77.556456
 30
0.0
 10
203.517728
 20
-77.302102
 30
0.0
 10
203.330196
 20
-77.114564
 30
0.0
  0
SPLINE
  5
284
100
AcDbEntity
  8
0
 62
7
100
AcDbSpline
 70
8
 71
3
 72
8
 73
4
 74
0
 40
0
 40
0
 40
0
 40
0
 40
1
 40
1
 40
1
 40
1
 10
203.330196
 20
-77.114564
 30
0.0
 10
203.142664
 20
-76.927026
 30
0.0
 10
202.888312
 20
-76.821669
 30
0.0
 10
202.623098
 20
-76.821669
 30
0.0
  0
LWPOLYLINE
  5
285
100
AcDbEntity
  8
0
 62
7
100
AcDbPolyline
 90
2
 70
0
 10
150.260570
 20
-41.721650
 30
0.0
 10
150.260570
 20
-53.721657
 30
0.0
  0
LWPOLYLINE
  5
286
100
AcDbEntity
  8
0
 62
7
100
AcDbPolyline
 90
2
 70
0
 10
41.723011
 20
-16.621637
 30
0.0
 10
53.723018
 20
-16.621637
 30
0.0
  0
SPLINE
  5
287
100
AcDbEntity
  8
0
 62
7
100
AcDbSpline
 70
8
 71
3
 72
8
 73
4
 74
0
 40
0
 40
0
 40
0
 40
0
 40
1
 40
1
 40
1
 40
1
 10
116.923102
 20
-15.621636
 30
0.0
 10
116.923100
 20
-16.173903
 30
0.0
 10
117.370787
 20
-16.621611
 30
0.0
 10
117.923053
 20
-16.621637
 30
0.0
  0
LWPOLYLINE
  5
288
100
AcDbEntity
  8
0
 62
7
100
AcDbPolyline
 90
2
 70
0
 10
196.504345
 20
-92.821678
 30
0.0
 10
208.504352
 20
-92.821678
 30
0.0
  0
SPLINE
  5
289
100
AcDbEntity
  8
0
 62
7
100
AcDbSpline
 70
8
 71
3
 72
8
 73
4
 74
0
 40
0
 40
0
 40
0
 40
0
 40
1
 40
1
 40
1
 40
1
 10
191.835593
 20
-73.771733
 30
0.0
 10
192.387882
 20
-73.771682
 30
0.0
 10
192.835579
 20
-73.323957
 30
0.0
 10
192.835594
 20
-72.771667
 30
0.0
  0
LWPOLYLINE
  5
28a
100
AcDbEntity
  8
0
 62
7
100
AcDbPolyline
 90
2
 70
0
 10
229.935613
 20
-59.771660
 30
0.0
 10
217.935607
 20
-59.771660
 30
0.0
  0
SPLINE
  5
28b
100
AcDbEntity
  8
0
 62
7
100
AcDbSpline
 70
8
 71
3
 72
8
 73
4
 74
0
 40
0
 40
0
 40
0
 40
0
 40
1
 40
1
 40
1
 40
1
 10
60.773022
 20
-2.621560
 30
0.0
 10
60.220750
 20
-2.621659
 30
0.0
 10
59.773081
 20
-3.069359
 30
0.0
 10
59.773021
 20
-3.621630
 30
0.0
  0
LWPOLYLINE
  5
28c
100
AcDbEntity
  8
0
 62
7
100
AcDbPolyline
 90
2
 70
0
 10
207.410601
 20
-41.721650
 30
0.0
 10
207.410601
 20
-53.721657
 30
0.0
  0
SPLINE
  5
28d
100
AcDbEntity
  8
0
 62
7
100
AcDbSpline
 70
8
 71
3
 72
8
 73
4
 74
0
 40
0
 40
0
 40
0
 40
0
 40
1
 40
1
 40
1
 40
1
 10
197.598100
 20
-22.671640
 30
0.0
 10
197.598100
 20
-22.406423
 30
0.0
 10
197.492743
 20
-22.152068
 30
0.0
 10
197.305205
 20
-21.964531
 30
0.0
  0
SPLINE
  5
28e
100
AcDbEntity
  8
0
 62
7
100
AcDbSpline
 70
8
 71
3
 72
8
 73
4
 74
0
 40
0
 40
0
 40
0
 40
0
 40
1
 40
1
 40
1
 40
1
 10
197.305205
 20
-21.964531
 30
0.0
 10
197.117668
 20
-21.776994
 30
0.0
 10
196.863313
 20
-21.671638
 30
0.0
 10
196.598095
 20
-21.671639
 30
0.0
  0
SPLINE
  5
28f
100
AcDbEntity
  8
0
 62
7
100
AcDbSpline
 70
8
 71
3
 72
8
 73
4
 74
0
 40
0
 40
0
 40
0
 40
0
 40
1
 40
1
 40
1
 40
1
 10
22.766751
 20
-54.721690
 30
0.0
 10
23.319037
 20
-54.721662
 30
0.0
 10
23.766741
 20
-54.273943
 30
0.0
 10
23.766751
 20
-53.721657
 30
0.0
  0
LWPOLYLINE
  5
290
100
AcDbEntity
  8
0
 62
7
100
AcDbPolyline
 90
2
 70
0
 10
269.092384
 20
-75.771669
 30
0.0
 10
274.092387
 20
-75.771669
 30
0.0
  0
LWPOLYLINE
  5
291
100
AcDbEntity
  8
0
 62
7
100
AcDbPolyline
 90
2
 70
0
 10
246.505683
 20
-54.722969
 30
0.0
 10
247.973933
 20
-54.722969
 30
0.0
  0
LWPOLYLINE
  5
292
100
AcDbEntity
  8
0
 62
7
100
AcDbPolyline
 90
2
 70
0
 10
189.360591
 20
-54.721657
 30
0.0
 10
201.360598
 20
-54.721657
 30
0.0
  0
SPLINE
  5
293
100
AcDbEntity
  8
0
 62
7
100
AcDbSpline
 70
8
 71
3
 72
8
 73
4
 74
0
 40
0
 40
0
 40
0
 40
0
 40
1
 40
1
 40
1
 40
1
 10
243.124379
 20
-72.771667
 30
0.0
 10
243.124389
 20
-73.177746
 30
0.0
 10
243.331878
 20
-73.555669
 30
0.0
 10
243.674491
 20
-73.773650
 30
0.0
  0
SPLINE
  5
294
100
AcDbEntity
  8
0
 62
7
100
AcDbSpline
 70
8
 71
3
 72
8
 73
4
 74
0
 40
0
 40
0
 40
0
 40
0
 40
1
 40
1
 40
1
 40
1
 10
113.135288
 20
-77.821652
 30
0.0
 10
113.135291
 20
-77.556424
 30
0.0
 10
113.029927
 20
-77.302058
 30
0.0
 10
112.842376
 20
-77.114519
 30
0.0
  0
SPLINE
  5
295
100
AcDbEntity
  8
0
 62
7
100
AcDbSpline
 70
8
 71
3
 72
8
 73
4
 74
0
 40
0
 40
0
 40
0
 40
0
 40
1
 40
1
 40
1
 40
1
 10
112.842376
 20
-77.114519
 30
0.0
 10
112.654826
 20
-76.926980
 30
0.0
 10
112.400454
 20
-76.821631
 30
0.0
 10
112.135225
 20
-76.821651
 30
0.0
  0
SPLINE
  5
296
100
AcDbEntity
  8
0
 62
7
100
AcDbSpline
 70
8
 71
3
 72
8
 73
4
 74
0
 40
0
 40
0
 40
0
 40
0
 40
1
 40
1
 40
1
 40
1
 10
282.324389
 20
-73.771729
 30
0.0
 10
282.876678
 20
-73.771680
 30
0.0
 10
283.324375
 20
-73.323956
 30
0.0
 10
283.324390
 20
-72.771667
 30
0.0
  0
LWPOLYLINE
  5
297
100
AcDbEntity
  8
0
 62
7
100
AcDbPolyline
 90
2
 70
0
 10
101.348044
 20
-21.671639
 30
0.0
 10
89.348037
 20
-21.671639
 30
0.0
  0
LWPOLYLINE
  5
298
100
AcDbEntity
  8
0
 62
7
100
AcDbPolyline
 90
2
 70
0
 10
165.548078
 20
-35.671647
 30
0.0
 10
177.548085
 20
-35.671647
 30
0.0
  0
SPLINE
  5
299
100
AcDbEntity
  8
0
 62
7
100
AcDbSpline
 70
8
 71
3
 72
8
 73
4
 74
0
 40
0
 40
0
 40
0
 40
0
 40
1
 40
1
 40
1
 40
1
 10
217.935607
 20
-59.771746
 30
0.0
 10
217.383377
 20
-59.771798
 30
0.0
 10
216.935706
 20
-60.219430
 30
0.0
 10
216.935607
 20
-60.771660
 30
0.0
  0
LWPOLYLINE
  5
29a
100
AcDbEntity
  8
0
 62
7
100
AcDbPolyline
 90
2
 70
0
 10
191.835593
 20
-59.771660
 30
0.0
 10
179.835586
 20
-59.771660
 30
0.0
  0
LWPOLYLINE
  5
29b
100
AcDbEntity
  8
0
 62
7
100
AcDbPolyline
 90
2
 70
0
 10
241.748119
 20
-92.821678
 30
0.0
 10
256.129377
 20
-92.821678
 30
0.0
  0
SPLINE
  5
29c
100
AcDbEntity
  8
0
 62
7
100
AcDbSpline
 70
8
 71
3
 72
8
 73
4
 74
0
 40
0
 40
0
 40
0
 40
0
 40
1
 40
1
 40
1
 40
1
 10
105.428933
 20
-91.821626
 30
0.0
 10
105.071673
 20
-91.821650
 30
0.0
 10
104.741557
 20
-92.012244
 30
0.0
 10
104.562908
 20
-92.321629
 30
0.0
  0
SPLINE
  5
29d
100
AcDbEntity
  8
0
 62
7
100
AcDbSpline
 70
8
 71
3
 72
8
 73
4
 74
0
 40
0
 40
0
 40
0
 40
0
 40
1
 40
1
 40
1
 40
1
 10
8.385493
 20
-21.671731
 30
0.0
 10
7.833245
 20
-21.671735
 30
0.0
 10
7.385547
 20
-22.119393
 30
0.0
 10
7.385492
 20
-22.671640
 30
0.0
  0
SPLINE
  5
29e
100
AcDbEntity
  8
0
 62
7
100
AcDbSpline
 70
8
 71
3
 72
8
 73
4
 74
0
 40
0
 40
0
 40
0
 40
0
 40
1
 40
1
 40
1
 40
1
 10
280.436950
 20
-45.064023
 30
0.0
 10
280.127546
 20
-45.242642
 30
0.0
 10
279.936940
 20
-45.572759
 30
0.0
 10
279.936933
 20
-45.930019
 30
0.0
  0
LWPOLYLINE
  5
29f
100
AcDbEntity
  8
0
 62
7
100
AcDbPolyline
 90
2
 70
0
 10
213.173104
 20
-16.621637
 30
0.0
 10
225.173111
 20
-16.621637
 30
0.0
  0
LWPOLYLINE
  5
2a0
100
AcDbEntity
  8
0
 62
7
100
AcDbPolyline
 90
2
 70
0
 10
116.923052
 20
-3.621630
 30
0.0
 10
116.923052
 20
-15.621636
 30
0.0
  0
LWPOLYLINE
  5
2a1
100
AcDbEntity
  8
0
 62
7
100
AcDbPolyline
 90
2
 70
0
 10
148.973069
 20
-78.821670
 30
0.0
 10
125.066806
 20
-78.821670
 30
0.0
  0
LWPOLYLINE
  5
2a2
100
AcDbEntity
  8
0
 62
7
100
AcDbPolyline
 90
2
 70
0
 10
227.460612
 20
-54.721657
 30
0.0
 10
239.460618
 20
-54.721657
 30
0.0
  0
LWPOLYLINE
  5
2a3
100
AcDbEntity
  8
0
 62
7
100
AcDbPolyline
 90
2
 70
0
 10
69.010526
 20
-53.721657
 30
0.0
 10
69.010526
 20
-41.721650
 30
0.0
  0
SPLINE
  5
2a4
100
AcDbEntity
  8
0
 62
7
100
AcDbSpline
 70
8
 71
3
 72
8
 73
4
 74
0
 40
0
 40
0
 40
0
 40
0
 40
1
 40
1
 40
1
 40
1
 10
257.129369
 20
-79.821671
 30
0.0
 10
257.129377
 20
-79.556454
 30
0.0
 10
257.024025
 20
-79.302096
 30
0.0
 10
256.836488
 20
-79.114558
 30
0.0
  0
SPLINE
  5
2a5
100
AcDbEntity
  8
0
 62
7
100
AcDbSpline
 70
8
 71
3
 72
8
 73
4
 74
0
 40
0
 40
0
 40
0
 40
0
 40
1
 40
1
 40
1
 40
1
 10
256.836488
 20
-79.114558
 30
0.0
 10
256.648952
 20
-78.927020
 30
0.0
 10
256.394595
 20
-78.821664
 30
0.0
 10
256.129377
 20
-78.821670
 30
0.0
  0
SPLINE
  5
2a6
100
AcDbEntity
  8
0
 62
7
100
AcDbSpline
 70
8
 71
3
 72
8
 73
4
 74
0
 40
0
 40
0
 40
0
 40
0
 40
1
 40
1
 40
1
 40
1
 10
212.173103
 20
-15.621636
 30
0.0
 10
212.173102
 20
-15.886853
 30
0.0
 10
212.278459
 20
-16.141208
 30
0.0
 10
212.465996
 20
-16.328744
 30
0.0
  0
SPLINE
  5
2a7
100
AcDbEntity
  8
0
 62
7
100
AcDbSpline
 70
8
 71
3
 72
8
 73
4
 74
0
 40
0
 40
0
 40
0
 40
0
 40
1
 40
1
 40
1
 40
1
 10
212.465996
 20
-16.328744
 30
0.0
 10
212.653532
 20
-16.516281
 30
0.0
 10
212.907887
 20
-16.621637
 30
0.0
 10
213.173104
 20
-16.621636
 30
0.0
  0
SPLINE
  5
2a8
100
AcDbEntity
  8
0
 62
7
100
AcDbSpline
 70
8
 71
3
 72
8
 73
4
 74
0
 40
0
 40
0
 40
0
 40
0
 40
1
 40
1
 40
1
 40
1
 10
90.830880
 20
-92.321612
 30
0.0
 10
90.652220
 20
-92.012224
 30
0.0
 10
90.322090
 20
-91.821637
 30
0.0
 10
89.964823
 20
-91.821628
 30
0.0
  0
SPLINE
  5
2a9
100
AcDbEntity
  8
0
 62
7
100
AcDbSpline
 70
8
 71
3
 72
8
 73
4
 74
0
 40
0
 40
0
 40
0
 40
0
 40
1
 40
1
 40
1
 40
1
 10
154.690483
 20
-76.821622
 30
0.0
 10
154.138196
 20
-76.821632
 30
0.0
 10
153.690483
 20
-77.269352
 30
0.0
 10
153.690483
 20
-77.821639
 30
0.0
  0
LWPOLYLINE
  5
2aa
100
AcDbEntity
  8
0
 62
7
100
AcDbPolyline
 90
2
 70
0
 10
46.485514
 20
-73.771668
 30
0.0
 10
58.485521
 20
-73.771668
 30
0.0
  0
SPLINE
  5
2ab
100
AcDbEntity
  8
0
 62
7
100
AcDbSpline
 70
8
 71
3
 72
8
 73
4
 74
0
 40
0
 40
0
 40
0
 40
0
 40
1
 40
1
 40
1
 40
1
 10
117.923053
 20
-2.621691
 30
0.0
 10
117.657843
 20
-2.621677
 30
0.0
 10
117.403490
 20
-2.727021
 30
0.0
 10
117.215952
 20
-2.914547
 30
0.0
  0
SPLINE
  5
2ac
100
AcDbEntity
  8
0
 62
7
100
AcDbSpline
 70
8
 71
3
 72
8
 73
4
 74
0
 40
0
 40
0
 40
0
 40
0
 40
1
 40
1
 40
1
 40
1
 10
117.215952
 20
-2.914547
 30
0.0
 10
117.028414
 20
-3.102074
 30
0.0
 10
116.923054
 20
-3.356420
 30
0.0
 10
116.923052
 20
-3.621630
 30
0.0
  0
LWPOLYLINE
  5
2ad
100
AcDbEntity
  8
0
 62
7
100
AcDbPolyline
 90
2
 70
0
 10
89.348037
 20
-35.671647
 30
0.0
 10
101.348044
 20
-35.671647
 30
0.0
  0
SPLINE
  5
2ae
100
AcDbEntity
  8
0
 62
7
100
AcDbSpline
 70
8
 71
3
 72
8
 73
4
 74
0
 40
0
 40
0
 40
0
 40
0
 40
1
 40
1
 40
1
 40
1
 10
92.823109
 20
-3.621630
 30
0.0
 10
92.823107
 20
-3.356402
 30
0.0
 10
92.717739
 20
-3.102039
 30
0.0
 10
92.530188
 20
-2.914501
 30
0.0
  0
SPLINE
  5
2af
100
AcDbEntity
  8
0
 62
7
100
AcDbSpline
 70
8
 71
3
 72
8
 73
4
 74
0
 40
0
 40
0
 40
0
 40
0
 40
1
 40
1
 40
1
 40
1
 10
92.530188
 20
-2.914501
 30
0.0
 10
92.342637
 20
-2.726964
 30
0.0
 10
92.088267
 20
-2.621614
 30
0.0
 10
91.823039
 20
-2.621630
 30
0.0
  0
SPLINE
  5
2b0
100
AcDbEntity
  8
0
 62
7
100
AcDbSpline
 70
8
 71
3
 72
8
 73
4
 74
0
 40
0
 40
0
 40
0
 40
0
 40
1
 40
1
 40
1
 40
1
 10
69.297992
 20
-34.671646
 30
0.0
 10
69.297994
 20
-34.936868
 30
0.0
 10
69.403356
 20
-35.191227
 30
0.0
 10
69.590900
 20
-35.378764
 30
0.0
  0
SPLINE
  5
2b1
100
AcDbEntity
  8
0
 62
7
100
AcDbSpline
 70
8
 71
3
 72
8
 73
4
 74
0
 40
0
 40
0
 40
0
 40
0
 40
1
 40
1
 40
1
 40
1
 10
69.590900
 20
-35.378764
 30
0.0
 10
69.778443
 20
-35.566301
 30
0.0
 10
70.032805
 20
-35.671654
 30
0.0
 10
70.298027
 20
-35.671647
 30
0.0
  0
LWPOLYLINE
  5
2b2
100
AcDbEntity
  8
0
 62
7
100
AcDbPolyline
 90
2
 70
0
 10
14.099133
 20
-73.747568
 30
0.0
 10
28.975133
 20
-73.747568
 30
0.0
  0
LWPOLYLINE
  5
2b3
100
AcDbEntity
  8
0
 62
7
100
AcDbPolyline
 90
2
 70
0
 10
154.735572
 20
-72.771667
 30
0.0
 10
154.735572
 20
-60.771660
 30
0.0
  0
LWPOLYLINE
  5
2b4
100
AcDbEntity
  8
0
 62
7
100
AcDbPolyline
 90
2
 70
0
 10
232.223114
 20
-16.621637
 30
0.0
 10
244.223121
 20
-16.621637
 30
0.0
  0
LWPOLYLINE
  5
2b5
100
AcDbEntity
  8
0
 62
7
100
AcDbPolyline
 90
2
 70
0
 10
45.198013
 20
-34.671646
 30
0.0
 10
45.198013
 20
-22.671640
 30
0.0
  0
LWPOLYLINE
  5
2b6
100
AcDbEntity
  8
0
 62
7
100
AcDbPolyline
 90
2
 70
0
 10
208.410601
 20
-54.721657
 30
0.0
 10
220.410608
 20
-54.721657
 30
0.0
  0
SPLINE
  5
2b7
100
AcDbEntity
  8
0
 62
7
100
AcDbSpline
 70
8
 71
3
 72
8
 73
4
 74
0
 40
0
 40
0
 40
0
 40
0
 40
1
 40
1
 40
1
 40
1
 10
163.260577
 20
-54.721716
 30
0.0
 10
163.812867
 20
-54.721674
 30
0.0
 10
164.260567
 20
-54.273948
 30
0.0
 10
164.260577
 20
-53.721657
 30
0.0
  0
SPLINE
  5
2b8
100
AcDbEntity
  8
0
 62
7
100
AcDbSpline
 70
8
 71
3
 72
8
 73
4
 74
0
 40
0
 40
0
 40
0
 40
0
 40
1
 40
1
 40
1
 40
1
 10
41.723011
 20
-2.621649
 30
0.0
 10
41.170754
 20
-2.621698
 30
0.0
 10
40.723070
 20
-3.069373
 30
0.0
 10
40.723010
 20
-3.621630
 30
0.0
  0
SPLINE
  5
2b9
100
AcDbEntity
  8
0
 62
7
100
AcDbSpline
 70
8
 71
3
 72
8
 73
4
 74
0
 40
0
 40
0
 40
0
 40
0
 40
1
 40
1
 40
1
 40
1
 10
196.598095
 20
-35.671635
 30
0.0
 10
196.863326
 20
-35.671690
 30
0.0
 10
197.117710
 20
-35.566352
 30
0.0
 10
197.305258
 20
-35.378806
 30
0.0
  0
SPLINE
  5
2ba
100
AcDbEntity
  8
0
 62
7
100
AcDbSpline
 70
8
 71
3
 72
8
 73
4
 74
0
 40
0
 40
0
 40
0
 40
0
 40
1
 40
1
 40
1
 40
1
 10
197.305258
 20
-35.378806
 30
0.0
 10
197.492806
 20
-35.191260
 30
0.0
 10
197.598147
 20
-34.936878
 30
0.0
 10
197.598096
 20
-34.671646
 30
0.0
  0
SPLINE
  5
2bb
100
AcDbEntity
  8
0
 62
7
100
AcDbSpline
 70
8
 71
3
 72
8
 73
4
 74
0
 40
0
 40
0
 40
0
 40
0
 40
1
 40
1
 40
1
 40
1
 10
116.635580
 20
-60.771660
 30
0.0
 10
116.635586
 20
-60.506437
 30
0.0
 10
116.530227
 20
-60.252075
 30
0.0
 10
116.342683
 20
-60.064537
 30
0.0
  0
SPLINE
  5
2bc
100
AcDbEntity
  8
0
 62
7
100
AcDbSpline
 70
8
 71
3
 72
8
 73
4
 74
0
 40
0
 40
0
 40
0
 40
0
 40
1
 40
1
 40
1
 40
1
 10
116.342683
 20
-60.064537
 30
0.0
 10
116.155139
 20
-59.876998
 30
0.0
 10
115.900774
 20
-59.771646
 30
0.0
 10
115.635551
 20
-59.771659
 30
0.0
  0
SPLINE
  5
2bd
100
AcDbEntity
  8
0
 62
7
100
AcDbSpline
 70
8
 71
3
 72
8
 73
4
 74
0
 40
0
 40
0
 40
0
 40
0
 40
1
 40
1
 40
1
 40
1
 10
162.262467
 20
-92.321644
 30
0.0
 10
162.441099
 20
-92.631044
 30
0.0
 10
162.771224
 20
-92.821644
 30
0.0
 10
163.128488
 20
-92.821648
 30
0.0
  0
LWPOLYLINE
  5
2be
100
AcDbEntity
  8
0
 62
7
100
AcDbPolyline
 90
2
 70
0
 10
221.410608
 20
-53.721657
 30
0.0
 10
221.410608
 20
-41.721650
 30
0.0
  0
LWPOLYLINE
  5
2bf
100
AcDbEntity
  8
0
 62
7
100
AcDbPolyline
 90
2
 70
0
 10
60.773022
 20
-16.621637
 30
0.0
 10
72.773028
 20
-16.621637
 30
0.0
  0
LWPOLYLINE
  5
2c0
100
AcDbEntity
  8
0
 62
7
100
AcDbPolyline
 90
2
 70
0
 10
266.936933
 20
-39.722969
 30
0.0
 10
266.936933
 20
-36.672969
 30
0.0
  0
SPLINE
  5
2c1
100
AcDbEntity
  8
0
 62
7
100
AcDbSpline
 70
8
 71
3
 72
8
 73
4
 74
0
 40
0
 40
0
 40
0
 40
0
 40
1
 40
1
 40
1
 40
1
 10
77.566072
 20
-90.821667
 30
0.0
 10
77.566087
 20
-91.373967
 30
0.0
 10
78.013827
 20
-91.821682
 30
0.0
 10
78.566127
 20
-91.821667
 30
0.0
  0
SPLINE
  5
2c2
100
AcDbEntity
  8
0
 62
7
100
AcDbSpline
 70
8
 71
3
 72
8
 73
4
 74
0
 40
0
 40
0
 40
0
 40
0
 40
1
 40
1
 40
1
 40
1
 10
178.835572
 20
-72.771667
 30
0.0
 10
178.835587
 20
-73.323951
 30
0.0
 10
179.283302
 20
-73.771660
 30
0.0
 10
179.835586
 20
-73.771667
 30
0.0
  0
LWPOLYLINE
  5
2c3
100
AcDbEntity
  8
0
 62
7
100
AcDbPolyline
 90
2
 70
0
 10
217.935607
 20
-73.771668
 30
0.0
 10
229.935613
 20
-73.771668
 30
0.0
  0
LWPOLYLINE
  5
2c4
100
AcDbEntity
  8
0
 62
7
100
AcDbPolyline
 90
2
 70
0
 10
285.850000
 20
-2.480889
 30
0.0
 10
285.850000
 20
-92.962389
 30
0.0
  0
SPLINE
  5
2c5
100
AcDbEntity
  8
0
 62
7
100
AcDbSpline
 70
8
 71
3
 72
8
 73
4
 74
0
 40
0
 40
0
 40
0
 40
0
 40
1
 40
1
 40
1
 40
1
 10
211.885579
 20
-60.771660
 30
0.0
 10
211.885585
 20
-60.506446
 30
0.0
 10
211.780233
 20
-60.252093
 30
0.0
 10
211.592700
 20
-60.064556
 30
0.0
  0
SPLINE
  5
2c6
100
AcDbEntity
  8
0
 62
7
100
AcDbSpline
 70
8
 71
3
 72
8
 73
4
 74
0
 40
0
 40
0
 40
0
 40
0
 40
1
 40
1
 40
1
 40
1
 10
211.592700
 20
-60.064556
 30
0.0
 10
211.405168
 20
-59.877019
 30
0.0
 10
211.150817
 20
-59.771661
 30
0.0
 10
210.885603
 20
-59.771660
 30
0.0
  0
SPLINE
  5
2c7
100
AcDbEntity
  8
0
 62
7
100
AcDbSpline
 70
8
 71
3
 72
8
 73
4
 74
0
 40
0
 40
0
 40
0
 40
0
 40
1
 40
1
 40
1
 40
1
 10
215.648105
 20
-35.671645
 30
0.0
 10
215.913329
 20
-35.671671
 30
0.0
 10
216.167698
 20
-35.566322
 30
0.0
 10
216.355240
 20
-35.378780
 30
0.0
  0
SPLINE
  5
2c8
100
AcDbEntity
  8
0
 62
7
100
AcDbSpline
 70
8
 71
3
 72
8
 73
4
 74
0
 40
0
 40
0
 40
0
 40
0
 40
1
 40
1
 40
1
 40
1
 10
216.355240
 20
-35.378780
 30
0.0
 10
216.542782
 20
-35.191239
 30
0.0
 10
216.648131
 20
-34.936870
 30
0.0
 10
216.648106
 20
-34.671646
 30
0.0
  0
LWPOLYLINE
  5
2c9
100
AcDbEntity
  8
0
 62
7
100
AcDbPolyline
 90
2
 70
0
 10
251.360121
 20
-17.401076
 30
0.0
 10
251.360125
 20
-17.621637
 30
0.0
  0
LWPOLYLINE
  5
2ca
100
AcDbEntity
  8
0
 62
7
100
AcDbPolyline
 90
2
 70
0
 10
5.004242
 20
-41.721650
 30
0.0
 10
5.004242
 20
-53.721657
 30
0.0
  0
LWPOLYLINE
  5
2cb
100
AcDbEntity
  8
0
 62
7
100
AcDbPolyline
 90
2
 70
0
 10
6.012133
 20
-59.747569
 30
0.0
 10
39.443383
 20
-59.747569
 30
0.0
  0
LWPOLYLINE
  5
2cc
100
AcDbEntity
  8
0
 62
7
100
AcDbPolyline
 90
2
 70
0
 10
265.555682
 20
-21.672969
 30
0.0
 10
277.555683
 20
-21.672969
 30
0.0
  0
SPLINE
  5
2cd
100
AcDbEntity
  8
0
 62
7
100
AcDbSpline
 70
8
 71
3
 72
8
 73
4
 74
0
 40
0
 40
0
 40
0
 40
0
 40
1
 40
1
 40
1
 40
1
 10
154.735579
 20
-60.771660
 30
0.0
 10
154.735585
 20
-60.506441
 30
0.0
 10
154.630229
 20
-60.252083
 30
0.0
 10
154.442689
 20
-60.064545
 30
0.0
  0
SPLINE
  5
2ce
100
AcDbEntity
  8
0
 62
7
100
AcDbSpline
 70
8
 71
3
 72
8
 73
4
 74
0
 40
0
 40
0
 40
0
 40
0
 40
1
 40
1
 40
1
 40
1
 10
154.442689
 20
-60.064545
 30
0.0
 10
154.255150
 20
-59.877007
 30
0.0
 10
154.000791
 20
-59.771653
 30
0.0
 10
153.735572
 20
-59.771660
 30
0.0
  0
SPLINE
  5
2cf
100
AcDbEntity
  8
0
 62
7
100
AcDbSpline
 70
8
 71
3
 72
8
 73
4
 74
0
 40
0
 40
0
 40
0
 40
0
 40
1
 40
1
 40
1
 40
1
 10
14.099133
 20
-73.747572
 30
0.0
 10
13.546865
 20
-73.747609
 30
0.0
 10
13.099172
 20
-74.195301
 30
0.0
 10
13.099133
 20
-74.747569
 30
0.0
  0
SPLINE
  5
2d0
100
AcDbEntity
  8
0
 62
7
100
AcDbSpline
 70
8
 71
3
 72
8
 73
4
 74
0
 40
0
 40
0
 40
0
 40
0
 40
1
 40
1
 40
1
 40
1
 10
44.198013
 20
-35.671653
 30
0.0
 10
44.463238
 20
-35.671676
 30
0.0
 10
44.717606
 20
-35.566326
 30
0.0
 10
44.905148
 20
-35.378783
 30
0.0
  0
SPLINE
  5
2d1
100
AcDbEntity
  8
0
 62
7
100
AcDbSpline
 70
8
 71
3
 72
8
 73
4
 74
0
 40
0
 40
0
 40
0
 40
0
 40
1
 40
1
 40
1
 40
1
 10
44.905148
 20
-35.378783
 30
0.0
 10
45.092690
 20
-35.191240
 30
0.0
 10
45.198039
 20
-34.936871
 30
0.0
 10
45.198014
 20
-34.671646
 30
0.0
  0
LWPOLYLINE
  5
2d2
100
AcDbEntity
  8
0
 62
7
100
AcDbPolyline
 90
2
 70
0
 10
273.854887
 20
-56.721658
 30
0.0
 10
278.936933
 20
-56.722969
 30
0.0
  0
LWPOLYLINE
  5
2d3
100
AcDbEntity
  8
0
 62
7
100
AcDbPolyline
 90
2
 70
0
 10
102.348044
 20
-34.671646
 30
0.0
 10
102.348044
 20
-22.671640
 30
0.0
  0
SPLINE
  5
2d4
100
AcDbEntity
  8
0
 62
7
100
AcDbSpline
 70
8
 71
3
 72
8
 73
4
 74
0
 40
0
 40
0
 40
0
 40
0
 40
1
 40
1
 40
1
 40
1
 10
280.936927
 20
-32.197969
 30
0.0
 10
280.936902
 20
-31.840712
 30
0.0
 10
280.746313
 20
-31.510598
 30
0.0
 10
280.436933
 20
-31.331944
 30
0.0
  0
SPLINE
  5
2d5
100
AcDbEntity
  8
0
 62
7
100
AcDbSpline
 70
8
 71
3
 72
8
 73
4
 74
0
 40
0
 40
0
 40
0
 40
0
 40
1
 40
1
 40
1
 40
1
 10
5.004262
 20
-91.821677
 30
0.0
 10
5.004283
 20
-92.373946
 30
0.0
 10
5.451974
 20
-92.821645
 30
0.0
 10
6.004242
 20
-92.821677
 30
0.0
  0
SPLINE
  5
2d6
100
AcDbEntity
  8
0
 62
7
100
AcDbSpline
 70
8
 71
3
 72
8
 73
4
 74
0
 40
0
 40
0
 40
0
 40
0
 40
1
 40
1
 40
1
 40
1
 10
195.504362
 20
-91.821677
 30
0.0
 10
195.504383
 20
-92.373947
 30
0.0
 10
195.952076
 20
-92.821647
 30
0.0
 10
196.504345
 20
-92.821677
 30
0.0
  0
SPLINE
  5
2d7
100
AcDbEntity
  8
0
 62
7
100
AcDbSpline
 70
8
 71
3
 72
8
 73
4
 74
0
 40
0
 40
0
 40
0
 40
0
 40
1
 40
1
 40
1
 40
1
 10
265.560632
 20
-78.821670
 30
0.0
 10
265.295413
 20
-78.821662
 30
0.0
 10
265.041054
 20
-78.927016
 30
0.0
 10
264.853515
 20
-79.114554
 30
0.0
  0
SPLINE
  5
2d8
100
AcDbEntity
  8
0
 62
7
100
AcDbSpline
 70
8
 71
3
 72
8
 73
4
 74
0
 40
0
 40
0
 40
0
 40
0
 40
1
 40
1
 40
1
 40
1
 10
264.853515
 20
-79.114554
 30
0.0
 10
264.665977
 20
-79.302093
 30
0.0
 10
264.560623
 20
-79.556452
 30
0.0
 10
264.560631
 20
-79.821671
 30
0.0
  0
SPLINE
  5
2d9
100
AcDbEntity
  8
0
 62
7
100
AcDbSpline
 70
8
 71
3
 72
8
 73
4
 74
0
 40
0
 40
0
 40
0
 40
0
 40
1
 40
1
 40
1
 40
1
 10
268.592332
 20
-60.771655
 30
0.0
 10
268.949613
 20
-60.771715
 30
0.0
 10
269.279767
 20
-60.581103
 30
0.0
 10
269.458358
 20
-60.271661
 30
0.0
  0
SPLINE
  5
2da
100
AcDbEntity
  8
0
 62
7
100
AcDbSpline
 70
8
 71
3
 72
8
 73
4
 74
0
 40
0
 40
0
 40
0
 40
0
 40
1
 40
1
 40
1
 40
1
 10
197.885572
 20
-72.771667
 30
0.0
 10
197.885587
 20
-73.323955
 30
0.0
 10
198.333308
 20
-73.771665
 30
0.0
 10
198.885596
 20
-73.771667
 30
0.0
  0
SPLINE
  5
2db
100
AcDbEntity
  8
0
 62
7
100
AcDbSpline
 70
8
 71
3
 72
8
 73
4
 74
0
 40
0
 40
0
 40
0
 40
0
 40
1
 40
1
 40
1
 40
1
 10
184.598089
 20
-21.671627
 30
0.0
 10
184.045847
 20
-21.671744
 30
0.0
 10
183.598198
 20
-22.119399
 30
0.0
 10
183.598088
 20
-22.671640
 30
0.0
  0
LWPOLYLINE
  5
2dc
100
AcDbEntity
  8
0
 62
7
100
AcDbPolyline
 90
2
 70
0
 10
283.323121
 20
-15.621636
 30
0.0
 10
283.323121
 20
-3.621630
 30
0.0
  0
LWPOLYLINE
  5
2dd
100
AcDbEntity
  8
0
 62
7
100
AcDbPolyline
 90
2
 70
0
 10
96.585541
 20
-59.771660
 30
0.0
 10
84.585535
 20
-59.771660
 30
0.0
  0
SPLINE
  5
2de
100
AcDbEntity
  8
0
 62
7
100
AcDbSpline
 70
8
 71
3
 72
8
 73
4
 74
0
 40
0
 40
0
 40
0
 40
0
 40
1
 40
1
 40
1
 40
1
 10
201.360598
 20
-54.721637
 30
0.0
 10
201.912875
 20
-54.721638
 30
0.0
 10
202.360588
 20
-54.273935
 30
0.0
 10
202.360598
 20
-53.721657
 30
0.0
  0
LWPOLYLINE
  5
2df
100
AcDbEntity
  8
0
 62
7
100
AcDbPolyline
 90
2
 70
0
 10
69.298026
 20
-22.671640
 30
0.0
 10
69.298026
 20
-34.671646
 30
0.0
  0
LWPOLYLINE
  5
2e0
100
AcDbEntity
  8
0
 62
7
100
AcDbPolyline
 90
2
 70
0
 10
105.134882
 20
-78.821622
 30
0.0
 10
90.258874
 20
-78.821622
 30
0.0
  0
SPLINE
  5
2e1
100
AcDbEntity
  8
0
 62
7
100
AcDbSpline
 70
8
 71
3
 72
8
 73
4
 74
0
 40
0
 40
0
 40
0
 40
0
 40
1
 40
1
 40
1
 40
1
 10
178.548099
 20
-22.671640
 30
0.0
 10
178.548099
 20
-22.406421
 30
0.0
 10
178.442741
 20
-22.152065
 30
0.0
 10
178.255201
 20
-21.964528
 30
0.0
  0
SPLINE
  5
2e2
100
AcDbEntity
  8
0
 62
7
100
AcDbSpline
 70
8
 71
3
 72
8
 73
4
 74
0
 40
0
 40
0
 40
0
 40
0
 40
1
 40
1
 40
1
 40
1
 10
178.255201
 20
-21.964528
 30
0.0
 10
178.067662
 20
-21.776991
 30
0.0
 10
177.813304
 20
-21.671636
 30
0.0
 10
177.548085
 20
-21.671640
 30
0.0
  0
SPLINE
  5
2e3
100
AcDbEntity
  8
0
 62
7
100
AcDbSpline
 70
8
 71
3
 72
8
 73
4
 74
0
 40
0
 40
0
 40
0
 40
0
 40
1
 40
1
 40
1
 40
1
 10
265.936933
 20
-40.722972
 30
0.0
 10
266.489211
 20
-40.722954
 30
0.0
 10
266.936916
 20
-40.275248
 30
0.0
 10
266.936933
 20
-39.722969
 30
0.0
  0
SPLINE
  5
2e4
100
AcDbEntity
  8
0
 62
7
100
AcDbSpline
 70
8
 71
3
 72
8
 73
4
 74
0
 40
0
 40
0
 40
0
 40
0
 40
1
 40
1
 40
1
 40
1
 10
79.823032
 20
-2.621670
 30
0.0
 10
79.557820
 20
-2.621662
 30
0.0
 10
79.303467
 20
-2.727010
 30
0.0
 10
79.115930
 20
-2.914540
 30
0.0
  0
SPLINE
  5
2e5
100
AcDbEntity
  8
0
 62
7
100
AcDbSpline
 70
8
 71
3
 72
8
 73
4
 74
0
 40
0
 40
0
 40
0
 40
0
 40
1
 40
1
 40
1
 40
1
 10
79.115930
 20
-2.914540
 30
0.0
 10
78.928392
 20
-3.102070
 30
0.0
 10
78.823033
 20
-3.356418
 30
0.0
 10
78.823031
 20
-3.621630
 30
0.0
  0
SPLINE
  5
2e6
100
AcDbEntity
  8
0
 62
7
100
AcDbSpline
 70
8
 71
3
 72
8
 73
4
 74
0
 40
0
 40
0
 40
0
 40
0
 40
1
 40
1
 40
1
 40
1
 10
34.673008
 20
-16.621648
 30
0.0
 10
34.938234
 20
-16.621673
 30
0.0
 10
35.192604
 20
-16.516322
 30
0.0
 10
35.380146
 20
-16.328778
 30
0.0
  0
SPLINE
  5
2e7
100
AcDbEntity
  8
0
 62
7
100
AcDbSpline
 70
8
 71
3
 72
8
 73
4
 74
0
 40
0
 40
0
 40
0
 40
0
 40
1
 40
1
 40
1
 40
1
 10
35.380146
 20
-16.328778
 30
0.0
 10
35.567688
 20
-16.141234
 30
0.0
 10
35.673036
 20
-15.886862
 30
0.0
 10
35.673009
 20
-15.621636
 30
0.0
  0
LWPOLYLINE
  5
2e8
100
AcDbEntity
  8
0
 62
7
100
AcDbPolyline
 90
2
 70
0
 10
268.592332
 20
-60.771661
 30
0.0
 10
267.386434
 20
-60.771660
 30
0.0
  0
SPLINE
  5
2e9
100
AcDbEntity
  8
0
 62
7
100
AcDbSpline
 70
8
 71
3
 72
8
 73
4
 74
0
 40
0
 40
0
 40
0
 40
0
 40
1
 40
1
 40
1
 40
1
 10
23.766690
 20
-41.721650
 30
0.0
 10
23.766719
 20
-41.456435
 30
0.0
 10
23.661380
 20
-41.202073
 30
0.0
 10
23.473851
 20
-41.014532
 30
0.0
  0
SPLINE
  5
2ea
100
AcDbEntity
  8
0
 62
7
100
AcDbSpline
 70
8
 71
3
 72
8
 73
4
 74
0
 40
0
 40
0
 40
0
 40
0
 40
1
 40
1
 40
1
 40
1
 10
23.473851
 20
-41.014532
 30
0.0
 10
23.286321
 20
-40.826991
 30
0.0
 10
23.031966
 20
-40.721636
 30
0.0
 10
22.766751
 20
-40.721649
 30
0.0
  0
SPLINE
  5
2eb
100
AcDbEntity
  8
0
 62
7
100
AcDbSpline
 70
8
 71
3
 72
8
 73
4
 74
0
 40
0
 40
0
 40
0
 40
0
 40
1
 40
1
 40
1
 40
1
 10
151.260571
 20
-40.721710
 30
0.0
 10
150.995359
 20
-40.721692
 30
0.0
 10
150.741003
 20
-40.827034
 30
0.0
 10
150.553465
 20
-41.014562
 30
0.0
  0
SPLINE
  5
2ec
100
AcDbEntity
  8
0
 62
7
100
AcDbSpline
 70
8
 71
3
 72
8
 73
4
 74
0
 40
0
 40
0
 40
0
 40
0
 40
1
 40
1
 40
1
 40
1
 10
150.553465
 20
-41.014562
 30
0.0
 10
150.365926
 20
-41.202089
 30
0.0
 10
150.260568
 20
-41.456438
 30
0.0
 10
150.260571
 20
-41.721650
 30
0.0
  0
SPLINE
  5
2ed
100
AcDbEntity
  8
0
 62
7
100
AcDbSpline
 70
8
 71
3
 72
8
 73
4
 74
0
 40
0
 40
0
 40
0
 40
0
 40
1
 40
1
 40
1
 40
1
 10
35.975133
 20
-75.747572
 30
0.0
 10
36.527411
 20
-75.747554
 30
0.0
 10
36.975116
 20
-75.299848
 30
0.0
 10
36.975133
 20
-74.747569
 30
0.0
  0
LWPOLYLINE
  5
2ee
100
AcDbEntity
  8
0
 62
7
100
AcDbPolyline
 90
2
 70
0
 10
64.535524
 20
-60.771660
 30
0.0
 10
64.535524
 20
-72.771667
 30
0.0
  0
SPLINE
  5
2ef
100
AcDbEntity
  8
0
 62
7
100
AcDbSpline
 70
8
 71
3
 72
8
 73
4
 74
0
 40
0
 40
0
 40
0
 40
0
 40
1
 40
1
 40
1
 40
1
 10
93.110581
 20
-53.721657
 30
0.0
 10
93.110591
 20
-54.273922
 30
0.0
 10
93.558275
 20
-54.721625
 30
0.0
 10
94.110540
 20
-54.721658
 30
0.0
  0
LWPOLYLINE
  5
2f0
100
AcDbEntity
  8
0
 62
7
100
AcDbPolyline
 90
2
 70
0
 10
282.323120
 20
-2.621629
 30
0.0
 10
251.273121
 20
-2.621630
 30
0.0
  0
LWPOLYLINE
  5
2f1
100
AcDbEntity
  8
0
 62
7
100
AcDbPolyline
 90
2
 70
0
 10
21.673001
 20
-3.621630
 30
0.0
 10
21.673001
 20
-15.621636
 30
0.0
  0
SPLINE
  5
2f2
100
AcDbEntity
  8
0
 62
7
100
AcDbSpline
 70
8
 71
3
 72
8
 73
4
 74
0
 40
0
 40
0
 40
0
 40
0
 40
1
 40
1
 40
1
 40
1
 10
196.063749
 20
-78.924039
 30
0.0
 10
196.406125
 20
-78.755921
 30
0.0
 10
196.623078
 20
-78.407712
 30
0.0
 10
196.623096
 20
-78.026287
 30
0.0
  0
LWPOLYLINE
  5
2f3
100
AcDbEntity
  8
0
 62
7
100
AcDbPolyline
 90
2
 70
0
 10
59.485521
 20
-72.771667
 30
0.0
 10
59.485521
 20
-60.771660
 30
0.0
  0
SPLINE
  5
2f4
100
AcDbEntity
  8
0
 62
7
100
AcDbSpline
 70
8
 71
3
 72
8
 73
4
 74
0
 40
0
 40
0
 40
0
 40
0
 40
1
 40
1
 40
1
 40
1
 10
250.216374
 20
-75.771714
 30
0.0
 10
250.768660
 20
-75.771673
 30
0.0
 10
251.216359
 20
-75.323954
 30
0.0
 10
251.216375
 20
-74.771668
 30
0.0
  0
LWPOLYLINE
  5
2f5
100
AcDbEntity
  8
0
 62
7
100
AcDbPolyline
 90
2
 70
0
 10
216.935606
 20
-60.771660
 30
0.0
 10
216.935606
 20
-72.771667
 30
0.0
  0
LWPOLYLINE
  5
2f6
100
AcDbEntity
  8
0
 62
7
100
AcDbPolyline
 90
2
 70
0
 10
98.873042
 20
-16.621637
 30
0.0
 10
110.873049
 20
-16.621637
 30
0.0
  0
SPLINE
  5
2f7
100
AcDbEntity
  8
0
 62
7
100
AcDbSpline
 70
8
 71
3
 72
8
 73
4
 74
0
 40
0
 40
0
 40
0
 40
0
 40
1
 40
1
 40
1
 40
1
 10
149.973069
 20
-79.821671
 30
0.0
 10
149.973077
 20
-79.556452
 30
0.0
 10
149.867723
 20
-79.302093
 30
0.0
 10
149.680185
 20
-79.114555
 30
0.0
  0
SPLINE
  5
2f8
100
AcDbEntity
  8
0
 62
7
100
AcDbSpline
 70
8
 71
3
 72
8
 73
4
 74
0
 40
0
 40
0
 40
0
 40
0
 40
1
 40
1
 40
1
 40
1
 10
149.680185
 20
-79.114555
 30
0.0
 10
149.492647
 20
-78.927016
 30
0.0
 10
149.238288
 20
-78.821662
 30
0.0
 10
148.973069
 20
-78.821670
 30
0.0
  0
SPLINE
  5
2f9
100
AcDbEntity
  8
0
 62
7
100
AcDbSpline
 70
8
 71
3
 72
8
 73
4
 74
0
 40
0
 40
0
 40
0
 40
0
 40
1
 40
1
 40
1
 40
1
 10
266.936970
 20
-36.672969
 30
0.0
 10
266.936978
 20
-36.407744
 30
0.0
 10
266.831619
 20
-36.153380
 30
0.0
 10
266.644072
 20
-35.965841
 30
0.0
  0
SPLINE
  5
2fa
100
AcDbEntity
  8
0
 62
7
100
AcDbSpline
 70
8
 71
3
 72
8
 73
4
 74
0
 40
0
 40
0
 40
0
 40
0
 40
1
 40
1
 40
1
 40
1
 10
266.644072
 20
-35.965841
 30
0.0
 10
266.456526
 20
-35.778302
 30
0.0
 10
266.202158
 20
-35.672952
 30
0.0
 10
265.936933
 20
-35.672969
 30
0.0
  0
LWPOLYLINE
  5
2fb
100
AcDbEntity
  8
0
 62
7
100
AcDbPolyline
 90
2
 70
0
 10
182.310587
 20
-40.721650
 30
0.0
 10
170.310581
 20
-40.721650
 30
0.0
  0
SPLINE
  5
2fc
100
AcDbEntity
  8
0
 62
7
100
AcDbSpline
 70
8
 71
3
 72
8
 73
4
 74
0
 40
0
 40
0
 40
0
 40
0
 40
1
 40
1
 40
1
 40
1
 10
125.066806
 20
-78.821644
 30
0.0
 10
124.801584
 20
-78.821643
 30
0.0
 10
124.547225
 20
-78.927003
 30
0.0
 10
124.359688
 20
-79.114545
 30
0.0
  0
SPLINE
  5
2fd
100
AcDbEntity
  8
0
 62
7
100
AcDbSpline
 70
8
 71
3
 72
8
 73
4
 74
0
 40
0
 40
0
 40
0
 40
0
 40
1
 40
1
 40
1
 40
1
 10
124.359688
 20
-79.114545
 30
0.0
 10
124.172150
 20
-79.302088
 30
0.0
 10
124.066797
 20
-79.556450
 30
0.0
 10
124.066805
 20
-79.821671
 30
0.0
  0
SPLINE
  5
2fe
100
AcDbEntity
  8
0
 62
7
100
AcDbSpline
 70
8
 71
3
 72
8
 73
4
 74
0
 40
0
 40
0
 40
0
 40
0
 40
1
 40
1
 40
1
 40
1
 10
145.498093
 20
-34.671646
 30
0.0
 10
145.498097
 20
-35.223920
 30
0.0
 10
145.945795
 20
-35.671629
 30
0.0
 10
146.498068
 20
-35.671646
 30
0.0
  0
SPLINE
  5
2ff
100
AcDbEntity
  8
0
 62
7
100
AcDbSpline
 70
8
 71
3
 72
8
 73
4
 74
0
 40
0
 40
0
 40
0
 40
0
 40
1
 40
1
 40
1
 40
1
 10
84.585535
 20
-59.771674
 30
0.0
 10
84.320318
 20
-59.771665
 30
0.0
 10
84.065961
 20
-59.877017
 30
0.0
 10
83.878423
 20
-60.064552
 30
0.0
  0
SPLINE
  5
300
100
AcDbEntity
  8
0
 62
7
100
AcDbSpline
 70
8
 71
3
 72
8
 73
4
 74
0
 40
0
 40
0
 40
0
 40
0
 40
1
 40
1
 40
1
 40
1
 10
83.878423
 20
-60.064552
 30
0.0
 10
83.690885
 20
-60.252088
 30
0.0
 10
83.585529
 20
-60.506443
 30
0.0
 10
83.585535
 20
-60.771660
 30
0.0
  0
SPLINE
  5
301
100
AcDbEntity
  8
0
 62
7
100
AcDbSpline
 70
8
 71
3
 72
8
 73
4
 74
0
 40
0
 40
0
 40
0
 40
0
 40
1
 40
1
 40
1
 40
1
 10
53.629268
 20
-78.821706
 30
0.0
 10
53.364052
 20
-78.821688
 30
0.0
 10
53.109693
 20
-78.927035
 30
0.0
 10
52.922153
 20
-79.114567
 30
0.0
  0
SPLINE
  5
302
100
AcDbEntity
  8
0
 62
7
100
AcDbSpline
 70
8
 71
3
 72
8
 73
4
 74
0
 40
0
 40
0
 40
0
 40
0
 40
1
 40
1
 40
1
 40
1
 10
52.922153
 20
-79.114567
 30
0.0
 10
52.734614
 20
-79.302100
 30
0.0
 10
52.629259
 20
-79.556455
 30
0.0
 10
52.629267
 20
-79.821671
 30
0.0
  0
SPLINE
  5
303
100
AcDbEntity
  8
0
 62
7
100
AcDbSpline
 70
8
 71
3
 72
8
 73
4
 74
0
 40
0
 40
0
 40
0
 40
0
 40
1
 40
1
 40
1
 40
1
 10
49.960590
 20
-41.721650
 30
0.0
 10
49.960593
 20
-41.456420
 30
0.0
 10
49.855227
 20
-41.202053
 30
0.0
 10
49.667674
 20
-41.014513
 30
0.0
  0
SPLINE
  5
304
100
AcDbEntity
  8
0
 62
7
100
AcDbSpline
 70
8
 71
3
 72
8
 73
4
 74
0
 40
0
 40
0
 40
0
 40
0
 40
1
 40
1
 40
1
 40
1
 10
49.667674
 20
-41.014513
 30
0.0
 10
49.480120
 20
-40.826974
 30
0.0
 10
49.225745
 20
-40.721627
 30
0.0
 10
48.960515
 20
-40.721649
 30
0.0
  0
LWPOLYLINE
  5
305
100
AcDbEntity
  8
0
 62
7
100
AcDbPolyline
 90
2
 70
0
 10
63.248023
 20
-21.671639
 30
0.0
 10
51.248017
 20
-21.671639
 30
0.0
  0
LWPOLYLINE
  5
306
100
AcDbEntity
  8
0
 62
7
100
AcDbPolyline
 90
2
 70
0
 10
216.935606
 20
-79.821671
 30
0.0
 10
216.935606
 20
-91.821677
 30
0.0
  0
SPLINE
  5
307
100
AcDbEntity
  8
0
 62
7
100
AcDbSpline
 70
8
 71
3
 72
8
 73
4
 74
0
 40
0
 40
0
 40
0
 40
0
 40
1
 40
1
 40
1
 40
1
 10
102.635571
 20
-72.771667
 30
0.0
 10
102.635586
 20
-73.323936
 30
0.0
 10
103.083277
 20
-73.771638
 30
0.0
 10
103.635545
 20
-73.771668
 30
0.0
  0
LWPOLYLINE
  5
308
100
AcDbEntity
  8
0
 62
7
100
AcDbPolyline
 90
2
 70
0
 10
127.448058
 20
-35.671647
 30
0.0
 10
139.448064
 20
-35.671647
 30
0.0
  0
LWPOLYLINE
  5
309
100
AcDbEntity
  8
0
 62
7
100
AcDbPolyline
 90
2
 70
0
 10
22.766751
 20
-40.721650
 30
0.0
 10
6.004242
 20
-40.721650
 30
0.0
  0
LWPOLYLINE
  5
30a
100
AcDbEntity
  8
0
 62
7
100
AcDbPolyline
 90
2
 70
0
 10
195.504345
 20
-79.821671
 30
0.0
 10
195.504345
 20
-91.821677
 30
0.0
  0
LWPOLYLINE
  5
30b
100
AcDbEntity
  8
0
 62
7
100
AcDbPolyline
 90
2
 70
0
 10
234.698116
 20
-21.671639
 30
0.0
 10
222.698109
 20
-21.671639
 30
0.0
  0
SPLINE
  5
30c
100
AcDbEntity
  8
0
 62
7
100
AcDbSpline
 70
8
 71
3
 72
8
 73
4
 74
0
 40
0
 40
0
 40
0
 40
0
 40
1
 40
1
 40
1
 40
1
 10
13.099133
 20
-74.647569
 30
0.0
 10
13.058687
 20
-74.647569
 30
0.0
 10
13.022223
 20
-74.671934
 30
0.0
 10
13.006745
 20
-74.709301
 30
0.0
  0
SPLINE
  5
30d
100
AcDbEntity
  8
0
 62
7
100
AcDbSpline
 70
8
 71
3
 72
8
 73
4
 74
0
 40
0
 40
0
 40
0
 40
0
 40
1
 40
1
 40
1
 40
1
 10
13.006745
 20
-74.709301
 30
0.0
 10
12.991267
 20
-74.746668
 30
0.0
 10
12.999823
 20
-74.789680
 30
0.0
 10
13.028422
 20
-74.818280
 30
0.0
  0
SPLINE
  5
30e
100
AcDbEntity
  8
0
 62
7
100
AcDbSpline
 70
8
 71
3
 72
8
 73
4
 74
0
 40
0
 40
0
 40
0
 40
0
 40
1
 40
1
 40
1
 40
1
 10
13.028422
 20
-74.818280
 30
0.0
 10
13.057022
 20
-74.846880
 30
0.0
 10
13.100034
 20
-74.855435
 30
0.0
 10
13.137401
 20
-74.839957
 30
0.0
  0
SPLINE
  5
30f
100
AcDbEntity
  8
0
 62
7
100
AcDbSpline
 70
8
 71
3
 72
8
 73
4
 74
0
 40
0
 40
0
 40
0
 40
0
 40
1
 40
1
 40
1
 40
1
 10
13.137401
 20
-74.839957
 30
0.0
 10
13.174769
 20
-74.824479
 30
0.0
 10
13.199133
 20
-74.788016
 30
0.0
 10
13.199133
 20
-74.747569
 30
0.0
  0
SPLINE
  5
310
100
AcDbEntity
  8
0
 62
7
100
AcDbSpline
 70
8
 71
3
 72
8
 73
4
 74
0
 40
0
 40
0
 40
0
 40
0
 40
1
 40
1
 40
1
 40
1
 10
13.199133
 20
-74.747569
 30
0.0
 10
13.199133
 20
-74.721048
 30
0.0
 10
13.188597
 20
-74.695612
 30
0.0
 10
13.169844
 20
-74.676859
 30
0.0
  0
SPLINE
  5
311
100
AcDbEntity
  8
0
 62
7
100
AcDbSpline
 70
8
 71
3
 72
8
 73
4
 74
0
 40
0
 40
0
 40
0
 40
0
 40
1
 40
1
 40
1
 40
1
 10
13.169844
 20
-74.676859
 30
0.0
 10
13.151090
 20
-74.658105
 30
0.0
 10
13.125655
 20
-74.647569
 30
0.0
 10
13.099133
 20
-74.647569
 30
0.0
  0
LWPOLYLINE
  5
312
100
AcDbEntity
  8
0
 62
7
100
AcDbPolyline
 90
2
 70
0
 10
88.060536
 20
-53.721657
 30
0.0
 10
88.060536
 20
-41.721650
 30
0.0
  0
SPLINE
  5
313
100
AcDbEntity
  8
0
 62
7
100
AcDbSpline
 70
8
 71
3
 72
8
 73
4
 74
0
 40
0
 40
0
 40
0
 40
0
 40
1
 40
1
 40
1
 40
1
 10
240.460690
 20
-41.721650
 30
0.0
 10
240.460693
 20
-41.456420
 30
0.0
 10
240.355327
 20
-41.202054
 30
0.0
 10
240.167775
 20
-41.014515
 30
0.0
  0
SPLINE
  5
314
100
AcDbEntity
  8
0
 62
7
100
AcDbSpline
 70
8
 71
3
 72
8
 73
4
 74
0
 40
0
 40
0
 40
0
 40
0
 40
1
 40
1
 40
1
 40
1
 10
240.167775
 20
-41.014515
 30
0.0
 10
239.980222
 20
-40.826975
 30
0.0
 10
239.725848
 20
-40.721628
 30
0.0
 10
239.460618
 20
-40.721649
 30
0.0
  0
LWPOLYLINE
  5
315
100
AcDbEntity
  8
0
 62
7
100
AcDbPolyline
 90
1
 70
1
 10
13.099133
 20
-74.647569
 30
0.0
  0
SPLINE
  5
316
100
AcDbEntity
  8
0
 62
7
100
AcDbSpline
 70
8
 71
3
 72
8
 73
4
 74
0
 40
0
 40
0
 40
0
 40
0
 40
1
 40
1
 40
1
 40
1
 10
203.623069
 20
-77.821670
 30
0.0
 10
203.623086
 20
-78.373960
 30
0.0
 10
204.070810
 20
-78.821670
 30
0.0
 10
204.623099
 20
-78.821670
 30
0.0
  0
SPLINE
  5
317
100
AcDbEntity
  8
0
 62
7
100
AcDbSpline
 70
8
 71
3
 72
8
 73
4
 74
0
 40
0
 40
0
 40
0
 40
0
 40
1
 40
1
 40
1
 40
1
 10
106.110546
 20
-54.721685
 30
0.0
 10
106.662831
 20
-54.721660
 30
0.0
 10
107.110536
 20
-54.273942
 30
0.0
 10
107.110546
 20
-53.721657
 30
0.0
  0
LWPOLYLINE
  5
318
100
AcDbEntity
  8
0
 62
7
100
AcDbPolyline
 90
2
 70
0
 10
125.160557
 20
-40.721650
 30
0.0
 10
113.160550
 20
-40.721650
 30
0.0
  0
SPLINE
  5
319
100
AcDbEntity
  8
0
 62
7
100
AcDbSpline
 70
8
 71
3
 72
8
 73
4
 74
0
 40
0
 40
0
 40
0
 40
0
 40
1
 40
1
 40
1
 40
1
 10
280.941869
 20
-79.821671
 30
0.0
 10
280.941877
 20
-79.556456
 30
0.0
 10
280.836526
 20
-79.302100
 30
0.0
 10
280.648993
 20
-79.114562
 30
0.0
  0
SPLINE
  5
31a
100
AcDbEntity
  8
0
 62
7
100
AcDbSpline
 70
8
 71
3
 72
8
 73
4
 74
0
 40
0
 40
0
 40
0
 40
0
 40
1
 40
1
 40
1
 40
1
 10
280.648993
 20
-79.114562
 30
0.0
 10
280.461459
 20
-78.927024
 30
0.0
 10
280.207106
 20
-78.821668
 30
0.0
 10
279.941890
 20
-78.821670
 30
0.0
  0
LWPOLYLINE
  5
31b
100
AcDbEntity
  8
0
 62
7
100
AcDbPolyline
 90
2
 70
0
 10
117.923053
 20
-16.621637
 30
0.0
 10
129.923059
 20
-16.621637
 30
0.0
  0
LWPOLYLINE
  5
31c
100
AcDbEntity
  8
0
 62
7
100
AcDbPolyline
 90
2
 70
0
 10
188.360591
 20
-41.721650
 30
0.0
 10
188.360591
 20
-53.721657
 30
0.0
  0
LWPOLYLINE
  5
31d
100
AcDbEntity
  8
0
 62
7
100
AcDbPolyline
 90
2
 70
0
 10
177.548085
 20
-21.671639
 30
0.0
 10
165.548078
 20
-21.671639
 30
0.0
  0
SPLINE
  5
31e
100
AcDbEntity
  8
0
 62
7
100
AcDbSpline
 70
8
 71
3
 72
8
 73
4
 74
0
 40
0
 40
0
 40
0
 40
0
 40
1
 40
1
 40
1
 40
1
 10
221.698093
 20
-34.671646
 30
0.0
 10
221.698095
 20
-34.936865
 30
0.0
 10
221.803454
 20
-35.191220
 30
0.0
 10
221.990994
 20
-35.378757
 30
0.0
  0
SPLINE
  5
31f
100
AcDbEntity
  8
0
 62
7
100
AcDbSpline
 70
8
 71
3
 72
8
 73
4
 74
0
 40
0
 40
0
 40
0
 40
0
 40
1
 40
1
 40
1
 40
1
 10
221.990994
 20
-35.378757
 30
0.0
 10
222.178533
 20
-35.566293
 30
0.0
 10
222.432890
 20
-35.671649
 30
0.0
 10
222.698109
 20
-35.671646
 30
0.0
  0
SPLINE
  5
320
100
AcDbEntity
  8
0
 62
7
100
AcDbSpline
 70
8
 71
3
 72
8
 73
4
 74
0
 40
0
 40
0
 40
0
 40
0
 40
1
 40
1
 40
1
 40
1
 10
202.648092
 20
-34.671646
 30
0.0
 10
202.648096
 20
-35.223932
 30
0.0
 10
203.095813
 20
-35.671647
 30
0.0
 10
203.648099
 20
-35.671647
 30
0.0
  0
LWPOLYLINE
  5
321
100
AcDbEntity
  8
0
 62
7
100
AcDbPolyline
 90
2
 70
0
 10
140.735565
 20
-60.771660
 30
0.0
 10
140.735565
 20
-72.771667
 30
0.0
  0
LWPOLYLINE
  5
322
100
AcDbEntity
  8
0
 62
7
100
AcDbPolyline
 90
2
 70
0
 10
73.773029
 20
-15.621636
 30
0.0
 10
73.773029
 20
-3.621630
 30
0.0
  0
SPLINE
  5
323
100
AcDbEntity
  8
0
 62
7
100
AcDbSpline
 70
8
 71
3
 72
8
 73
4
 74
0
 40
0
 40
0
 40
0
 40
0
 40
1
 40
1
 40
1
 40
1
 10
189.360591
 20
-40.721630
 30
0.0
 10
189.095372
 20
-40.721633
 30
0.0
 10
188.841016
 20
-40.826993
 30
0.0
 10
188.653480
 20
-41.014533
 30
0.0
  0
SPLINE
  5
324
100
AcDbEntity
  8
0
 62
7
100
AcDbSpline
 70
8
 71
3
 72
8
 73
4
 74
0
 40
0
 40
0
 40
0
 40
0
 40
1
 40
1
 40
1
 40
1
 10
188.653480
 20
-41.014533
 30
0.0
 10
188.465943
 20
-41.202073
 30
0.0
 10
188.360588
 20
-41.456431
 30
0.0
 10
188.360591
 20
-41.721650
 30
0.0
  0
LWPOLYLINE
  5
325
100
AcDbEntity
  8
0
 62
7
100
AcDbPolyline
 90
2
 70
0
 10
78.535531
 20
-72.771667
 30
0.0
 10
78.535531
 20
-60.771660
 30
0.0
  0
LWPOLYLINE
  5
326
100
AcDbEntity
  8
0
 62
7
100
AcDbPolyline
 90
2
 70
0
 10
243.124376
 20
-60.771660
 30
0.0
 10
243.124376
 20
-72.771667
 30
0.0
  0
LWPOLYLINE
  5
327
100
AcDbEntity
  8
0
 62
7
100
AcDbPolyline
 90
2
 70
0
 10
256.129377
 20
-78.821670
 30
0.0
 10
241.748119
 20
-78.821670
 30
0.0
  0
LWPOLYLINE
  5
328
100
AcDbEntity
  8
0
 62
7
100
AcDbPolyline
 90
2
 70
0
 10
283.324390
 20
-72.771667
 30
0.0
 10
283.324390
 20
-60.771660
 30
0.0
  0
SPLINE
  5
329
100
AcDbEntity
  8
0
 62
7
100
AcDbSpline
 70
8
 71
3
 72
8
 73
4
 74
0
 40
0
 40
0
 40
0
 40
0
 40
1
 40
1
 40
1
 40
1
 10
251.360111
 20
-17.401076
 30
0.0
 10
251.360087
 20
-17.026061
 30
0.0
 10
251.150267
 20
-16.682574
 30
0.0
 10
250.816621
 20
-16.511353
 30
0.0
  0
LWPOLYLINE
  5
32a
100
AcDbEntity
  8
0
 62
7
100
AcDbPolyline
 90
2
 70
0
 10
93.110539
 20
-41.721650
 30
0.0
 10
93.110539
 20
-53.721657
 30
0.0
  0
SPLINE
  5
32b
100
AcDbEntity
  8
0
 62
7
100
AcDbSpline
 70
8
 71
3
 72
8
 73
4
 74
0
 40
0
 40
0
 40
0
 40
0
 40
1
 40
1
 40
1
 40
1
 10
50.247992
 20
-34.671646
 30
0.0
 10
50.247994
 20
-34.936867
 30
0.0
 10
50.353355
 20
-35.191223
 30
0.0
 10
50.540896
 20
-35.378760
 30
0.0
  0
SPLINE
  5
32c
100
AcDbEntity
  8
0
 62
7
100
AcDbSpline
 70
8
 71
3
 72
8
 73
4
 74
0
 40
0
 40
0
 40
0
 40
0
 40
1
 40
1
 40
1
 40
1
 10
50.540896
 20
-35.378760
 30
0.0
 10
50.728437
 20
-35.566297
 30
0.0
 10
50.982797
 20
-35.671652
 30
0.0
 10
51.248017
 20
-35.671647
 30
0.0
  0
SPLINE
  5
32d
100
AcDbEntity
  8
0
 62
7
100
AcDbSpline
 70
8
 71
3
 72
8
 73
4
 74
0
 40
0
 40
0
 40
0
 40
0
 40
1
 40
1
 40
1
 40
1
 10
274.092387
 20
-75.771727
 30
0.0
 10
274.644675
 20
-75.771679
 30
0.0
 10
275.092372
 20
-75.323956
 30
0.0
 10
275.092388
 20
-74.771668
 30
0.0
  0
SPLINE
  5
32e
100
AcDbEntity
  8
0
 62
7
100
AcDbSpline
 70
8
 71
3
 72
8
 73
4
 74
0
 40
0
 40
0
 40
0
 40
0
 40
1
 40
1
 40
1
 40
1
 10
175.073083
 20
-2.621621
 30
0.0
 10
174.520844
 20
-2.621741
 30
0.0
 10
174.073197
 20
-3.069392
 30
0.0
 10
174.073082
 20
-3.621630
 30
0.0
  0
SPLINE
  5
32f
100
AcDbEntity
  8
0
 62
7
100
AcDbSpline
 70
8
 71
3
 72
8
 73
4
 74
0
 40
0
 40
0
 40
0
 40
0
 40
1
 40
1
 40
1
 40
1
 10
164.548093
 20
-34.671646
 30
0.0
 10
164.548097
 20
-35.223924
 30
0.0
 10
164.995801
 20
-35.671634
 30
0.0
 10
165.548078
 20
-35.671646
 30
0.0
  0
SPLINE
  5
330
100
AcDbEntity
  8
0
 62
7
100
AcDbSpline
 70
8
 71
3
 72
8
 73
4
 74
0
 40
0
 40
0
 40
0
 40
0
 40
1
 40
1
 40
1
 40
1
 10
248.973970
 20
-55.722969
 30
0.0
 10
248.973925
 20
-55.988193
 30
0.0
 10
249.079262
 20
-56.242568
 30
0.0
 10
249.266800
 20
-56.430113
 30
0.0
  0
SPLINE
  5
331
100
AcDbEntity
  8
0
 62
7
100
AcDbSpline
 70
8
 71
3
 72
8
 73
4
 74
0
 40
0
 40
0
 40
0
 40
0
 40
1
 40
1
 40
1
 40
1
 10
249.266800
 20
-56.430113
 30
0.0
 10
249.454338
 20
-56.617658
 30
0.0
 10
249.708709
 20
-56.723005
 30
0.0
 10
249.973933
 20
-56.722969
 30
0.0
  0
SPLINE
  5
332
100
AcDbEntity
  8
0
 62
7
100
AcDbSpline
 70
8
 71
3
 72
8
 73
4
 74
0
 40
0
 40
0
 40
0
 40
0
 40
1
 40
1
 40
1
 40
1
 10
272.854880
 20
-55.721658
 30
0.0
 10
272.854890
 20
-56.273942
 30
0.0
 10
273.302604
 20
-56.721652
 30
0.0
 10
273.854887
 20
-56.721659
 30
0.0
  0
LWPOLYLINE
  5
333
100
AcDbEntity
  8
0
 62
7
100
AcDbPolyline
 90
2
 70
0
 10
0.100000
 20
-92.962389
 30
0.0
 10
0.100000
 20
-2.480889
 30
0.0
  0
LWPOLYLINE
  5
334
100
AcDbEntity
  8
0
 62
7
100
AcDbPolyline
 90
2
 70
0
 10
72.773028
 20
-2.621629
 30
0.0
 10
60.773022
 20
-2.621629
 30
0.0
  0
SPLINE
  5
335
100
AcDbEntity
  8
0
 62
7
100
AcDbSpline
 70
8
 71
3
 72
8
 73
4
 74
0
 40
0
 40
0
 40
0
 40
0
 40
1
 40
1
 40
1
 40
1
 10
266.520413
 20
-60.271658
 30
0.0
 10
266.341782
 20
-59.962252
 30
0.0
 10
266.011650
 20
-59.771653
 30
0.0
 10
265.654382
 20
-59.771659
 30
0.0
  0
SPLINE
  5
336
100
AcDbEntity
  8
0
 62
7
100
AcDbSpline
 70
8
 71
3
 72
8
 73
4
 74
0
 40
0
 40
0
 40
0
 40
0
 40
1
 40
1
 40
1
 40
1
 10
244.216360
 20
-74.771668
 30
0.0
 10
244.216370
 20
-74.368706
 30
0.0
 10
244.012445
 20
-73.993116
 30
0.0
 10
243.674491
 20
-73.773650
 30
0.0
  0
SPLINE
  5
337
100
AcDbEntity
  8
0
 62
7
100
AcDbSpline
 70
8
 71
3
 72
8
 73
4
 74
0
 40
0
 40
0
 40
0
 40
0
 40
1
 40
1
 40
1
 40
1
 10
45.485471
 20
-72.771667
 30
0.0
 10
45.485486
 20
-73.323963
 30
0.0
 10
45.933219
 20
-73.771676
 30
0.0
 10
46.485514
 20
-73.771668
 30
0.0
  0
LWPOLYLINE
  5
338
100
AcDbEntity
  8
0
 62
7
100
AcDbPolyline
 90
2
 70
0
 10
183.598088
 20
-22.671640
 30
0.0
 10
183.598088
 20
-34.671646
 30
0.0
  0
SPLINE
  5
339
100
AcDbEntity
  8
0
 62
7
100
AcDbSpline
 70
8
 71
3
 72
8
 73
4
 74
0
 40
0
 40
0
 40
0
 40
0
 40
1
 40
1
 40
1
 40
1
 10
182.310587
 20
-54.721726
 30
0.0
 10
182.862879
 20
-54.721678
 30
0.0
 10
183.310577
 20
-54.273949
 30
0.0
 10
183.310587
 20
-53.721657
 30
0.0
  0
SPLINE
  5
33a
100
AcDbEntity
  8
0
 62
7
100
AcDbSpline
 70
8
 71
3
 72
8
 73
4
 74
0
 40
0
 40
0
 40
0
 40
0
 40
1
 40
1
 40
1
 40
1
 10
130.923110
 20
-3.621630
 30
0.0
 10
130.923108
 20
-3.356406
 30
0.0
 10
130.817743
 20
-3.102045
 30
0.0
 10
130.630196
 20
-2.914508
 30
0.0
  0
SPLINE
  5
33b
100
AcDbEntity
  8
0
 62
7
100
AcDbSpline
 70
8
 71
3
 72
8
 73
4
 74
0
 40
0
 40
0
 40
0
 40
0
 40
1
 40
1
 40
1
 40
1
 10
130.630196
 20
-2.914508
 30
0.0
 10
130.442649
 20
-2.726970
 30
0.0
 10
130.188284
 20
-2.621618
 30
0.0
 10
129.923059
 20
-2.621629
 30
0.0
  0
LWPOLYLINE
  5
33c
100
AcDbEntity
  8
0
 62
7
100
AcDbPolyline
 90
2
 70
0
 10
230.935614
 20
-72.771667
 30
0.0
 10
230.935614
 20
-60.771660
 30
0.0
  0
SPLINE
  5
33d
100
AcDbEntity
  8
0
 62
7
100
AcDbSpline
 70
8
 71
3
 72
8
 73
4
 74
0
 40
0
 40
0
 40
0
 40
0
 40
1
 40
1
 40
1
 40
1
 10
225.173111
 20
-16.621651
 30
0.0
 10
225.438337
 20
-16.621675
 30
0.0
 10
225.692707
 20
-16.516324
 30
0.0
 10
225.880250
 20
-16.328779
 30
0.0
  0
SPLINE
  5
33e
100
AcDbEntity
  8
0
 62
7
100
AcDbSpline
 70
8
 71
3
 72
8
 73
4
 74
0
 40
0
 40
0
 40
0
 40
0
 40
1
 40
1
 40
1
 40
1
 10
225.880250
 20
-16.328779
 30
0.0
 10
226.067792
 20
-16.141234
 30
0.0
 10
226.173139
 20
-15.886863
 30
0.0
 10
226.173112
 20
-15.621636
 30
0.0
  0
SPLINE
  5
33f
100
AcDbEntity
  8
0
 62
7
100
AcDbSpline
 70
8
 71
3
 72
8
 73
4
 74
0
 40
0
 40
0
 40
0
 40
0
 40
1
 40
1
 40
1
 40
1
 10
254.978877
 20
-56.721716
 30
0.0
 10
255.531167
 20
-56.721674
 30
0.0
 10
255.978867
 20
-56.273948
 30
0.0
 10
255.978877
 20
-55.721658
 30
0.0
  0
SPLINE
  5
340
100
AcDbEntity
  8
0
 62
7
100
AcDbSpline
 70
8
 71
3
 72
8
 73
4
 74
0
 40
0
 40
0
 40
0
 40
0
 40
1
 40
1
 40
1
 40
1
 10
78.823103
 20
-15.621636
 30
0.0
 10
78.823101
 20
-16.173894
 30
0.0
 10
79.270774
 20
-16.621599
 30
0.0
 10
79.823032
 20
-16.621636
 30
0.0
  0
SPLINE
  5
341
100
AcDbEntity
  8
0
 62
7
100
AcDbSpline
 70
8
 71
3
 72
8
 73
4
 74
0
 40
0
 40
0
 40
0
 40
0
 40
1
 40
1
 40
1
 40
1
 10
132.210560
 20
-40.721699
 30
0.0
 10
131.945347
 20
-40.721683
 30
0.0
 10
131.690991
 20
-40.827028
 30
0.0
 10
131.503453
 20
-41.014558
 30
0.0
  0
SPLINE
  5
342
100
AcDbEntity
  8
0
 62
7
100
AcDbSpline
 70
8
 71
3
 72
8
 73
4
 74
0
 40
0
 40
0
 40
0
 40
0
 40
1
 40
1
 40
1
 40
1
 10
131.503453
 20
-41.014558
 30
0.0
 10
131.315915
 20
-41.202087
 30
0.0
 10
131.210557
 20
-41.456437
 30
0.0
 10
131.210560
 20
-41.721650
 30
0.0
  0
SPLINE
  5
343
100
AcDbEntity
  8
0
 62
7
100
AcDbSpline
 70
8
 71
3
 72
8
 73
4
 74
0
 40
0
 40
0
 40
0
 40
0
 40
1
 40
1
 40
1
 40
1
 10
140.448100
 20
-22.671640
 30
0.0
 10
140.448100
 20
-22.406417
 30
0.0
 10
140.342739
 20
-22.152058
 30
0.0
 10
140.155194
 20
-21.964520
 30
0.0
  0
SPLINE
  5
344
100
AcDbEntity
  8
0
 62
7
100
AcDbSpline
 70
8
 71
3
 72
8
 73
4
 74
0
 40
0
 40
0
 40
0
 40
0
 40
1
 40
1
 40
1
 40
1
 10
140.155194
 20
-21.964520
 30
0.0
 10
139.967650
 20
-21.776983
 30
0.0
 10
139.713287
 20
-21.671630
 30
0.0
 10
139.448064
 20
-21.671639
 30
0.0
  0
LWPOLYLINE
  5
345
100
AcDbEntity
  8
0
 62
7
100
AcDbPolyline
 90
2
 70
0
 10
88.258873
 20
-76.821620
 30
0.0
 10
78.566127
 20
-76.821659
 30
0.0
  0
LWPOLYLINE
  5
346
100
AcDbEntity
  8
0
 62
7
100
AcDbPolyline
 90
2
 70
0
 10
168.023080
 20
-2.621629
 30
0.0
 10
156.023073
 20
-2.621629
 30
0.0
  0
SPLINE
  5
347
100
AcDbEntity
  8
0
 62
7
100
AcDbSpline
 70
8
 71
3
 72
8
 73
4
 74
0
 40
0
 40
0
 40
0
 40
0
 40
1
 40
1
 40
1
 40
1
 10
102.348099
 20
-22.671640
 30
0.0
 10
102.348099
 20
-22.406414
 30
0.0
 10
102.242735
 20
-22.152052
 30
0.0
 10
102.055187
 20
-21.964514
 30
0.0
  0
SPLINE
  5
348
100
AcDbEntity
  8
0
 62
7
100
AcDbSpline
 70
8
 71
3
 72
8
 73
4
 74
0
 40
0
 40
0
 40
0
 40
0
 40
1
 40
1
 40
1
 40
1
 10
102.055187
 20
-21.964514
 30
0.0
 10
101.867638
 20
-21.776976
 30
0.0
 10
101.613270
 20
-21.671625
 30
0.0
 10
101.348044
 20
-21.671640
 30
0.0
  0
SPLINE
  5
349
100
AcDbEntity
  8
0
 62
7
100
AcDbSpline
 70
8
 71
3
 72
8
 73
4
 74
0
 40
0
 40
0
 40
0
 40
0
 40
1
 40
1
 40
1
 40
1
 10
178.566496
 20
-76.821635
 30
0.0
 10
178.014211
 20
-76.821638
 30
0.0
 10
177.566496
 20
-77.269354
 30
0.0
 10
177.566496
 20
-77.821639
 30
0.0
  0
LWPOLYLINE
  5
34a
100
AcDbEntity
  8
0
 62
7
100
AcDbPolyline
 90
2
 70
0
 10
77.566127
 20
-77.821660
 30
0.0
 10
77.566127
 20
-90.821667
 30
0.0
  0
SPLINE
  5
34b
100
AcDbEntity
  8
0
 62
7
100
AcDbSpline
 70
8
 71
3
 72
8
 73
4
 74
0
 40
0
 40
0
 40
0
 40
0
 40
1
 40
1
 40
1
 40
1
 10
103.696882
 20
-92.821618
 30
0.0
 10
104.054146
 20
-92.821625
 30
0.0
 10
104.384275
 20
-92.631029
 30
0.0
 10
104.562907
 20
-92.321629
 30
0.0
  0
LWPOLYLINE
  5
34c
100
AcDbEntity
  8
0
 62
7
100
AcDbPolyline
 90
2
 70
0
 10
156.023073
 20
-16.621637
 30
0.0
 10
168.023080
 20
-16.621637
 30
0.0
  0
SPLINE
  5
34d
100
AcDbEntity
  8
0
 62
7
100
AcDbSpline
 70
8
 71
3
 72
8
 73
4
 74
0
 40
0
 40
0
 40
0
 40
0
 40
1
 40
1
 40
1
 40
1
 10
54.723009
 20
-3.621630
 30
0.0
 10
54.723004
 20
-3.069351
 30
0.0
 10
54.275297
 20
-2.621640
 30
0.0
 10
53.723018
 20
-2.621630
 30
0.0
  0
SPLINE
  5
34e
100
AcDbEntity
  8
0
 62
7
100
AcDbSpline
 70
8
 71
3
 72
8
 73
4
 74
0
 40
0
 40
0
 40
0
 40
0
 40
1
 40
1
 40
1
 40
1
 10
29.975133
 20
-74.647569
 30
0.0
 10
29.934687
 20
-74.647569
 30
0.0
 10
29.898223
 20
-74.671934
 30
0.0
 10
29.882745
 20
-74.709301
 30
0.0
  0
SPLINE
  5
34f
100
AcDbEntity
  8
0
 62
7
100
AcDbSpline
 70
8
 71
3
 72
8
 73
4
 74
0
 40
0
 40
0
 40
0
 40
0
 40
1
 40
1
 40
1
 40
1
 10
29.882745
 20
-74.709301
 30
0.0
 10
29.867267
 20
-74.746668
 30
0.0
 10
29.875823
 20
-74.789680
 30
0.0
 10
29.904422
 20
-74.818280
 30
0.0
  0
SPLINE
  5
350
100
AcDbEntity
  8
0
 62
7
100
AcDbSpline
 70
8
 71
3
 72
8
 73
4
 74
0
 40
0
 40
0
 40
0
 40
0
 40
1
 40
1
 40
1
 40
1
 10
29.904422
 20
-74.818280
 30
0.0
 10
29.933022
 20
-74.846880
 30
0.0
 10
29.976034
 20
-74.855435
 30
0.0
 10
30.013401
 20
-74.839957
 30
0.0
  0
SPLINE
  5
351
100
AcDbEntity
  8
0
 62
7
100
AcDbSpline
 70
8
 71
3
 72
8
 73
4
 74
0
 40
0
 40
0
 40
0
 40
0
 40
1
 40
1
 40
1
 40
1
 10
30.013401
 20
-74.839957
 30
0.0
 10
30.050769
 20
-74.824479
 30
0.0
 10
30.075133
 20
-74.788016
 30
0.0
 10
30.075133
 20
-74.747569
 30
0.0
  0
SPLINE
  5
352
100
AcDbEntity
  8
0
 62
7
100
AcDbSpline
 70
8
 71
3
 72
8
 73
4
 74
0
 40
0
 40
0
 40
0
 40
0
 40
1
 40
1
 40
1
 40
1
 10
30.075133
 20
-74.747569
 30
0.0
 10
30.075133
 20
-74.721048
 30
0.0
 10
30.064597
 20
-74.695612
 30
0.0
 10
30.045844
 20
-74.676859
 30
0.0
  0
SPLINE
  5
353
100
AcDbEntity
  8
0
 62
7
100
AcDbSpline
 70
8
 71
3
 72
8
 73
4
 74
0
 40
0
 40
0
 40
0
 40
0
 40
1
 40
1
 40
1
 40
1
 10
30.045844
 20
-74.676859
 30
0.0
 10
30.027090
 20
-74.658105
 30
0.0
 10
30.001655
 20
-74.647569
 30
0.0
 10
29.975133
 20
-74.647569
 30
0.0
  0
LWPOLYLINE
  5
354
100
AcDbEntity
  8
0
 62
7
100
AcDbPolyline
 90
2
 70
0
 10
6.099132
 20
-74.747569
 30
0.0
 10
6.099132
 20
-74.527015
 30
0.0
  0
LWPOLYLINE
  5
355
100
AcDbEntity
  8
0
 62
7
100
AcDbPolyline
 90
1
 70
1
 10
29.975133
 20
-74.647569
 30
0.0
  0
LWPOLYLINE
  5
356
100
AcDbEntity
  8
0
 62
7
100
AcDbPolyline
 90
2
 70
0
 10
151.260571
 20
-54.721657
 30
0.0
 10
163.260577
 20
-54.721657
 30
0.0
  0
SPLINE
  5
357
100
AcDbEntity
  8
0
 62
7
100
AcDbSpline
 70
8
 71
3
 72
8
 73
4
 74
0
 40
0
 40
0
 40
0
 40
0
 40
1
 40
1
 40
1
 40
1
 10
64.248000
 20
-22.671640
 30
0.0
 10
64.248001
 20
-22.119364
 30
0.0
 10
63.800299
 20
-21.671652
 30
0.0
 10
63.248023
 20
-21.671639
 30
0.0
  0
SPLINE
  5
358
100
AcDbEntity
  8
0
 62
7
100
AcDbSpline
 70
8
 71
3
 72
8
 73
4
 74
0
 40
0
 40
0
 40
0
 40
0
 40
1
 40
1
 40
1
 40
1
 10
29.816755
 20
-78.821693
 30
0.0
 10
29.551538
 20
-78.821679
 30
0.0
 10
29.297179
 20
-78.927028
 30
0.0
 10
29.109640
 20
-79.114563
 30
0.0
  0
SPLINE
  5
359
100
AcDbEntity
  8
0
 62
7
100
AcDbSpline
 70
8
 71
3
 72
8
 73
4
 74
0
 40
0
 40
0
 40
0
 40
0
 40
1
 40
1
 40
1
 40
1
 10
29.109640
 20
-79.114563
 30
0.0
 10
28.922100
 20
-79.302097
 30
0.0
 10
28.816746
 20
-79.556454
 30
0.0
 10
28.816754
 20
-79.821671
 30
0.0
  0
LWPOLYLINE
  5
35a
100
AcDbEntity
  8
0
 62
7
100
AcDbPolyline
 90
2
 70
0
 10
112.135225
 20
-76.821651
 30
0.0
 10
107.134883
 20
-76.821621
 30
0.0
  0
LWPOLYLINE
  5
35b
100
AcDbEntity
  8
0
 62
7
100
AcDbPolyline
 90
2
 70
0
 10
226.460611
 20
-41.721650
 30
0.0
 10
226.460611
 20
-53.721657
 30
0.0
  0
SPLINE
  5
35c
100
AcDbEntity
  8
0
 62
7
100
AcDbSpline
 70
8
 71
3
 72
8
 73
4
 74
0
 40
0
 40
0
 40
0
 40
0
 40
1
 40
1
 40
1
 40
1
 10
44.198013
 20
-92.821653
 30
0.0
 10
44.750286
 20
-92.821646
 30
0.0
 10
45.197993
 20
-92.373950
 30
0.0
 10
45.198014
 20
-91.821677
 30
0.0
  0
SPLINE
  5
35d
100
AcDbEntity
  8
0
 62
7
100
AcDbSpline
 70
8
 71
3
 72
8
 73
4
 74
0
 40
0
 40
0
 40
0
 40
0
 40
1
 40
1
 40
1
 40
1
 10
216.935561
 20
-91.821677
 30
0.0
 10
216.935582
 20
-92.373972
 30
0.0
 10
217.383313
 20
-92.821682
 30
0.0
 10
217.935607
 20
-92.821678
 30
0.0
  0
LWPOLYLINE
  5
35e
100
AcDbEntity
  8
0
 62
7
100
AcDbPolyline
 90
2
 70
0
 10
113.135225
 20
-90.821659
 30
0.0
 10
113.135226
 20
-77.821652
 30
0.0
  0
SPLINE
  5
35f
100
AcDbEntity
  8
0
 62
7
100
AcDbSpline
 70
8
 71
3
 72
8
 73
4
 74
0
 40
0
 40
0
 40
0
 40
0
 40
1
 40
1
 40
1
 40
1
 10
279.936957
 20
-23.759969
 30
0.0
 10
279.936971
 20
-23.288681
 30
0.0
 10
279.607910
 20
-22.881357
 30
0.0
 10
279.147146
 20
-22.782313
 30
0.0
  0
LWPOLYLINE
  5
360
100
AcDbEntity
  8
0
 62
7
100
AcDbPolyline
 90
2
 70
0
 10
220.410608
 20
-40.721650
 30
0.0
 10
208.410601
 20
-40.721650
 30
0.0
  0
SPLINE
  5
361
100
AcDbEntity
  8
0
 62
7
100
AcDbSpline
 70
8
 71
3
 72
8
 73
4
 74
0
 40
0
 40
0
 40
0
 40
0
 40
1
 40
1
 40
1
 40
1
 10
241.748119
 20
-21.671657
 30
0.0
 10
241.195859
 20
-21.671702
 30
0.0
 10
240.748173
 20
-22.119381
 30
0.0
 10
240.748118
 20
-22.671640
 30
0.0
  0
SPLINE
  5
362
100
AcDbEntity
  8
0
 62
7
100
AcDbSpline
 70
8
 71
3
 72
8
 73
4
 74
0
 40
0
 40
0
 40
0
 40
0
 40
1
 40
1
 40
1
 40
1
 10
145.210589
 20
-41.721650
 30
0.0
 10
145.210592
 20
-41.456429
 30
0.0
 10
145.105233
 20
-41.202070
 30
0.0
 10
144.917691
 20
-41.014533
 30
0.0
  0
SPLINE
  5
363
100
AcDbEntity
  8
0
 62
7
100
AcDbSpline
 70
8
 71
3
 72
8
 73
4
 74
0
 40
0
 40
0
 40
0
 40
0
 40
1
 40
1
 40
1
 40
1
 10
144.917691
 20
-41.014533
 30
0.0
 10
144.730149
 20
-40.826995
 30
0.0
 10
144.475788
 20
-40.721642
 30
0.0
 10
144.210567
 20
-40.721650
 30
0.0
  0
LWPOLYLINE
  5
364
100
AcDbEntity
  8
0
 62
7
100
AcDbPolyline
 90
2
 70
0
 10
135.973062
 20
-3.621630
 30
0.0
 10
135.973062
 20
-15.621636
 30
0.0
  0
SPLINE
  5
365
100
AcDbEntity
  8
0
 62
7
100
AcDbSpline
 70
8
 71
3
 72
8
 73
4
 74
0
 40
0
 40
0
 40
0
 40
0
 40
1
 40
1
 40
1
 40
1
 10
53.723018
 20
-16.621658
 30
0.0
 10
53.988245
 20
-16.621680
 30
0.0
 10
54.242615
 20
-16.516327
 30
0.0
 10
54.430157
 20
-16.328781
 30
0.0
  0
SPLINE
  5
366
100
AcDbEntity
  8
0
 62
7
100
AcDbSpline
 70
8
 71
3
 72
8
 73
4
 74
0
 40
0
 40
0
 40
0
 40
0
 40
1
 40
1
 40
1
 40
1
 10
54.430157
 20
-16.328781
 30
0.0
 10
54.617699
 20
-16.141236
 30
0.0
 10
54.723046
 20
-15.886863
 30
0.0
 10
54.723019
 20
-15.621636
 30
0.0
  0
SPLINE
  5
367
100
AcDbEntity
  8
0
 62
7
100
AcDbSpline
 70
8
 71
3
 72
8
 73
4
 74
0
 40
0
 40
0
 40
0
 40
0
 40
1
 40
1
 40
1
 40
1
 10
125.160557
 20
-54.721696
 30
0.0
 10
125.712844
 20
-54.721665
 30
0.0
 10
126.160547
 20
-54.273944
 30
0.0
 10
126.160557
 20
-53.721657
 30
0.0
  0
SPLINE
  5
368
100
AcDbEntity
  8
0
 62
7
100
AcDbSpline
 70
8
 71
3
 72
8
 73
4
 74
0
 40
0
 40
0
 40
0
 40
0
 40
1
 40
1
 40
1
 40
1
 10
183.310590
 20
-41.721650
 30
0.0
 10
183.310593
 20
-41.456432
 30
0.0
 10
183.205237
 20
-41.202076
 30
0.0
 10
183.017699
 20
-41.014539
 30
0.0
  0
SPLINE
  5
369
100
AcDbEntity
  8
0
 62
7
100
AcDbSpline
 70
8
 71
3
 72
8
 73
4
 74
0
 40
0
 40
0
 40
0
 40
0
 40
1
 40
1
 40
1
 40
1
 10
183.017699
 20
-41.014539
 30
0.0
 10
182.830161
 20
-40.827002
 30
0.0
 10
182.575805
 20
-40.721646
 30
0.0
 10
182.310587
 20
-40.721649
 30
0.0
  0
LWPOLYLINE
  5
36a
100
AcDbEntity
  8
0
 62
7
100
AcDbPolyline
 90
2
 70
0
 10
252.216375
 20
-73.771668
 30
0.0
 10
267.092383
 20
-73.771668
 30
0.0
  0
SPLINE
  5
36b
100
AcDbEntity
  8
0
 62
7
100
AcDbSpline
 70
8
 71
3
 72
8
 73
4
 74
0
 40
0
 40
0
 40
0
 40
0
 40
1
 40
1
 40
1
 40
1
 10
3.622991
 20
-2.621629
 30
0.0
 10
3.070731
 20
-2.621690
 30
0.0
 10
2.623050
 20
-3.069370
 30
0.0
 10
2.622990
 20
-3.621630
 30
0.0
  0
LWPOLYLINE
  5
36c
100
AcDbEntity
  8
0
 62
7
100
AcDbPolyline
 90
2
 70
0
 10
3.622991
 20
-16.621637
 30
0.0
 10
15.622997
 20
-16.621637
 30
0.0
  0
LWPOLYLINE
  5
36d
100
AcDbEntity
  8
0
 62
7
100
AcDbPolyline
 90
2
 70
0
 10
239.460618
 20
-40.721650
 30
0.0
 10
227.460612
 20
-40.721650
 30
0.0
  0
SPLINE
  5
36e
100
AcDbEntity
  8
0
 62
7
100
AcDbSpline
 70
8
 71
3
 72
8
 73
4
 74
0
 40
0
 40
0
 40
0
 40
0
 40
1
 40
1
 40
1
 40
1
 10
40.443371
 20
-60.747568
 30
0.0
 10
40.443379
 20
-60.482352
 30
0.0
 10
40.338026
 20
-60.227995
 30
0.0
 10
40.150491
 20
-60.040457
 30
0.0
  0
SPLINE
  5
36f
100
AcDbEntity
  8
0
 62
7
100
AcDbSpline
 70
8
 71
3
 72
8
 73
4
 74
0
 40
0
 40
0
 40
0
 40
0
 40
1
 40
1
 40
1
 40
1
 10
40.150491
 20
-60.040457
 30
0.0
 10
39.962955
 20
-59.852920
 30
0.0
 10
39.708600
 20
-59.747564
 30
0.0
 10
39.443383
 20
-59.747568
 30
0.0
  0
SPLINE
  5
370
100
AcDbEntity
  8
0
 62
7
100
AcDbSpline
 70
8
 71
3
 72
8
 73
4
 74
0
 40
0
 40
0
 40
0
 40
0
 40
1
 40
1
 40
1
 40
1
 10
235.698099
 20
-22.671640
 30
0.0
 10
235.698100
 20
-22.119362
 30
0.0
 10
235.250394
 20
-21.671649
 30
0.0
 10
234.698116
 20
-21.671640
 30
0.0
  0
SPLINE
  5
371
100
AcDbEntity
  8
0
 62
7
100
AcDbSpline
 70
8
 71
3
 72
8
 73
4
 74
0
 40
0
 40
0
 40
0
 40
0
 40
1
 40
1
 40
1
 40
1
 10
233.316869
 20
-79.821671
 30
0.0
 10
233.316877
 20
-79.556451
 30
0.0
 10
233.211523
 20
-79.302092
 30
0.0
 10
233.023983
 20
-79.114553
 30
0.0
  0
SPLINE
  5
372
100
AcDbEntity
  8
0
 62
7
100
AcDbSpline
 70
8
 71
3
 72
8
 73
4
 74
0
 40
0
 40
0
 40
0
 40
0
 40
1
 40
1
 40
1
 40
1
 10
233.023983
 20
-79.114553
 30
0.0
 10
232.836444
 20
-78.927015
 30
0.0
 10
232.582084
 20
-78.821661
 30
0.0
 10
232.316864
 20
-78.821670
 30
0.0
  0
SPLINE
  5
373
100
AcDbEntity
  8
0
 62
7
100
AcDbSpline
 70
8
 71
3
 72
8
 73
4
 74
0
 40
0
 40
0
 40
0
 40
0
 40
1
 40
1
 40
1
 40
1
 10
169.023109
 20
-3.621630
 30
0.0
 10
169.023107
 20
-3.356410
 30
0.0
 10
168.917745
 20
-3.102053
 30
0.0
 10
168.730203
 20
-2.914516
 30
0.0
  0
SPLINE
  5
374
100
AcDbEntity
  8
0
 62
7
100
AcDbSpline
 70
8
 71
3
 72
8
 73
4
 74
0
 40
0
 40
0
 40
0
 40
0
 40
1
 40
1
 40
1
 40
1
 10
168.730203
 20
-2.914516
 30
0.0
 10
168.542661
 20
-2.726979
 30
0.0
 10
168.288301
 20
-2.621625
 30
0.0
 10
168.023080
 20
-2.621630
 30
0.0
  0
LWPOLYLINE
  5
375
100
AcDbEntity
  8
0
 62
7
100
AcDbPolyline
 90
2
 70
0
 10
97.873042
 20
-3.621630
 30
0.0
 10
97.873042
 20
-15.621636
 30
0.0
  0
SPLINE
  5
376
100
AcDbEntity
  8
0
 62
7
100
AcDbSpline
 70
8
 71
3
 72
8
 73
4
 74
0
 40
0
 40
0
 40
0
 40
0
 40
1
 40
1
 40
1
 40
1
 10
64.535472
 20
-72.771667
 30
0.0
 10
64.535487
 20
-73.323966
 30
0.0
 10
64.983225
 20
-73.771681
 30
0.0
 10
65.535524
 20
-73.771667
 30
0.0
  0
LWPOLYLINE
  5
377
100
AcDbEntity
  8
0
 62
7
100
AcDbPolyline
 90
2
 70
0
 10
21.385500
 20
-34.671646
 30
0.0
 10
21.385500
 20
-22.671640
 30
0.0
  0
LWPOLYLINE
  5
378
100
AcDbEntity
  8
0
 62
7
100
AcDbPolyline
 90
2
 70
0
 10
164.548078
 20
-22.671640
 30
0.0
 10
164.548078
 20
-34.671646
 30
0.0
  0
SPLINE
  5
379
100
AcDbEntity
  8
0
 62
7
100
AcDbSpline
 70
8
 71
3
 72
8
 73
4
 74
0
 40
0
 40
0
 40
0
 40
0
 40
1
 40
1
 40
1
 40
1
 10
87.060536
 20
-54.721675
 30
0.0
 10
87.612820
 20
-54.721655
 30
0.0
 10
88.060526
 20
-54.273941
 30
0.0
 10
88.060536
 20
-53.721657
 30
0.0
  0
LWPOLYLINE
  5
37a
100
AcDbEntity
  8
0
 62
7
100
AcDbPolyline
 90
2
 70
0
 10
235.698116
 20
-34.671646
 30
0.0
 10
235.698116
 20
-22.671640
 30
0.0
  0
SPLINE
  5
37b
100
AcDbEntity
  8
0
 62
7
100
AcDbSpline
 70
8
 71
3
 72
8
 73
4
 74
0
 40
0
 40
0
 40
0
 40
0
 40
1
 40
1
 40
1
 40
1
 10
72.773028
 20
-16.621568
 30
0.0
 10
73.038247
 20
-16.621614
 30
0.0
 10
73.292617
 20
-16.516281
 30
0.0
 10
73.480161
 20
-16.328750
 30
0.0
  0
SPLINE
  5
37c
100
AcDbEntity
  8
0
 62
7
100
AcDbSpline
 70
8
 71
3
 72
8
 73
4
 74
0
 40
0
 40
0
 40
0
 40
0
 40
1
 40
1
 40
1
 40
1
 10
73.480161
 20
-16.328750
 30
0.0
 10
73.667706
 20
-16.141218
 30
0.0
 10
73.773056
 20
-15.886855
 30
0.0
 10
73.773029
 20
-15.621636
 30
0.0
  0
LWPOLYLINE
  5
37d
100
AcDbEntity
  8
0
 62
7
100
AcDbPolyline
 90
2
 70
0
 10
58.485521
 20
-59.771660
 30
0.0
 10
46.485514
 20
-59.771660
 30
0.0
  0
LWPOLYLINE
  5
37e
100
AcDbEntity
  8
0
 62
7
100
AcDbPolyline
 90
2
 70
0
 10
49.960516
 20
-53.721657
 30
0.0
 10
49.960516
 20
-41.721650
 30
0.0
  0
SPLINE
  5
37f
100
AcDbEntity
  8
0
 62
7
100
AcDbSpline
 70
8
 71
3
 72
8
 73
4
 74
0
 40
0
 40
0
 40
0
 40
0
 40
1
 40
1
 40
1
 40
1
 10
177.548085
 20
-35.671625
 30
0.0
 10
177.813299
 20
-35.671629
 30
0.0
 10
178.067652
 20
-35.566277
 30
0.0
 10
178.255189
 20
-35.378744
 30
0.0
  0
SPLINE
  5
380
100
AcDbEntity
  8
0
 62
7
100
AcDbSpline
 70
8
 71
3
 72
8
 73
4
 74
0
 40
0
 40
0
 40
0
 40
0
 40
1
 40
1
 40
1
 40
1
 10
178.255189
 20
-35.378744
 30
0.0
 10
178.442726
 20
-35.191211
 30
0.0
 10
178.548084
 20
-34.936860
 30
0.0
 10
178.548086
 20
-34.671646
 30
0.0
  0
LWPOLYLINE
  5
381
100
AcDbEntity
  8
0
 62
7
100
AcDbPolyline
 90
2
 70
0
 10
212.173104
 20
-3.621630
 30
0.0
 10
212.173104
 20
-15.621636
 30
0.0
  0
SPLINE
  5
382
100
AcDbEntity
  8
0
 62
7
100
AcDbSpline
 70
8
 71
3
 72
8
 73
4
 74
0
 40
0
 40
0
 40
0
 40
0
 40
1
 40
1
 40
1
 40
1
 10
155.023003
 20
-15.621636
 30
0.0
 10
155.023057
 20
-16.173926
 30
0.0
 10
155.470783
 20
-16.621621
 30
0.0
 10
156.023073
 20
-16.621636
 30
0.0
  0
LWPOLYLINE
  5
383
100
AcDbEntity
  8
0
 62
7
100
AcDbPolyline
 90
2
 70
0
 10
211.885603
 20
-72.771667
 30
0.0
 10
211.885603
 20
-60.771660
 30
0.0
  0
LWPOLYLINE
  5
384
100
AcDbEntity
  8
0
 62
7
100
AcDbPolyline
 90
2
 70
0
 10
8.385493
 20
-35.671647
 30
0.0
 10
20.385500
 20
-35.671647
 30
0.0
  0
LWPOLYLINE
  5
385
100
AcDbEntity
  8
0
 62
7
100
AcDbPolyline
 90
2
 70
0
 10
45.485513
 20
-60.771660
 30
0.0
 10
45.485513
 20
-72.771667
 30
0.0
  0
LWPOLYLINE
  5
386
100
AcDbEntity
  8
0
 62
7
100
AcDbPolyline
 90
2
 70
0
 10
264.560632
 20
-79.821671
 30
0.0
 10
264.560632
 20
-91.821677
 30
0.0
  0
LWPOLYLINE
  5
387
100
AcDbEntity
  8
0
 62
7
100
AcDbPolyline
 90
2
 70
0
 10
170.310581
 20
-54.721657
 30
0.0
 10
182.310587
 20
-54.721657
 30
0.0
  0
SPLINE
  5
388
100
AcDbEntity
  8
0
 62
7
100
AcDbSpline
 70
8
 71
3
 72
8
 73
4
 74
0
 40
0
 40
0
 40
0
 40
0
 40
1
 40
1
 40
1
 40
1
 10
226.460581
 20
-53.721657
 30
0.0
 10
226.460591
 20
-54.273950
 30
0.0
 10
226.908319
 20
-54.721665
 30
0.0
 10
227.460612
 20
-54.721658
 30
0.0
  0
SPLINE
  5
389
100
AcDbEntity
  8
0
 62
7
100
AcDbSpline
 70
8
 71
3
 72
8
 73
4
 74
0
 40
0
 40
0
 40
0
 40
0
 40
1
 40
1
 40
1
 40
1
 10
121.398099
 20
-22.671640
 30
0.0
 10
121.398099
 20
-22.406416
 30
0.0
 10
121.292736
 20
-22.152055
 30
0.0
 10
121.105190
 20
-21.964517
 30
0.0
  0
SPLINE
  5
38a
100
AcDbEntity
  8
0
 62
7
100
AcDbSpline
 70
8
 71
3
 72
8
 73
4
 74
0
 40
0
 40
0
 40
0
 40
0
 40
1
 40
1
 40
1
 40
1
 10
121.105190
 20
-21.964517
 30
0.0
 10
120.917644
 20
-21.776980
 30
0.0
 10
120.663278
 20
-21.671628
 30
0.0
 10
120.398054
 20
-21.671640
 30
0.0
  0
LWPOLYLINE
  5
38b
100
AcDbEntity
  8
0
 62
7
100
AcDbPolyline
 90
2
 70
0
 10
122.685555
 20
-73.771668
 30
0.0
 10
134.685562
 20
-73.771668
 30
0.0
  0
LWPOLYLINE
  5
38c
100
AcDbEntity
  8
0
 62
7
100
AcDbPolyline
 90
2
 70
0
 10
240.460619
 20
-53.721657
 30
0.0
 10
240.460619
 20
-41.721650
 30
0.0
  0
LWPOLYLINE
  5
38d
100
AcDbEntity
  8
0
 62
7
100
AcDbPolyline
 90
2
 70
0
 10
231.223114
 20
-3.621630
 30
0.0
 10
231.223114
 20
-15.621636
 30
0.0
  0
SPLINE
  5
38e
100
AcDbEntity
  8
0
 62
7
100
AcDbSpline
 70
8
 71
3
 72
8
 73
4
 74
0
 40
0
 40
0
 40
0
 40
0
 40
1
 40
1
 40
1
 40
1
 10
134.685562
 20
-73.771702
 30
0.0
 10
135.237846
 20
-73.771668
 30
0.0
 10
135.685548
 20
-73.323952
 30
0.0
 10
135.685563
 20
-72.771667
 30
0.0
  0
LWPOLYLINE
  5
38f
100
AcDbEntity
  8
0
 62
7
100
AcDbPolyline
 90
2
 70
0
 10
259.360129
 20
-16.621637
 30
0.0
 10
274.236137
 20
-16.621637
 30
0.0
  0
SPLINE
  5
390
100
AcDbEntity
  8
0
 62
7
100
AcDbSpline
 70
8
 71
3
 72
8
 73
4
 74
0
 40
0
 40
0
 40
0
 40
0
 40
1
 40
1
 40
1
 40
1
 10
46.485514
 20
-59.771653
 30
0.0
 10
45.933246
 20
-59.771701
 30
0.0
 10
45.485558
 20
-60.219393
 30
0.0
 10
45.485514
 20
-60.771660
 30
0.0
  0
SPLINE
  5
391
100
AcDbEntity
  8
0
 62
7
100
AcDbSpline
 70
8
 71
3
 72
8
 73
4
 74
0
 40
0
 40
0
 40
0
 40
0
 40
1
 40
1
 40
1
 40
1
 10
68.010526
 20
-54.721665
 30
0.0
 10
68.275750
 20
-54.721685
 30
0.0
 10
68.530116
 20
-54.616333
 30
0.0
 10
68.717657
 20
-54.428791
 30
0.0
  0
SPLINE
  5
392
100
AcDbEntity
  8
0
 62
7
100
AcDbSpline
 70
8
 71
3
 72
8
 73
4
 74
0
 40
0
 40
0
 40
0
 40
0
 40
1
 40
1
 40
1
 40
1
 10
68.717657
 20
-54.428791
 30
0.0
 10
68.905198
 20
-54.241249
 30
0.0
 10
69.010548
 20
-53.986881
 30
0.0
 10
69.010526
 20
-53.721657
 30
0.0
  0
LWPOLYLINE
  5
393
100
AcDbEntity
  8
0
 62
7
100
AcDbPolyline
 90
2
 70
0
 10
187.073090
 20
-2.621629
 30
0.0
 10
175.073083
 20
-2.621629
 30
0.0
  0
SPLINE
  5
394
100
AcDbEntity
  8
0
 62
7
100
AcDbSpline
 70
8
 71
3
 72
8
 73
4
 74
0
 40
0
 40
0
 40
0
 40
0
 40
1
 40
1
 40
1
 40
1
 10
187.073090
 20
-16.621630
 30
0.0
 10
187.338323
 20
-16.621686
 30
0.0
 10
187.592708
 20
-16.516348
 30
0.0
 10
187.780257
 20
-16.328801
 30
0.0
  0
SPLINE
  5
395
100
AcDbEntity
  8
0
 62
7
100
AcDbSpline
 70
8
 71
3
 72
8
 73
4
 74
0
 40
0
 40
0
 40
0
 40
0
 40
1
 40
1
 40
1
 40
1
 10
187.780257
 20
-16.328801
 30
0.0
 10
187.967805
 20
-16.141254
 30
0.0
 10
188.073145
 20
-15.886869
 30
0.0
 10
188.073091
 20
-15.621636
 30
0.0
  0
LWPOLYLINE
  5
396
100
AcDbEntity
  8
0
 62
7
100
AcDbPolyline
 90
2
 70
0
 10
65.535524
 20
-73.771668
 30
0.0
 10
77.535531
 20
-73.771668
 30
0.0
  0
LWPOLYLINE
  5
397
100
AcDbEntity
  8
0
 62
7
100
AcDbPolyline
 90
2
 70
0
 10
240.748119
 20
-79.821671
 30
0.0
 10
240.748119
 20
-91.821677
 30
0.0
  0
SPLINE
  5
398
100
AcDbEntity
  8
0
 62
7
100
AcDbSpline
 70
8
 71
3
 72
8
 73
4
 74
0
 40
0
 40
0
 40
0
 40
0
 40
1
 40
1
 40
1
 40
1
 10
275.236203
 20
-17.621637
 30
0.0
 10
275.236202
 20
-17.356409
 30
0.0
 10
275.130836
 20
-17.102046
 30
0.0
 10
274.943286
 20
-16.914507
 30
0.0
  0
SPLINE
  5
399
100
AcDbEntity
  8
0
 62
7
100
AcDbSpline
 70
8
 71
3
 72
8
 73
4
 74
0
 40
0
 40
0
 40
0
 40
0
 40
1
 40
1
 40
1
 40
1
 10
274.943286
 20
-16.914507
 30
0.0
 10
274.755735
 20
-16.726969
 30
0.0
 10
274.501365
 20
-16.621620
 30
0.0
 10
274.236137
 20
-16.621636
 30
0.0
  0
LWPOLYLINE
  5
39a
100
AcDbEntity
  8
0
 62
7
100
AcDbPolyline
 90
2
 70
0
 10
283.468750
 20
-95.343639
 30
0.0
 10
2.481250
 20
-95.343639
 30
0.0
  0
SPLINE
  5
39b
100
AcDbEntity
  8
0
 62
7
100
AcDbSpline
 70
8
 71
3
 72
8
 73
4
 74
0
 40
0
 40
0
 40
0
 40
0
 40
1
 40
1
 40
1
 40
1
 10
173.785580
 20
-60.771660
 30
0.0
 10
173.785586
 20
-60.506442
 30
0.0
 10
173.680231
 20
-60.252085
 30
0.0
 10
173.492694
 20
-60.064548
 30
0.0
  0
SPLINE
  5
39c
100
AcDbEntity
  8
0
 62
7
100
AcDbSpline
 70
8
 71
3
 72
8
 73
4
 74
0
 40
0
 40
0
 40
0
 40
0
 40
1
 40
1
 40
1
 40
1
 10
173.492694
 20
-60.064548
 30
0.0
 10
173.305157
 20
-59.877010
 30
0.0
 10
173.050800
 20
-59.771655
 30
0.0
 10
172.785582
 20
-59.771659
 30
0.0
  0
SPLINE
  5
39d
100
AcDbEntity
  8
0
 62
7
100
AcDbSpline
 70
8
 71
3
 72
8
 73
4
 74
0
 40
0
 40
0
 40
0
 40
0
 40
1
 40
1
 40
1
 40
1
 10
29.975170
 20
-74.747569
 30
0.0
 10
29.975151
 20
-75.012785
 30
0.0
 10
30.080497
 20
-75.267144
 30
0.0
 10
30.268030
 20
-75.454684
 30
0.0
  0
SPLINE
  5
39e
100
AcDbEntity
  8
0
 62
7
100
AcDbSpline
 70
8
 71
3
 72
8
 73
4
 74
0
 40
0
 40
0
 40
0
 40
0
 40
1
 40
1
 40
1
 40
1
 10
30.268030
 20
-75.454684
 30
0.0
 10
30.455562
 20
-75.642223
 30
0.0
 10
30.709917
 20
-75.747578
 30
0.0
 10
30.975133
 20
-75.747569
 30
0.0
  0
SPLINE
  5
39f
100
AcDbEntity
  8
0
 62
7
100
AcDbSpline
 70
8
 71
3
 72
8
 73
4
 74
0
 40
0
 40
0
 40
0
 40
0
 40
1
 40
1
 40
1
 40
1
 10
209.504368
 20
-79.821671
 30
0.0
 10
209.504376
 20
-79.556449
 30
0.0
 10
209.399020
 20
-79.302088
 30
0.0
 10
209.211478
 20
-79.114550
 30
0.0
  0
SPLINE
  5
3a0
100
AcDbEntity
  8
0
 62
7
100
AcDbSpline
 70
8
 71
3
 72
8
 73
4
 74
0
 40
0
 40
0
 40
0
 40
0
 40
1
 40
1
 40
1
 40
1
 10
209.211478
 20
-79.114550
 30
0.0
 10
209.023937
 20
-78.927011
 30
0.0
 10
208.769574
 20
-78.821659
 30
0.0
 10
208.504352
 20
-78.821671
 30
0.0
  0
SPLINE
  5
3a1
100
AcDbEntity
  8
0
 62
7
100
AcDbSpline
 70
8
 71
3
 72
8
 73
4
 74
0
 40
0
 40
0
 40
0
 40
0
 40
1
 40
1
 40
1
 40
1
 10
153.735572
 20
-73.771712
 30
0.0
 10
154.287858
 20
-73.771673
 30
0.0
 10
154.735558
 20
-73.323953
 30
0.0
 10
154.735573
 20
-72.771667
 30
0.0
  0
LWPOLYLINE
  5
3a2
100
AcDbEntity
  8
0
 62
7
100
AcDbPolyline
 90
2
 70
0
 10
163.260577
 20
-40.721650
 30
0.0
 10
151.260571
 20
-40.721650
 30
0.0
  0
LWPOLYLINE
  5
3a3
100
AcDbEntity
  8
0
 62
7
100
AcDbPolyline
 90
2
 70
0
 10
280.936933
 20
-32.197969
 30
0.0
 10
280.936933
 20
-44.197969
 30
0.0
  0
SPLINE
  5
3a4
100
AcDbEntity
  8
0
 62
7
100
AcDbSpline
 70
8
 71
3
 72
8
 73
4
 74
0
 40
0
 40
0
 40
0
 40
0
 40
1
 40
1
 40
1
 40
1
 10
39.443383
 20
-73.747522
 30
0.0
 10
39.995653
 20
-73.747532
 30
0.0
 10
40.443366
 20
-73.299840
 30
0.0
 10
40.443383
 20
-72.747569
 30
0.0
  0
LWPOLYLINE
  5
3a5
100
AcDbEntity
  8
0
 62
7
100
AcDbPolyline
 90
2
 70
0
 10
136.973063
 20
-16.621637
 30
0.0
 10
148.973069
 20
-16.621637
 30
0.0
  0
SPLINE
  5
3a6
100
AcDbEntity
  8
0
 62
7
100
AcDbSpline
 70
8
 71
3
 72
8
 73
4
 74
0
 40
0
 40
0
 40
0
 40
0
 40
1
 40
1
 40
1
 40
1
 10
184.566770
 20
-77.821670
 30
0.0
 10
184.566805
 20
-77.556455
 30
0.0
 10
184.461468
 20
-77.302091
 30
0.0
 10
184.273939
 20
-77.114549
 30
0.0
  0
SPLINE
  5
3a7
100
AcDbEntity
  8
0
 62
7
100
AcDbSpline
 70
8
 71
3
 72
8
 73
4
 74
0
 40
0
 40
0
 40
0
 40
0
 40
1
 40
1
 40
1
 40
1
 10
184.273939
 20
-77.114549
 30
0.0
 10
184.086410
 20
-76.927007
 30
0.0
 10
183.832053
 20
-76.821653
 30
0.0
 10
183.566838
 20
-76.821669
 30
0.0
  0
SPLINE
  5
3a8
100
AcDbEntity
  8
0
 62
7
100
AcDbSpline
 70
8
 71
3
 72
8
 73
4
 74
0
 40
0
 40
0
 40
0
 40
0
 40
1
 40
1
 40
1
 40
1
 10
192.835579
 20
-60.771660
 30
0.0
 10
192.835585
 20
-60.506445
 30
0.0
 10
192.730231
 20
-60.252090
 30
0.0
 10
192.542697
 20
-60.064552
 30
0.0
  0
SPLINE
  5
3a9
100
AcDbEntity
  8
0
 62
7
100
AcDbSpline
 70
8
 71
3
 72
8
 73
4
 74
0
 40
0
 40
0
 40
0
 40
0
 40
1
 40
1
 40
1
 40
1
 10
192.542697
 20
-60.064552
 30
0.0
 10
192.355162
 20
-59.877015
 30
0.0
 10
192.100809
 20
-59.771658
 30
0.0
 10
191.835593
 20
-59.771660
 30
0.0
  0
LWPOLYLINE
  5
3aa
100
AcDbEntity
  8
0
 62
7
100
AcDbPolyline
 90
2
 70
0
 10
68.010526
 20
-40.721650
 30
0.0
 10
56.010519
 20
-40.721650
 30
0.0
  0
SPLINE
  5
3ab
100
AcDbEntity
  8
0
 62
7
100
AcDbSpline
 70
8
 71
3
 72
8
 73
4
 74
0
 40
0
 40
0
 40
0
 40
0
 40
1
 40
1
 40
1
 40
1
 10
216.935571
 20
-72.771667
 30
0.0
 10
216.935586
 20
-73.323960
 30
0.0
 10
217.383314
 20
-73.771672
 30
0.0
 10
217.935607
 20
-73.771668
 30
0.0
  0
SPLINE
  5
3ac
100
AcDbEntity
  8
0
 62
7
100
AcDbSpline
 70
8
 71
3
 72
8
 73
4
 74
0
 40
0
 40
0
 40
0
 40
0
 40
1
 40
1
 40
1
 40
1
 10
28.816761
 20
-91.821677
 30
0.0
 10
28.816782
 20
-92.373951
 30
0.0
 10
29.264481
 20
-92.821653
 30
0.0
 10
29.816755
 20
-92.821678
 30
0.0
  0
SPLINE
  5
3ad
100
AcDbEntity
  8
0
 62
7
100
AcDbSpline
 70
8
 71
3
 72
8
 73
4
 74
0
 40
0
 40
0
 40
0
 40
0
 40
1
 40
1
 40
1
 40
1
 10
51.248017
 20
-21.671655
 30
0.0
 10
50.695757
 20
-21.671701
 30
0.0
 10
50.248071
 20
-22.119380
 30
0.0
 10
50.248016
 20
-22.671640
 30
0.0
  0
SPLINE
  5
3ae
100
AcDbEntity
  8
0
 62
7
100
AcDbSpline
 70
8
 71
3
 72
8
 73
4
 74
0
 40
0
 40
0
 40
0
 40
0
 40
1
 40
1
 40
1
 40
1
 10
253.748126
 20
-35.671666
 30
0.0
 10
254.013352
 20
-35.671686
 30
0.0
 10
254.267721
 20
-35.566333
 30
0.0
 10
254.455262
 20
-35.378788
 30
0.0
  0
SPLINE
  5
3af
100
AcDbEntity
  8
0
 62
7
100
AcDbSpline
 70
8
 71
3
 72
8
 73
4
 74
0
 40
0
 40
0
 40
0
 40
0
 40
1
 40
1
 40
1
 40
1
 10
254.455262
 20
-35.378788
 30
0.0
 10
254.642803
 20
-35.191243
 30
0.0
 10
254.748152
 20
-34.936872
 30
0.0
 10
254.748127
 20
-34.671646
 30
0.0
  0
LWPOLYLINE
  5
3b0
100
AcDbEntity
  8
0
 62
7
100
AcDbPolyline
 90
2
 70
0
 10
194.123094
 20
-16.621637
 30
0.0
 10
206.123100
 20
-16.621637
 30
0.0
  0
LWPOLYLINE
  5
3b1
100
AcDbEntity
  8
0
 62
7
100
AcDbPolyline
 90
2
 70
0
 10
40.723011
 20
-3.621630
 30
0.0
 10
40.723011
 20
-15.621636
 30
0.0
  0
LWPOLYLINE
  5
3b2
100
AcDbEntity
  8
0
 62
7
100
AcDbPolyline
 90
2
 70
0
 10
110.873049
 20
-2.621629
 30
0.0
 10
98.873042
 20
-2.621629
 30
0.0
  0
SPLINE
  5
3b3
100
AcDbEntity
  8
0
 62
7
100
AcDbSpline
 70
8
 71
3
 72
8
 73
4
 74
0
 40
0
 40
0
 40
0
 40
0
 40
1
 40
1
 40
1
 40
1
 10
239.460618
 20
-54.721657
 30
0.0
 10
239.725841
 20
-54.721679
 30
0.0
 10
239.980208
 20
-54.616329
 30
0.0
 10
240.167749
 20
-54.428788
 30
0.0
  0
SPLINE
  5
3b4
100
AcDbEntity
  8
0
 62
7
100
AcDbSpline
 70
8
 71
3
 72
8
 73
4
 74
0
 40
0
 40
0
 40
0
 40
0
 40
1
 40
1
 40
1
 40
1
 10
240.167749
 20
-54.428788
 30
0.0
 10
240.355290
 20
-54.241247
 30
0.0
 10
240.460640
 20
-53.986880
 30
0.0
 10
240.460618
 20
-53.721657
 30
0.0
  0
LWPOLYLINE
  5
3b5
100
AcDbEntity
  8
0
 62
7
100
AcDbPolyline
 90
2
 70
0
 10
141.735565
 20
-73.771668
 30
0.0
 10
153.735572
 20
-73.771668
 30
0.0
  0
SPLINE
  5
3b6
100
AcDbEntity
  8
0
 62
7
100
AcDbSpline
 70
8
 71
3
 72
8
 73
4
 74
0
 40
0
 40
0
 40
0
 40
0
 40
1
 40
1
 40
1
 40
1
 10
94.110540
 20
-40.721679
 30
0.0
 10
93.845325
 20
-40.721669
 30
0.0
 10
93.590970
 20
-40.827018
 30
0.0
 10
93.403432
 20
-41.014551
 30
0.0
  0
SPLINE
  5
3b7
100
AcDbEntity
  8
0
 62
7
100
AcDbSpline
 70
8
 71
3
 72
8
 73
4
 74
0
 40
0
 40
0
 40
0
 40
0
 40
1
 40
1
 40
1
 40
1
 10
93.403432
 20
-41.014551
 30
0.0
 10
93.215894
 20
-41.202083
 30
0.0
 10
93.110537
 20
-41.456436
 30
0.0
 10
93.110540
 20
-41.721650
 30
0.0
  0
SPLINE
  5
3b8
100
AcDbEntity
  8
0
 62
7
100
AcDbSpline
 70
8
 71
3
 72
8
 73
4
 74
0
 40
0
 40
0
 40
0
 40
0
 40
1
 40
1
 40
1
 40
1
 10
208.504352
 20
-92.821692
 30
0.0
 10
209.056631
 20
-92.821664
 30
0.0
 10
209.504332
 20
-92.373956
 30
0.0
 10
209.504353
 20
-91.821677
 30
0.0
  0
LWPOLYLINE
  5
3b9
100
AcDbEntity
  8
0
 62
7
100
AcDbPolyline
 90
2
 70
0
 10
103.635545
 20
-73.771668
 30
0.0
 10
115.635551
 20
-73.771668
 30
0.0
  0
LWPOLYLINE
  5
3ba
100
AcDbEntity
  8
0
 62
7
100
AcDbPolyline
 90
2
 70
0
 10
29.816755
 20
-92.821678
 30
0.0
 10
44.198013
 20
-92.821678
 30
0.0
  0
LWPOLYLINE
  5
3bb
100
AcDbEntity
  8
0
 62
7
100
AcDbPolyline
 90
2
 70
0
 10
279.941890
 20
-78.821670
 30
0.0
 10
265.560632
 20
-78.821670
 30
0.0
  0
LWPOLYLINE
  5
3bc
100
AcDbEntity
  8
0
 62
7
100
AcDbPolyline
 90
2
 70
0
 10
197.598096
 20
-34.671646
 30
0.0
 10
197.598096
 20
-22.671640
 30
0.0
  0
LWPOLYLINE
  5
3bd
100
AcDbEntity
  8
0
 62
7
100
AcDbPolyline
 90
2
 70
0
 10
222.698109
 20
-35.671647
 30
0.0
 10
234.698116
 20
-35.671647
 30
0.0
  0
LWPOLYLINE
  5
3be
100
AcDbEntity
  8
0
 62
7
100
AcDbPolyline
 90
2
 70
0
 10
37.975133
 20
-73.747568
 30
0.0
 10
39.443383
 20
-73.747568
 30
0.0
  0
SPLINE
  5
3bf
100
AcDbEntity
  8
0
 62
7
100
AcDbSpline
 70
8
 71
3
 72
8
 73
4
 74
0
 40
0
 40
0
 40
0
 40
0
 40
1
 40
1
 40
1
 40
1
 10
282.779633
 20
-16.511383
 30
0.0
 10
282.445948
 20
-16.682554
 30
0.0
 10
282.236105
 20
-17.026056
 30
0.0
 10
282.236121
 20
-17.401082
 30
0.0
  0
LWPOLYLINE
  5
3c0
100
AcDbEntity
  8
0
 62
7
100
AcDbPolyline
 90
2
 70
0
 10
2.481250
 20
-0.099639
 30
0.0
 10
283.468750
 20
-0.099639
 30
0.0
  0
SPLINE
  5
3c1
100
AcDbEntity
  8
0
 62
7
100
AcDbSpline
 70
8
 71
3
 72
8
 73
4
 74
0
 40
0
 40
0
 40
0
 40
0
 40
1
 40
1
 40
1
 40
1
 10
248.973970
 20
-55.722969
 30
0.0
 10
248.973978
 20
-55.457744
 30
0.0
 10
248.868619
 20
-55.203380
 30
0.0
 10
248.681072
 20
-55.015841
 30
0.0
  0
SPLINE
  5
3c2
100
AcDbEntity
  8
0
 62
7
100
AcDbSpline
 70
8
 71
3
 72
8
 73
4
 74
0
 40
0
 40
0
 40
0
 40
0
 40
1
 40
1
 40
1
 40
1
 10
248.681072
 20
-55.015841
 30
0.0
 10
248.493526
 20
-54.828302
 30
0.0
 10
248.239158
 20
-54.722952
 30
0.0
 10
247.973933
 20
-54.722969
 30
0.0
  0
SPLINE
  5
3c3
100
AcDbEntity
  8
0
 62
7
100
AcDbSpline
 70
8
 71
3
 72
8
 73
4
 74
0
 40
0
 40
0
 40
0
 40
0
 40
1
 40
1
 40
1
 40
1
 10
280.436922
 20
-45.063975
 30
0.0
 10
280.746346
 20
-44.885374
 30
0.0
 10
280.936958
 20
-44.555239
 30
0.0
 10
280.936933
 20
-44.197969
 30
0.0
  0
SPLINE
  5
3c4
100
AcDbEntity
  8
0
 62
7
100
AcDbSpline
 70
8
 71
3
 72
8
 73
4
 74
0
 40
0
 40
0
 40
0
 40
0
 40
1
 40
1
 40
1
 40
1
 10
278.936933
 20
-56.722972
 30
0.0
 10
279.489211
 20
-56.722954
 30
0.0
 10
279.936916
 20
-56.275248
 30
0.0
 10
279.936933
 20
-55.722969
 30
0.0
  0
LWPOLYLINE
  5
3c5
100
AcDbEntity
  8
0
 62
7
100
AcDbPolyline
 90
2
 70
0
 10
164.260578
 20
-53.721657
 30
0.0
 10
164.260578
 20
-41.721650
 30
0.0
  0
LWPOLYLINE
  5
3c6
100
AcDbEntity
  8
0
 62
7
100
AcDbPolyline
 90
2
 70
0
 10
2.622990
 20
-3.621630
 30
0.0
 10
2.622990
 20
-15.621636
 30
0.0
  0
SPLINE
  5
3c7
100
AcDbEntity
  8
0
 62
7
100
AcDbSpline
 70
8
 71
3
 72
8
 73
4
 74
0
 40
0
 40
0
 40
0
 40
0
 40
1
 40
1
 40
1
 40
1
 10
126.448092
 20
-34.671646
 30
0.0
 10
126.448096
 20
-35.223916
 30
0.0
 10
126.895788
 20
-35.671624
 30
0.0
 10
127.448058
 20
-35.671647
 30
0.0
  0
LWPOLYLINE
  5
3c8
100
AcDbEntity
  8
0
 62
7
100
AcDbPolyline
 90
2
 70
0
 10
226.173111
 20
-15.621636
 30
0.0
 10
226.173111
 20
-3.621630
 30
0.0
  0
SPLINE
  5
3c9
100
AcDbEntity
  8
0
 62
7
100
AcDbSpline
 70
8
 71
3
 72
8
 73
4
 74
0
 40
0
 40
0
 40
0
 40
0
 40
1
 40
1
 40
1
 40
1
 10
160.690500
 20
-77.821639
 30
0.0
 10
160.690500
 20
-78.373919
 30
0.0
 10
161.138207
 20
-78.821632
 30
0.0
 10
161.690487
 20
-78.821639
 30
0.0
  0
LWPOLYLINE
  5
3ca
100
AcDbEntity
  8
0
 62
7
100
AcDbPolyline
 90
2
 70
0
 10
145.498068
 20
-22.671640
 30
0.0
 10
145.498068
 20
-34.671646
 30
0.0
  0
SPLINE
  5
3cb
100
AcDbEntity
  8
0
 62
7
100
AcDbSpline
 70
8
 71
3
 72
8
 73
4
 74
0
 40
0
 40
0
 40
0
 40
0
 40
1
 40
1
 40
1
 40
1
 10
172.785582
 20
-73.771722
 30
0.0
 10
173.337870
 20
-73.771677
 30
0.0
 10
173.785568
 20
-73.323955
 30
0.0
 10
173.785583
 20
-72.771667
 30
0.0
  0
LWPOLYLINE
  5
3cc
100
AcDbEntity
  8
0
 62
7
100
AcDbPolyline
 90
2
 70
0
 10
217.935607
 20
-92.821678
 30
0.0
 10
232.316864
 20
-92.821678
 30
0.0
  0
SPLINE
  5
3cd
100
AcDbEntity
  8
0
 62
7
100
AcDbSpline
 70
8
 71
3
 72
8
 73
4
 74
0
 40
0
 40
0
 40
0
 40
0
 40
1
 40
1
 40
1
 40
1
 10
2.481250
 20
-0.099639
 30
0.0
 10
1.849703
 20
-0.099639
 30
0.0
 10
1.244023
 20
-0.350520
 30
0.0
 10
0.797452
 20
-0.797091
 30
0.0
  0
SPLINE
  5
3ce
100
AcDbEntity
  8
0
 62
7
100
AcDbSpline
 70
8
 71
3
 72
8
 73
4
 74
0
 40
0
 40
0
 40
0
 40
0
 40
1
 40
1
 40
1
 40
1
 10
0.797452
 20
-0.797091
 30
0.0
 10
0.350881
 20
-1.243662
 30
0.0
 10
0.100000
 20
-1.849343
 30
0.0
 10
0.100000
 20
-2.480889
 30
0.0
  0
SPLINE
  5
3cf
100
AcDbEntity
  8
0
 62
7
100
AcDbSpline
 70
8
 71
3
 72
8
 73
4
 74
0
 40
0
 40
0
 40
0
 40
0
 40
1
 40
1
 40
1
 40
1
 10
179.835586
 20
-59.771725
 30
0.0
 10
179.570374
 20
-59.771703
 30
0.0
 10
179.316016
 20
-59.877043
 30
0.0
 10
179.128477
 20
-60.064570
 30
0.0
  0
SPLINE
  5
3d0
100
AcDbEntity
  8
0
 62
7
100
AcDbSpline
 70
8
 71
3
 72
8
 73
4
 74
0
 40
0
 40
0
 40
0
 40
0
 40
1
 40
1
 40
1
 40
1
 10
179.128477
 20
-60.064570
 30
0.0
 10
178.940938
 20
-60.252098
 30
0.0
 10
178.835580
 20
-60.506448
 30
0.0
 10
178.835586
 20
-60.771660
 30
0.0
  0
LWPOLYLINE
  5
3d1
100
AcDbEntity
  8
0
 62
7
100
AcDbPolyline
 90
2
 70
0
 10
276.236138
 20
-18.621638
 30
0.0
 10
281.236141
 20
-18.621638
 30
0.0
  0
SPLINE
  5
3d2
100
AcDbEntity
  8
0
 62
7
100
AcDbSpline
 70
8
 71
3
 72
8
 73
4
 74
0
 40
0
 40
0
 40
0
 40
0
 40
1
 40
1
 40
1
 40
1
 10
89.258919
 20
-77.821621
 30
0.0
 10
89.258914
 20
-77.556398
 30
0.0
 10
89.153550
 20
-77.302040
 30
0.0
 10
88.966004
 20
-77.114503
 30
0.0
  0
SPLINE
  5
3d3
100
AcDbEntity
  8
0
 62
7
100
AcDbSpline
 70
8
 71
3
 72
8
 73
4
 74
0
 40
0
 40
0
 40
0
 40
0
 40
1
 40
1
 40
1
 40
1
 10
88.966004
 20
-77.114503
 30
0.0
 10
88.778459
 20
-76.926966
 30
0.0
 10
88.524096
 20
-76.821613
 30
0.0
 10
88.258873
 20
-76.821620
 30
0.0
  0
LWPOLYLINE
  5
3d4
100
AcDbEntity
  8
0
 62
7
100
AcDbPolyline
 90
2
 70
0
 10
131.210560
 20
-41.721650
 30
0.0
 10
131.210560
 20
-53.721657
 30
0.0
  0
LWPOLYLINE
  5
3d5
100
AcDbEntity
  8
0
 62
7
100
AcDbPolyline
 90
2
 70
0
 10
53.723018
 20
-2.621629
 30
0.0
 10
41.723011
 20
-2.621629
 30
0.0
  0
LWPOLYLINE
  5
3d6
100
AcDbEntity
  8
0
 62
7
100
AcDbPolyline
 90
2
 70
0
 10
102.635544
 20
-60.771660
 30
0.0
 10
102.635544
 20
-72.771667
 30
0.0
  0
SPLINE
  5
3d7
100
AcDbEntity
  8
0
 62
7
100
AcDbSpline
 70
8
 71
3
 72
8
 73
4
 74
0
 40
0
 40
0
 40
0
 40
0
 40
1
 40
1
 40
1
 40
1
 10
110.873049
 20
-16.621689
 30
0.0
 10
111.425343
 20
-16.621662
 30
0.0
 10
111.873052
 20
-16.173931
 30
0.0
 10
111.873050
 20
-15.621636
 30
0.0
  0
SPLINE
  5
3d8
100
AcDbEntity
  8
0
 62
7
100
AcDbSpline
 70
8
 71
3
 72
8
 73
4
 74
0
 40
0
 40
0
 40
0
 40
0
 40
1
 40
1
 40
1
 40
1
 10
264.560662
 20
-91.821677
 30
0.0
 10
264.560619
 20
-92.086902
 30
0.0
 10
264.665958
 20
-92.341276
 30
0.0
 10
264.853497
 20
-92.528821
 30
0.0
  0
SPLINE
  5
3d9
100
AcDbEntity
  8
0
 62
7
100
AcDbSpline
 70
8
 71
3
 72
8
 73
4
 74
0
 40
0
 40
0
 40
0
 40
0
 40
1
 40
1
 40
1
 40
1
 10
264.853497
 20
-92.528821
 30
0.0
 10
265.041036
 20
-92.716366
 30
0.0
 10
265.295408
 20
-92.821712
 30
0.0
 10
265.560632
 20
-92.821677
 30
0.0
  0
SPLINE
  5
3da
100
AcDbEntity
  8
0
 62
7
100
AcDbSpline
 70
8
 71
3
 72
8
 73
4
 74
0
 40
0
 40
0
 40
0
 40
0
 40
1
 40
1
 40
1
 40
1
 10
107.110590
 20
-41.721650
 30
0.0
 10
107.110593
 20
-41.456425
 30
0.0
 10
107.005231
 20
-41.202063
 30
0.0
 10
106.817685
 20
-41.014524
 30
0.0
  0
SPLINE
  5
3db
100
AcDbEntity
  8
0
 62
7
100
AcDbSpline
 70
8
 71
3
 72
8
 73
4
 74
0
 40
0
 40
0
 40
0
 40
0
 40
1
 40
1
 40
1
 40
1
 10
106.817685
 20
-41.014524
 30
0.0
 10
106.630138
 20
-40.826986
 30
0.0
 10
106.375771
 20
-40.721635
 30
0.0
 10
106.110546
 20
-40.721649
 30
0.0
  0
SPLINE
  5
3dc
100
AcDbEntity
  8
0
 62
7
100
AcDbSpline
 70
8
 71
3
 72
8
 73
4
 74
0
 40
0
 40
0
 40
0
 40
0
 40
1
 40
1
 40
1
 40
1
 10
210.885603
 20
-73.771643
 30
0.0
 10
211.437878
 20
-73.771642
 30
0.0
 10
211.885589
 20
-73.323942
 30
0.0
 10
211.885604
 20
-72.771667
 30
0.0
  0
SPLINE
  5
3dd
100
AcDbEntity
  8
0
 62
7
100
AcDbSpline
 70
8
 71
3
 72
8
 73
4
 74
0
 40
0
 40
0
 40
0
 40
0
 40
1
 40
1
 40
1
 40
1
 10
248.973933
 20
-55.622969
 30
0.0
 10
248.933487
 20
-55.622969
 30
0.0
 10
248.897023
 20
-55.647334
 30
0.0
 10
248.881545
 20
-55.684701
 30
0.0
  0
SPLINE
  5
3de
100
AcDbEntity
  8
0
 62
7
100
AcDbSpline
 70
8
 71
3
 72
8
 73
4
 74
0
 40
0
 40
0
 40
0
 40
0
 40
1
 40
1
 40
1
 40
1
 10
248.881545
 20
-55.684701
 30
0.0
 10
248.866067
 20
-55.722068
 30
0.0
 10
248.874623
 20
-55.765080
 30
0.0
 10
248.903222
 20
-55.793680
 30
0.0
  0
SPLINE
  5
3df
100
AcDbEntity
  8
0
 62
7
100
AcDbSpline
 70
8
 71
3
 72
8
 73
4
 74
0
 40
0
 40
0
 40
0
 40
0
 40
1
 40
1
 40
1
 40
1
 10
248.903222
 20
-55.793680
 30
0.0
 10
248.931822
 20
-55.822280
 30
0.0
 10
248.974834
 20
-55.830835
 30
0.0
 10
249.012201
 20
-55.815357
 30
0.0
  0
SPLINE
  5
3e0
100
AcDbEntity
  8
0
 62
7
100
AcDbSpline
 70
8
 71
3
 72
8
 73
4
 74
0
 40
0
 40
0
 40
0
 40
0
 40
1
 40
1
 40
1
 40
1
 10
249.012201
 20
-55.815357
 30
0.0
 10
249.049569
 20
-55.799879
 30
0.0
 10
249.073933
 20
-55.763416
 30
0.0
 10
249.073933
 20
-55.722969
 30
0.0
  0
SPLINE
  5
3e1
100
AcDbEntity
  8
0
 62
7
100
AcDbSpline
 70
8
 71
3
 72
8
 73
4
 74
0
 40
0
 40
0
 40
0
 40
0
 40
1
 40
1
 40
1
 40
1
 10
249.073933
 20
-55.722969
 30
0.0
 10
249.073933
 20
-55.696448
 30
0.0
 10
249.063397
 20
-55.671012
 30
0.0
 10
249.044644
 20
-55.652259
 30
0.0
  0
SPLINE
  5
3e2
100
AcDbEntity
  8
0
 62
7
100
AcDbSpline
 70
8
 71
3
 72
8
 73
4
 74
0
 40
0
 40
0
 40
0
 40
0
 40
1
 40
1
 40
1
 40
1
 10
249.044644
 20
-55.652259
 30
0.0
 10
249.025890
 20
-55.633505
 30
0.0
 10
249.000455
 20
-55.622969
 30
0.0
 10
248.973933
 20
-55.622969
 30
0.0
  0
LWPOLYLINE
  5
3e3
100
AcDbEntity
  8
0
 62
7
100
AcDbPolyline
 90
2
 70
0
 10
82.298033
 20
-21.671639
 30
0.0
 10
70.298027
 20
-21.671639
 30
0.0
  0
SPLINE
  5
3e4
100
AcDbEntity
  8
0
 62
7
100
AcDbSpline
 70
8
 71
3
 72
8
 73
4
 74
0
 40
0
 40
0
 40
0
 40
0
 40
1
 40
1
 40
1
 40
1
 10
216.648100
 20
-22.671640
 30
0.0
 10
216.648101
 20
-22.119357
 30
0.0
 10
216.200388
 20
-21.671642
 30
0.0
 10
215.648105
 20
-21.671639
 30
0.0
  0
LWPOLYLINE
  5
3e5
100
AcDbEntity
  8
0
 62
7
100
AcDbPolyline
 90
1
 70
1
 10
248.973933
 20
-55.622969
 30
0.0
  0
LWPOLYLINE
  5
3e6
100
AcDbEntity
  8
0
 62
7
100
AcDbPolyline
 90
2
 70
0
 10
16.622998
 20
-15.621636
 30
0.0
 10
16.622998
 20
-3.621630
 30
0.0
  0
SPLINE
  5
3e7
100
AcDbEntity
  8
0
 62
7
100
AcDbSpline
 70
8
 71
3
 72
8
 73
4
 74
0
 40
0
 40
0
 40
0
 40
0
 40
1
 40
1
 40
1
 40
1
 10
112.160482
 20
-53.721657
 30
0.0
 10
112.160547
 20
-54.273942
 30
0.0
 10
112.608266
 20
-54.721630
 30
0.0
 10
113.160550
 20
-54.721657
 30
0.0
  0
LWPOLYLINE
  5
3e8
100
AcDbEntity
  8
0
 62
7
100
AcDbPolyline
 90
2
 70
0
 10
233.316865
 20
-91.821677
 30
0.0
 10
233.316865
 20
-79.821671
 30
0.0
  0
SPLINE
  5
3e9
100
AcDbEntity
  8
0
 62
7
100
AcDbSpline
 70
8
 71
3
 72
8
 73
4
 74
0
 40
0
 40
0
 40
0
 40
0
 40
1
 40
1
 40
1
 40
1
 10
275.236202
 20
-17.621637
 30
0.0
 10
275.236201
 20
-18.173898
 30
0.0
 10
275.683878
 20
-18.621603
 30
0.0
 10
276.236138
 20
-18.621637
 30
0.0
  0
LWPOLYLINE
  5
3ea
100
AcDbEntity
  8
0
 62
7
100
AcDbPolyline
 90
2
 70
0
 10
178.548085
 20
-34.671646
 30
0.0
 10
178.548085
 20
-22.671640
 30
0.0
  0
SPLINE
  5
3eb
100
AcDbEntity
  8
0
 62
7
100
AcDbSpline
 70
8
 71
3
 72
8
 73
4
 74
0
 40
0
 40
0
 40
0
 40
0
 40
1
 40
1
 40
1
 40
1
 10
112.135225
 20
-91.821664
 30
0.0
 10
112.687506
 20
-91.821651
 30
0.0
 10
113.135214
 20
-91.373940
 30
0.0
 10
113.135225
 20
-90.821659
 30
0.0
  0
LWPOLYLINE
  5
3ec
100
AcDbEntity
  8
0
 62
7
100
AcDbPolyline
 90
2
 70
0
 10
31.198006
 20
-22.671640
 30
0.0
 10
31.198006
 20
-34.671646
 30
0.0
  0
SPLINE
  5
3ed
100
AcDbEntity
  8
0
 62
7
100
AcDbSpline
 70
8
 71
3
 72
8
 73
4
 74
0
 40
0
 40
0
 40
0
 40
0
 40
1
 40
1
 40
1
 40
1
 10
188.360582
 20
-53.721657
 30
0.0
 10
188.360592
 20
-54.273941
 30
0.0
 10
188.808307
 20
-54.721652
 30
0.0
 10
189.360591
 20
-54.721657
 30
0.0
  0
LWPOLYLINE
  5
3ee
100
AcDbEntity
  8
0
 62
7
100
AcDbPolyline
 90
2
 70
0
 10
5.012133
 20
-60.747568
 30
0.0
 10
5.012133
 20
-72.747569
 30
0.0
  0
LWPOLYLINE
  5
3ef
100
AcDbEntity
  8
0
 62
7
100
AcDbPolyline
 90
2
 70
0
 10
111.873049
 20
-15.621636
 30
0.0
 10
111.873049
 20
-3.621630
 30
0.0
  0
SPLINE
  5
3f0
100
AcDbEntity
  8
0
 62
7
100
AcDbSpline
 70
8
 71
3
 72
8
 73
4
 74
0
 40
0
 40
0
 40
0
 40
0
 40
1
 40
1
 40
1
 40
1
 10
159.498099
 20
-22.671640
 30
0.0
 10
159.498099
 20
-22.406420
 30
0.0
 10
159.392739
 20
-22.152062
 30
0.0
 10
159.205198
 20
-21.964525
 30
0.0
  0
SPLINE
  5
3f1
100
AcDbEntity
  8
0
 62
7
100
AcDbSpline
 70
8
 71
3
 72
8
 73
4
 74
0
 40
0
 40
0
 40
0
 40
0
 40
1
 40
1
 40
1
 40
1
 10
159.205198
 20
-21.964525
 30
0.0
 10
159.017656
 20
-21.776988
 30
0.0
 10
158.763296
 20
-21.671634
 30
0.0
 10
158.498075
 20
-21.671640
 30
0.0
  0
SPLINE
  5
3f2
100
AcDbEntity
  8
0
 62
7
100
AcDbSpline
 70
8
 71
3
 72
8
 73
4
 74
0
 40
0
 40
0
 40
0
 40
0
 40
1
 40
1
 40
1
 40
1
 10
88.348093
 20
-34.671646
 30
0.0
 10
88.348097
 20
-35.223908
 30
0.0
 10
88.795776
 20
-35.671612
 30
0.0
 10
89.348037
 20
-35.671646
 30
0.0
  0
LWPOLYLINE
  5
3f3
100
AcDbEntity
  8
0
 62
7
100
AcDbPolyline
 90
2
 70
0
 10
59.773021
 20
-3.621630
 30
0.0
 10
59.773021
 20
-15.621636
 30
0.0
  0
LWPOLYLINE
  5
3f4
100
AcDbEntity
  8
0
 62
7
100
AcDbPolyline
 90
2
 70
0
 10
265.654382
 20
-59.771660
 30
0.0
 10
244.124377
 20
-59.771660
 30
0.0
  0
SPLINE
  5
3f5
100
AcDbEntity
  8
0
 62
7
100
AcDbSpline
 70
8
 71
3
 72
8
 73
4
 74
0
 40
0
 40
0
 40
0
 40
0
 40
1
 40
1
 40
1
 40
1
 10
244.223121
 20
-16.621661
 30
0.0
 10
244.488348
 20
-16.621682
 30
0.0
 10
244.742718
 20
-16.516329
 30
0.0
 10
244.930260
 20
-16.328782
 30
0.0
  0
SPLINE
  5
3f6
100
AcDbEntity
  8
0
 62
7
100
AcDbSpline
 70
8
 71
3
 72
8
 73
4
 74
0
 40
0
 40
0
 40
0
 40
0
 40
1
 40
1
 40
1
 40
1
 10
244.930260
 20
-16.328782
 30
0.0
 10
245.117802
 20
-16.141236
 30
0.0
 10
245.223149
 20
-15.886864
 30
0.0
 10
245.223122
 20
-15.621636
 30
0.0
  0
LWPOLYLINE
  5
3f7
100
AcDbEntity
  8
0
 62
7
100
AcDbPolyline
 90
2
 70
0
 10
21.385500
 20
-91.821677
 30
0.0
 10
21.385500
 20
-79.821671
 30
0.0
  0
ENDSEC
  0
SECTION
  2
OBJECTS
  0
DICTIONARY
  5
C
330
0
100
AcDbDictionary
  3
ACAD_GROUP
350
D
  3
ACAD_MLINESTYLE
350
17
  0
DICTIONARY
  5
D
330
C
100
AcDbDictionary
  0
DICTIONARY
  5
1A
330
C
100
AcDbDictionary
  0
DICTIONARY
  5
17
330
C
100
AcDbDictionary
  3
STANDARD
350
18
  0
DICTIONARY
  5
19
330
C
100
AcDbDictionary
  0
ENDSEC
  0
EOF
