  0
SECTION
  2
HEADER
  9
$ACADVER
  1
AC1009
  0
ENDSEC
  0
SECTION
  2
ENTITIES
  0
POLYLINE
  5
90
  8
Layer_0
  62
0
  70
1
  66
1
  10
0
  20
0
  30
0
  0
VERTEX
  5
90
  8
Layer_0
  10
445.09583
  20
270.43478
  0
VERTEX
  5
91
  8
Layer_0
  10
445.07501
  20
270.64886
  0
VERTEX
  5
92
  8
Layer_0
  10
445.01508
  20
270.84924
  0
VERTEX
  5
93
  8
Layer_0
  10
444.91992
  20
271.0318
  0
VERTEX
  5
94
  8
Layer_0
  10
444.79346
  20
271.19238
  0
VERTEX
  5
95
  8
Layer_0
  10
444.63959
  20
271.32697
  0
VERTEX
  5
96
  8
Layer_0
  10
444.46222
  20
271.43137
  0
VERTEX
  5
97
  8
Layer_0
  10
444.2652
  20
271.50153
  0
VERTEX
  5
98
  8
Layer_0
  10
444.05243
  20
271.53336
  0
VERTEX
  5
99
  8
Layer_0
  10
443.99585
  20
271.53476
  0
VERTEX
  5
9a
  8
Layer_0
  10
443.91296
  20
271.53168
  0
VERTEX
  5
9b
  8
Layer_0
  10
443.61487
  20
271.4668
  0
VERTEX
  5
9c
  8
Layer_0
  10
443.35065
  20
271.32574
  0
VERTEX
  5
9d
  8
Layer_0
  10
443.13416
  20
271.11868
  0
VERTEX
  5
9e
  8
Layer_0
  10
442.97955
  20
270.85571
  0
VERTEX
  5
9f
  8
Layer_0
  10
442.95068
  20
270.77798
  0
VERTEX
  5
a0
  8
Layer_0
  10
442.89661
  20
270.47778
  0
VERTEX
  5
a1
  8
Layer_0
  10
442.92578
  20
270.17966
  0
VERTEX
  5
a2
  8
Layer_0
  10
443.03424
  20
269.90045
  0
VERTEX
  5
a3
  8
Layer_0
  10
443.21802
  20
269.65695
  0
VERTEX
  5
a4
  8
Layer_0
  10
443.27881
  20
269.60056
  0
VERTEX
  5
a5
  8
Layer_0
  10
443.5354
  20
269.4357
  0
VERTEX
  5
a6
  8
Layer_0
  10
443.82202
  20
269.34857
  0
VERTEX
  5
a7
  8
Layer_0
  10
444.12146
  20
269.34192
  0
VERTEX
  5
a8
  8
Layer_0
  10
444.41675
  20
269.41852
  0
VERTEX
  5
a9
  8
Layer_0
  10
444.69629
  20
269.58655
  0
VERTEX
  5
aa
  8
Layer_0
  10
444.91046
  20
269.82364
  0
VERTEX
  5
ab
  8
Layer_0
  10
445.04749
  20
270.11221
  0
VERTEX
  5
ac
  8
Layer_0
  10
445.09583
  20
270.43478
  0
SEQEND
  0
POLYLINE
  5
ae
  8
Layer_0
  62
0
  70
1
  66
1
  10
0
  20
0
  30
0
  0
VERTEX
  5
ae
  8
Layer_0
  10
168.1922
  20
269.41852
  0
VERTEX
  5
af
  8
Layer_0
  10
168.47174
  20
269.58655
  0
VERTEX
  5
b0
  8
Layer_0
  10
168.68591
  20
269.82364
  0
VERTEX
  5
b1
  8
Layer_0
  10
168.823
  20
270.11221
  0
VERTEX
  5
b2
  8
Layer_0
  10
168.87122
  20
270.43478
  0
VERTEX
  5
b3
  8
Layer_0
  10
168.84991
  20
270.65039
  0
VERTEX
  5
b4
  8
Layer_0
  10
168.78754
  20
270.85571
  0
VERTEX
  5
b5
  8
Layer_0
  10
168.68646
  20
271.04504
  0
VERTEX
  5
b6
  8
Layer_0
  10
168.54907
  20
271.21259
  0
VERTEX
  5
b7
  8
Layer_0
  10
168.48932
  20
271.26804
  0
VERTEX
  5
b8
  8
Layer_0
  10
168.42566
  20
271.31894
  0
VERTEX
  5
b9
  8
Layer_0
  10
168.27667
  20
271.4118
  0
VERTEX
  5
ba
  8
Layer_0
  10
168.11584
  20
271.47943
  0
VERTEX
  5
bb
  8
Layer_0
  10
167.94629
  20
271.52075
  0
VERTEX
  5
bc
  8
Layer_0
  10
167.77124
  20
271.53476
  0
VERTEX
  5
bd
  8
Layer_0
  10
167.68835
  20
271.53168
  0
VERTEX
  5
be
  8
Layer_0
  10
167.39032
  20
271.46677
  0
VERTEX
  5
bf
  8
Layer_0
  10
167.1261
  20
271.32571
  0
VERTEX
  5
c0
  8
Layer_0
  10
166.90967
  20
271.11865
  0
VERTEX
  5
c1
  8
Layer_0
  10
166.755
  20
270.85571
  0
VERTEX
  5
c2
  8
Layer_0
  10
166.7262
  20
270.77798
  0
VERTEX
  5
c3
  8
Layer_0
  10
166.67206
  20
270.47778
  0
VERTEX
  5
c4
  8
Layer_0
  10
166.70123
  20
270.17966
  0
VERTEX
  5
c5
  8
Layer_0
  10
166.80969
  20
269.90045
  0
VERTEX
  5
c6
  8
Layer_0
  10
166.99341
  20
269.65695
  0
VERTEX
  5
c7
  8
Layer_0
  10
167.25568
  20
269.46301
  0
VERTEX
  5
c8
  8
Layer_0
  10
167.55664
  20
269.3559
  0
VERTEX
  5
c9
  8
Layer_0
  10
167.87573
  20
269.33969
  0
VERTEX
  5
ca
  8
Layer_0
  10
168.1922
  20
269.41852
  0
SEQEND
  0
POLYLINE
  5
cc
  8
Layer_0
  62
0
  70
1
  66
1
  10
0
  20
0
  30
0
  0
VERTEX
  5
cc
  8
Layer_0
  10
445.09583
  20
251.3848
  0
VERTEX
  5
cd
  8
Layer_0
  10
445.07642
  20
251.5914
  0
VERTEX
  5
ce
  8
Layer_0
  10
445.02051
  20
251.78564
  0
VERTEX
  5
cf
  8
Layer_0
  10
444.9314
  20
251.96371
  0
VERTEX
  5
d0
  8
Layer_0
  10
444.81256
  20
252.12186
  0
VERTEX
  5
d1
  8
Layer_0
  10
444.66736
  20
252.25626
  0
VERTEX
  5
d2
  8
Layer_0
  10
444.49933
  20
252.36313
  0
VERTEX
  5
d3
  8
Layer_0
  10
444.31183
  20
252.43869
  0
VERTEX
  5
d4
  8
Layer_0
  10
444.10828
  20
252.47913
  0
VERTEX
  5
d5
  8
Layer_0
  10
444.05212
  20
252.48328
  0
VERTEX
  5
d6
  8
Layer_0
  10
443.99585
  20
252.4848
  0
VERTEX
  5
d7
  8
Layer_0
  10
443.91296
  20
252.48169
  0
VERTEX
  5
d8
  8
Layer_0
  10
443.61487
  20
252.41681
  0
VERTEX
  5
d9
  8
Layer_0
  10
443.35065
  20
252.27576
  0
VERTEX
  5
da
  8
Layer_0
  10
443.13416
  20
252.0687
  0
VERTEX
  5
db
  8
Layer_0
  10
442.97955
  20
251.80576
  0
VERTEX
  5
dc
  8
Layer_0
  10
442.95068
  20
251.72803
  0
VERTEX
  5
dd
  8
Layer_0
  10
442.89667
  20
251.4278
  0
VERTEX
  5
de
  8
Layer_0
  10
442.92584
  20
251.12967
  0
VERTEX
  5
df
  8
Layer_0
  10
443.03424
  20
250.85046
  0
VERTEX
  5
e0
  8
Layer_0
  10
443.21802
  20
250.60699
  0
VERTEX
  5
e1
  8
Layer_0
  10
443.27881
  20
250.5506
  0
VERTEX
  5
e2
  8
Layer_0
  10
443.5354
  20
250.38568
  0
VERTEX
  5
e3
  8
Layer_0
  10
443.82202
  20
250.29855
  0
VERTEX
  5
e4
  8
Layer_0
  10
444.12146
  20
250.29193
  0
VERTEX
  5
e5
  8
Layer_0
  10
444.41675
  20
250.36853
  0
VERTEX
  5
e6
  8
Layer_0
  10
444.69623
  20
250.53662
  0
VERTEX
  5
e7
  8
Layer_0
  10
444.9104
  20
250.77371
  0
VERTEX
  5
e8
  8
Layer_0
  10
445.04749
  20
251.06229
  0
VERTEX
  5
e9
  8
Layer_0
  10
445.09583
  20
251.3848
  0
SEQEND
  0
POLYLINE
  5
eb
  8
Layer_0
  62
0
  70
1
  66
1
  10
0
  20
0
  30
0
  0
VERTEX
  5
eb
  8
Layer_0
  10
168.1922
  20
250.36853
  0
VERTEX
  5
ec
  8
Layer_0
  10
168.47174
  20
250.53659
  0
VERTEX
  5
ed
  8
Layer_0
  10
168.68591
  20
250.77368
  0
VERTEX
  5
ee
  8
Layer_0
  10
168.823
  20
251.06226
  0
VERTEX
  5
ef
  8
Layer_0
  10
168.87122
  20
251.3848
  0
VERTEX
  5
f0
  8
Layer_0
  10
168.8645
  20
251.50653
  0
VERTEX
  5
f1
  8
Layer_0
  10
168.84436
  20
251.62677
  0
VERTEX
  5
f2
  8
Layer_0
  10
168.79956
  20
251.77542
  0
VERTEX
  5
f3
  8
Layer_0
  10
168.73474
  20
251.91562
  0
VERTEX
  5
f4
  8
Layer_0
  10
168.65082
  20
252.04538
  0
VERTEX
  5
f5
  8
Layer_0
  10
168.54907
  20
252.16263
  0
VERTEX
  5
f6
  8
Layer_0
  10
168.52954
  20
252.1817
  0
VERTEX
  5
f7
  8
Layer_0
  10
168.36444
  20
252.31116
  0
VERTEX
  5
f8
  8
Layer_0
  10
168.17957
  20
252.40622
  0
VERTEX
  5
f9
  8
Layer_0
  10
167.9801
  20
252.46481
  0
VERTEX
  5
fa
  8
Layer_0
  10
167.77124
  20
252.4848
  0
VERTEX
  5
fb
  8
Layer_0
  10
167.68835
  20
252.48169
  0
VERTEX
  5
fc
  8
Layer_0
  10
167.39032
  20
252.41681
  0
VERTEX
  5
fd
  8
Layer_0
  10
167.1261
  20
252.27576
  0
VERTEX
  5
fe
  8
Layer_0
  10
166.90967
  20
252.0687
  0
VERTEX
  5
ff
  8
Layer_0
  10
166.755
  20
251.80576
  0
VERTEX
  5
100
  8
Layer_0
  10
166.7262
  20
251.72803
  0
VERTEX
  5
101
  8
Layer_0
  10
166.67206
  20
251.4278
  0
VERTEX
  5
102
  8
Layer_0
  10
166.70123
  20
251.1297
  0
VERTEX
  5
103
  8
Layer_0
  10
166.80969
  20
250.85046
  0
VERTEX
  5
104
  8
Layer_0
  10
166.99341
  20
250.60699
  0
VERTEX
  5
105
  8
Layer_0
  10
167.25568
  20
250.41306
  0
VERTEX
  5
106
  8
Layer_0
  10
167.55664
  20
250.30591
  0
VERTEX
  5
107
  8
Layer_0
  10
167.87573
  20
250.2897
  0
VERTEX
  5
108
  8
Layer_0
  10
168.1922
  20
250.36853
  0
SEQEND
  0
POLYLINE
  5
10a
  8
Layer_0
  62
0
  70
1
  66
1
  10
0
  20
0
  30
0
  0
VERTEX
  5
10a
  8
Layer_0
  10
306.98352
  20
270.43478
  0
VERTEX
  5
10b
  8
Layer_0
  10
306.96222
  20
270.65039
  0
VERTEX
  5
10c
  8
Layer_0
  10
306.89978
  20
270.85574
  0
VERTEX
  5
10d
  8
Layer_0
  10
306.79871
  20
271.04504
  0
VERTEX
  5
10e
  8
Layer_0
  10
306.66138
  20
271.21259
  0
VERTEX
  5
10f
  8
Layer_0
  10
306.50525
  20
271.34222
  0
VERTEX
  5
110
  8
Layer_0
  10
306.32959
  20
271.44031
  0
VERTEX
  5
111
  8
Layer_0
  10
306.13892
  20
271.50473
  0
VERTEX
  5
112
  8
Layer_0
  10
305.93811
  20
271.53342
  0
VERTEX
  5
113
  8
Layer_0
  10
305.88354
  20
271.53476
  0
VERTEX
  5
114
  8
Layer_0
  10
305.80066
  20
271.53168
  0
VERTEX
  5
115
  8
Layer_0
  10
305.50262
  20
271.46677
  0
VERTEX
  5
116
  8
Layer_0
  10
305.23834
  20
271.32571
  0
VERTEX
  5
117
  8
Layer_0
  10
305.02191
  20
271.11865
  0
VERTEX
  5
118
  8
Layer_0
  10
304.86725
  20
270.85571
  0
VERTEX
  5
119
  8
Layer_0
  10
304.83844
  20
270.77798
  0
VERTEX
  5
11a
  8
Layer_0
  10
304.7843
  20
270.47778
  0
VERTEX
  5
11b
  8
Layer_0
  10
304.81354
  20
270.17966
  0
VERTEX
  5
11c
  8
Layer_0
  10
304.922
  20
269.90045
  0
VERTEX
  5
11d
  8
Layer_0
  10
305.10571
  20
269.65695
  0
VERTEX
  5
11e
  8
Layer_0
  10
305.1665
  20
269.60056
  0
VERTEX
  5
11f
  8
Layer_0
  10
305.42316
  20
269.4357
  0
VERTEX
  5
120
  8
Layer_0
  10
305.70972
  20
269.34857
  0
VERTEX
  5
121
  8
Layer_0
  10
306.00922
  20
269.34192
  0
VERTEX
  5
122
  8
Layer_0
  10
306.3045
  20
269.41852
  0
VERTEX
  5
123
  8
Layer_0
  10
306.58398
  20
269.58655
  0
VERTEX
  5
124
  8
Layer_0
  10
306.79816
  20
269.82364
  0
VERTEX
  5
125
  8
Layer_0
  10
306.93524
  20
270.11221
  0
VERTEX
  5
126
  8
Layer_0
  10
306.98352
  20
270.43478
  0
SEQEND
  0
POLYLINE
  5
128
  8
Layer_0
  62
0
  70
1
  66
1
  10
0
  20
0
  30
0
  0
VERTEX
  5
128
  8
Layer_0
  10
163.0083
  20
249.0033
  0
VERTEX
  5
129
  8
Layer_0
  10
163.00879
  20
272.81604
  0
VERTEX
  5
12a
  8
Layer_0
  10
163.04932
  20
273.25339
  0
VERTEX
  5
12b
  8
Layer_0
  10
163.16809
  20
273.67245
  0
VERTEX
  5
12c
  8
Layer_0
  10
163.36133
  20
274.06287
  0
VERTEX
  5
12d
  8
Layer_0
  10
163.62482
  20
274.41425
  0
VERTEX
  5
12e
  8
Layer_0
  10
163.70624
  20
274.49982
  0
VERTEX
  5
12f
  8
Layer_0
  10
164.04413
  20
274.78043
  0
VERTEX
  5
130
  8
Layer_0
  10
164.42444
  20
274.99274
  0
VERTEX
  5
131
  8
Layer_0
  10
164.83716
  20
275.1322
  0
VERTEX
  5
132
  8
Layer_0
  10
165.27191
  20
275.19434
  0
VERTEX
  5
133
  8
Layer_0
  10
165.39001
  20
275.19727
  0
VERTEX
  5
134
  8
Layer_0
  10
446.43848
  20
275.19647
  0
VERTEX
  5
135
  8
Layer_0
  10
446.90881
  20
275.13766
  0
VERTEX
  5
136
  8
Layer_0
  10
447.34564
  20
274.99219
  0
VERTEX
  5
137
  8
Layer_0
  10
447.73987
  20
274.76926
  0
VERTEX
  5
138
  8
Layer_0
  10
448.08258
  20
274.47812
  0
VERTEX
  5
139
  8
Layer_0
  10
448.36481
  20
274.12799
  0
VERTEX
  5
13a
  8
Layer_0
  10
448.57751
  20
273.72812
  0
VERTEX
  5
13b
  8
Layer_0
  10
448.71167
  20
273.28772
  0
VERTEX
  5
13c
  8
Layer_0
  10
448.7583
  20
272.81604
  0
VERTEX
  5
13d
  8
Layer_0
  10
448.75781
  20
249.0033
  0
VERTEX
  5
13e
  8
Layer_0
  10
448.71179
  20
248.5365
  0
VERTEX
  5
13f
  8
Layer_0
  10
448.57678
  20
248.09192
  0
VERTEX
  5
140
  8
Layer_0
  10
448.35797
  20
247.68201
  0
VERTEX
  5
141
  8
Layer_0
  10
448.06055
  20
247.31927
  0
VERTEX
  5
142
  8
Layer_0
  10
447.69788
  20
247.02185
  0
VERTEX
  5
143
  8
Layer_0
  10
447.28796
  20
246.80304
  0
VERTEX
  5
144
  8
Layer_0
  10
446.84332
  20
246.66803
  0
VERTEX
  5
145
  8
Layer_0
  10
446.37659
  20
246.62207
  0
VERTEX
  5
146
  8
Layer_0
  10
165.38953
  20
246.62207
  0
VERTEX
  5
147
  8
Layer_0
  10
164.90955
  20
246.67035
  0
VERTEX
  5
148
  8
Layer_0
  10
164.46252
  20
246.80905
  0
VERTEX
  5
149
  8
Layer_0
  10
164.05798
  20
247.02859
  0
VERTEX
  5
14a
  8
Layer_0
  10
163.70557
  20
247.31937
  0
VERTEX
  5
14b
  8
Layer_0
  10
163.41479
  20
247.67181
  0
VERTEX
  5
14c
  8
Layer_0
  10
163.19531
  20
248.07632
  0
VERTEX
  5
14d
  8
Layer_0
  10
163.05664
  20
248.52335
  0
VERTEX
  5
14e
  8
Layer_0
  10
163.0083
  20
249.0033
  0
SEQEND
  0
ENDSEC
  0
EOF
