  0
SECTION
  2
HEADER
  9
$ACADVER
  1
AC1009
  0
ENDSEC
  0
SECTION
  2
ENTITIES
  0
POLYLINE
  5
90
  8
Layer_0
  62
0
  70
1
  66
1
  10
0
  20
0
  30
0
  0
VERTEX
  5
90
  8
Layer_0
  10
304.8219
  20
274.13626
  0
VERTEX
  5
91
  8
Layer_0
  10
304.86279
  20
274.09692
  0
VERTEX
  5
92
  8
Layer_0
  10
305.03265
  20
273.96097
  0
VERTEX
  5
93
  8
Layer_0
  10
305.21738
  20
273.85251
  0
VERTEX
  5
94
  8
Layer_0
  10
305.41379
  20
273.77209
  0
VERTEX
  5
95
  8
Layer_0
  10
305.61865
  20
273.72031
  0
VERTEX
  5
96
  8
Layer_0
  10
305.82877
  20
273.69775
  0
VERTEX
  5
97
  8
Layer_0
  10
306.04089
  20
273.70493
  0
VERTEX
  5
98
  8
Layer_0
  10
306.25183
  20
273.74249
  0
VERTEX
  5
99
  8
Layer_0
  10
306.4584
  20
273.811
  0
VERTEX
  5
9a
  8
Layer_0
  10
306.65933
  20
273.91235
  0
VERTEX
  5
9b
  8
Layer_0
  10
306.83997
  20
274.04025
  0
VERTEX
  5
9c
  8
Layer_0
  10
306.99829
  20
274.19168
  0
VERTEX
  5
9d
  8
Layer_0
  10
307.13232
  20
274.36365
  0
VERTEX
  5
9e
  8
Layer_0
  10
307.24005
  20
274.55319
  0
VERTEX
  5
9f
  8
Layer_0
  10
307.31946
  20
274.75729
  0
VERTEX
  5
a0
  8
Layer_0
  10
307.36859
  20
274.97299
  0
VERTEX
  5
a1
  8
Layer_0
  10
307.38541
  20
275.19727
  0
VERTEX
  5
a2
  8
Layer_0
  10
307.36737
  20
275.42978
  0
VERTEX
  5
a3
  8
Layer_0
  10
307.3147
  20
275.65274
  0
VERTEX
  5
a4
  8
Layer_0
  10
307.22974
  20
275.86288
  0
VERTEX
  5
a5
  8
Layer_0
  10
307.11472
  20
276.05692
  0
VERTEX
  5
a6
  8
Layer_0
  10
306.97195
  20
276.2316
  0
VERTEX
  5
a7
  8
Layer_0
  10
306.80371
  20
276.38364
  0
VERTEX
  5
a8
  8
Layer_0
  10
306.61234
  20
276.50977
  0
VERTEX
  5
a9
  8
Layer_0
  10
306.40005
  20
276.60669
  0
VERTEX
  5
aa
  8
Layer_0
  10
306.14594
  20
276.67496
  0
VERTEX
  5
ab
  8
Layer_0
  10
305.88373
  20
276.69775
  0
VERTEX
  5
ac
  8
Layer_0
  10
305.82697
  20
276.69669
  0
VERTEX
  5
ad
  8
Layer_0
  10
305.61066
  20
276.67279
  0
VERTEX
  5
ae
  8
Layer_0
  10
305.40329
  20
276.61893
  0
VERTEX
  5
af
  8
Layer_0
  10
305.20752
  20
276.53699
  0
VERTEX
  5
b0
  8
Layer_0
  10
305.026
  20
276.42886
  0
VERTEX
  5
b1
  8
Layer_0
  10
304.86145
  20
276.29639
  0
VERTEX
  5
b2
  8
Layer_0
  10
304.71655
  20
276.14142
  0
VERTEX
  5
b3
  8
Layer_0
  10
304.59393
  20
275.96582
  0
VERTEX
  5
b4
  8
Layer_0
  10
304.49637
  20
275.77148
  0
VERTEX
  5
b5
  8
Layer_0
  10
304.47565
  20
275.71866
  0
VERTEX
  5
b6
  8
Layer_0
  10
304.41498
  20
275.50983
  0
VERTEX
  5
b7
  8
Layer_0
  10
304.38541
  20
275.29779
  0
VERTEX
  5
b8
  8
Layer_0
  10
304.38623
  20
275.08572
  0
VERTEX
  5
b9
  8
Layer_0
  10
304.41675
  20
274.87677
  0
VERTEX
  5
ba
  8
Layer_0
  10
304.47626
  20
274.67419
  0
VERTEX
  5
bb
  8
Layer_0
  10
304.56412
  20
274.48114
  0
VERTEX
  5
bc
  8
Layer_0
  10
304.67957
  20
274.30075
  0
VERTEX
  5
bd
  8
Layer_0
  10
304.8219
  20
274.13626
  0
SEQEND
  0
POLYLINE
  5
bf
  8
Layer_0
  62
0
  70
1
  66
1
  10
0
  20
0
  30
0
  0
VERTEX
  5
bf
  8
Layer_0
  10
188.14081
  20
271.75482
  0
VERTEX
  5
c0
  8
Layer_0
  10
188.3114
  20
271.60803
  0
VERTEX
  5
c1
  8
Layer_0
  10
188.49878
  20
271.49017
  0
VERTEX
  5
c2
  8
Layer_0
  10
188.69937
  20
271.40192
  0
VERTEX
  5
c3
  8
Layer_0
  10
188.90967
  20
271.34399
  0
VERTEX
  5
c4
  8
Layer_0
  10
189.12613
  20
271.31708
  0
VERTEX
  5
c5
  8
Layer_0
  10
189.34521
  20
271.3219
  0
VERTEX
  5
c6
  8
Layer_0
  10
189.56348
  20
271.3591
  0
VERTEX
  5
c7
  8
Layer_0
  10
189.77728
  20
271.42944
  0
VERTEX
  5
c8
  8
Layer_0
  10
189.97821
  20
271.53082
  0
VERTEX
  5
c9
  8
Layer_0
  10
190.15887
  20
271.65875
  0
VERTEX
  5
ca
  8
Layer_0
  10
190.3172
  20
271.81021
  0
VERTEX
  5
cb
  8
Layer_0
  10
190.45123
  20
271.98224
  0
VERTEX
  5
cc
  8
Layer_0
  10
190.55896
  20
272.17184
  0
VERTEX
  5
cd
  8
Layer_0
  10
190.63837
  20
272.37601
  0
VERTEX
  5
ce
  8
Layer_0
  10
190.6875
  20
272.59177
  0
VERTEX
  5
cf
  8
Layer_0
  10
190.70428
  20
272.81613
  0
VERTEX
  5
d0
  8
Layer_0
  10
190.6929
  20
273.00244
  0
VERTEX
  5
d1
  8
Layer_0
  10
190.65857
  20
273.18521
  0
VERTEX
  5
d2
  8
Layer_0
  10
190.60175
  20
273.3623
  0
VERTEX
  5
d3
  8
Layer_0
  10
190.52304
  20
273.53156
  0
VERTEX
  5
d4
  8
Layer_0
  10
190.41351
  20
273.70435
  0
VERTEX
  5
d5
  8
Layer_0
  10
190.28345
  20
273.85858
  0
VERTEX
  5
d6
  8
Layer_0
  10
190.13516
  20
273.99292
  0
VERTEX
  5
d7
  8
Layer_0
  10
189.97101
  20
274.10596
  0
VERTEX
  5
d8
  8
Layer_0
  10
189.79333
  20
274.19629
  0
VERTEX
  5
d9
  8
Layer_0
  10
189.60449
  20
274.26251
  0
VERTEX
  5
da
  8
Layer_0
  10
189.40683
  20
274.30322
  0
VERTEX
  5
db
  8
Layer_0
  10
189.20264
  20
274.31708
  0
VERTEX
  5
dc
  8
Layer_0
  10
189.14587
  20
274.31601
  0
VERTEX
  5
dd
  8
Layer_0
  10
188.92957
  20
274.29211
  0
VERTEX
  5
de
  8
Layer_0
  10
188.7222
  20
274.23828
  0
VERTEX
  5
df
  8
Layer_0
  10
188.52643
  20
274.15631
  0
VERTEX
  5
e0
  8
Layer_0
  10
188.34491
  20
274.04816
  0
VERTEX
  5
e1
  8
Layer_0
  10
188.18036
  20
273.91562
  0
VERTEX
  5
e2
  8
Layer_0
  10
188.03546
  20
273.76059
  0
VERTEX
  5
e3
  8
Layer_0
  10
187.9129
  20
273.58496
  0
VERTEX
  5
e4
  8
Layer_0
  10
187.81531
  20
273.3905
  0
VERTEX
  5
e5
  8
Layer_0
  10
187.79456
  20
273.33771
  0
VERTEX
  5
e6
  8
Layer_0
  10
187.73389
  20
273.12881
  0
VERTEX
  5
e7
  8
Layer_0
  10
187.70428
  20
272.91669
  0
VERTEX
  5
e8
  8
Layer_0
  10
187.70508
  20
272.70453
  0
VERTEX
  5
e9
  8
Layer_0
  10
187.7356
  20
272.49554
  0
VERTEX
  5
ea
  8
Layer_0
  10
187.7951
  20
272.29288
  0
VERTEX
  5
eb
  8
Layer_0
  10
187.88293
  20
272.09976
  0
VERTEX
  5
ec
  8
Layer_0
  10
187.99841
  20
271.91934
  0
VERTEX
  5
ed
  8
Layer_0
  10
188.14081
  20
271.75482
  0
SEQEND
  0
POLYLINE
  5
ef
  8
Layer_0
  62
0
  70
1
  66
1
  10
0
  20
0
  30
0
  0
VERTEX
  5
ef
  8
Layer_0
  10
421.50299
  20
271.755
  0
VERTEX
  5
f0
  8
Layer_0
  10
421.54388
  20
271.71567
  0
VERTEX
  5
f1
  8
Layer_0
  10
421.71375
  20
271.57968
  0
VERTEX
  5
f2
  8
Layer_0
  10
421.89844
  20
271.47122
  0
VERTEX
  5
f3
  8
Layer_0
  10
422.09482
  20
271.39081
  0
VERTEX
  5
f4
  8
Layer_0
  10
422.29968
  20
271.33905
  0
VERTEX
  5
f5
  8
Layer_0
  10
422.5098
  20
271.3165
  0
VERTEX
  5
f6
  8
Layer_0
  10
422.72192
  20
271.3237
  0
VERTEX
  5
f7
  8
Layer_0
  10
422.93286
  20
271.36127
  0
VERTEX
  5
f8
  8
Layer_0
  10
423.13943
  20
271.42975
  0
VERTEX
  5
f9
  8
Layer_0
  10
423.34039
  20
271.5311
  0
VERTEX
  5
fa
  8
Layer_0
  10
423.521
  20
271.65897
  0
VERTEX
  5
fb
  8
Layer_0
  10
423.67932
  20
271.81039
  0
VERTEX
  5
fc
  8
Layer_0
  10
423.81335
  20
271.98236
  0
VERTEX
  5
fd
  8
Layer_0
  10
423.92108
  20
272.17194
  0
VERTEX
  5
fe
  8
Layer_0
  10
424.00049
  20
272.37604
  0
VERTEX
  5
ff
  8
Layer_0
  10
424.04962
  20
272.59174
  0
VERTEX
  5
100
  8
Layer_0
  10
424.06641
  20
272.81604
  0
VERTEX
  5
101
  8
Layer_0
  10
424.03729
  20
273.11011
  0
VERTEX
  5
102
  8
Layer_0
  10
423.95209
  20
273.3902
  0
VERTEX
  5
103
  8
Layer_0
  10
423.81412
  20
273.64847
  0
VERTEX
  5
104
  8
Layer_0
  10
423.62662
  20
273.87701
  0
VERTEX
  5
105
  8
Layer_0
  10
423.45911
  20
274.0213
  0
VERTEX
  5
106
  8
Layer_0
  10
423.27325
  20
274.13895
  0
VERTEX
  5
107
  8
Layer_0
  10
423.0722
  20
274.22821
  0
VERTEX
  5
108
  8
Layer_0
  10
422.85913
  20
274.28741
  0
VERTEX
  5
109
  8
Layer_0
  10
422.71271
  20
274.30933
  0
VERTEX
  5
10a
  8
Layer_0
  10
422.56482
  20
274.3165
  0
VERTEX
  5
10b
  8
Layer_0
  10
422.50803
  20
274.31543
  0
VERTEX
  5
10c
  8
Layer_0
  10
422.29172
  20
274.2915
  0
VERTEX
  5
10d
  8
Layer_0
  10
422.08435
  20
274.23767
  0
VERTEX
  5
10e
  8
Layer_0
  10
421.88855
  20
274.15576
  0
VERTEX
  5
10f
  8
Layer_0
  10
421.70706
  20
274.04761
  0
VERTEX
  5
110
  8
Layer_0
  10
421.54254
  20
273.91516
  0
VERTEX
  5
111
  8
Layer_0
  10
421.39764
  20
273.76019
  0
VERTEX
  5
112
  8
Layer_0
  10
421.27505
  20
273.58459
  0
VERTEX
  5
113
  8
Layer_0
  10
421.17749
  20
273.39023
  0
VERTEX
  5
114
  8
Layer_0
  10
421.15674
  20
273.33743
  0
VERTEX
  5
115
  8
Layer_0
  10
421.09601
  20
273.1286
  0
VERTEX
  5
116
  8
Layer_0
  10
421.06641
  20
272.91656
  0
VERTEX
  5
117
  8
Layer_0
  10
421.06726
  20
272.70447
  0
VERTEX
  5
118
  8
Layer_0
  10
421.09778
  20
272.49551
  0
VERTEX
  5
119
  8
Layer_0
  10
421.15729
  20
272.29291
  0
VERTEX
  5
11a
  8
Layer_0
  10
421.24515
  20
272.09985
  0
VERTEX
  5
11b
  8
Layer_0
  10
421.3606
  20
271.91946
  0
VERTEX
  5
11c
  8
Layer_0
  10
421.50299
  20
271.755
  0
SEQEND
  0
POLYLINE
  5
11e
  8
Layer_0
  62
0
  70
1
  66
1
  10
0
  20
0
  30
0
  0
VERTEX
  5
11e
  8
Layer_0
  10
318.45834
  20
207.13605
  0
VERTEX
  5
11f
  8
Layer_0
  10
318.65927
  20
207.2374
  0
VERTEX
  5
120
  8
Layer_0
  10
318.8399
  20
207.3653
  0
VERTEX
  5
121
  8
Layer_0
  10
318.99823
  20
207.51672
  0
VERTEX
  5
122
  8
Layer_0
  10
319.13226
  20
207.68872
  0
VERTEX
  5
123
  8
Layer_0
  10
319.23999
  20
207.8783
  0
VERTEX
  5
124
  8
Layer_0
  10
319.3194
  20
208.0824
  0
VERTEX
  5
125
  8
Layer_0
  10
319.36853
  20
208.2981
  0
VERTEX
  5
126
  8
Layer_0
  10
319.38531
  20
208.5224
  0
VERTEX
  5
127
  8
Layer_0
  10
319.35626
  20
208.81653
  0
VERTEX
  5
128
  8
Layer_0
  10
319.27106
  20
209.09662
  0
VERTEX
  5
129
  8
Layer_0
  10
319.13306
  20
209.35489
  0
VERTEX
  5
12a
  8
Layer_0
  10
318.9455
  20
209.58344
  0
VERTEX
  5
12b
  8
Layer_0
  10
318.86401
  20
209.65915
  0
VERTEX
  5
12c
  8
Layer_0
  10
318.77707
  20
209.72852
  0
VERTEX
  5
12d
  8
Layer_0
  10
318.57361
  20
209.85516
  0
VERTEX
  5
12e
  8
Layer_0
  10
318.354
  20
209.94742
  0
VERTEX
  5
12f
  8
Layer_0
  10
318.12262
  20
210.00381
  0
VERTEX
  5
130
  8
Layer_0
  10
317.8837
  20
210.02295
  0
VERTEX
  5
131
  8
Layer_0
  10
317.82693
  20
210.02188
  0
VERTEX
  5
132
  8
Layer_0
  10
317.61063
  20
209.99799
  0
VERTEX
  5
133
  8
Layer_0
  10
317.4032
  20
209.94415
  0
VERTEX
  5
134
  8
Layer_0
  10
317.2074
  20
209.86227
  0
VERTEX
  5
135
  8
Layer_0
  10
317.02588
  20
209.75415
  0
VERTEX
  5
136
  8
Layer_0
  10
316.86133
  20
209.62167
  0
VERTEX
  5
137
  8
Layer_0
  10
316.71643
  20
209.46667
  0
VERTEX
  5
138
  8
Layer_0
  10
316.59387
  20
209.29108
  0
VERTEX
  5
139
  8
Layer_0
  10
316.49637
  20
209.09662
  0
VERTEX
  5
13a
  8
Layer_0
  10
316.47565
  20
209.04382
  0
VERTEX
  5
13b
  8
Layer_0
  10
316.41492
  20
208.83496
  0
VERTEX
  5
13c
  8
Layer_0
  10
316.38531
  20
208.62296
  0
VERTEX
  5
13d
  8
Layer_0
  10
316.38611
  20
208.41086
  0
VERTEX
  5
13e
  8
Layer_0
  10
316.41669
  20
208.20193
  0
VERTEX
  5
13f
  8
Layer_0
  10
316.47626
  20
207.99933
  0
VERTEX
  5
140
  8
Layer_0
  10
316.56412
  20
207.80624
  0
VERTEX
  5
141
  8
Layer_0
  10
316.67957
  20
207.62585
  0
VERTEX
  5
142
  8
Layer_0
  10
316.8219
  20
207.46133
  0
VERTEX
  5
143
  8
Layer_0
  10
316.86279
  20
207.422
  0
VERTEX
  5
144
  8
Layer_0
  10
317.03268
  20
207.28613
  0
VERTEX
  5
145
  8
Layer_0
  10
317.21744
  20
207.17773
  0
VERTEX
  5
146
  8
Layer_0
  10
317.41385
  20
207.09735
  0
VERTEX
  5
147
  8
Layer_0
  10
317.61868
  20
207.04559
  0
VERTEX
  5
148
  8
Layer_0
  10
317.82874
  20
207.02298
  0
VERTEX
  5
149
  8
Layer_0
  10
318.04083
  20
207.03015
  0
VERTEX
  5
14a
  8
Layer_0
  10
318.25177
  20
207.06763
  0
VERTEX
  5
14b
  8
Layer_0
  10
318.45834
  20
207.13605
  0
SEQEND
  0
POLYLINE
  5
14d
  8
Layer_0
  62
0
  70
1
  66
1
  10
0
  20
0
  30
0
  0
VERTEX
  5
14d
  8
Layer_0
  10
423.13943
  20
214.27988
  0
VERTEX
  5
14e
  8
Layer_0
  10
423.34045
  20
214.38113
  0
VERTEX
  5
14f
  8
Layer_0
  10
423.52112
  20
214.50897
  0
VERTEX
  5
150
  8
Layer_0
  10
423.67944
  20
214.6604
  0
VERTEX
  5
151
  8
Layer_0
  10
423.81345
  20
214.83237
  0
VERTEX
  5
152
  8
Layer_0
  10
423.92114
  20
215.02191
  0
VERTEX
  5
153
  8
Layer_0
  10
424.00055
  20
215.22607
  0
VERTEX
  5
154
  8
Layer_0
  10
424.04962
  20
215.4418
  0
VERTEX
  5
155
  8
Layer_0
  10
424.06641
  20
215.66611
  0
VERTEX
  5
156
  8
Layer_0
  10
424.03735
  20
215.96021
  0
VERTEX
  5
157
  8
Layer_0
  10
423.95209
  20
216.24026
  0
VERTEX
  5
158
  8
Layer_0
  10
423.81409
  20
216.49854
  0
VERTEX
  5
159
  8
Layer_0
  10
423.62662
  20
216.72711
  0
VERTEX
  5
15a
  8
Layer_0
  10
423.39899
  20
216.9136
  0
VERTEX
  5
15b
  8
Layer_0
  10
423.13943
  20
217.05237
  0
VERTEX
  5
15c
  8
Layer_0
  10
422.85776
  20
217.1377
  0
VERTEX
  5
15d
  8
Layer_0
  10
422.56482
  20
217.16656
  0
VERTEX
  5
15e
  8
Layer_0
  10
422.50803
  20
217.1655
  0
VERTEX
  5
15f
  8
Layer_0
  10
422.29172
  20
217.14166
  0
VERTEX
  5
160
  8
Layer_0
  10
422.08429
  20
217.08786
  0
VERTEX
  5
161
  8
Layer_0
  10
421.88849
  20
217.00595
  0
VERTEX
  5
162
  8
Layer_0
  10
421.70697
  20
216.89783
  0
VERTEX
  5
163
  8
Layer_0
  10
421.54242
  20
216.76535
  0
VERTEX
  5
164
  8
Layer_0
  10
421.39755
  20
216.61035
  0
VERTEX
  5
165
  8
Layer_0
  10
421.27502
  20
216.43469
  0
VERTEX
  5
166
  8
Layer_0
  10
421.17749
  20
216.2403
  0
VERTEX
  5
167
  8
Layer_0
  10
421.15674
  20
216.1875
  0
VERTEX
  5
168
  8
Layer_0
  10
421.09601
  20
215.97864
  0
VERTEX
  5
169
  8
Layer_0
  10
421.06641
  20
215.7666
  0
VERTEX
  5
16a
  8
Layer_0
  10
421.0672
  20
215.55453
  0
VERTEX
  5
16b
  8
Layer_0
  10
421.09775
  20
215.34558
  0
VERTEX
  5
16c
  8
Layer_0
  10
421.15726
  20
215.14301
  0
VERTEX
  5
16d
  8
Layer_0
  10
421.24512
  20
214.94995
  0
VERTEX
  5
16e
  8
Layer_0
  10
421.3606
  20
214.76956
  0
VERTEX
  5
16f
  8
Layer_0
  10
421.50299
  20
214.60513
  0
VERTEX
  5
170
  8
Layer_0
  10
421.54388
  20
214.5658
  0
VERTEX
  5
171
  8
Layer_0
  10
421.71375
  20
214.42984
  0
VERTEX
  5
172
  8
Layer_0
  10
421.8985
  20
214.32135
  0
VERTEX
  5
173
  8
Layer_0
  10
422.09488
  20
214.24094
  0
VERTEX
  5
174
  8
Layer_0
  10
422.29974
  20
214.18915
  0
VERTEX
  5
175
  8
Layer_0
  10
422.50983
  20
214.1666
  0
VERTEX
  5
176
  8
Layer_0
  10
422.72195
  20
214.1738
  0
VERTEX
  5
177
  8
Layer_0
  10
422.93289
  20
214.21136
  0
VERTEX
  5
178
  8
Layer_0
  10
423.13943
  20
214.27988
  0
SEQEND
  0
POLYLINE
  5
17a
  8
Layer_0
  62
0
  70
1
  66
1
  10
0
  20
0
  30
0
  0
VERTEX
  5
17a
  8
Layer_0
  10
188.14081
  20
214.60492
  0
VERTEX
  5
17b
  8
Layer_0
  10
188.3114
  20
214.45813
  0
VERTEX
  5
17c
  8
Layer_0
  10
188.49878
  20
214.34027
  0
VERTEX
  5
17d
  8
Layer_0
  10
188.69937
  20
214.25208
  0
VERTEX
  5
17e
  8
Layer_0
  10
188.90967
  20
214.19409
  0
VERTEX
  5
17f
  8
Layer_0
  10
189.12613
  20
214.16721
  0
VERTEX
  5
180
  8
Layer_0
  10
189.34521
  20
214.172
  0
VERTEX
  5
181
  8
Layer_0
  10
189.56348
  20
214.2092
  0
VERTEX
  5
182
  8
Layer_0
  10
189.77728
  20
214.27954
  0
VERTEX
  5
183
  8
Layer_0
  10
189.97821
  20
214.38092
  0
VERTEX
  5
184
  8
Layer_0
  10
190.15887
  20
214.50885
  0
VERTEX
  5
185
  8
Layer_0
  10
190.3172
  20
214.66028
  0
VERTEX
  5
186
  8
Layer_0
  10
190.45123
  20
214.83234
  0
VERTEX
  5
187
  8
Layer_0
  10
190.55896
  20
215.02191
  0
VERTEX
  5
188
  8
Layer_0
  10
190.63837
  20
215.2261
  0
VERTEX
  5
189
  8
Layer_0
  10
190.6875
  20
215.44186
  0
VERTEX
  5
18a
  8
Layer_0
  10
190.70428
  20
215.66623
  0
VERTEX
  5
18b
  8
Layer_0
  10
190.69247
  20
215.85529
  0
VERTEX
  5
18c
  8
Layer_0
  10
190.65701
  20
216.04132
  0
VERTEX
  5
18d
  8
Layer_0
  10
190.57346
  20
216.28003
  0
VERTEX
  5
18e
  8
Layer_0
  10
190.45386
  20
216.49689
  0
VERTEX
  5
18f
  8
Layer_0
  10
190.30219
  20
216.68884
  0
VERTEX
  5
190
  8
Layer_0
  10
190.12244
  20
216.85284
  0
VERTEX
  5
191
  8
Layer_0
  10
189.91864
  20
216.98575
  0
VERTEX
  5
192
  8
Layer_0
  10
189.69476
  20
217.08453
  0
VERTEX
  5
193
  8
Layer_0
  10
189.45477
  20
217.14603
  0
VERTEX
  5
194
  8
Layer_0
  10
189.20264
  20
217.16718
  0
VERTEX
  5
195
  8
Layer_0
  10
189.14587
  20
217.16611
  0
VERTEX
  5
196
  8
Layer_0
  10
188.92957
  20
217.14221
  0
VERTEX
  5
197
  8
Layer_0
  10
188.7222
  20
217.08835
  0
VERTEX
  5
198
  8
Layer_0
  10
188.52643
  20
217.00641
  0
VERTEX
  5
199
  8
Layer_0
  10
188.34491
  20
216.89825
  0
VERTEX
  5
19a
  8
Layer_0
  10
188.18036
  20
216.76572
  0
VERTEX
  5
19b
  8
Layer_0
  10
188.03546
  20
216.61069
  0
VERTEX
  5
19c
  8
Layer_0
  10
187.9129
  20
216.43506
  0
VERTEX
  5
19d
  8
Layer_0
  10
187.81531
  20
216.2406
  0
VERTEX
  5
19e
  8
Layer_0
  10
187.79456
  20
216.18781
  0
VERTEX
  5
19f
  8
Layer_0
  10
187.73389
  20
215.97891
  0
VERTEX
  5
1a0
  8
Layer_0
  10
187.70428
  20
215.76678
  0
VERTEX
  5
1a1
  8
Layer_0
  10
187.70508
  20
215.55463
  0
VERTEX
  5
1a2
  8
Layer_0
  10
187.7356
  20
215.34564
  0
VERTEX
  5
1a3
  8
Layer_0
  10
187.7951
  20
215.14297
  0
VERTEX
  5
1a4
  8
Layer_0
  10
187.88293
  20
214.94983
  0
VERTEX
  5
1a5
  8
Layer_0
  10
187.99841
  20
214.76941
  0
VERTEX
  5
1a6
  8
Layer_0
  10
188.14081
  20
214.60492
  0
SEQEND
  0
POLYLINE
  5
1a8
  8
Layer_0
  62
0
  70
1
  66
1
  10
0
  20
0
  30
0
  0
VERTEX
  5
1a8
  8
Layer_0
  10
168.34607
  20
297.62317
  0
VERTEX
  5
1a9
  8
Layer_0
  10
168.547
  20
297.72455
  0
VERTEX
  5
1aa
  8
Layer_0
  10
168.72766
  20
297.85248
  0
VERTEX
  5
1ab
  8
Layer_0
  10
168.88599
  20
298.00394
  0
VERTEX
  5
1ac
  8
Layer_0
  10
169.02002
  20
298.17596
  0
VERTEX
  5
1ad
  8
Layer_0
  10
169.12775
  20
298.36554
  0
VERTEX
  5
1ae
  8
Layer_0
  10
169.20715
  20
298.5697
  0
VERTEX
  5
1af
  8
Layer_0
  10
169.25623
  20
298.78546
  0
VERTEX
  5
1b0
  8
Layer_0
  10
169.27301
  20
299.00983
  0
VERTEX
  5
1b1
  8
Layer_0
  10
169.2616
  20
299.19418
  0
VERTEX
  5
1b2
  8
Layer_0
  10
169.22772
  20
299.3757
  0
VERTEX
  5
1b3
  8
Layer_0
  10
169.16516
  20
299.56842
  0
VERTEX
  5
1b4
  8
Layer_0
  10
169.07764
  20
299.75018
  0
VERTEX
  5
1b5
  8
Layer_0
  10
168.96655
  20
299.91858
  0
VERTEX
  5
1b6
  8
Layer_0
  10
168.83319
  20
300.07117
  0
VERTEX
  5
1b7
  8
Layer_0
  10
168.77924
  20
300.1225
  0
VERTEX
  5
1b8
  8
Layer_0
  10
168.55762
  20
300.2886
  0
VERTEX
  5
1b9
  8
Layer_0
  10
168.3114
  20
300.41034
  0
VERTEX
  5
1ba
  8
Layer_0
  10
168.04712
  20
300.48526
  0
VERTEX
  5
1bb
  8
Layer_0
  10
167.77142
  20
300.5108
  0
VERTEX
  5
1bc
  8
Layer_0
  10
167.71466
  20
300.5097
  0
VERTEX
  5
1bd
  8
Layer_0
  10
167.49835
  20
300.48584
  0
VERTEX
  5
1be
  8
Layer_0
  10
167.29095
  20
300.43198
  0
VERTEX
  5
1bf
  8
Layer_0
  10
167.09515
  20
300.35004
  0
VERTEX
  5
1c0
  8
Layer_0
  10
166.9137
  20
300.24188
  0
VERTEX
  5
1c1
  8
Layer_0
  10
166.74915
  20
300.10934
  0
VERTEX
  5
1c2
  8
Layer_0
  10
166.60425
  20
299.95432
  0
VERTEX
  5
1c3
  8
Layer_0
  10
166.48169
  20
299.77869
  0
VERTEX
  5
1c4
  8
Layer_0
  10
166.38409
  20
299.58423
  0
VERTEX
  5
1c5
  8
Layer_0
  10
166.36334
  20
299.53143
  0
VERTEX
  5
1c6
  8
Layer_0
  10
166.30267
  20
299.32251
  0
VERTEX
  5
1c7
  8
Layer_0
  10
166.27307
  20
299.11038
  0
VERTEX
  5
1c8
  8
Layer_0
  10
166.27393
  20
298.89822
  0
VERTEX
  5
1c9
  8
Layer_0
  10
166.30444
  20
298.68924
  0
VERTEX
  5
1ca
  8
Layer_0
  10
166.36395
  20
298.48657
  0
VERTEX
  5
1cb
  8
Layer_0
  10
166.45178
  20
298.29346
  0
VERTEX
  5
1cc
  8
Layer_0
  10
166.56726
  20
298.11304
  0
VERTEX
  5
1cd
  8
Layer_0
  10
166.70959
  20
297.94852
  0
VERTEX
  5
1ce
  8
Layer_0
  10
166.88025
  20
297.80176
  0
VERTEX
  5
1cf
  8
Layer_0
  10
167.06757
  20
297.6839
  0
VERTEX
  5
1d0
  8
Layer_0
  10
167.26819
  20
297.59564
  0
VERTEX
  5
1d1
  8
Layer_0
  10
167.47852
  20
297.53772
  0
VERTEX
  5
1d2
  8
Layer_0
  10
167.69501
  20
297.5108
  0
VERTEX
  5
1d3
  8
Layer_0
  10
167.91406
  20
297.51559
  0
VERTEX
  5
1d4
  8
Layer_0
  10
168.13232
  20
297.55283
  0
VERTEX
  5
1d5
  8
Layer_0
  10
168.34607
  20
297.62317
  0
SEQEND
  0
POLYLINE
  5
1d7
  8
Layer_0
  62
0
  70
1
  66
1
  10
0
  20
0
  30
0
  0
VERTEX
  5
1d7
  8
Layer_0
  10
445.49768
  20
318.05969
  0
VERTEX
  5
1d8
  8
Layer_0
  10
445.46854
  20
318.35379
  0
VERTEX
  5
1d9
  8
Layer_0
  10
445.38336
  20
318.63391
  0
VERTEX
  5
1da
  8
Layer_0
  10
445.24536
  20
318.89215
  0
VERTEX
  5
1db
  8
Layer_0
  10
445.05786
  20
319.12067
  0
VERTEX
  5
1dc
  8
Layer_0
  10
444.84479
  20
319.29752
  0
VERTEX
  5
1dd
  8
Layer_0
  10
444.60492
  20
319.43127
  0
VERTEX
  5
1de
  8
Layer_0
  10
444.34467
  20
319.51917
  0
VERTEX
  5
1df
  8
Layer_0
  10
444.0705
  20
319.55832
  0
VERTEX
  5
1e0
  8
Layer_0
  10
443.99603
  20
319.56018
  0
VERTEX
  5
1e1
  8
Layer_0
  10
443.93927
  20
319.55908
  0
VERTEX
  5
1e2
  8
Layer_0
  10
443.72296
  20
319.53522
  0
VERTEX
  5
1e3
  8
Layer_0
  10
443.51559
  20
319.48138
  0
VERTEX
  5
1e4
  8
Layer_0
  10
443.31982
  20
319.39948
  0
VERTEX
  5
1e5
  8
Layer_0
  10
443.13831
  20
319.29132
  0
VERTEX
  5
1e6
  8
Layer_0
  10
442.97375
  20
319.15881
  0
VERTEX
  5
1e7
  8
Layer_0
  10
442.82886
  20
319.00385
  0
VERTEX
  5
1e8
  8
Layer_0
  10
442.70627
  20
318.82825
  0
VERTEX
  5
1e9
  8
Layer_0
  10
442.6087
  20
318.63391
  0
VERTEX
  5
1ea
  8
Layer_0
  10
442.58795
  20
318.58109
  0
VERTEX
  5
1eb
  8
Layer_0
  10
442.52728
  20
318.37225
  0
VERTEX
  5
1ec
  8
Layer_0
  10
442.49768
  20
318.16022
  0
VERTEX
  5
1ed
  8
Layer_0
  10
442.49847
  20
317.94812
  0
VERTEX
  5
1ee
  8
Layer_0
  10
442.52899
  20
317.7392
  0
VERTEX
  5
1ef
  8
Layer_0
  10
442.5885
  20
317.53659
  0
VERTEX
  5
1f0
  8
Layer_0
  10
442.67636
  20
317.34351
  0
VERTEX
  5
1f1
  8
Layer_0
  10
442.79181
  20
317.16315
  0
VERTEX
  5
1f2
  8
Layer_0
  10
442.9342
  20
316.99869
  0
VERTEX
  5
1f3
  8
Layer_0
  10
442.9751
  20
316.95935
  0
VERTEX
  5
1f4
  8
Layer_0
  10
443.14496
  20
316.82339
  0
VERTEX
  5
1f5
  8
Layer_0
  10
443.32971
  20
316.71494
  0
VERTEX
  5
1f6
  8
Layer_0
  10
443.52609
  20
316.63452
  0
VERTEX
  5
1f7
  8
Layer_0
  10
443.73096
  20
316.58276
  0
VERTEX
  5
1f8
  8
Layer_0
  10
443.94104
  20
316.56018
  0
VERTEX
  5
1f9
  8
Layer_0
  10
444.15317
  20
316.56738
  0
VERTEX
  5
1fa
  8
Layer_0
  10
444.36411
  20
316.60492
  0
VERTEX
  5
1fb
  8
Layer_0
  10
444.57068
  20
316.67343
  0
VERTEX
  5
1fc
  8
Layer_0
  10
444.77161
  20
316.77478
  0
VERTEX
  5
1fd
  8
Layer_0
  10
444.95227
  20
316.90265
  0
VERTEX
  5
1fe
  8
Layer_0
  10
445.1106
  20
317.05408
  0
VERTEX
  5
1ff
  8
Layer_0
  10
445.24463
  20
317.22604
  0
VERTEX
  5
200
  8
Layer_0
  10
445.35233
  20
317.41559
  0
VERTEX
  5
201
  8
Layer_0
  10
445.43176
  20
317.61969
  0
VERTEX
  5
202
  8
Layer_0
  10
445.48087
  20
317.83539
  0
VERTEX
  5
203
  8
Layer_0
  10
445.49768
  20
318.05969
  0
SEQEND
  0
POLYLINE
  5
205
  8
Layer_0
  62
0
  70
1
  66
1
  10
0
  20
0
  30
0
  0
VERTEX
  5
205
  8
Layer_0
  10
168.34607
  20
316.6731
  0
VERTEX
  5
206
  8
Layer_0
  10
168.547
  20
316.77451
  0
VERTEX
  5
207
  8
Layer_0
  10
168.72766
  20
316.9024
  0
VERTEX
  5
208
  8
Layer_0
  10
168.88599
  20
317.05389
  0
VERTEX
  5
209
  8
Layer_0
  10
169.02002
  20
317.22589
  0
VERTEX
  5
20a
  8
Layer_0
  10
169.12775
  20
317.4155
  0
VERTEX
  5
20b
  8
Layer_0
  10
169.20715
  20
317.61969
  0
VERTEX
  5
20c
  8
Layer_0
  10
169.25623
  20
317.83545
  0
VERTEX
  5
20d
  8
Layer_0
  10
169.27301
  20
318.05981
  0
VERTEX
  5
20e
  8
Layer_0
  10
169.2439
  20
318.354
  0
VERTEX
  5
20f
  8
Layer_0
  10
169.15869
  20
318.63422
  0
VERTEX
  5
210
  8
Layer_0
  10
169.02075
  20
318.89255
  0
VERTEX
  5
211
  8
Layer_0
  10
168.83319
  20
319.12115
  0
VERTEX
  5
212
  8
Layer_0
  10
168.69482
  20
319.24344
  0
VERTEX
  5
213
  8
Layer_0
  10
168.54236
  20
319.34784
  0
VERTEX
  5
214
  8
Layer_0
  10
168.36182
  20
319.43988
  0
VERTEX
  5
215
  8
Layer_0
  10
168.17133
  20
319.50653
  0
VERTEX
  5
216
  8
Layer_0
  10
167.97363
  20
319.54706
  0
VERTEX
  5
217
  8
Layer_0
  10
167.77142
  20
319.56076
  0
VERTEX
  5
218
  8
Layer_0
  10
167.71466
  20
319.55969
  0
VERTEX
  5
219
  8
Layer_0
  10
167.49835
  20
319.53577
  0
VERTEX
  5
21a
  8
Layer_0
  10
167.29095
  20
319.48193
  0
VERTEX
  5
21b
  8
Layer_0
  10
167.09515
  20
319.40002
  0
VERTEX
  5
21c
  8
Layer_0
  10
166.9137
  20
319.29184
  0
VERTEX
  5
21d
  8
Layer_0
  10
166.74915
  20
319.1593
  0
VERTEX
  5
21e
  8
Layer_0
  10
166.60425
  20
319.00427
  0
VERTEX
  5
21f
  8
Layer_0
  10
166.48169
  20
318.82861
  0
VERTEX
  5
220
  8
Layer_0
  10
166.38409
  20
318.63422
  0
VERTEX
  5
221
  8
Layer_0
  10
166.36334
  20
318.58136
  0
VERTEX
  5
222
  8
Layer_0
  10
166.30267
  20
318.3725
  0
VERTEX
  5
223
  8
Layer_0
  10
166.27307
  20
318.16037
  0
VERTEX
  5
224
  8
Layer_0
  10
166.27393
  20
317.94821
  0
VERTEX
  5
225
  8
Layer_0
  10
166.30444
  20
317.7392
  0
VERTEX
  5
226
  8
Layer_0
  10
166.36395
  20
317.53653
  0
VERTEX
  5
227
  8
Layer_0
  10
166.45178
  20
317.34341
  0
VERTEX
  5
228
  8
Layer_0
  10
166.56726
  20
317.16299
  0
VERTEX
  5
229
  8
Layer_0
  10
166.70959
  20
316.99847
  0
VERTEX
  5
22a
  8
Layer_0
  10
166.88025
  20
316.85168
  0
VERTEX
  5
22b
  8
Layer_0
  10
167.06757
  20
316.73383
  0
VERTEX
  5
22c
  8
Layer_0
  10
167.26819
  20
316.6456
  0
VERTEX
  5
22d
  8
Layer_0
  10
167.47852
  20
316.58765
  0
VERTEX
  5
22e
  8
Layer_0
  10
167.69501
  20
316.56073
  0
VERTEX
  5
22f
  8
Layer_0
  10
167.91406
  20
316.56555
  0
VERTEX
  5
230
  8
Layer_0
  10
168.13232
  20
316.60278
  0
VERTEX
  5
231
  8
Layer_0
  10
168.34607
  20
316.6731
  0
SEQEND
  0
POLYLINE
  5
233
  8
Layer_0
  62
0
  70
1
  66
1
  10
0
  20
0
  30
0
  0
VERTEX
  5
233
  8
Layer_0
  10
442.9342
  20
297.94873
  0
VERTEX
  5
234
  8
Layer_0
  10
442.97507
  20
297.90936
  0
VERTEX
  5
235
  8
Layer_0
  10
443.14496
  20
297.77344
  0
VERTEX
  5
236
  8
Layer_0
  10
443.32965
  20
297.66495
  0
VERTEX
  5
237
  8
Layer_0
  10
443.52603
  20
297.58453
  0
VERTEX
  5
238
  8
Layer_0
  10
443.7309
  20
297.53275
  0
VERTEX
  5
239
  8
Layer_0
  10
443.94101
  20
297.51016
  0
VERTEX
  5
23a
  8
Layer_0
  10
444.15314
  20
297.51736
  0
VERTEX
  5
23b
  8
Layer_0
  10
444.36407
  20
297.55496
  0
VERTEX
  5
23c
  8
Layer_0
  10
444.57062
  20
297.62347
  0
VERTEX
  5
23d
  8
Layer_0
  10
444.77155
  20
297.72482
  0
VERTEX
  5
23e
  8
Layer_0
  10
444.95221
  20
297.85272
  0
VERTEX
  5
23f
  8
Layer_0
  10
445.1105
  20
298.00412
  0
VERTEX
  5
240
  8
Layer_0
  10
445.24454
  20
298.17609
  0
VERTEX
  5
241
  8
Layer_0
  10
445.35223
  20
298.36563
  0
VERTEX
  5
242
  8
Layer_0
  10
445.43167
  20
298.56973
  0
VERTEX
  5
243
  8
Layer_0
  10
445.4808
  20
298.78543
  0
VERTEX
  5
244
  8
Layer_0
  10
445.49762
  20
299.0097
  0
VERTEX
  5
245
  8
Layer_0
  10
445.46851
  20
299.3038
  0
VERTEX
  5
246
  8
Layer_0
  10
445.3833
  20
299.58392
  0
VERTEX
  5
247
  8
Layer_0
  10
445.2453
  20
299.84216
  0
VERTEX
  5
248
  8
Layer_0
  10
445.0578
  20
300.07068
  0
VERTEX
  5
249
  8
Layer_0
  10
444.86011
  20
300.23679
  0
VERTEX
  5
24a
  8
Layer_0
  10
444.63855
  20
300.36578
  0
VERTEX
  5
24b
  8
Layer_0
  10
444.39828
  20
300.45529
  0
VERTEX
  5
24c
  8
Layer_0
  10
444.14441
  20
300.50281
  0
VERTEX
  5
24d
  8
Layer_0
  10
444.07031
  20
300.50839
  0
VERTEX
  5
24e
  8
Layer_0
  10
443.996
  20
300.51016
  0
VERTEX
  5
24f
  8
Layer_0
  10
443.93924
  20
300.50909
  0
VERTEX
  5
250
  8
Layer_0
  10
443.72293
  20
300.4852
  0
VERTEX
  5
251
  8
Layer_0
  10
443.51556
  20
300.4314
  0
VERTEX
  5
252
  8
Layer_0
  10
443.31976
  20
300.34949
  0
VERTEX
  5
253
  8
Layer_0
  10
443.13828
  20
300.24133
  0
VERTEX
  5
254
  8
Layer_0
  10
442.97375
  20
300.10883
  0
VERTEX
  5
255
  8
Layer_0
  10
442.82886
  20
299.95386
  0
VERTEX
  5
256
  8
Layer_0
  10
442.70624
  20
299.77826
  0
VERTEX
  5
257
  8
Layer_0
  10
442.60867
  20
299.58392
  0
VERTEX
  5
258
  8
Layer_0
  10
442.58795
  20
299.5311
  0
VERTEX
  5
259
  8
Layer_0
  10
442.52722
  20
299.32227
  0
VERTEX
  5
25a
  8
Layer_0
  10
442.49762
  20
299.11023
  0
VERTEX
  5
25b
  8
Layer_0
  10
442.49847
  20
298.89813
  0
VERTEX
  5
25c
  8
Layer_0
  10
442.52899
  20
298.68921
  0
VERTEX
  5
25d
  8
Layer_0
  10
442.5885
  20
298.4866
  0
VERTEX
  5
25e
  8
Layer_0
  10
442.67636
  20
298.29355
  0
VERTEX
  5
25f
  8
Layer_0
  10
442.79181
  20
298.11319
  0
VERTEX
  5
260
  8
Layer_0
  10
442.9342
  20
297.94873
  0
SEQEND
  0
POLYLINE
  5
262
  8
Layer_0
  62
0
  70
1
  66
1
  10
0
  20
0
  30
0
  0
VERTEX
  5
262
  8
Layer_0
  10
307.38535
  20
318.05969
  0
VERTEX
  5
263
  8
Layer_0
  10
307.35693
  20
318.35175
  0
VERTEX
  5
264
  8
Layer_0
  10
307.27515
  20
318.62506
  0
VERTEX
  5
265
  8
Layer_0
  10
307.14526
  20
318.87408
  0
VERTEX
  5
266
  8
Layer_0
  10
306.97263
  20
319.09314
  0
VERTEX
  5
267
  8
Layer_0
  10
306.76257
  20
319.27667
  0
VERTEX
  5
268
  8
Layer_0
  10
306.52039
  20
319.41913
  0
VERTEX
  5
269
  8
Layer_0
  10
306.25143
  20
319.51483
  0
VERTEX
  5
26a
  8
Layer_0
  10
305.961
  20
319.55823
  0
VERTEX
  5
26b
  8
Layer_0
  10
305.88373
  20
319.56018
  0
VERTEX
  5
26c
  8
Layer_0
  10
305.82697
  20
319.55908
  0
VERTEX
  5
26d
  8
Layer_0
  10
305.61063
  20
319.53522
  0
VERTEX
  5
26e
  8
Layer_0
  10
305.40326
  20
319.48138
  0
VERTEX
  5
26f
  8
Layer_0
  10
305.20746
  20
319.39948
  0
VERTEX
  5
270
  8
Layer_0
  10
305.02597
  20
319.29132
  0
VERTEX
  5
271
  8
Layer_0
  10
304.86145
  20
319.15881
  0
VERTEX
  5
272
  8
Layer_0
  10
304.71655
  20
319.00385
  0
VERTEX
  5
273
  8
Layer_0
  10
304.59393
  20
318.82825
  0
VERTEX
  5
274
  8
Layer_0
  10
304.49637
  20
318.63391
  0
VERTEX
  5
275
  8
Layer_0
  10
304.47565
  20
318.58109
  0
VERTEX
  5
276
  8
Layer_0
  10
304.41495
  20
318.37225
  0
VERTEX
  5
277
  8
Layer_0
  10
304.38538
  20
318.16022
  0
VERTEX
  5
278
  8
Layer_0
  10
304.38617
  20
317.94812
  0
VERTEX
  5
279
  8
Layer_0
  10
304.41669
  20
317.7392
  0
VERTEX
  5
27a
  8
Layer_0
  10
304.4762
  20
317.53659
  0
VERTEX
  5
27b
  8
Layer_0
  10
304.56406
  20
317.34351
  0
VERTEX
  5
27c
  8
Layer_0
  10
304.6795
  20
317.16315
  0
VERTEX
  5
27d
  8
Layer_0
  10
304.8219
  20
316.99869
  0
VERTEX
  5
27e
  8
Layer_0
  10
304.86279
  20
316.95935
  0
VERTEX
  5
27f
  8
Layer_0
  10
305.03265
  20
316.82339
  0
VERTEX
  5
280
  8
Layer_0
  10
305.21738
  20
316.71494
  0
VERTEX
  5
281
  8
Layer_0
  10
305.41379
  20
316.63452
  0
VERTEX
  5
282
  8
Layer_0
  10
305.61865
  20
316.58273
  0
VERTEX
  5
283
  8
Layer_0
  10
305.82874
  20
316.56018
  0
VERTEX
  5
284
  8
Layer_0
  10
306.04086
  20
316.56735
  0
VERTEX
  5
285
  8
Layer_0
  10
306.25183
  20
316.60492
  0
VERTEX
  5
286
  8
Layer_0
  10
306.45837
  20
316.67343
  0
VERTEX
  5
287
  8
Layer_0
  10
306.6593
  20
316.77478
  0
VERTEX
  5
288
  8
Layer_0
  10
306.83997
  20
316.90265
  0
VERTEX
  5
289
  8
Layer_0
  10
306.99829
  20
317.05408
  0
VERTEX
  5
28a
  8
Layer_0
  10
307.13232
  20
317.22607
  0
VERTEX
  5
28b
  8
Layer_0
  10
307.24005
  20
317.41562
  0
VERTEX
  5
28c
  8
Layer_0
  10
307.31946
  20
317.61972
  0
VERTEX
  5
28d
  8
Layer_0
  10
307.36859
  20
317.83539
  0
VERTEX
  5
28e
  8
Layer_0
  10
307.38535
  20
318.05969
  0
SEQEND
  0
POLYLINE
  5
290
  8
Layer_0
  62
0
  70
1
  66
1
  10
0
  20
0
  30
0
  0
VERTEX
  5
290
  8
Layer_0
  10
163.00854
  20
320.4408
  0
VERTEX
  5
291
  8
Layer_0
  10
163.04907
  20
320.87817
  0
VERTEX
  5
292
  8
Layer_0
  10
163.16785
  20
321.29724
  0
VERTEX
  5
293
  8
Layer_0
  10
163.36108
  20
321.68765
  0
VERTEX
  5
294
  8
Layer_0
  10
163.62457
  20
322.03903
  0
VERTEX
  5
295
  8
Layer_0
  10
163.70599
  20
322.1246
  0
VERTEX
  5
296
  8
Layer_0
  10
164.04382
  20
322.40521
  0
VERTEX
  5
297
  8
Layer_0
  10
164.42419
  20
322.61752
  0
VERTEX
  5
298
  8
Layer_0
  10
164.83685
  20
322.75699
  0
VERTEX
  5
299
  8
Layer_0
  10
165.27167
  20
322.81912
  0
VERTEX
  5
29a
  8
Layer_0
  10
165.38977
  20
322.82205
  0
VERTEX
  5
29b
  8
Layer_0
  10
446.43826
  20
322.82129
  0
VERTEX
  5
29c
  8
Layer_0
  10
446.90857
  20
322.76245
  0
VERTEX
  5
29d
  8
Layer_0
  10
447.34537
  20
322.61697
  0
VERTEX
  5
29e
  8
Layer_0
  10
447.73962
  20
322.39404
  0
VERTEX
  5
29f
  8
Layer_0
  10
448.08237
  20
322.10291
  0
VERTEX
  5
2a0
  8
Layer_0
  10
448.36456
  20
321.75278
  0
VERTEX
  5
2a1
  8
Layer_0
  10
448.57724
  20
321.35291
  0
VERTEX
  5
2a2
  8
Layer_0
  10
448.7114
  20
320.91251
  0
VERTEX
  5
2a3
  8
Layer_0
  10
448.75806
  20
320.4408
  0
VERTEX
  5
2a4
  8
Layer_0
  10
448.75806
  20
201.37851
  0
VERTEX
  5
2a5
  8
Layer_0
  10
448.71201
  20
200.91168
  0
VERTEX
  5
2a6
  8
Layer_0
  10
448.57703
  20
200.46704
  0
VERTEX
  5
2a7
  8
Layer_0
  10
448.35825
  20
200.0571
  0
VERTEX
  5
2a8
  8
Layer_0
  10
448.06088
  20
199.69434
  0
VERTEX
  5
2a9
  8
Layer_0
  10
447.69815
  20
199.39691
  0
VERTEX
  5
2aa
  8
Layer_0
  10
447.28821
  20
199.17813
  0
VERTEX
  5
2ab
  8
Layer_0
  10
446.84363
  20
199.04315
  0
VERTEX
  5
2ac
  8
Layer_0
  10
446.3768
  20
198.99725
  0
VERTEX
  5
2ad
  8
Layer_0
  10
165.38977
  20
198.99725
  0
VERTEX
  5
2ae
  8
Layer_0
  10
164.90979
  20
199.04556
  0
VERTEX
  5
2af
  8
Layer_0
  10
164.46277
  20
199.18427
  0
VERTEX
  5
2b0
  8
Layer_0
  10
164.05823
  20
199.40378
  0
VERTEX
  5
2b1
  8
Layer_0
  10
163.70581
  20
199.69455
  0
VERTEX
  5
2b2
  8
Layer_0
  10
163.41504
  20
200.047
  0
VERTEX
  5
2b3
  8
Layer_0
  10
163.19556
  20
200.45154
  0
VERTEX
  5
2b4
  8
Layer_0
  10
163.05682
  20
200.89856
  0
VERTEX
  5
2b5
  8
Layer_0
  10
163.00854
  20
201.37851
  0
VERTEX
  5
2b6
  8
Layer_0
  10
163.00854
  20
320.4408
  0
SEQEND
  0
ENDSEC
  0
EOF
